G04*
G04 #@! TF.GenerationSoftware,Altium Limited,Altium Designer,20.0.2 (26)*
G04*
G04 Layer_Color=16711935*
%FSLAX25Y25*%
%MOIN*%
G70*
G01*
G75*
%ADD64C,0.04737*%
%ADD65R,0.04737X0.04737*%
%ADD66C,0.11036*%
%ADD67C,0.03200*%
G54D64*
X-6000Y58907D02*
D03*
Y53986D02*
D03*
Y49065D02*
D03*
Y44144D02*
D03*
Y39222D02*
D03*
Y34301D02*
D03*
Y29380D02*
D03*
Y24459D02*
D03*
Y19537D02*
D03*
G54D65*
Y14616D02*
D03*
G54D66*
X-159669Y-22689D02*
D03*
X-25811D02*
D03*
Y91484D02*
D03*
X-159669D02*
D03*
X7874Y66929D02*
D03*
X66929Y66929D02*
D03*
Y7874D02*
D03*
X7874D02*
D03*
G54D67*
X-19500Y86000D02*
D03*
Y70000D02*
D03*
X-15500Y62000D02*
D03*
Y46000D02*
D03*
X-19500Y38000D02*
D03*
X-15500Y30000D02*
D03*
Y14000D02*
D03*
X-19500Y6000D02*
D03*
Y-10000D02*
D03*
Y-26000D02*
D03*
X-23500Y78000D02*
D03*
X-27500Y70000D02*
D03*
X-23500Y62000D02*
D03*
Y30000D02*
D03*
X-35500Y86000D02*
D03*
X-31500Y78000D02*
D03*
X-35500Y70000D02*
D03*
X-31500Y62000D02*
D03*
Y14000D02*
D03*
Y-18000D02*
D03*
X-35500Y-26000D02*
D03*
X-39500Y94000D02*
D03*
X-43500Y22000D02*
D03*
X-39500Y14000D02*
D03*
Y-18000D02*
D03*
X-43500Y-26000D02*
D03*
X-47500Y-18000D02*
D03*
X-51500Y-26000D02*
D03*
X-55500Y94000D02*
D03*
X-59500Y70000D02*
D03*
Y22000D02*
D03*
X-55500Y14000D02*
D03*
X-59500Y6000D02*
D03*
X-55500Y-18000D02*
D03*
X-59500Y-26000D02*
D03*
X-63500Y94000D02*
D03*
X-67500Y70000D02*
D03*
Y54000D02*
D03*
Y38000D02*
D03*
X-63500Y14000D02*
D03*
X-67500Y-10000D02*
D03*
X-63500Y-18000D02*
D03*
X-67500Y-26000D02*
D03*
X-71500Y78000D02*
D03*
X-75500Y70000D02*
D03*
X-71500Y-18000D02*
D03*
X-75500Y-26000D02*
D03*
X-79500Y94000D02*
D03*
X-83500Y86000D02*
D03*
X-79500Y46000D02*
D03*
X-83500Y38000D02*
D03*
Y-26000D02*
D03*
X-87500Y94000D02*
D03*
X-91500Y38000D02*
D03*
Y-26000D02*
D03*
X-95500Y94000D02*
D03*
X-99500Y70000D02*
D03*
Y-26000D02*
D03*
X-107500Y70000D02*
D03*
X-103500Y62000D02*
D03*
X-107500Y22000D02*
D03*
Y-26000D02*
D03*
X-111500Y62000D02*
D03*
Y46000D02*
D03*
X-115500Y6000D02*
D03*
X-111500Y-18000D02*
D03*
X-115500Y-26000D02*
D03*
X-119500Y94000D02*
D03*
X-123500Y22000D02*
D03*
X-119500Y-18000D02*
D03*
X-123500Y-26000D02*
D03*
X-127500Y94000D02*
D03*
X-131500Y86000D02*
D03*
X-127500Y30000D02*
D03*
X-131500Y22000D02*
D03*
Y6000D02*
D03*
Y-10000D02*
D03*
X-127500Y-18000D02*
D03*
X-131500Y-26000D02*
D03*
X-135500Y94000D02*
D03*
X-139500Y86000D02*
D03*
Y70000D02*
D03*
X-135500Y62000D02*
D03*
X-139500Y38000D02*
D03*
X-135500Y30000D02*
D03*
X-139500Y22000D02*
D03*
Y6000D02*
D03*
X-135500Y-2000D02*
D03*
X-139500Y-10000D02*
D03*
X-135500Y-18000D02*
D03*
X-139500Y-26000D02*
D03*
X-143500Y94000D02*
D03*
X-147500Y86000D02*
D03*
X-143500Y78000D02*
D03*
Y46000D02*
D03*
X-147500Y38000D02*
D03*
X-143500Y30000D02*
D03*
X-147500Y22000D02*
D03*
X-143500Y-2000D02*
D03*
X-147500Y-10000D02*
D03*
X-143500Y-18000D02*
D03*
X-147500Y-26000D02*
D03*
X-151500Y94000D02*
D03*
Y78000D02*
D03*
Y30000D02*
D03*
X-155500Y22000D02*
D03*
X-151500Y-2000D02*
D03*
Y-18000D02*
D03*
X-163500Y54000D02*
D03*
X-159500Y46000D02*
D03*
X-163500Y22000D02*
D03*
X-159500Y14000D02*
D03*
X-163500Y6000D02*
D03*
X-159500Y-2000D02*
D03*
X-75615Y4860D02*
D03*
X-82366Y3013D02*
D03*
X-84866Y-12500D02*
D03*
X-94177Y-10000D02*
D03*
X-99253Y-889D02*
D03*
X-112006Y52159D02*
D03*
X-123833Y26961D02*
D03*
X-123882Y34836D02*
D03*
X-54269Y9291D02*
D03*
X-50811Y18482D02*
D03*
X-41500Y25689D02*
D03*
X-46382Y58392D02*
D03*
X-54416Y66724D02*
D03*
X-54428Y72632D02*
D03*
X-56632Y79072D02*
D03*
X-62632D02*
D03*
X-92403Y86064D02*
D03*
X-117006Y80426D02*
D03*
X-145000Y54000D02*
D03*
X-59500Y89500D02*
D03*
X-80663Y89512D02*
D03*
X-73052Y53794D02*
D03*
Y28500D02*
D03*
X-142171Y7529D02*
D03*
X-122559Y2676D02*
D03*
X-103627Y-15000D02*
D03*
X-43597Y62392D02*
D03*
X-70493Y2232D02*
D03*
X-101500Y-6000D02*
D03*
X-41500Y42161D02*
D03*
X-46897D02*
D03*
X-66405Y34618D02*
D03*
X-27053Y48878D02*
D03*
Y43630D02*
D03*
X-68000Y48500D02*
D03*
Y43406D02*
D03*
X-31100Y36516D02*
D03*
X-133500Y12500D02*
D03*
Y18000D02*
D03*
X-94965Y44390D02*
D03*
X-91677Y69000D02*
D03*
X-117500D02*
D03*
X-132500Y68500D02*
D03*
X-86894Y56486D02*
D03*
X-92406D02*
D03*
X-87500Y10500D02*
D03*
X-86894Y-5067D02*
D03*
X50074Y72000D02*
D03*
X42090D02*
D03*
X34106D02*
D03*
X26123D02*
D03*
X55919Y6375D02*
D03*
X47935D02*
D03*
X39952D02*
D03*
X31968D02*
D03*
X23984D02*
D03*
X16000D02*
D03*
Y17705D02*
D03*
X7874Y34618D02*
D03*
X8016Y25689D02*
D03*
X58176Y53736D02*
D03*
X52176D02*
D03*
X29000D02*
D03*
X15858Y69166D02*
D03*
X71293Y59580D02*
D03*
Y18602D02*
D03*
X7874Y43406D02*
D03*
X53551Y69166D02*
D03*
X62259Y26500D02*
D03*
X40559Y30500D02*
D03*
X46583Y41433D02*
D03*
X16000Y25689D02*
D03*
X15858Y43406D02*
D03*
X39500Y22500D02*
D03*
X71000Y35500D02*
D03*
X40559Y41433D02*
D03*
X63000Y45000D02*
D03*
X40559Y34819D02*
D03*
X59000Y15500D02*
D03*
X68500Y50295D02*
D03*
X50500Y26673D02*
D03*
M02*
