G04*
G04 #@! TF.GenerationSoftware,Altium Limited,Altium Designer,20.0.2 (26)*
G04*
G04 Layer_Color=8388736*
%FSLAX25Y25*%
%MOIN*%
G70*
G01*
G75*
%ADD43R,0.02572X0.04737*%
%ADD44R,0.04737X0.02572*%
%ADD45R,0.04934X0.05918*%
%ADD46R,0.03950X0.07099*%
%ADD47R,0.08674X0.12611*%
%ADD48O,0.07870X0.01902*%
%ADD49O,0.01902X0.07870*%
%ADD50R,0.07099X0.03950*%
%ADD51R,0.12611X0.08674*%
%ADD52R,0.03556X0.06706*%
%ADD53R,0.03800X0.03800*%
%ADD54R,0.03800X0.03800*%
G04:AMPARAMS|DCode=55|XSize=68mil|YSize=58mil|CornerRadius=0mil|HoleSize=0mil|Usage=FLASHONLY|Rotation=180.000|XOffset=0mil|YOffset=0mil|HoleType=Round|Shape=Octagon|*
%AMOCTAGOND55*
4,1,8,-0.03400,0.01450,-0.03400,-0.01450,-0.01950,-0.02900,0.01950,-0.02900,0.03400,-0.01450,0.03400,0.01450,0.01950,0.02900,-0.01950,0.02900,-0.03400,0.01450,0.0*
%
%ADD55OCTAGOND55*%

%ADD56R,0.06800X0.05800*%
%ADD57R,0.03359X0.06600*%
%ADD58R,0.08674X0.07887*%
%ADD59R,0.05524X0.01981*%
%ADD60R,0.04343X0.03359*%
%ADD61R,0.04343X0.02769*%
%ADD62R,0.01784X0.04737*%
%ADD63R,0.04737X0.01784*%
%ADD64C,0.04737*%
%ADD65R,0.04737X0.04737*%
%ADD66C,0.11036*%
%ADD67C,0.03200*%
G54D43*
X-50240Y78488D02*
D03*
X-42760Y78488D02*
D03*
X-46500Y89512D02*
D03*
X-42760D02*
D03*
X-50240D02*
D03*
G54D44*
X46271Y55840D02*
D03*
Y63321D02*
D03*
X35247Y59580D02*
D03*
Y63321D02*
D03*
Y55840D02*
D03*
G54D45*
X-86894Y-5067D02*
D03*
Y3988D02*
D03*
X-94177D02*
D03*
Y-5067D02*
D03*
G54D46*
X-82564Y80435D02*
D03*
X-87485D02*
D03*
X-92406D02*
D03*
X-97328D02*
D03*
G54D47*
X-71764Y91500D02*
D03*
X-108236D02*
D03*
G54D48*
X-103760Y26958D02*
D03*
Y28927D02*
D03*
Y30895D02*
D03*
Y32864D02*
D03*
Y34832D02*
D03*
Y36801D02*
D03*
Y38769D02*
D03*
Y40738D02*
D03*
Y42706D02*
D03*
Y44675D02*
D03*
Y46643D02*
D03*
Y48612D02*
D03*
Y50580D02*
D03*
Y52549D02*
D03*
Y54517D02*
D03*
Y56486D02*
D03*
X-60060D02*
D03*
Y54517D02*
D03*
Y52549D02*
D03*
Y50580D02*
D03*
Y48612D02*
D03*
Y46643D02*
D03*
Y44675D02*
D03*
Y42706D02*
D03*
Y40738D02*
D03*
Y38769D02*
D03*
Y36801D02*
D03*
Y34832D02*
D03*
Y32864D02*
D03*
Y30895D02*
D03*
Y28927D02*
D03*
Y26958D02*
D03*
G54D49*
X-96674Y63572D02*
D03*
X-94705D02*
D03*
X-92737D02*
D03*
X-90768D02*
D03*
X-88800D02*
D03*
X-86831D02*
D03*
X-84863D02*
D03*
X-82894D02*
D03*
X-80926D02*
D03*
X-78957D02*
D03*
X-76989D02*
D03*
X-75020D02*
D03*
X-73052D02*
D03*
X-71083D02*
D03*
X-69115D02*
D03*
X-67146D02*
D03*
Y19872D02*
D03*
X-69115D02*
D03*
X-71083D02*
D03*
X-73052D02*
D03*
X-75020D02*
D03*
X-76989D02*
D03*
X-78957D02*
D03*
X-80926D02*
D03*
X-82894D02*
D03*
X-84863D02*
D03*
X-86831D02*
D03*
X-88800D02*
D03*
X-90768D02*
D03*
X-92737D02*
D03*
X-94705D02*
D03*
X-96674D02*
D03*
G54D50*
X-150629Y17790D02*
D03*
X-150629Y12869D02*
D03*
X-150629Y7948D02*
D03*
Y3026D02*
D03*
Y63846D02*
D03*
Y58925D02*
D03*
Y54004D02*
D03*
Y49082D02*
D03*
G54D51*
X-161695Y28590D02*
D03*
Y-7882D02*
D03*
Y74646D02*
D03*
Y38174D02*
D03*
G54D52*
X-113682Y10910D02*
D03*
Y-6807D02*
D03*
X-122541Y10910D02*
D03*
X-122541Y-6807D02*
D03*
G54D53*
X-122441Y45000D02*
D03*
X-127559Y45000D02*
D03*
X-46400Y48682D02*
D03*
X-51518D02*
D03*
X-137195Y12618D02*
D03*
X-142313D02*
D03*
X-137195Y18118D02*
D03*
X-142313D02*
D03*
X-113135Y34832D02*
D03*
X-118253D02*
D03*
X-31100Y1687D02*
D03*
X-25981D02*
D03*
X-31100Y-6012D02*
D03*
X-25981D02*
D03*
X-31100Y9287D02*
D03*
X-25981D02*
D03*
X-127694Y80488D02*
D03*
X-122576Y80488D02*
D03*
X-46382Y54517D02*
D03*
X-51500D02*
D03*
X-48787Y66720D02*
D03*
X-43669Y66720D02*
D03*
X-48798Y72628D02*
D03*
X-43680D02*
D03*
X-75611Y10489D02*
D03*
X-70493D02*
D03*
X-94135D02*
D03*
X-99253D02*
D03*
X-82366Y10489D02*
D03*
X-87484D02*
D03*
X-89847Y73452D02*
D03*
X-94965D02*
D03*
X-118204Y26958D02*
D03*
X-113086D02*
D03*
X48058Y15499D02*
D03*
X53176D02*
D03*
X30441Y29535D02*
D03*
X35559D02*
D03*
G54D54*
X-106612Y-889D02*
D03*
X-106612Y-6007D02*
D03*
X-50808Y24111D02*
D03*
Y29230D02*
D03*
X-106612Y10111D02*
D03*
X-106612Y4993D02*
D03*
X-56628Y84702D02*
D03*
Y89820D02*
D03*
X-62628Y84702D02*
D03*
X-62628Y89820D02*
D03*
X23467Y57294D02*
D03*
Y62412D02*
D03*
X68500Y43993D02*
D03*
Y38875D02*
D03*
X45000Y35500D02*
D03*
Y30382D02*
D03*
X58176Y57294D02*
D03*
Y62412D02*
D03*
X52176Y57294D02*
D03*
Y62412D02*
D03*
X29000Y57294D02*
D03*
Y62412D02*
D03*
G54D55*
X-48640Y1688D02*
D03*
Y-6012D02*
D03*
Y9288D02*
D03*
X30559Y15500D02*
D03*
G54D56*
X-38640Y1688D02*
D03*
Y-6012D02*
D03*
Y9288D02*
D03*
X40559Y15500D02*
D03*
G54D57*
X-117635Y52163D02*
D03*
X-122635Y52163D02*
D03*
X-127635D02*
D03*
X-132635Y52163D02*
D03*
Y73817D02*
D03*
X-127635Y73817D02*
D03*
X-122635Y73817D02*
D03*
X-117635Y73817D02*
D03*
G54D58*
X-23799Y56398D02*
D03*
Y18602D02*
D03*
X8799D02*
D03*
Y56398D02*
D03*
G54D59*
X-36201Y50295D02*
D03*
X-36201Y48327D02*
D03*
X-36201Y46358D02*
D03*
X-36201Y44390D02*
D03*
X-36201Y42421D02*
D03*
Y40453D02*
D03*
Y38484D02*
D03*
Y36516D02*
D03*
Y34547D02*
D03*
Y32579D02*
D03*
X-36201Y30610D02*
D03*
X-36201Y28642D02*
D03*
X-36201Y26673D02*
D03*
X-36201Y24705D02*
D03*
X21201Y24705D02*
D03*
Y26673D02*
D03*
Y28642D02*
D03*
Y30610D02*
D03*
Y32579D02*
D03*
Y34547D02*
D03*
Y36516D02*
D03*
Y38484D02*
D03*
Y40453D02*
D03*
Y42421D02*
D03*
Y44390D02*
D03*
Y46358D02*
D03*
Y48327D02*
D03*
Y50295D02*
D03*
G54D60*
X29850Y44898D02*
D03*
Y34819D02*
D03*
X36150D02*
D03*
Y44898D02*
D03*
G54D61*
X29850Y41433D02*
D03*
Y38284D02*
D03*
X36150D02*
D03*
Y41433D02*
D03*
G54D62*
X57500Y28035D02*
D03*
Y44965D02*
D03*
G54D63*
X62815Y30595D02*
D03*
X62815Y32563D02*
D03*
X62815Y34532D02*
D03*
Y36500D02*
D03*
Y38469D02*
D03*
Y40437D02*
D03*
Y42406D02*
D03*
X52185D02*
D03*
Y40437D02*
D03*
Y38469D02*
D03*
Y36500D02*
D03*
Y34532D02*
D03*
X52185Y32563D02*
D03*
X52185Y30595D02*
D03*
G54D64*
X-6000Y58907D02*
D03*
Y53986D02*
D03*
Y49065D02*
D03*
Y44144D02*
D03*
Y39222D02*
D03*
Y34301D02*
D03*
Y29380D02*
D03*
Y24459D02*
D03*
Y19537D02*
D03*
G54D65*
Y14616D02*
D03*
G54D66*
X-159669Y-22689D02*
D03*
X-25811D02*
D03*
Y91484D02*
D03*
X-159669D02*
D03*
X7874Y66929D02*
D03*
X66929Y66929D02*
D03*
Y7874D02*
D03*
X7874D02*
D03*
G54D67*
X-19500Y86000D02*
D03*
Y70000D02*
D03*
X-15500Y62000D02*
D03*
Y46000D02*
D03*
X-19500Y38000D02*
D03*
X-15500Y30000D02*
D03*
Y14000D02*
D03*
X-19500Y6000D02*
D03*
Y-10000D02*
D03*
Y-26000D02*
D03*
X-23500Y78000D02*
D03*
X-27500Y70000D02*
D03*
X-23500Y62000D02*
D03*
Y30000D02*
D03*
X-35500Y86000D02*
D03*
X-31500Y78000D02*
D03*
X-35500Y70000D02*
D03*
X-31500Y62000D02*
D03*
Y14000D02*
D03*
Y-18000D02*
D03*
X-35500Y-26000D02*
D03*
X-39500Y94000D02*
D03*
X-43500Y22000D02*
D03*
X-39500Y14000D02*
D03*
Y-18000D02*
D03*
X-43500Y-26000D02*
D03*
X-47500Y-18000D02*
D03*
X-51500Y-26000D02*
D03*
X-55500Y94000D02*
D03*
X-59500Y70000D02*
D03*
Y22000D02*
D03*
X-55500Y14000D02*
D03*
X-59500Y6000D02*
D03*
X-55500Y-18000D02*
D03*
X-59500Y-26000D02*
D03*
X-63500Y94000D02*
D03*
X-67500Y70000D02*
D03*
Y54000D02*
D03*
Y38000D02*
D03*
X-63500Y14000D02*
D03*
X-67500Y-10000D02*
D03*
X-63500Y-18000D02*
D03*
X-67500Y-26000D02*
D03*
X-71500Y78000D02*
D03*
X-75500Y70000D02*
D03*
X-71500Y-18000D02*
D03*
X-75500Y-26000D02*
D03*
X-79500Y94000D02*
D03*
X-83500Y86000D02*
D03*
X-79500Y46000D02*
D03*
X-83500Y38000D02*
D03*
Y-26000D02*
D03*
X-87500Y94000D02*
D03*
X-91500Y38000D02*
D03*
Y-26000D02*
D03*
X-95500Y94000D02*
D03*
X-99500Y70000D02*
D03*
Y-26000D02*
D03*
X-107500Y70000D02*
D03*
X-103500Y62000D02*
D03*
X-107500Y22000D02*
D03*
Y-26000D02*
D03*
X-111500Y62000D02*
D03*
Y46000D02*
D03*
X-115500Y6000D02*
D03*
X-111500Y-18000D02*
D03*
X-115500Y-26000D02*
D03*
X-119500Y94000D02*
D03*
X-123500Y22000D02*
D03*
X-119500Y-18000D02*
D03*
X-123500Y-26000D02*
D03*
X-127500Y94000D02*
D03*
X-131500Y86000D02*
D03*
X-127500Y30000D02*
D03*
X-131500Y22000D02*
D03*
Y6000D02*
D03*
Y-10000D02*
D03*
X-127500Y-18000D02*
D03*
X-131500Y-26000D02*
D03*
X-135500Y94000D02*
D03*
X-139500Y86000D02*
D03*
Y70000D02*
D03*
X-135500Y62000D02*
D03*
X-139500Y38000D02*
D03*
X-135500Y30000D02*
D03*
X-139500Y22000D02*
D03*
Y6000D02*
D03*
X-135500Y-2000D02*
D03*
X-139500Y-10000D02*
D03*
X-135500Y-18000D02*
D03*
X-139500Y-26000D02*
D03*
X-143500Y94000D02*
D03*
X-147500Y86000D02*
D03*
X-143500Y78000D02*
D03*
Y46000D02*
D03*
X-147500Y38000D02*
D03*
X-143500Y30000D02*
D03*
X-147500Y22000D02*
D03*
X-143500Y-2000D02*
D03*
X-147500Y-10000D02*
D03*
X-143500Y-18000D02*
D03*
X-147500Y-26000D02*
D03*
X-151500Y94000D02*
D03*
Y78000D02*
D03*
Y30000D02*
D03*
X-155500Y22000D02*
D03*
X-151500Y-2000D02*
D03*
Y-18000D02*
D03*
X-163500Y54000D02*
D03*
X-159500Y46000D02*
D03*
X-163500Y22000D02*
D03*
X-159500Y14000D02*
D03*
X-163500Y6000D02*
D03*
X-159500Y-2000D02*
D03*
X-75615Y4860D02*
D03*
X-82366Y3013D02*
D03*
X-84866Y-12500D02*
D03*
X-94177Y-10000D02*
D03*
X-99253Y-889D02*
D03*
X-112006Y52159D02*
D03*
X-123833Y26961D02*
D03*
X-123882Y34836D02*
D03*
X-54269Y9291D02*
D03*
X-50811Y18482D02*
D03*
X-41500Y25689D02*
D03*
X-46382Y58392D02*
D03*
X-54416Y66724D02*
D03*
X-54428Y72632D02*
D03*
X-56632Y79072D02*
D03*
X-62632D02*
D03*
X-92403Y86064D02*
D03*
X-117006Y80426D02*
D03*
X-145000Y54000D02*
D03*
X-59500Y89500D02*
D03*
X-80663Y89512D02*
D03*
X-73052Y53794D02*
D03*
Y28500D02*
D03*
X-142171Y7529D02*
D03*
X-122559Y2676D02*
D03*
X-103627Y-15000D02*
D03*
X-43597Y62392D02*
D03*
X-70493Y2232D02*
D03*
X-101500Y-6000D02*
D03*
X-41500Y42161D02*
D03*
X-46897D02*
D03*
X-66405Y34618D02*
D03*
X-27053Y48878D02*
D03*
Y43630D02*
D03*
X-68000Y48500D02*
D03*
Y43406D02*
D03*
X-31100Y36516D02*
D03*
X-133500Y12500D02*
D03*
Y18000D02*
D03*
X-94965Y44390D02*
D03*
X-91677Y69000D02*
D03*
X-117500D02*
D03*
X-132500Y68500D02*
D03*
X-86894Y56486D02*
D03*
X-92406D02*
D03*
X-87500Y10500D02*
D03*
X-86894Y-5067D02*
D03*
X50074Y72000D02*
D03*
X42090D02*
D03*
X34106D02*
D03*
X26123D02*
D03*
X55919Y6375D02*
D03*
X47935D02*
D03*
X39952D02*
D03*
X31968D02*
D03*
X23984D02*
D03*
X16000D02*
D03*
Y17705D02*
D03*
X7874Y34618D02*
D03*
X8016Y25689D02*
D03*
X58176Y53736D02*
D03*
X52176D02*
D03*
X29000D02*
D03*
X15858Y69166D02*
D03*
X71293Y59580D02*
D03*
Y18602D02*
D03*
X7874Y43406D02*
D03*
X53551Y69166D02*
D03*
X62259Y26500D02*
D03*
X40559Y30500D02*
D03*
X46583Y41433D02*
D03*
X16000Y25689D02*
D03*
X15858Y43406D02*
D03*
X39500Y22500D02*
D03*
X71000Y35500D02*
D03*
X40559Y41433D02*
D03*
X63000Y45000D02*
D03*
X40559Y34819D02*
D03*
X59000Y15500D02*
D03*
X68500Y50295D02*
D03*
X50500Y26673D02*
D03*
M02*
