G04*
G04 #@! TF.GenerationSoftware,Altium Limited,Altium Designer,20.0.2 (26)*
G04*
G04 Layer_Color=16711935*
%FSLAX25Y25*%
%MOIN*%
G70*
G01*
G75*
%ADD10C,0.01000*%
G54D10*
X-25811Y-34500D02*
X-24836Y-34460D01*
X-23867Y-34339D01*
X-22912Y-34139D01*
X-21976Y-33860D01*
X-21067Y-33505D01*
X-20190Y-33077D01*
X-19351Y-32577D01*
X-18556Y-32010D01*
X-17812Y-31379D01*
X-17121Y-30688D01*
X-16490Y-29943D01*
X-15923Y-29149D01*
X-15424Y-28310D01*
X-14995Y-27433D01*
X-14640Y-26524D01*
X-14361Y-25588D01*
X-14161Y-24633D01*
X-14040Y-23664D01*
X-14000Y-22689D01*
X0Y3937D02*
X134Y2918D01*
X527Y1969D01*
X1153Y1153D01*
X1969Y527D01*
X2918Y134D01*
X3937Y0D01*
X70866D02*
X71885Y134D01*
X72835Y527D01*
X73650Y1153D01*
X74276Y1969D01*
X74669Y2918D01*
X74803Y3937D01*
Y70866D02*
X74669Y71885D01*
X74276Y72835D01*
X73650Y73650D01*
X72835Y74276D01*
X71885Y74669D01*
X70866Y74803D01*
X3937Y74803D02*
X2918Y74669D01*
X1969Y74276D01*
X1153Y73650D01*
X527Y72835D01*
X134Y71885D01*
X0Y70866D01*
X-14000Y91484D02*
X-14040Y92460D01*
X-14161Y93428D01*
X-14361Y94384D01*
X-14640Y95319D01*
X-14995Y96229D01*
X-15424Y97106D01*
X-15923Y97944D01*
X-16490Y98739D01*
X-17121Y99484D01*
X-17812Y100174D01*
X-18556Y100805D01*
X-19351Y101372D01*
X-20190Y101872D01*
X-21067Y102301D01*
X-21976Y102655D01*
X-22912Y102934D01*
X-23867Y103134D01*
X-24836Y103255D01*
X-25811Y103295D01*
X-159669D02*
X-160645Y103255D01*
X-161613Y103134D01*
X-162569Y102934D01*
X-163504Y102655D01*
X-164414Y102301D01*
X-165291Y101872D01*
X-166129Y101372D01*
X-166924Y100805D01*
X-167669Y100174D01*
X-168359Y99484D01*
X-168990Y98739D01*
X-169557Y97944D01*
X-170057Y97106D01*
X-170485Y96229D01*
X-170840Y95319D01*
X-171119Y94384D01*
X-171319Y93428D01*
X-171440Y92460D01*
X-171480Y91484D01*
Y-22689D02*
X-171440Y-23664D01*
X-171319Y-24633D01*
X-171119Y-25588D01*
X-170840Y-26524D01*
X-170485Y-27433D01*
X-170057Y-28310D01*
X-169557Y-29149D01*
X-168990Y-29943D01*
X-168359Y-30688D01*
X-167669Y-31379D01*
X-166924Y-32010D01*
X-166129Y-32577D01*
X-165291Y-33077D01*
X-164414Y-33505D01*
X-163504Y-33860D01*
X-162569Y-34139D01*
X-161613Y-34339D01*
X-160645Y-34460D01*
X-159669Y-34500D01*
X-25811D01*
X-14000Y-22689D02*
Y3937D01*
X0D01*
X3937Y0D02*
X70866D01*
X74803Y3937D02*
Y70866D01*
X3937Y74803D02*
X70866D01*
X3937Y74803D02*
X3937Y74803D01*
X-14000Y70866D02*
X0D01*
X-14000D02*
Y91484D01*
X-159669Y103295D02*
X-25811D01*
X-171480Y-22689D02*
Y91484D01*
M02*
