G04*
G04 #@! TF.GenerationSoftware,Altium Limited,Altium Designer,20.0.2 (26)*
G04*
G04 Layer_Physical_Order=1*
G04 Layer_Color=255*
%FSLAX25Y25*%
%MOIN*%
G70*
G01*
G75*
%ADD10C,0.01000*%
%ADD15C,0.00700*%
%ADD20C,0.00600*%
%ADD22R,0.01772X0.03937*%
%ADD23R,0.03937X0.01772*%
%ADD24R,0.04134X0.05118*%
%ADD25R,0.03150X0.06299*%
%ADD26R,0.07874X0.11811*%
%ADD27O,0.07070X0.01102*%
%ADD28O,0.01102X0.07070*%
%ADD29R,0.06299X0.03150*%
%ADD30R,0.11811X0.07874*%
%ADD31R,0.02756X0.05906*%
%ADD32R,0.03000X0.03000*%
%ADD33R,0.03000X0.03000*%
G04:AMPARAMS|DCode=34|XSize=60mil|YSize=50mil|CornerRadius=0mil|HoleSize=0mil|Usage=FLASHONLY|Rotation=180.000|XOffset=0mil|YOffset=0mil|HoleType=Round|Shape=Octagon|*
%AMOCTAGOND34*
4,1,8,-0.03000,0.01250,-0.03000,-0.01250,-0.01750,-0.02500,0.01750,-0.02500,0.03000,-0.01250,0.03000,0.01250,0.01750,0.02500,-0.01750,0.02500,-0.03000,0.01250,0.0*
%
%ADD34OCTAGOND34*%

%ADD35R,0.06000X0.05000*%
%ADD36R,0.02559X0.05800*%
%ADD37R,0.07874X0.07087*%
%ADD38R,0.04724X0.01181*%
%ADD39R,0.03543X0.02559*%
%ADD40R,0.03543X0.01968*%
%ADD41R,0.00984X0.03937*%
%ADD42R,0.03937X0.00984*%
%ADD68C,0.02000*%
%ADD69C,0.00900*%
%ADD70C,0.01600*%
%ADD71R,0.05000X0.19610*%
%ADD72R,0.04000X0.16578*%
%ADD73C,0.03937*%
%ADD74R,0.03937X0.03937*%
%ADD75C,0.10236*%
%ADD76C,0.02400*%
G36*
X-55120Y91215D02*
X-55060Y91132D01*
X-54960Y91059D01*
X-54820Y90995D01*
X-54640Y90942D01*
X-54420Y90898D01*
X-54160Y90864D01*
X-53520Y90825D01*
X-53140Y90820D01*
Y88820D01*
X-53520Y88815D01*
X-54420Y88741D01*
X-54640Y88698D01*
X-54820Y88644D01*
X-54960Y88581D01*
X-55060Y88507D01*
X-55120Y88424D01*
X-55140Y88332D01*
Y91308D01*
X-55120Y91215D01*
D02*
G37*
G36*
X-61124Y91033D02*
X-61077Y90937D01*
X-60999Y90853D01*
X-60890Y90779D01*
X-60749Y90717D01*
X-60577Y90667D01*
X-60374Y90627D01*
X-60139Y90599D01*
X-59874Y90582D01*
X-59576Y90576D01*
X-59297Y90581D01*
X-58826Y90618D01*
X-58635Y90650D01*
X-58473Y90692D01*
X-58341Y90742D01*
X-58237Y90802D01*
X-58164Y90871D01*
X-58119Y90949D01*
X-58104Y91037D01*
X-58116Y88332D01*
X-58131Y88378D01*
X-58174Y88420D01*
X-58248Y88456D01*
X-58350Y88488D01*
X-58481Y88515D01*
X-58642Y88537D01*
X-59051Y88567D01*
X-59576Y88577D01*
X-59874Y88574D01*
X-60749Y88515D01*
X-60890Y88488D01*
X-60999Y88456D01*
X-61077Y88420D01*
X-61124Y88378D01*
X-61140Y88332D01*
Y91140D01*
X-61124Y91033D01*
D02*
G37*
G36*
X-51102Y87820D02*
X-51123Y88010D01*
X-51183Y88180D01*
X-51284Y88330D01*
X-51425Y88460D01*
X-51607Y88570D01*
X-51828Y88660D01*
X-52089Y88730D01*
X-52391Y88780D01*
X-52732Y88810D01*
X-53114Y88820D01*
Y90820D01*
X-52734Y90826D01*
X-52094Y90878D01*
X-51834Y90923D01*
X-51614Y90982D01*
X-51434Y91053D01*
X-51294Y91137D01*
X-51194Y91235D01*
X-51134Y91345D01*
X-51114Y91468D01*
X-51102Y87820D01*
D02*
G37*
G36*
X-41962Y91263D02*
X-41979Y91043D01*
X-41951Y90804D01*
X-41877Y90548D01*
X-41757Y90274D01*
X-41592Y89982D01*
X-41381Y89673D01*
X-41123Y89346D01*
X-40821Y89001D01*
X-40472Y88638D01*
X-40803Y86141D01*
X-41263Y86587D01*
X-42065Y87276D01*
X-42406Y87520D01*
X-42709Y87696D01*
X-42972Y87805D01*
X-43196Y87847D01*
X-43380Y87821D01*
X-43526Y87728D01*
X-43632Y87567D01*
X-41898Y91466D01*
X-41962Y91263D01*
D02*
G37*
G36*
X-45656Y87540D02*
X-45684Y87494D01*
X-45708Y87416D01*
X-45728Y87309D01*
X-45746Y87170D01*
X-45772Y86799D01*
X-45786Y86013D01*
X-47386D01*
X-47374Y87555D01*
X-45626D01*
X-45656Y87540D01*
D02*
G37*
G36*
X-96322Y85192D02*
X-96277Y84552D01*
X-96237Y84292D01*
X-96187Y84072D01*
X-96125Y83892D01*
X-96052Y83752D01*
X-95967Y83652D01*
X-95872Y83592D01*
X-95765Y83572D01*
X-98890D01*
X-98783Y83592D01*
X-98688Y83652D01*
X-98603Y83752D01*
X-98530Y83892D01*
X-98468Y84072D01*
X-98418Y84292D01*
X-98378Y84552D01*
X-98350Y84852D01*
X-98328Y85572D01*
X-96328D01*
X-96322Y85192D01*
D02*
G37*
G36*
X-55124Y86059D02*
X-55076Y85942D01*
X-54996Y85839D01*
X-54884Y85749D01*
X-54740Y85673D01*
X-54564Y85612D01*
X-54356Y85563D01*
X-54116Y85529D01*
X-53844Y85508D01*
X-53540Y85501D01*
Y83902D01*
X-53844Y83895D01*
X-54116Y83874D01*
X-54356Y83840D01*
X-54564Y83791D01*
X-54740Y83729D01*
X-54884Y83654D01*
X-54996Y83564D01*
X-55076Y83461D01*
X-55124Y83344D01*
X-55140Y83214D01*
X-55233Y83193D01*
X-55316Y83134D01*
X-55389Y83034D01*
X-55452Y82894D01*
X-55506Y82714D01*
X-55550Y82494D01*
X-55584Y82234D01*
X-55623Y81594D01*
X-55628Y81213D01*
X-57628D01*
X-57633Y81594D01*
X-57706Y82494D01*
X-57750Y82714D01*
X-57804Y82894D01*
X-57867Y83034D01*
X-57940Y83134D01*
X-58023Y83193D01*
X-58116Y83214D01*
X-58132Y83344D01*
X-58180Y83461D01*
X-58260Y83564D01*
X-58372Y83654D01*
X-58516Y83729D01*
X-58692Y83791D01*
X-58900Y83840D01*
X-59140Y83874D01*
X-59412Y83895D01*
X-59628Y83899D01*
X-59844Y83895D01*
X-60116Y83874D01*
X-60356Y83840D01*
X-60564Y83791D01*
X-60740Y83729D01*
X-60884Y83654D01*
X-60996Y83564D01*
X-61076Y83461D01*
X-61124Y83344D01*
X-61140Y83214D01*
X-61233Y83193D01*
X-61316Y83134D01*
X-61389Y83034D01*
X-61452Y82894D01*
X-61506Y82714D01*
X-61550Y82494D01*
X-61584Y82234D01*
X-61623Y81594D01*
X-61628Y81213D01*
X-63628D01*
X-63633Y81594D01*
X-63706Y82494D01*
X-63750Y82714D01*
X-63804Y82894D01*
X-63867Y83034D01*
X-63940Y83134D01*
X-64023Y83193D01*
X-64116Y83214D01*
X-61140D01*
Y86190D01*
X-61124Y86059D01*
X-61076Y85942D01*
X-60996Y85839D01*
X-60884Y85749D01*
X-60740Y85673D01*
X-60564Y85612D01*
X-60356Y85563D01*
X-60116Y85529D01*
X-59844Y85508D01*
X-59628Y85504D01*
X-59412Y85508D01*
X-59140Y85529D01*
X-58900Y85563D01*
X-58692Y85612D01*
X-58516Y85673D01*
X-58372Y85749D01*
X-58260Y85839D01*
X-58180Y85942D01*
X-58132Y86059D01*
X-58116Y86190D01*
Y83214D01*
X-55140D01*
Y86190D01*
X-55124Y86059D01*
D02*
G37*
G36*
X-126207Y81976D02*
X-128748Y81964D01*
X-128643Y81980D01*
X-128549Y82028D01*
X-128466Y82106D01*
X-128394Y82216D01*
X-128333Y82357D01*
X-128283Y82529D01*
X-128244Y82733D01*
X-128217Y82967D01*
X-128200Y83233D01*
X-128194Y83530D01*
X-126195D01*
X-126207Y81976D01*
D02*
G37*
G36*
X-129183Y79000D02*
X-129202Y79093D01*
X-129262Y79176D01*
X-129362Y79249D01*
X-129502Y79313D01*
X-129683Y79366D01*
X-129903Y79410D01*
X-130163Y79444D01*
X-130803Y79483D01*
X-131183Y79488D01*
Y81488D01*
X-130803Y81493D01*
X-129903Y81566D01*
X-129683Y81610D01*
X-129502Y81664D01*
X-129362Y81727D01*
X-129262Y81801D01*
X-129202Y81884D01*
X-129183Y81976D01*
Y79000D01*
D02*
G37*
G36*
X-98878Y78435D02*
X-98899Y78625D01*
X-98959Y78795D01*
X-99059Y78945D01*
X-99200Y79075D01*
X-99381Y79185D01*
X-99603Y79275D01*
X-99864Y79345D01*
X-100166Y79395D01*
X-100508Y79425D01*
X-100890Y79435D01*
Y81435D01*
X-100508Y81445D01*
X-100166Y81475D01*
X-99864Y81525D01*
X-99603Y81595D01*
X-99381Y81685D01*
X-99200Y81795D01*
X-99059Y81925D01*
X-98959Y82075D01*
X-98899Y82245D01*
X-98878Y82435D01*
Y78435D01*
D02*
G37*
G36*
X-126730Y78990D02*
X-126815Y78960D01*
X-126890Y78910D01*
X-126955Y78840D01*
X-127010Y78750D01*
X-127055Y78640D01*
X-127090Y78510D01*
X-127115Y78360D01*
X-127130Y78190D01*
X-127135Y78000D01*
X-128135D01*
X-128140Y78190D01*
X-128155Y78360D01*
X-128180Y78510D01*
X-128215Y78640D01*
X-128260Y78750D01*
X-128315Y78840D01*
X-128380Y78910D01*
X-128455Y78960D01*
X-128540Y78990D01*
X-128635Y79000D01*
X-126635D01*
X-126730Y78990D01*
D02*
G37*
G36*
X-91738Y79669D02*
X-91773Y79575D01*
X-91805Y79446D01*
X-91832Y79283D01*
X-91873Y78851D01*
X-91904Y77942D01*
X-91906Y77569D01*
X-92906D01*
X-92908Y77942D01*
X-93008Y79446D01*
X-93039Y79575D01*
X-93074Y79669D01*
X-93114Y79728D01*
X-91699D01*
X-91738Y79669D01*
D02*
G37*
G36*
X-121967Y79664D02*
X-122002Y79570D01*
X-122033Y79441D01*
X-122060Y79278D01*
X-122087Y79000D01*
X-121635D01*
X-121730Y78990D01*
X-121815Y78960D01*
X-121890Y78910D01*
X-121955Y78840D01*
X-122010Y78750D01*
X-122055Y78640D01*
X-122090Y78510D01*
X-122115Y78360D01*
X-122121Y78297D01*
X-122133Y77936D01*
X-122134Y77680D01*
X-122130Y77515D01*
X-122115Y77345D01*
X-122090Y77195D01*
X-122055Y77065D01*
X-122010Y76955D01*
X-121955Y76865D01*
X-121890Y76795D01*
X-121815Y76745D01*
X-121730Y76715D01*
X-121635Y76705D01*
X-123635D01*
X-123540Y76715D01*
X-123455Y76745D01*
X-123380Y76795D01*
X-123315Y76865D01*
X-123260Y76955D01*
X-123215Y77065D01*
X-123180Y77195D01*
X-123155Y77345D01*
X-123140Y77515D01*
X-123136Y77680D01*
X-123137Y77936D01*
X-123172Y78461D01*
X-123180Y78510D01*
X-123215Y78640D01*
X-123260Y78750D01*
X-123315Y78840D01*
X-123380Y78910D01*
X-123455Y78960D01*
X-123540Y78990D01*
X-123635Y79000D01*
X-123208D01*
X-123237Y79441D01*
X-123268Y79570D01*
X-123303Y79664D01*
X-123343Y79723D01*
X-121928D01*
X-121967Y79664D01*
D02*
G37*
G36*
X-127130Y77515D02*
X-127115Y77345D01*
X-127090Y77195D01*
X-127055Y77065D01*
X-127010Y76955D01*
X-126955Y76865D01*
X-126890Y76795D01*
X-126815Y76745D01*
X-126730Y76715D01*
X-126635Y76705D01*
X-128635D01*
X-128540Y76715D01*
X-128455Y76745D01*
X-128380Y76795D01*
X-128315Y76865D01*
X-128260Y76955D01*
X-128215Y77065D01*
X-128180Y77195D01*
X-128155Y77345D01*
X-128140Y77515D01*
X-128135Y77705D01*
X-127135D01*
X-127130Y77515D01*
D02*
G37*
G36*
X-81930Y77302D02*
X-81990Y77281D01*
X-82042Y77245D01*
X-82088Y77195D01*
X-82126Y77131D01*
X-82158Y77053D01*
X-82182Y76960D01*
X-82200Y76853D01*
X-82210Y76732D01*
X-82214Y76597D01*
X-82914D01*
X-82917Y76732D01*
X-82928Y76853D01*
X-82945Y76960D01*
X-82970Y77053D01*
X-83001Y77131D01*
X-83040Y77195D01*
X-83085Y77245D01*
X-83138Y77281D01*
X-83197Y77302D01*
X-83264Y77309D01*
X-81864D01*
X-81930Y77302D01*
D02*
G37*
G36*
X-86197D02*
X-86257Y77281D01*
X-86309Y77245D01*
X-86355Y77195D01*
X-86393Y77131D01*
X-86425Y77053D01*
X-86449Y76960D01*
X-86467Y76853D01*
X-86477Y76732D01*
X-86481Y76597D01*
X-87181D01*
X-87184Y76732D01*
X-87195Y76853D01*
X-87212Y76960D01*
X-87237Y77053D01*
X-87268Y77131D01*
X-87307Y77195D01*
X-87352Y77245D01*
X-87405Y77281D01*
X-87464Y77302D01*
X-87531Y77309D01*
X-86131D01*
X-86197Y77302D01*
D02*
G37*
G36*
X-91501Y77299D02*
X-91586Y77269D01*
X-91661Y77218D01*
X-91726Y77147D01*
X-91781Y77056D01*
X-91826Y76945D01*
X-91861Y76813D01*
X-91886Y76661D01*
X-91901Y76489D01*
X-91906Y76297D01*
X-92906D01*
X-92911Y76489D01*
X-92926Y76661D01*
X-92951Y76813D01*
X-92986Y76945D01*
X-93031Y77056D01*
X-93086Y77147D01*
X-93151Y77218D01*
X-93226Y77269D01*
X-93311Y77299D01*
X-93406Y77309D01*
X-91406D01*
X-91501Y77299D01*
D02*
G37*
G36*
X-91130Y75449D02*
X-90762Y75138D01*
X-90600Y75025D01*
X-90451Y74940D01*
X-90317Y74883D01*
X-90197Y74855D01*
X-90090D01*
X-89999Y74883D01*
X-89921Y74940D01*
X-91335Y73526D01*
X-91278Y73603D01*
X-91250Y73695D01*
Y73801D01*
X-91278Y73922D01*
X-91335Y74056D01*
X-91420Y74204D01*
X-91533Y74367D01*
X-91674Y74544D01*
X-92042Y74940D01*
X-91335Y75647D01*
X-91130Y75449D01*
D02*
G37*
G36*
X-50287Y71140D02*
X-50306Y71233D01*
X-50366Y71316D01*
X-50467Y71389D01*
X-50607Y71452D01*
X-50787Y71506D01*
X-51007Y71550D01*
X-51266Y71584D01*
X-51907Y71623D01*
X-52286Y71628D01*
Y73628D01*
X-51907Y73633D01*
X-51007Y73706D01*
X-50787Y73750D01*
X-50607Y73804D01*
X-50467Y73867D01*
X-50366Y73940D01*
X-50306Y74023D01*
X-50287Y74116D01*
Y71140D01*
D02*
G37*
G36*
X-93800Y71966D02*
X-93885Y71935D01*
X-93960Y71885D01*
X-94025Y71814D01*
X-94080Y71723D01*
X-94125Y71611D01*
X-94160Y71480D01*
X-94185Y71328D01*
X-94200Y71156D01*
X-94205Y70964D01*
X-95205D01*
X-95210Y71156D01*
X-95225Y71328D01*
X-95250Y71480D01*
X-95285Y71611D01*
X-95330Y71723D01*
X-95385Y71814D01*
X-95450Y71885D01*
X-95525Y71935D01*
X-95610Y71966D01*
X-95705Y71976D01*
X-93705D01*
X-93800Y71966D01*
D02*
G37*
G36*
X-116867Y70934D02*
X-116926Y70912D01*
X-116979Y70876D01*
X-117024Y70827D01*
X-117062Y70763D01*
X-117094Y70684D01*
X-117117Y70599D01*
X-117106Y70554D01*
X-117072Y70451D01*
X-117027Y70350D01*
X-116974Y70249D01*
X-116910Y70150D01*
X-116836Y70051D01*
X-116753Y69954D01*
X-116660Y69857D01*
X-118340D01*
X-118247Y69954D01*
X-118164Y70051D01*
X-118090Y70150D01*
X-118026Y70249D01*
X-117973Y70350D01*
X-117928Y70451D01*
X-117894Y70554D01*
X-117883Y70599D01*
X-117906Y70684D01*
X-117938Y70763D01*
X-117976Y70827D01*
X-118022Y70876D01*
X-118074Y70912D01*
X-118133Y70934D01*
X-118200Y70941D01*
X-116800D01*
X-116867Y70934D01*
D02*
G37*
G36*
X-131867Y70934D02*
X-131926Y70912D01*
X-131978Y70877D01*
X-132024Y70827D01*
X-132062Y70763D01*
X-132094Y70684D01*
X-132118Y70592D01*
X-132136Y70485D01*
X-132147Y70364D01*
X-132148Y70318D01*
X-132145Y70262D01*
X-132130Y70158D01*
X-132106Y70054D01*
X-132072Y69951D01*
X-132027Y69850D01*
X-131974Y69749D01*
X-131910Y69650D01*
X-131836Y69551D01*
X-131753Y69454D01*
X-131660Y69357D01*
X-133340D01*
X-133247Y69454D01*
X-133164Y69551D01*
X-133090Y69650D01*
X-133026Y69749D01*
X-132973Y69850D01*
X-132928Y69951D01*
X-132894Y70054D01*
X-132870Y70158D01*
X-132855Y70262D01*
X-132852Y70318D01*
X-132853Y70364D01*
X-132864Y70485D01*
X-132881Y70592D01*
X-132906Y70684D01*
X-132938Y70763D01*
X-132976Y70827D01*
X-133021Y70877D01*
X-133074Y70912D01*
X-133133Y70934D01*
X-133200Y70941D01*
X-131800D01*
X-131867Y70934D01*
D02*
G37*
G36*
X-84511Y67541D02*
X-84487Y67205D01*
X-84473Y67110D01*
X-84435Y66947D01*
X-84412Y66878D01*
X-84385Y66818D01*
X-84355Y66766D01*
X-85370D01*
X-85340Y66818D01*
X-85314Y66878D01*
X-85290Y66947D01*
X-85269Y67024D01*
X-85252Y67110D01*
X-85227Y67308D01*
X-85219Y67421D01*
X-85213Y67670D01*
X-84513D01*
X-84511Y67541D01*
D02*
G37*
G36*
X-86479D02*
X-86455Y67205D01*
X-86441Y67110D01*
X-86403Y66947D01*
X-86379Y66878D01*
X-86353Y66818D01*
X-86323Y66766D01*
X-87339D01*
X-87309Y66818D01*
X-87282Y66878D01*
X-87258Y66947D01*
X-87237Y67024D01*
X-87220Y67110D01*
X-87195Y67308D01*
X-87187Y67421D01*
X-87181Y67670D01*
X-86481D01*
X-86479Y67541D01*
D02*
G37*
G36*
X-92217Y67708D02*
X-92229Y66766D01*
X-93244D01*
X-93239Y66784D01*
X-93235Y66821D01*
X-93230Y66877D01*
X-93217Y67617D01*
X-93217Y67807D01*
X-92217Y67708D01*
D02*
G37*
G36*
X-94197Y66766D02*
X-95213D01*
X-95211Y66778D01*
X-95210Y66811D01*
X-95205Y67778D01*
X-94205D01*
X-94197Y66766D01*
D02*
G37*
G36*
X-50275Y65232D02*
X-50295Y65325D01*
X-50355Y65408D01*
X-50455Y65481D01*
X-50595Y65545D01*
X-50775Y65598D01*
X-50995Y65642D01*
X-51255Y65676D01*
X-51895Y65716D01*
X-52275Y65720D01*
Y67721D01*
X-51895Y67725D01*
X-50995Y67799D01*
X-50775Y67843D01*
X-50595Y67896D01*
X-50455Y67960D01*
X-50355Y68033D01*
X-50295Y68116D01*
X-50275Y68208D01*
Y65232D01*
D02*
G37*
G36*
X56688Y60924D02*
X56669Y61016D01*
X56608Y61099D01*
X56508Y61173D01*
X56368Y61236D01*
X56188Y61290D01*
X55968Y61334D01*
X55708Y61368D01*
X55192Y61399D01*
X54384Y61334D01*
X54164Y61290D01*
X53984Y61236D01*
X53844Y61173D01*
X53745Y61099D01*
X53685Y61016D01*
X53664Y60924D01*
Y63900D01*
X53685Y63807D01*
X53745Y63724D01*
X53844Y63651D01*
X53984Y63587D01*
X54164Y63534D01*
X54384Y63490D01*
X54645Y63456D01*
X55161Y63424D01*
X55968Y63490D01*
X56188Y63534D01*
X56368Y63587D01*
X56508Y63651D01*
X56608Y63724D01*
X56669Y63807D01*
X56688Y63900D01*
Y60924D01*
D02*
G37*
G36*
X-42273Y65212D02*
X-42356Y65152D01*
X-42430Y65052D01*
X-42493Y64912D01*
X-42547Y64732D01*
X-42591Y64512D01*
X-42625Y64252D01*
X-42664Y63612D01*
X-42669Y63232D01*
X-44669D01*
X-44674Y63612D01*
X-44747Y64512D01*
X-44791Y64732D01*
X-44844Y64912D01*
X-44908Y65052D01*
X-44981Y65152D01*
X-45064Y65212D01*
X-45157Y65232D01*
X-42181D01*
X-42273Y65212D01*
D02*
G37*
G36*
X44919Y65246D02*
X45610Y64668D01*
X45924Y64452D01*
X46217Y64285D01*
X46489Y64167D01*
X46741Y64097D01*
X46972Y64077D01*
X47182Y64105D01*
X47371Y64182D01*
X44314Y62447D01*
X44300Y62568D01*
X44258Y62705D01*
X44187Y62861D01*
X44088Y63033D01*
X43961Y63222D01*
X43805Y63428D01*
X43409Y63891D01*
X42900Y64423D01*
X44543Y65609D01*
X44919Y65246D01*
D02*
G37*
G36*
X37214Y64123D02*
X37244Y64060D01*
X37294Y64004D01*
X37364Y63955D01*
X37454Y63914D01*
X37564Y63880D01*
X37694Y63854D01*
X37844Y63836D01*
X38014Y63824D01*
X38204Y63821D01*
Y62821D01*
X38014Y62817D01*
X37694Y62787D01*
X37564Y62761D01*
X37454Y62727D01*
X37364Y62686D01*
X37294Y62637D01*
X37244Y62581D01*
X37214Y62518D01*
X37204Y62447D01*
Y64194D01*
X37214Y64123D01*
D02*
G37*
G36*
X30498Y63317D02*
X30528Y63232D01*
X30578Y63157D01*
X30648Y63092D01*
X30738Y63037D01*
X30848Y62992D01*
X30978Y62957D01*
X31128Y62932D01*
X31298Y62917D01*
X31488Y62912D01*
Y61912D01*
X31298Y61907D01*
X31128Y61892D01*
X30978Y61867D01*
X30848Y61832D01*
X30738Y61787D01*
X30648Y61732D01*
X30578Y61667D01*
X30528Y61592D01*
X30498Y61507D01*
X30488Y61412D01*
Y63412D01*
X30498Y63317D01*
D02*
G37*
G36*
X27524Y61412D02*
X27514Y61507D01*
X27484Y61592D01*
X27433Y61667D01*
X27362Y61732D01*
X27271Y61787D01*
X27160Y61832D01*
X27028Y61867D01*
X26877Y61892D01*
X26705Y61907D01*
X26512Y61912D01*
Y62912D01*
X26705Y62917D01*
X26877Y62932D01*
X27028Y62957D01*
X27160Y62992D01*
X27271Y63037D01*
X27362Y63092D01*
X27433Y63157D01*
X27484Y63232D01*
X27514Y63317D01*
X27524Y63412D01*
Y61412D01*
D02*
G37*
G36*
X24965Y63317D02*
X24995Y63232D01*
X25045Y63157D01*
X25115Y63092D01*
X25205Y63037D01*
X25315Y62992D01*
X25445Y62957D01*
X25595Y62932D01*
X25765Y62917D01*
X25955Y62912D01*
Y61912D01*
X25765Y61907D01*
X25595Y61892D01*
X25445Y61867D01*
X25315Y61832D01*
X25205Y61787D01*
X25115Y61732D01*
X25045Y61667D01*
X24995Y61592D01*
X24965Y61507D01*
X24955Y61412D01*
Y63412D01*
X24965Y63317D01*
D02*
G37*
G36*
X50688Y63900D02*
X50700Y61321D01*
X50680Y61511D01*
X50619Y61681D01*
X50517Y61831D01*
X50376Y61961D01*
X50195Y62071D01*
X49974Y62161D01*
X49713Y62231D01*
X49411Y62281D01*
X49070Y62311D01*
X48689Y62321D01*
Y64321D01*
X50688Y63900D01*
D02*
G37*
G36*
X3937Y73784D02*
X71153D01*
X71717Y73672D01*
X72248Y73452D01*
X72726Y73132D01*
X73132Y72726D01*
X73452Y72248D01*
X73672Y71717D01*
X73784Y71153D01*
Y70866D01*
Y3937D01*
Y3650D01*
X73672Y3086D01*
X73452Y2555D01*
X73132Y2077D01*
X72726Y1671D01*
X72248Y1352D01*
X71717Y1132D01*
X71153Y1020D01*
X3650D01*
X3086Y1132D01*
X2555Y1352D01*
X2077Y1671D01*
X1671Y2077D01*
X1352Y2555D01*
X1132Y3086D01*
X1020Y3650D01*
Y3937D01*
X942Y4327D01*
X721Y4658D01*
X500Y4806D01*
X500Y50159D01*
X1000Y50481D01*
X1253Y50431D01*
X13578D01*
X13909Y50419D01*
X13926Y50401D01*
X13969Y50331D01*
X14020Y50205D01*
X14070Y50023D01*
X14109Y49784D01*
X14124Y49611D01*
Y48514D01*
X14256Y47851D01*
X14632Y47289D01*
X15804Y46117D01*
X16366Y45741D01*
X16839Y45647D01*
Y44890D01*
X21201D01*
Y43890D01*
X16839D01*
Y42921D01*
X21201D01*
Y41921D01*
X16839D01*
Y41799D01*
Y39831D01*
X18139D01*
Y37194D01*
Y33257D01*
Y29264D01*
X16839D01*
Y27173D01*
X21201D01*
Y26173D01*
X16839D01*
Y25205D01*
X21201D01*
Y24705D01*
X21701D01*
Y24138D01*
X23201D01*
X23011Y24118D01*
X22841Y24058D01*
X22691Y23957D01*
X22561Y23816D01*
X22451Y23635D01*
X22361Y23414D01*
X22291Y23152D01*
X22241Y22850D01*
X22211Y22508D01*
X22201Y22126D01*
X21701D01*
Y22114D01*
X25000D01*
Y11229D01*
X24893Y11122D01*
X27686D01*
X27809Y11000D01*
X33309D01*
X33431Y11122D01*
X59794D01*
Y13745D01*
X60370Y14130D01*
X60790Y14758D01*
X60937Y15500D01*
X60790Y16241D01*
X60370Y16870D01*
X59794Y17254D01*
X59794Y18929D01*
X65594D01*
X66003Y19011D01*
X66351Y19243D01*
X70757Y23649D01*
X70989Y23997D01*
X71071Y24406D01*
Y32271D01*
X70989Y32680D01*
X70757Y33028D01*
X70665Y33120D01*
X70911Y33580D01*
X71000Y33563D01*
X71741Y33710D01*
X72370Y34130D01*
X72790Y34759D01*
X72937Y35500D01*
X72790Y36241D01*
X72733Y36326D01*
Y36374D01*
X72733Y36374D01*
X72601Y37038D01*
X72226Y37600D01*
X71293Y38533D01*
X70902Y38987D01*
X70768Y39165D01*
X70700Y39270D01*
Y40493D01*
X72000D01*
Y43493D01*
X68500D01*
Y43993D01*
X68000D01*
Y47493D01*
X65000D01*
Y46327D01*
X64500Y46176D01*
X64370Y46370D01*
X63741Y46790D01*
X63000Y46937D01*
X62259Y46790D01*
X61630Y46370D01*
X61210Y45741D01*
X61063Y45000D01*
X61210Y44259D01*
X61318Y44098D01*
X61051Y43598D01*
X60146D01*
Y41571D01*
X59794D01*
X59384Y41489D01*
X59037Y41257D01*
X58243Y40463D01*
X58011Y40116D01*
X57929Y39706D01*
Y36000D01*
X56154D01*
D01*
X52185D01*
Y37000D01*
X56154D01*
Y37945D01*
Y41860D01*
X56308Y42296D01*
X58692D01*
Y47633D01*
X56308D01*
Y45968D01*
X38621D01*
Y46877D01*
X32041D01*
Y50795D01*
X24263D01*
Y51586D01*
X21998D01*
X21996Y51599D01*
X21991Y51657D01*
Y53794D01*
X32500D01*
Y54254D01*
X37195D01*
X37204Y54253D01*
X37212Y54254D01*
X48676D01*
Y53794D01*
X61677D01*
Y57799D01*
X62138Y57991D01*
X66690Y53439D01*
Y50935D01*
X66562Y50295D01*
X66710Y49554D01*
X67130Y48925D01*
X67758Y48505D01*
X68500Y48358D01*
X69241Y48505D01*
X69870Y48925D01*
X70289Y49554D01*
X70437Y50295D01*
X70289Y51036D01*
X70156Y51235D01*
Y54157D01*
X70157Y54157D01*
X70025Y54821D01*
X69649Y55383D01*
X69649Y55383D01*
X63287Y61745D01*
X63623Y62116D01*
X63681Y62068D01*
X64692Y61528D01*
X65789Y61195D01*
X66929Y61083D01*
X68070Y61195D01*
X69166Y61528D01*
X70177Y62068D01*
X71063Y62795D01*
X71790Y63681D01*
X72330Y64692D01*
X72663Y65789D01*
X72775Y66929D01*
X72663Y68070D01*
X72330Y69166D01*
X71790Y70177D01*
X71063Y71063D01*
X70177Y71790D01*
X69166Y72330D01*
X68070Y72663D01*
X66929Y72775D01*
X65789Y72663D01*
X64692Y72330D01*
X63681Y71790D01*
X62795Y71063D01*
X62068Y70177D01*
X61528Y69166D01*
X61195Y68070D01*
X61083Y66929D01*
X61195Y65789D01*
X61528Y64692D01*
X62068Y63681D01*
X62116Y63623D01*
X61745Y63287D01*
X61394Y63637D01*
X60832Y64013D01*
Y64156D01*
X60377Y64612D01*
X52277Y64691D01*
X51931Y64922D01*
X51268Y65054D01*
X46309D01*
X46303Y65057D01*
X46042Y65237D01*
X45486Y65702D01*
X43033Y68155D01*
X42471Y68530D01*
X41808Y68662D01*
X22580D01*
X21917Y68530D01*
X21355Y68155D01*
X21355Y68155D01*
X14632Y61432D01*
X14256Y60870D01*
X14124Y60207D01*
Y53418D01*
X13916Y53328D01*
X13436Y53665D01*
Y60641D01*
X8488D01*
X8463Y61141D01*
X9015Y61195D01*
X10111Y61528D01*
X11122Y62068D01*
X12008Y62795D01*
X12735Y63681D01*
X13275Y64692D01*
X13608Y65789D01*
X13720Y66929D01*
X13608Y68070D01*
X13275Y69166D01*
X12735Y70177D01*
X12008Y71063D01*
X11122Y71790D01*
X10111Y72330D01*
X9015Y72663D01*
X7874Y72775D01*
X6734Y72663D01*
X5637Y72330D01*
X4626Y71790D01*
X3740Y71063D01*
X3013Y70177D01*
X2473Y69166D01*
X2140Y68070D01*
X2028Y66929D01*
X2140Y65789D01*
X2473Y64692D01*
X3013Y63681D01*
X3740Y62795D01*
X4626Y62068D01*
X5637Y61528D01*
X6734Y61195D01*
X7285Y61141D01*
X7260Y60641D01*
X4162D01*
Y52878D01*
X1760D01*
X500Y54138D01*
Y69998D01*
X721Y70145D01*
X942Y70476D01*
X1020Y70866D01*
Y71153D01*
X1132Y71717D01*
X1352Y72248D01*
X1671Y72726D01*
X2077Y73132D01*
X2555Y73452D01*
X3086Y73672D01*
X3650Y73784D01*
X3937Y73784D01*
D02*
G37*
G36*
X23393Y60936D02*
X23317Y60991D01*
X23225Y61018D01*
X23120Y61017D01*
X23000Y60988D01*
X22866Y60930D01*
X22717Y60844D01*
X22554Y60729D01*
X22377Y60587D01*
X21979Y60217D01*
X21272Y60924D01*
X21471Y61130D01*
X21785Y61499D01*
X21899Y61662D01*
X21985Y61811D01*
X22043Y61945D01*
X22072Y62065D01*
X22073Y62170D01*
X22047Y62261D01*
X21991Y62338D01*
X23393Y60936D01*
D02*
G37*
G36*
X-88322Y60326D02*
X-88349Y60266D01*
X-88372Y60197D01*
X-88393Y60120D01*
X-88410Y60034D01*
X-88435Y59836D01*
X-88443Y59724D01*
X-88450Y59474D01*
X-89150D01*
X-89151Y59603D01*
X-89175Y59939D01*
X-89189Y60034D01*
X-89227Y60197D01*
X-89251Y60266D01*
X-89277Y60326D01*
X-89307Y60378D01*
X-88292D01*
X-88322Y60326D01*
D02*
G37*
G36*
X-90290D02*
X-90316Y60266D01*
X-90340Y60197D01*
X-90361Y60120D01*
X-90378Y60034D01*
X-90403Y59836D01*
X-90411Y59724D01*
X-90418Y59474D01*
X-91118D01*
X-91119Y59603D01*
X-91143Y59939D01*
X-91157Y60034D01*
X-91195Y60197D01*
X-91219Y60266D01*
X-91246Y60326D01*
X-91276Y60378D01*
X-90260D01*
X-90290Y60326D01*
D02*
G37*
G36*
X-146846Y59947D02*
X-146972Y59823D01*
X-147399Y59443D01*
X-147445Y59414D01*
X-147478Y59402D01*
X-147497Y59406D01*
X-147503Y59425D01*
X-147492Y60488D01*
X-147533Y60489D01*
X-147567Y60494D01*
X-147593Y60503D01*
X-147611Y60514D01*
X-147621Y60529D01*
X-147623Y60547D01*
X-147618Y60569D01*
X-147604Y60594D01*
X-147583Y60622D01*
X-147554Y60654D01*
X-146846Y59947D01*
D02*
G37*
G36*
X-96167Y60366D02*
X-96169Y60334D01*
X-96174Y59366D01*
X-97174D01*
X-97181Y60378D01*
X-96166D01*
X-96167Y60366D01*
D02*
G37*
G36*
X33291Y58707D02*
X33281Y58778D01*
X33251Y58841D01*
X33201Y58897D01*
X33131Y58946D01*
X33041Y58987D01*
X32931Y59021D01*
X32801Y59047D01*
X32651Y59065D01*
X32481Y59077D01*
X32291Y59080D01*
Y60080D01*
X32481Y60084D01*
X32801Y60114D01*
X32931Y60140D01*
X33041Y60174D01*
X33131Y60215D01*
X33201Y60264D01*
X33251Y60320D01*
X33281Y60383D01*
X33291Y60454D01*
Y58707D01*
D02*
G37*
G36*
X31381Y58967D02*
X31118Y58701D01*
X30685Y58206D01*
X30573Y58046D01*
X30488Y57898D01*
X30432Y57763D01*
X30404Y57643D01*
Y57537D01*
X30432Y57445D01*
X30488Y57367D01*
X30201Y57654D01*
X30125Y57567D01*
X30056Y57454D01*
X30014Y57363D01*
X30000Y57293D01*
X29000Y58294D01*
X29069Y58307D01*
X29161Y58349D01*
X29274Y58418D01*
X29369Y58486D01*
X29074Y58782D01*
X29152Y58725D01*
X29244Y58697D01*
X29350D01*
X29470Y58725D01*
X29604Y58782D01*
X29753Y58866D01*
X29916Y58980D01*
X30092Y59121D01*
X30454Y59457D01*
X30673Y59674D01*
X31381Y58967D01*
D02*
G37*
G36*
X27512Y55806D02*
X30488D01*
X30396Y55786D01*
X30313Y55726D01*
X30239Y55626D01*
X30176Y55486D01*
X30122Y55306D01*
X30078Y55086D01*
X30044Y54826D01*
X30005Y54186D01*
X30000Y53806D01*
X28000D01*
X27995Y54186D01*
X27922Y55086D01*
X27878Y55306D01*
X27825Y55486D01*
X27761Y55626D01*
X27688Y55726D01*
X27605Y55786D01*
X27512Y55806D01*
X27492Y55898D01*
X27432Y55981D01*
X27332Y56055D01*
X27192Y56118D01*
X27012Y56172D01*
X26792Y56216D01*
X26532Y56250D01*
X26283Y56265D01*
X25675Y56216D01*
X25455Y56172D01*
X25275Y56118D01*
X25135Y56055D01*
X25035Y55981D01*
X24975Y55898D01*
X24955Y55806D01*
Y58782D01*
X24975Y58689D01*
X25035Y58606D01*
X25135Y58533D01*
X25275Y58469D01*
X25455Y58416D01*
X25675Y58372D01*
X25935Y58337D01*
X26185Y58322D01*
X26792Y58372D01*
X27012Y58416D01*
X27192Y58469D01*
X27332Y58533D01*
X27432Y58606D01*
X27492Y58689D01*
X27512Y58782D01*
Y55806D01*
D02*
G37*
G36*
X-87889Y57983D02*
X-87804Y57920D01*
X-87714Y57864D01*
X-87617Y57815D01*
X-87514Y57775D01*
X-87405Y57742D01*
X-87289Y57716D01*
X-87168Y57699D01*
X-87040Y57688D01*
X-86906Y57686D01*
X-88094Y56498D01*
X-88096Y56632D01*
X-88106Y56760D01*
X-88124Y56882D01*
X-88149Y56997D01*
X-88182Y57107D01*
X-88223Y57209D01*
X-88271Y57306D01*
X-88327Y57397D01*
X-88391Y57481D01*
X-88462Y57559D01*
X-87967Y58054D01*
X-87889Y57983D01*
D02*
G37*
G36*
X-90838Y57559D02*
X-90909Y57481D01*
X-90973Y57397D01*
X-91029Y57306D01*
X-91077Y57209D01*
X-91118Y57107D01*
X-91151Y56997D01*
X-91176Y56882D01*
X-91194Y56760D01*
X-91204Y56632D01*
X-91206Y56498D01*
X-92394Y57686D01*
X-92260Y57688D01*
X-92132Y57699D01*
X-92011Y57716D01*
X-91895Y57742D01*
X-91786Y57775D01*
X-91683Y57815D01*
X-91586Y57864D01*
X-91496Y57920D01*
X-91411Y57983D01*
X-91333Y58054D01*
X-90838Y57559D01*
D02*
G37*
G36*
X-4028Y58648D02*
X-4013Y58422D01*
X-3986Y58209D01*
X-3947Y58008D01*
X-3896Y57821D01*
X-3833Y57647D01*
X-3759Y57485D01*
X-3673Y57337D01*
X-3575Y57202D01*
X-3465Y57079D01*
X-4172Y56372D01*
X-4294Y56482D01*
X-4430Y56580D01*
X-4578Y56666D01*
X-4739Y56741D01*
X-4914Y56804D01*
X-5101Y56854D01*
X-5154Y56865D01*
X-5184Y56820D01*
X-5280Y56652D01*
X-5359Y56484D01*
X-5373Y56447D01*
X-5359Y56410D01*
X-5280Y56242D01*
X-5184Y56074D01*
X-5070Y55905D01*
X-4938Y55734D01*
X-4789Y55564D01*
X-4622Y55392D01*
X-7378D01*
X-7211Y55564D01*
X-7062Y55734D01*
X-6930Y55905D01*
X-6816Y56074D01*
X-6719Y56242D01*
X-6640Y56410D01*
X-6627Y56447D01*
X-6640Y56484D01*
X-6719Y56652D01*
X-6816Y56820D01*
X-6930Y56989D01*
X-7062Y57159D01*
X-7211Y57330D01*
X-7378Y57502D01*
X-5418D01*
X-4032Y58888D01*
X-4028Y58648D01*
D02*
G37*
G36*
X-63254Y55978D02*
X-63266Y55980D01*
X-63298Y55981D01*
X-64266Y55986D01*
Y56986D01*
X-63254Y56994D01*
Y55978D01*
D02*
G37*
G36*
X-100553Y56993D02*
X-100521Y56991D01*
X-99554Y56986D01*
Y55986D01*
X-100566Y55978D01*
Y56994D01*
X-100553Y56993D01*
D02*
G37*
G36*
X37214Y56643D02*
X37244Y56580D01*
X37294Y56523D01*
X37364Y56475D01*
X37454Y56434D01*
X37564Y56400D01*
X37694Y56374D01*
X37844Y56355D01*
X38014Y56344D01*
X38204Y56340D01*
Y55340D01*
X38014Y55336D01*
X37694Y55307D01*
X37564Y55280D01*
X37454Y55247D01*
X37364Y55206D01*
X37294Y55157D01*
X37244Y55101D01*
X37214Y55037D01*
X37204Y54966D01*
Y56714D01*
X37214Y56643D01*
D02*
G37*
G36*
X-56853Y55023D02*
X-56821Y55022D01*
X-55854Y55017D01*
Y54017D01*
X-56866Y54009D01*
Y55025D01*
X-56853Y55023D01*
D02*
G37*
G36*
X59572Y55786D02*
X59489Y55726D01*
X59416Y55626D01*
X59352Y55486D01*
X59298Y55306D01*
X59255Y55086D01*
X59220Y54826D01*
X59181Y54186D01*
X59176Y53806D01*
X57177D01*
X57172Y54186D01*
X57099Y55086D01*
X57055Y55306D01*
X57001Y55486D01*
X56937Y55626D01*
X56864Y55726D01*
X56781Y55786D01*
X56688Y55806D01*
X59664D01*
X59572Y55786D01*
D02*
G37*
G36*
X53572D02*
X53489Y55726D01*
X53416Y55626D01*
X53352Y55486D01*
X53298Y55306D01*
X53255Y55086D01*
X53220Y54826D01*
X53181Y54186D01*
X53176Y53806D01*
X51177D01*
X51172Y54186D01*
X51099Y55086D01*
X51055Y55306D01*
X51001Y55486D01*
X50937Y55626D01*
X50864Y55726D01*
X50781Y55786D01*
X50688Y55806D01*
X53664D01*
X53572Y55786D01*
D02*
G37*
G36*
X-71417Y54720D02*
X-71501Y54632D01*
X-71575Y54544D01*
X-71641Y54454D01*
X-71698Y54364D01*
X-71746Y54272D01*
X-71785Y54181D01*
X-71815Y54088D01*
X-71836Y53995D01*
X-71848Y53900D01*
X-71852Y53806D01*
X-73040Y54993D01*
X-72945Y54997D01*
X-72851Y55009D01*
X-72757Y55031D01*
X-72665Y55061D01*
X-72573Y55100D01*
X-72482Y55147D01*
X-72391Y55204D01*
X-72302Y55270D01*
X-72213Y55344D01*
X-72125Y55428D01*
X-71417Y54720D01*
D02*
G37*
G36*
X-52976Y53517D02*
X-52986Y53612D01*
X-53017Y53697D01*
X-53067Y53772D01*
X-53138Y53837D01*
X-53229Y53892D01*
X-53340Y53937D01*
X-53472Y53972D01*
X-53624Y53997D01*
X-53796Y54012D01*
X-53988Y54017D01*
Y55017D01*
X-53796Y55022D01*
X-53624Y55037D01*
X-53472Y55062D01*
X-53340Y55097D01*
X-53229Y55142D01*
X-53138Y55197D01*
X-53067Y55262D01*
X-53017Y55337D01*
X-52986Y55422D01*
X-52976Y55517D01*
Y53517D01*
D02*
G37*
G36*
X-73909Y52954D02*
X-73978Y53018D01*
X-74053Y53076D01*
X-74134Y53127D01*
X-74221Y53171D01*
X-74314Y53209D01*
X-74412Y53239D01*
X-74516Y53263D01*
X-74626Y53280D01*
X-74741Y53290D01*
X-74862Y53294D01*
Y54294D01*
X-74741Y54297D01*
X-74626Y54307D01*
X-74516Y54324D01*
X-74412Y54348D01*
X-74314Y54379D01*
X-74221Y54416D01*
X-74134Y54460D01*
X-74053Y54511D01*
X-73978Y54569D01*
X-73909Y54634D01*
Y52954D01*
D02*
G37*
G36*
X-64270Y54763D02*
X-64319Y54517D01*
X-64222Y54029D01*
X-63945Y53615D01*
Y53451D01*
X-64222Y53037D01*
X-64319Y52549D01*
X-64222Y52061D01*
X-64147Y51949D01*
X-63981Y51565D01*
X-64147Y51180D01*
X-64222Y51068D01*
X-64319Y50580D01*
X-64222Y50092D01*
X-63945Y49678D01*
Y49514D01*
X-64222Y49100D01*
X-64319Y48612D01*
X-64260Y48316D01*
X-64571Y47816D01*
X-65657D01*
X-65965Y48123D01*
X-65966Y48124D01*
X-65997Y48170D01*
X-66023Y48213D01*
X-66043Y48255D01*
X-66058Y48296D01*
X-66070Y48339D01*
X-66079Y48383D01*
X-66082Y48405D01*
X-66063Y48500D01*
X-66210Y49241D01*
X-66630Y49870D01*
X-67259Y50290D01*
X-68000Y50437D01*
X-68741Y50290D01*
X-69370Y49870D01*
X-69790Y49241D01*
X-69937Y48500D01*
X-69790Y47759D01*
X-69370Y47130D01*
X-68741Y46710D01*
X-68000Y46563D01*
X-67905Y46582D01*
X-67883Y46579D01*
X-67839Y46571D01*
X-67796Y46558D01*
X-67755Y46543D01*
X-67713Y46523D01*
X-67669Y46497D01*
X-67624Y46466D01*
X-67623Y46465D01*
X-67220Y46061D01*
X-67169Y45634D01*
X-67322Y45446D01*
X-67530Y45261D01*
X-67560Y45267D01*
X-67622Y45268D01*
X-68000Y45343D01*
X-68741Y45195D01*
X-69370Y44775D01*
X-69790Y44147D01*
X-69937Y43406D01*
X-69790Y42664D01*
X-69370Y42036D01*
X-68741Y41616D01*
X-68000Y41468D01*
X-67259Y41616D01*
X-66630Y42036D01*
X-66210Y42664D01*
X-66162Y42906D01*
X-66142Y42947D01*
X-66120Y43031D01*
X-66099Y43093D01*
X-66075Y43154D01*
X-66048Y43214D01*
X-66017Y43272D01*
X-65982Y43330D01*
X-65948Y43380D01*
X-65886Y43456D01*
X-65839Y43503D01*
X-64571D01*
X-64260Y43003D01*
X-64319Y42706D01*
X-64222Y42218D01*
X-63945Y41804D01*
Y41640D01*
X-64222Y41226D01*
X-64319Y40738D01*
X-64222Y40250D01*
X-64147Y40138D01*
X-63981Y39754D01*
X-64147Y39369D01*
X-64222Y39257D01*
X-64319Y38769D01*
X-64222Y38281D01*
X-64147Y38170D01*
X-63981Y37785D01*
X-64147Y37401D01*
X-64222Y37289D01*
X-64319Y36801D01*
X-64252Y36466D01*
X-64489Y36062D01*
X-64591Y35966D01*
X-64805D01*
X-64868Y35975D01*
X-64929Y35989D01*
X-64987Y36005D01*
X-65042Y36025D01*
X-65095Y36049D01*
X-65147Y36076D01*
X-65198Y36107D01*
X-65267Y36157D01*
X-65329Y36184D01*
X-65664Y36408D01*
X-66405Y36555D01*
X-67147Y36408D01*
X-67775Y35988D01*
X-68195Y35360D01*
X-68343Y34618D01*
X-68195Y33877D01*
X-67775Y33248D01*
X-67147Y32829D01*
X-66405Y32681D01*
X-65664Y32829D01*
X-65036Y33248D01*
X-64988Y33320D01*
X-64662Y33362D01*
X-64293Y32995D01*
X-64319Y32864D01*
X-64270Y32619D01*
X-64605Y32119D01*
X-67146D01*
X-67614Y32026D01*
X-68011Y31760D01*
X-70047Y29724D01*
X-70772D01*
X-71421Y29746D01*
X-71550Y29758D01*
X-71586Y29772D01*
X-71616Y29788D01*
X-71635Y29800D01*
X-71682Y29870D01*
X-72310Y30290D01*
X-73052Y30437D01*
X-73793Y30290D01*
X-73877Y30233D01*
X-95132D01*
X-95132Y30233D01*
X-95795Y30101D01*
X-96357Y29726D01*
X-97535Y28548D01*
X-97756Y28556D01*
X-98175Y28927D01*
X-98373Y29923D01*
X-98936Y30766D01*
X-99557Y31181D01*
X-99597Y31383D01*
X-99672Y31495D01*
X-99838Y31880D01*
X-99672Y32264D01*
X-99597Y32376D01*
X-99500Y32864D01*
X-99597Y33352D01*
X-99874Y33766D01*
Y33930D01*
X-99597Y34344D01*
X-99500Y34832D01*
X-99597Y35320D01*
X-99672Y35432D01*
X-99838Y35817D01*
X-99672Y36201D01*
X-99597Y36313D01*
X-99500Y36801D01*
X-99597Y37289D01*
X-99874Y37703D01*
Y37867D01*
X-99597Y38281D01*
X-99500Y38769D01*
X-99597Y39257D01*
X-99672Y39369D01*
X-99838Y39754D01*
X-99672Y40138D01*
X-99597Y40250D01*
X-99500Y40738D01*
X-99597Y41226D01*
X-99874Y41640D01*
Y41804D01*
X-99597Y42218D01*
X-99500Y42706D01*
X-99597Y43194D01*
X-99672Y43306D01*
X-99838Y43691D01*
X-99672Y44075D01*
X-99597Y44187D01*
X-99500Y44675D01*
X-99597Y45163D01*
X-99874Y45577D01*
Y45741D01*
X-99597Y46155D01*
X-99500Y46643D01*
X-99597Y47131D01*
X-99672Y47243D01*
X-99838Y47628D01*
X-99672Y48012D01*
X-99597Y48124D01*
X-99500Y48612D01*
X-99597Y49100D01*
X-99874Y49514D01*
Y49678D01*
X-99597Y50092D01*
X-99500Y50580D01*
X-99597Y51068D01*
X-99672Y51180D01*
X-99838Y51565D01*
X-99672Y51949D01*
X-99597Y52061D01*
X-99500Y52549D01*
X-99597Y53037D01*
X-99874Y53451D01*
Y53615D01*
X-99597Y54029D01*
X-99500Y54517D01*
X-99095Y54915D01*
X-98827Y54941D01*
X-96189Y52302D01*
Y46044D01*
X-96197Y45989D01*
X-96209Y45936D01*
X-96223Y45892D01*
X-96237Y45856D01*
X-96253Y45826D01*
X-96265Y45807D01*
X-96335Y45760D01*
X-96755Y45131D01*
X-96902Y44390D01*
X-96755Y43649D01*
X-96335Y43020D01*
X-95706Y42600D01*
X-94965Y42453D01*
X-94224Y42600D01*
X-93595Y43020D01*
X-93175Y43649D01*
X-93028Y44390D01*
X-93175Y45131D01*
X-93595Y45760D01*
X-93665Y45807D01*
X-93677Y45826D01*
X-93693Y45856D01*
X-93707Y45892D01*
X-93721Y45936D01*
X-93733Y45989D01*
X-93742Y46044D01*
Y52218D01*
X-93242Y52597D01*
X-93108Y52570D01*
X-74705D01*
X-74650Y52562D01*
X-74598Y52550D01*
X-74554Y52536D01*
X-74517Y52521D01*
X-74487Y52506D01*
X-74468Y52494D01*
X-74421Y52424D01*
X-73793Y52004D01*
X-73052Y51856D01*
X-72310Y52004D01*
X-71682Y52424D01*
X-71262Y53052D01*
X-71114Y53794D01*
X-71131Y53876D01*
X-71126Y53898D01*
X-71115Y53930D01*
X-71100Y53967D01*
X-71078Y54007D01*
X-71050Y54053D01*
X-71017Y54098D01*
X-69852Y55263D01*
X-64605D01*
X-64270Y54763D01*
D02*
G37*
G36*
X-36595Y52523D02*
X-35513Y51607D01*
X-35189Y51383D01*
X-34884Y51200D01*
X-34598Y51057D01*
X-34330Y50955D01*
X-34081Y50894D01*
X-33851Y50874D01*
X-38551D01*
X-38412Y50880D01*
X-38300Y50899D01*
X-38216Y50930D01*
X-38160Y50973D01*
X-38132Y51029D01*
X-38131Y51098D01*
X-38159Y51178D01*
X-38214Y51272D01*
X-38296Y51377D01*
X-38407Y51495D01*
X-36992Y52910D01*
X-36595Y52523D01*
D02*
G37*
G36*
X21272Y51681D02*
X21287Y51509D01*
X21312Y51358D01*
X21347Y51226D01*
X21392Y51115D01*
X21447Y51024D01*
X21512Y50953D01*
X21587Y50902D01*
X21672Y50872D01*
X21767Y50862D01*
X19767D01*
X19862Y50872D01*
X19947Y50902D01*
X20022Y50953D01*
X20087Y51024D01*
X20142Y51115D01*
X20187Y51226D01*
X20222Y51358D01*
X20247Y51509D01*
X20262Y51681D01*
X20267Y51874D01*
X21267D01*
X21272Y51681D01*
D02*
G37*
G36*
X-44988Y53009D02*
X-45073Y52949D01*
X-45147Y52849D01*
X-45212Y52709D01*
X-45267Y52529D01*
X-45311Y52309D01*
X-45346Y52049D01*
X-45373Y51622D01*
X-45314Y50890D01*
X-45271Y50670D01*
X-45218Y50490D01*
X-45156Y50350D01*
X-45084Y50250D01*
X-45003Y50190D01*
X-44912Y50170D01*
X-47888D01*
X-47793Y50190D01*
X-47709Y50250D01*
X-47634Y50350D01*
X-47570Y50490D01*
X-47515Y50670D01*
X-47470Y50890D01*
X-47436Y51150D01*
X-47409Y51577D01*
X-47467Y52309D01*
X-47511Y52529D01*
X-47563Y52709D01*
X-47625Y52849D01*
X-47697Y52949D01*
X-47779Y53009D01*
X-47870Y53029D01*
X-44894D01*
X-44988Y53009D01*
D02*
G37*
G36*
X15151Y51478D02*
X15858Y51654D01*
X16858D01*
X14858Y49154D01*
X14848Y49534D01*
X14818Y49874D01*
X14768Y50174D01*
X14698Y50434D01*
X14608Y50654D01*
X14498Y50834D01*
X14368Y50974D01*
X14218Y51074D01*
X14065Y51128D01*
X13365Y51152D01*
X12992Y51154D01*
Y52154D01*
X13365Y52156D01*
X14870Y52256D01*
X14998Y52287D01*
X15092Y52322D01*
X15151Y52362D01*
Y51478D01*
D02*
G37*
G36*
X-121730Y49277D02*
X-121815Y49247D01*
X-121890Y49196D01*
X-121955Y49125D01*
X-122010Y49034D01*
X-122055Y48923D01*
X-122090Y48791D01*
X-122115Y48639D01*
X-122130Y48467D01*
X-122135Y48275D01*
X-123135D01*
X-123140Y48467D01*
X-123155Y48639D01*
X-123180Y48791D01*
X-123215Y48923D01*
X-123260Y49034D01*
X-123315Y49125D01*
X-123380Y49196D01*
X-123455Y49247D01*
X-123540Y49277D01*
X-123635Y49287D01*
X-121635D01*
X-121730Y49277D01*
D02*
G37*
G36*
X-126730D02*
X-126815Y49247D01*
X-126890Y49196D01*
X-126955Y49125D01*
X-127010Y49034D01*
X-127055Y48923D01*
X-127090Y48791D01*
X-127115Y48639D01*
X-127130Y48467D01*
X-127135Y48275D01*
X-128135D01*
X-128140Y48467D01*
X-128155Y48639D01*
X-128180Y48791D01*
X-128215Y48923D01*
X-128260Y49034D01*
X-128315Y49125D01*
X-128380Y49196D01*
X-128455Y49247D01*
X-128540Y49277D01*
X-128635Y49287D01*
X-126635D01*
X-126730Y49277D01*
D02*
G37*
G36*
X-56853Y49119D02*
X-56821Y49117D01*
X-55854Y49112D01*
Y48112D01*
X-56866Y48104D01*
Y49120D01*
X-56853Y49119D01*
D02*
G37*
G36*
X-52994Y47612D02*
X-53004Y47707D01*
X-53034Y47792D01*
X-53085Y47867D01*
X-53156Y47932D01*
X-53247Y47987D01*
X-53358Y48032D01*
X-53490Y48067D01*
X-53641Y48092D01*
X-53813Y48107D01*
X-54006Y48112D01*
Y49112D01*
X-53813Y49117D01*
X-53641Y49132D01*
X-53490Y49157D01*
X-53358Y49192D01*
X-53247Y49237D01*
X-53156Y49292D01*
X-53085Y49357D01*
X-53034Y49432D01*
X-53004Y49517D01*
X-52994Y49612D01*
Y47612D01*
D02*
G37*
G36*
X-153767Y47520D02*
X-153787Y47627D01*
X-153847Y47722D01*
X-153947Y47807D01*
X-154087Y47880D01*
X-154267Y47942D01*
X-154487Y47992D01*
X-154747Y48032D01*
X-155047Y48060D01*
X-155767Y48082D01*
Y50082D01*
X-155387Y50088D01*
X-154747Y50133D01*
X-154487Y50173D01*
X-154267Y50223D01*
X-154087Y50285D01*
X-153947Y50358D01*
X-153847Y50443D01*
X-153787Y50538D01*
X-153767Y50645D01*
Y47520D01*
D02*
G37*
G36*
X-25850Y48758D02*
X-25839Y48653D01*
X-25818Y48550D01*
X-25790Y48450D01*
X-25752Y48352D01*
X-25707Y48257D01*
X-25653Y48164D01*
X-25590Y48074D01*
X-25519Y47986D01*
X-25439Y47901D01*
X-26076Y47264D01*
X-26161Y47344D01*
X-26248Y47415D01*
X-26339Y47478D01*
X-26432Y47532D01*
X-26527Y47578D01*
X-26625Y47615D01*
X-26725Y47643D01*
X-26828Y47664D01*
X-26933Y47675D01*
X-27041Y47678D01*
X-25853Y48866D01*
X-25850Y48758D01*
D02*
G37*
G36*
X21587Y47756D02*
X21569Y47743D01*
X21553Y47723D01*
X21539Y47693D01*
X21527Y47656D01*
X21518Y47610D01*
X21510Y47556D01*
X21502Y47422D01*
X21501Y47343D01*
X21502Y47263D01*
X21518Y47075D01*
X21527Y47029D01*
X21539Y46992D01*
X21553Y46962D01*
X21569Y46941D01*
X21587Y46929D01*
X21607Y46925D01*
X20795D01*
X20815Y46929D01*
X20833Y46941D01*
X20849Y46962D01*
X20863Y46992D01*
X20875Y47029D01*
X20884Y47075D01*
X20891Y47129D01*
X20900Y47263D01*
X20901Y47343D01*
X20900Y47422D01*
X20884Y47610D01*
X20875Y47656D01*
X20863Y47693D01*
X20849Y47723D01*
X20833Y47743D01*
X20816Y47756D01*
X20795Y47760D01*
X21607D01*
X21587Y47756D01*
D02*
G37*
G36*
X-66797Y48380D02*
X-66785Y48275D01*
X-66765Y48172D01*
X-66736Y48071D01*
X-66699Y47974D01*
X-66654Y47878D01*
X-66600Y47785D01*
X-66537Y47695D01*
X-66466Y47608D01*
X-66386Y47523D01*
X-67023Y46886D01*
X-67108Y46966D01*
X-67195Y47037D01*
X-67286Y47100D01*
X-67378Y47154D01*
X-67474Y47199D01*
X-67571Y47236D01*
X-67672Y47265D01*
X-67775Y47285D01*
X-67880Y47297D01*
X-67988Y47300D01*
X-66800Y48488D01*
X-66797Y48380D01*
D02*
G37*
G36*
X-122130Y47298D02*
X-122115Y47128D01*
X-122090Y46978D01*
X-122055Y46848D01*
X-122010Y46738D01*
X-121955Y46648D01*
X-121890Y46578D01*
X-121815Y46528D01*
X-121730Y46498D01*
X-121635Y46488D01*
X-123635D01*
X-123540Y46498D01*
X-123455Y46528D01*
X-123380Y46578D01*
X-123315Y46648D01*
X-123260Y46738D01*
X-123215Y46848D01*
X-123180Y46978D01*
X-123155Y47128D01*
X-123140Y47298D01*
X-123135Y47488D01*
X-122135D01*
X-122130Y47298D01*
D02*
G37*
G36*
X-127130Y47298D02*
X-127115Y47128D01*
X-127090Y46978D01*
X-127055Y46848D01*
X-127010Y46738D01*
X-126955Y46648D01*
X-126890Y46578D01*
X-126815Y46528D01*
X-126730Y46498D01*
X-126635Y46488D01*
X-128635D01*
X-128540Y46498D01*
X-128455Y46528D01*
X-128380Y46578D01*
X-128315Y46648D01*
X-128260Y46738D01*
X-128215Y46848D01*
X-128180Y46978D01*
X-128155Y47128D01*
X-128140Y47298D01*
X-128135Y47488D01*
X-127135D01*
X-127130Y47298D01*
D02*
G37*
G36*
X-63254Y46135D02*
X-63279Y46146D01*
X-63321Y46156D01*
X-63379Y46165D01*
X-63544Y46179D01*
X-64069Y46192D01*
X-64240Y46193D01*
Y47093D01*
X-64069Y47094D01*
X-63279Y47140D01*
X-63254Y47151D01*
Y46135D01*
D02*
G37*
G36*
X-4789Y47487D02*
X-4938Y47317D01*
X-5070Y47146D01*
X-5184Y46977D01*
X-5280Y46809D01*
X-5359Y46641D01*
X-5373Y46604D01*
X-5359Y46567D01*
X-5280Y46400D01*
X-5184Y46231D01*
X-5070Y46062D01*
X-4938Y45892D01*
X-4789Y45721D01*
X-4622Y45549D01*
X-7378D01*
X-7211Y45721D01*
X-7062Y45892D01*
X-6930Y46062D01*
X-6816Y46231D01*
X-6719Y46400D01*
X-6640Y46567D01*
X-6627Y46604D01*
X-6640Y46641D01*
X-6719Y46809D01*
X-6816Y46977D01*
X-6930Y47146D01*
X-7062Y47317D01*
X-7211Y47487D01*
X-7378Y47659D01*
X-4622D01*
X-4789Y47487D01*
D02*
G37*
G36*
X-94462Y46080D02*
X-94451Y45964D01*
X-94434Y45854D01*
X-94411Y45750D01*
X-94380Y45652D01*
X-94343Y45560D01*
X-94298Y45473D01*
X-94248Y45392D01*
X-94190Y45316D01*
X-94125Y45247D01*
X-95805D01*
X-95740Y45316D01*
X-95683Y45392D01*
X-95632Y45473D01*
X-95587Y45560D01*
X-95550Y45652D01*
X-95519Y45750D01*
X-95496Y45854D01*
X-95479Y45964D01*
X-95468Y46080D01*
X-95465Y46201D01*
X-94465D01*
X-94462Y46080D01*
D02*
G37*
G36*
X-66300Y44063D02*
X-66379Y43980D01*
X-66519Y43808D01*
X-66581Y43718D01*
X-66637Y43626D01*
X-66688Y43531D01*
X-66732Y43435D01*
X-66771Y43335D01*
X-66804Y43234D01*
X-66832Y43130D01*
X-67701Y44568D01*
X-67601Y44548D01*
X-67503Y44538D01*
X-67406Y44541D01*
X-67310Y44554D01*
X-67216Y44579D01*
X-67123Y44615D01*
X-67031Y44662D01*
X-66941Y44720D01*
X-66853Y44790D01*
X-66765Y44870D01*
X-66300Y44063D01*
D02*
G37*
G36*
X57032Y44198D02*
X57025Y44264D01*
X57003Y44324D01*
X56968Y44376D01*
X56918Y44422D01*
X56854Y44460D01*
X56775Y44492D01*
X56683Y44516D01*
X56576Y44534D01*
X56455Y44544D01*
X56320Y44548D01*
Y45248D01*
X56455Y45251D01*
X56576Y45262D01*
X56683Y45279D01*
X56775Y45304D01*
X56854Y45335D01*
X56918Y45374D01*
X56968Y45419D01*
X57003Y45472D01*
X57025Y45531D01*
X57032Y45598D01*
Y44198D01*
D02*
G37*
G36*
X37916Y45531D02*
X37937Y45472D01*
X37972Y45419D01*
X38021Y45374D01*
X38084Y45335D01*
X38161Y45304D01*
X38252Y45279D01*
X38357Y45262D01*
X38476Y45251D01*
X38609Y45248D01*
Y44548D01*
X38476Y44544D01*
X38357Y44534D01*
X38252Y44516D01*
X38161Y44492D01*
X38084Y44460D01*
X38021Y44422D01*
X37972Y44376D01*
X37937Y44324D01*
X37916Y44264D01*
X37909Y44198D01*
Y45598D01*
X37916Y45531D01*
D02*
G37*
G36*
X-63254Y44167D02*
X-63279Y44178D01*
X-63321Y44188D01*
X-63379Y44197D01*
X-63544Y44211D01*
X-64069Y44225D01*
X-64240Y44225D01*
Y45125D01*
X-64069Y45126D01*
X-63279Y45172D01*
X-63254Y45183D01*
Y44167D01*
D02*
G37*
G36*
X28091Y43630D02*
X28086Y43707D01*
X28071Y43766D01*
X28046Y43806D01*
X28012Y43828D01*
X27967Y43831D01*
X27913Y43815D01*
X27848Y43781D01*
X27774Y43728D01*
X27690Y43657D01*
X27596Y43567D01*
Y44557D01*
X27692Y44658D01*
X27777Y44758D01*
X27853Y44858D01*
X27919Y44958D01*
X27975Y45057D01*
X28020Y45156D01*
X28056Y45254D01*
X28082Y45352D01*
X28097Y45450D01*
X28103Y45547D01*
X28091Y43630D01*
D02*
G37*
G36*
X63747Y44047D02*
X63664Y43949D01*
X63590Y43850D01*
X63526Y43751D01*
X63472Y43650D01*
X63428Y43549D01*
X63394Y43446D01*
X63370Y43342D01*
X63366Y43319D01*
X63381Y43229D01*
X63406Y43138D01*
X63437Y43061D01*
X63476Y42998D01*
X63521Y42949D01*
X63574Y42914D01*
X63634Y42893D01*
X63700Y42886D01*
X62300D01*
X62366Y42893D01*
X62426Y42914D01*
X62479Y42949D01*
X62524Y42998D01*
X62563Y43061D01*
X62594Y43138D01*
X62618Y43229D01*
X62634Y43319D01*
X62630Y43342D01*
X62606Y43446D01*
X62572Y43549D01*
X62528Y43650D01*
X62474Y43751D01*
X62410Y43850D01*
X62336Y43949D01*
X62253Y44047D01*
X62160Y44143D01*
X63840D01*
X63747Y44047D01*
D02*
G37*
G36*
X-4422Y45355D02*
X-4252Y45206D01*
X-4082Y45074D01*
X-3912Y44960D01*
X-3744Y44863D01*
X-3577Y44784D01*
X-3410Y44723D01*
X-3244Y44679D01*
X-3079Y44652D01*
X-2915Y44644D01*
Y43644D01*
X-3079Y43635D01*
X-3244Y43608D01*
X-3410Y43565D01*
X-3577Y43503D01*
X-3744Y43424D01*
X-3912Y43328D01*
X-4082Y43213D01*
X-4252Y43082D01*
X-4422Y42933D01*
X-4594Y42766D01*
Y45522D01*
X-4422Y45355D01*
D02*
G37*
G36*
X-56766Y43152D02*
X-56662Y43097D01*
X-56553Y43048D01*
X-56440Y43006D01*
X-56322Y42970D01*
X-56199Y42941D01*
X-56072Y42919D01*
X-55940Y42902D01*
X-55663Y42889D01*
X-55706Y41989D01*
X-55982Y41991D01*
X-56732Y42042D01*
X-56830Y42064D01*
X-56892Y42092D01*
X-56919Y42123D01*
X-56910Y42158D01*
X-56866Y42198D01*
Y43214D01*
X-56766Y43152D01*
D02*
G37*
G36*
X-26287Y42695D02*
X-26354Y42612D01*
X-26412Y42525D01*
X-26463Y42434D01*
X-26506Y42338D01*
X-26541Y42239D01*
X-26568Y42135D01*
X-26588Y42027D01*
X-26599Y41914D01*
X-26603Y41798D01*
X-27503D01*
X-27507Y41914D01*
X-27519Y42027D01*
X-27538Y42135D01*
X-27566Y42239D01*
X-27601Y42338D01*
X-27644Y42434D01*
X-27694Y42525D01*
X-27753Y42612D01*
X-27819Y42695D01*
X-27893Y42773D01*
X-26213D01*
X-26287Y42695D01*
D02*
G37*
G36*
X-47926Y41543D02*
X-47983Y41627D01*
X-48047Y41703D01*
X-48118Y41770D01*
X-48195Y41829D01*
X-48280Y41878D01*
X-48371Y41918D01*
X-48469Y41949D01*
X-48574Y41971D01*
X-48686Y41985D01*
X-48805Y41989D01*
X-48571Y42889D01*
X-48456Y42892D01*
X-48235Y42915D01*
X-48128Y42935D01*
X-48023Y42961D01*
X-47921Y42993D01*
X-47821Y43030D01*
X-47723Y43073D01*
X-47628Y43122D01*
X-47536Y43177D01*
X-47926Y41543D01*
D02*
G37*
G36*
X52688Y41932D02*
X52688Y41917D01*
X52685Y41421D01*
X52689Y40917D01*
X51681D01*
X51682Y40922D01*
X51682Y40937D01*
X51685Y41421D01*
X51681Y41937D01*
X52689D01*
X52688Y41932D01*
D02*
G37*
G36*
X28103Y40864D02*
X28097Y40905D01*
X28080Y40943D01*
X28050Y40976D01*
X28010Y41004D01*
X27957Y41028D01*
X27893Y41048D01*
X27818Y41064D01*
X27731Y41074D01*
X27632Y41081D01*
X27521Y41083D01*
Y41783D01*
X27632Y41785D01*
X27818Y41803D01*
X27893Y41818D01*
X27957Y41838D01*
X28010Y41862D01*
X28050Y41891D01*
X28080Y41924D01*
X28097Y41961D01*
X28103Y42003D01*
Y40864D01*
D02*
G37*
G36*
X37916Y42067D02*
X37937Y42007D01*
X37972Y41955D01*
X38021Y41909D01*
X38084Y41871D01*
X38161Y41839D01*
X38252Y41815D01*
X38357Y41797D01*
X38476Y41787D01*
X38609Y41783D01*
Y41083D01*
X38476Y41080D01*
X38357Y41069D01*
X38252Y41052D01*
X38161Y41027D01*
X38084Y40996D01*
X38021Y40957D01*
X37972Y40912D01*
X37937Y40859D01*
X37916Y40800D01*
X37909Y40733D01*
Y42133D01*
X37916Y42067D01*
D02*
G37*
G36*
X-4789Y42566D02*
X-4938Y42395D01*
X-5070Y42225D01*
X-5184Y42056D01*
X-5280Y41888D01*
X-5359Y41720D01*
X-5373Y41683D01*
X-5359Y41646D01*
X-5280Y41478D01*
X-5184Y41310D01*
X-5070Y41141D01*
X-4938Y40971D01*
X-4789Y40800D01*
X-4622Y40628D01*
X-7378D01*
X-7211Y40800D01*
X-7062Y40971D01*
X-6930Y41141D01*
X-6816Y41310D01*
X-6719Y41478D01*
X-6640Y41646D01*
X-6627Y41683D01*
X-6640Y41720D01*
X-6719Y41888D01*
X-6816Y42056D01*
X-6930Y42225D01*
X-7062Y42395D01*
X-7211Y42566D01*
X-7378Y42738D01*
X-4622D01*
X-4789Y42566D01*
D02*
G37*
G36*
X39702Y40593D02*
X39605Y40686D01*
X39508Y40770D01*
X39409Y40843D01*
X39310Y40907D01*
X39209Y40961D01*
X39107Y41005D01*
X39005Y41039D01*
X38901Y41064D01*
X38797Y41078D01*
X38691Y41083D01*
Y41783D01*
X38797Y41788D01*
X38901Y41803D01*
X39005Y41827D01*
X39107Y41862D01*
X39209Y41906D01*
X39310Y41960D01*
X39409Y42023D01*
X39508Y42097D01*
X39605Y42180D01*
X39702Y42273D01*
Y40593D01*
D02*
G37*
G36*
X-40297Y42041D02*
X-40285Y41935D01*
X-40265Y41833D01*
X-40236Y41732D01*
X-40199Y41634D01*
X-40154Y41539D01*
X-40099Y41446D01*
X-40037Y41356D01*
X-39966Y41268D01*
X-39886Y41183D01*
X-40523Y40547D01*
X-40608Y40626D01*
X-40695Y40698D01*
X-40786Y40760D01*
X-40878Y40814D01*
X-40974Y40860D01*
X-41071Y40897D01*
X-41172Y40926D01*
X-41275Y40946D01*
X-41380Y40958D01*
X-41488Y40961D01*
X-40300Y42149D01*
X-40297Y42041D01*
D02*
G37*
G36*
X-56840Y41235D02*
X-56798Y41225D01*
X-56740Y41216D01*
X-56576Y41203D01*
X-56051Y41189D01*
X-55879Y41188D01*
Y40288D01*
X-56051Y40288D01*
X-56840Y40241D01*
X-56866Y40230D01*
Y41246D01*
X-56840Y41235D01*
D02*
G37*
G36*
X23544Y40872D02*
X23557Y40858D01*
X23579Y40845D01*
X23611Y40834D01*
X23651Y40824D01*
X23700Y40817D01*
X23758Y40811D01*
X23901Y40804D01*
X23987Y40803D01*
Y40103D01*
X23901Y40102D01*
X23700Y40089D01*
X23651Y40082D01*
X23611Y40072D01*
X23579Y40061D01*
X23557Y40048D01*
X23544Y40034D01*
X23539Y40018D01*
Y40888D01*
X23544Y40872D01*
D02*
G37*
G36*
X60859Y39957D02*
X60852Y39994D01*
X60830Y40026D01*
X60795Y40055D01*
X60747Y40080D01*
X60684Y40102D01*
X60606Y40119D01*
X60515Y40133D01*
X60410Y40142D01*
X60158Y40150D01*
Y40850D01*
X60291Y40851D01*
X60795Y40883D01*
X60830Y40893D01*
X60852Y40904D01*
X60859Y40917D01*
Y39957D01*
D02*
G37*
G36*
X-38551Y39874D02*
X-38560Y39899D01*
X-38587Y39921D01*
X-38632Y39940D01*
X-38695Y39957D01*
X-38776Y39971D01*
X-38875Y39982D01*
X-39127Y39998D01*
X-39451Y40003D01*
Y40903D01*
X-39280Y40904D01*
X-38776Y40935D01*
X-38695Y40949D01*
X-38632Y40966D01*
X-38587Y40985D01*
X-38560Y41007D01*
X-38551Y41031D01*
Y39874D01*
D02*
G37*
G36*
X-56840Y39266D02*
X-56798Y39256D01*
X-56740Y39248D01*
X-56576Y39234D01*
X-56051Y39220D01*
X-55879Y39219D01*
Y38319D01*
X-56051Y38318D01*
X-56840Y38272D01*
X-56866Y38261D01*
Y39277D01*
X-56840Y39266D01*
D02*
G37*
G36*
X51832Y38115D02*
X51821Y38115D01*
X51669Y38117D01*
X50828Y38118D01*
Y38818D01*
X51832Y38822D01*
Y38115D01*
D02*
G37*
G36*
X50229Y37988D02*
X50222Y38013D01*
X50200Y38035D01*
X50165Y38055D01*
X50116Y38072D01*
X50054Y38086D01*
X49977Y38098D01*
X49780Y38113D01*
X49529Y38118D01*
Y38818D01*
X49661Y38820D01*
X50054Y38851D01*
X50116Y38865D01*
X50165Y38882D01*
X50200Y38902D01*
X50222Y38924D01*
X50229Y38949D01*
Y37988D01*
D02*
G37*
G36*
X28103Y37931D02*
X28099Y37932D01*
X28088Y37932D01*
X27738Y37934D01*
Y38634D01*
X28103Y38636D01*
Y37931D01*
D02*
G37*
G36*
X-38551Y37906D02*
X-38560Y37930D01*
X-38587Y37952D01*
X-38632Y37971D01*
X-38695Y37988D01*
X-38776Y38002D01*
X-38875Y38014D01*
X-39127Y38029D01*
X-39451Y38034D01*
Y38934D01*
X-39280Y38936D01*
X-38776Y38967D01*
X-38695Y38981D01*
X-38632Y38997D01*
X-38587Y39017D01*
X-38560Y39039D01*
X-38551Y39063D01*
Y37906D01*
D02*
G37*
G36*
X23558Y39019D02*
X23579Y38980D01*
X23614Y38946D01*
X23663Y38916D01*
X23726Y38891D01*
X23803Y38871D01*
X23894Y38855D01*
X23999Y38843D01*
X24251Y38834D01*
Y38134D01*
X24118Y38132D01*
X23894Y38113D01*
X23803Y38098D01*
X23726Y38077D01*
X23663Y38052D01*
X23614Y38022D01*
X23579Y37988D01*
X23558Y37949D01*
X23551Y37906D01*
Y39063D01*
X23558Y39019D01*
D02*
G37*
G36*
X37916Y39102D02*
X37937Y39042D01*
X37972Y38990D01*
X38021Y38945D01*
X38084Y38906D01*
X38161Y38875D01*
X38252Y38850D01*
X38357Y38833D01*
X38476Y38822D01*
X38609Y38818D01*
Y38118D01*
X38476Y38115D01*
X38357Y38105D01*
X38252Y38087D01*
X38161Y38063D01*
X38084Y38031D01*
X38021Y37993D01*
X37972Y37947D01*
X37937Y37894D01*
X37916Y37835D01*
X37909Y37769D01*
Y39169D01*
X37916Y39102D01*
D02*
G37*
G36*
X67012Y37468D02*
X67002Y37563D01*
X66972Y37648D01*
X66922Y37723D01*
X66852Y37789D01*
X66762Y37843D01*
X66652Y37889D01*
X66522Y37923D01*
X66372Y37949D01*
X66202Y37964D01*
X66012Y37969D01*
Y38969D01*
X66202Y38974D01*
X66372Y38989D01*
X66522Y39013D01*
X66652Y39048D01*
X66762Y39094D01*
X66852Y39149D01*
X66922Y39213D01*
X66972Y39288D01*
X67002Y39373D01*
X67012Y39469D01*
Y37468D01*
D02*
G37*
G36*
X-56840Y37298D02*
X-56798Y37288D01*
X-56740Y37279D01*
X-56576Y37266D01*
X-56051Y37252D01*
X-55879Y37251D01*
Y36351D01*
X-56051Y36351D01*
X-56840Y36304D01*
X-56866Y36293D01*
Y37309D01*
X-56840Y37298D01*
D02*
G37*
G36*
X64779Y36955D02*
X64799Y36933D01*
X64834Y36914D01*
X64884Y36897D01*
X64947Y36882D01*
X65023Y36871D01*
X65219Y36855D01*
X65472Y36850D01*
Y36150D01*
X65338Y36149D01*
X64947Y36118D01*
X64884Y36103D01*
X64834Y36086D01*
X64799Y36067D01*
X64779Y36045D01*
X64771Y36020D01*
Y36980D01*
X64779Y36955D01*
D02*
G37*
G36*
X69936Y39337D02*
X69937Y39235D01*
X69978Y39103D01*
X70060Y38944D01*
X70183Y38756D01*
X70345Y38539D01*
X70793Y38020D01*
X71402Y37387D01*
X69988Y35972D01*
X69657Y36297D01*
X68619Y37192D01*
X68431Y37314D01*
X68271Y37396D01*
X68140Y37437D01*
X68037Y37438D01*
X67963Y37399D01*
X69976Y39411D01*
X69936Y39337D01*
D02*
G37*
G36*
X-33842Y37070D02*
X-33815Y37048D01*
X-33770Y37029D01*
X-33707Y37012D01*
X-33626Y36998D01*
X-33527Y36987D01*
X-33275Y36971D01*
X-32951Y36966D01*
Y36066D01*
X-33122Y36065D01*
X-33626Y36034D01*
X-33707Y36020D01*
X-33770Y36003D01*
X-33815Y35984D01*
X-33842Y35962D01*
X-33851Y35937D01*
Y37094D01*
X-33842Y37070D01*
D02*
G37*
G36*
X23558Y37051D02*
X23579Y37012D01*
X23614Y36978D01*
X23663Y36948D01*
X23726Y36923D01*
X23803Y36902D01*
X23894Y36887D01*
X23999Y36875D01*
X24251Y36866D01*
Y36166D01*
X24118Y36164D01*
X23894Y36145D01*
X23803Y36129D01*
X23726Y36109D01*
X23663Y36084D01*
X23614Y36054D01*
X23579Y36020D01*
X23558Y35981D01*
X23551Y35937D01*
Y37094D01*
X23558Y37051D01*
D02*
G37*
G36*
X-31956Y35676D02*
X-32035Y35750D01*
X-32118Y35816D01*
X-32205Y35875D01*
X-32296Y35926D01*
X-32392Y35969D01*
X-32491Y36004D01*
X-32595Y36031D01*
X-32703Y36050D01*
X-32815Y36062D01*
X-32932Y36066D01*
Y36966D01*
X-32815Y36970D01*
X-32703Y36982D01*
X-32595Y37001D01*
X-32491Y37028D01*
X-32392Y37064D01*
X-32296Y37106D01*
X-32205Y37157D01*
X-32118Y37216D01*
X-32035Y37282D01*
X-31956Y37356D01*
Y35676D01*
D02*
G37*
G36*
X47488Y36000D02*
X47296Y35995D01*
X47125Y35980D01*
X46974Y35955D01*
X46842Y35920D01*
X46731Y35875D01*
X46640Y35820D01*
X46569Y35755D01*
X46518Y35680D01*
X46487Y35595D01*
X46476Y35500D01*
X46488Y36988D01*
X46498Y36990D01*
X46528Y36992D01*
X46978Y36999D01*
X47488Y37000D01*
Y36000D01*
D02*
G37*
G36*
X-63254Y34324D02*
X-63268Y34328D01*
X-63300Y34331D01*
X-63416Y34337D01*
X-64182Y34343D01*
X-64298Y35243D01*
X-64126Y35244D01*
X-63408Y35291D01*
X-63342Y35305D01*
X-63290Y35322D01*
X-63254Y35340D01*
Y34324D01*
D02*
G37*
G36*
X-106954D02*
X-106966Y34326D01*
X-106998Y34327D01*
X-107966Y34332D01*
Y35332D01*
X-106954Y35340D01*
Y34324D01*
D02*
G37*
G36*
X37916Y35453D02*
X37937Y35393D01*
X37972Y35341D01*
X38021Y35295D01*
X38084Y35257D01*
X38161Y35225D01*
X38252Y35201D01*
X38357Y35183D01*
X38476Y35173D01*
X38609Y35169D01*
Y34469D01*
X38476Y34466D01*
X38357Y34455D01*
X38252Y34438D01*
X38161Y34413D01*
X38084Y34382D01*
X38021Y34343D01*
X37972Y34298D01*
X37937Y34245D01*
X37916Y34186D01*
X37909Y34119D01*
Y35519D01*
X37916Y35453D01*
D02*
G37*
G36*
X39702Y33979D02*
X39605Y34072D01*
X39508Y34155D01*
X39409Y34229D01*
X39309Y34293D01*
X39209Y34347D01*
X39107Y34391D01*
X39005Y34425D01*
X38901Y34449D01*
X38796Y34464D01*
X38691Y34469D01*
Y35169D01*
X38796Y35174D01*
X38901Y35189D01*
X39005Y35213D01*
X39107Y35248D01*
X39209Y35292D01*
X39309Y35346D01*
X39409Y35409D01*
X39508Y35483D01*
X39605Y35566D01*
X39702Y35659D01*
Y33979D01*
D02*
G37*
G36*
X-38551Y33969D02*
X-38560Y33993D01*
X-38587Y34015D01*
X-38632Y34034D01*
X-38695Y34051D01*
X-38776Y34065D01*
X-38875Y34076D01*
X-39127Y34092D01*
X-39451Y34097D01*
Y34997D01*
X-39280Y34998D01*
X-38776Y35029D01*
X-38695Y35043D01*
X-38632Y35060D01*
X-38587Y35080D01*
X-38560Y35101D01*
X-38551Y35126D01*
Y33969D01*
D02*
G37*
G36*
X23558Y35082D02*
X23579Y35043D01*
X23614Y35009D01*
X23663Y34979D01*
X23726Y34954D01*
X23803Y34934D01*
X23894Y34918D01*
X23999Y34906D01*
X24251Y34897D01*
Y34197D01*
X24118Y34195D01*
X23894Y34177D01*
X23803Y34161D01*
X23726Y34140D01*
X23663Y34115D01*
X23614Y34085D01*
X23579Y34051D01*
X23558Y34012D01*
X23551Y33969D01*
Y35126D01*
X23558Y35082D01*
D02*
G37*
G36*
X-65592Y35511D02*
X-65500Y35455D01*
X-65405Y35406D01*
X-65308Y35362D01*
X-65207Y35326D01*
X-65104Y35296D01*
X-64998Y35273D01*
X-64888Y35257D01*
X-64776Y35247D01*
X-64661Y35243D01*
X-64517Y34343D01*
X-64635Y34339D01*
X-64748Y34326D01*
X-64854Y34305D01*
X-64954Y34274D01*
X-65049Y34236D01*
X-65138Y34188D01*
X-65221Y34132D01*
X-65298Y34067D01*
X-65369Y33994D01*
X-65435Y33912D01*
X-65680Y35574D01*
X-65592Y35511D01*
D02*
G37*
G36*
X28103Y33847D02*
X28096Y33914D01*
X28074Y33973D01*
X28039Y34026D01*
X27989Y34071D01*
X27925Y34110D01*
X27846Y34141D01*
X27754Y34166D01*
X27647Y34183D01*
X27526Y34194D01*
X27391Y34197D01*
Y34897D01*
X27526Y34901D01*
X27647Y34911D01*
X27754Y34929D01*
X27846Y34953D01*
X27925Y34985D01*
X27989Y35023D01*
X28039Y35069D01*
X28074Y35121D01*
X28096Y35181D01*
X28103Y35247D01*
Y33847D01*
D02*
G37*
G36*
X-111649Y35737D02*
X-111619Y35652D01*
X-111568Y35577D01*
X-111497Y35512D01*
X-111406Y35457D01*
X-111295Y35412D01*
X-111163Y35377D01*
X-111011Y35352D01*
X-110839Y35337D01*
X-110647Y35332D01*
Y34332D01*
X-110839Y34327D01*
X-111011Y34312D01*
X-111163Y34287D01*
X-111295Y34252D01*
X-111406Y34207D01*
X-111497Y34152D01*
X-111568Y34087D01*
X-111619Y34012D01*
X-111649Y33927D01*
X-111659Y33832D01*
Y35832D01*
X-111649Y35737D01*
D02*
G37*
G36*
X64778Y33018D02*
X64799Y32996D01*
X64834Y32977D01*
X64884Y32960D01*
X64947Y32945D01*
X65023Y32934D01*
X65219Y32918D01*
X65472Y32913D01*
Y32213D01*
X65338Y32212D01*
X64947Y32181D01*
X64884Y32166D01*
X64834Y32149D01*
X64799Y32130D01*
X64778Y32108D01*
X64771Y32083D01*
Y33043D01*
X64778Y33018D01*
D02*
G37*
G36*
X-38551Y32000D02*
X-38560Y32025D01*
X-38587Y32047D01*
X-38632Y32066D01*
X-38695Y32083D01*
X-38776Y32097D01*
X-38875Y32108D01*
X-39127Y32124D01*
X-39451Y32129D01*
Y33029D01*
X-39280Y33030D01*
X-38776Y33061D01*
X-38695Y33075D01*
X-38632Y33092D01*
X-38587Y33111D01*
X-38560Y33133D01*
X-38551Y33157D01*
Y32000D01*
D02*
G37*
G36*
X23558Y33114D02*
X23579Y33075D01*
X23614Y33041D01*
X23663Y33011D01*
X23726Y32986D01*
X23803Y32965D01*
X23894Y32950D01*
X23999Y32938D01*
X24251Y32929D01*
Y32229D01*
X24118Y32227D01*
X23894Y32208D01*
X23803Y32192D01*
X23726Y32172D01*
X23663Y32147D01*
X23614Y32117D01*
X23579Y32083D01*
X23558Y32044D01*
X23551Y32000D01*
Y33157D01*
X23558Y33114D01*
D02*
G37*
G36*
X46486Y31287D02*
X46516Y31202D01*
X46567Y31127D01*
X46638Y31062D01*
X46729Y31007D01*
X46840Y30962D01*
X46972Y30927D01*
X47124Y30902D01*
X47269Y30889D01*
X47866Y30882D01*
Y29882D01*
X47494Y29880D01*
X47041Y29848D01*
X46972Y29837D01*
X46840Y29802D01*
X46729Y29757D01*
X46638Y29702D01*
X46567Y29637D01*
X46516Y29562D01*
X46486Y29477D01*
X46476Y29382D01*
Y29809D01*
X45986Y29775D01*
X45855Y29742D01*
X45758Y29705D01*
X45696Y29664D01*
Y31100D01*
X45758Y31058D01*
X45855Y31021D01*
X45986Y30989D01*
X46151Y30960D01*
X46476Y30928D01*
Y31382D01*
X46486Y31287D01*
D02*
G37*
G36*
X-4789Y32724D02*
X-4938Y32553D01*
X-5070Y32383D01*
X-5184Y32214D01*
X-5280Y32045D01*
X-5359Y31878D01*
X-5373Y31841D01*
X-5359Y31803D01*
X-5280Y31636D01*
X-5184Y31467D01*
X-5070Y31298D01*
X-4938Y31128D01*
X-4789Y30957D01*
X-4622Y30786D01*
X-7378D01*
X-7211Y30957D01*
X-7062Y31128D01*
X-6930Y31298D01*
X-6816Y31467D01*
X-6719Y31636D01*
X-6640Y31803D01*
X-6627Y31841D01*
X-6640Y31878D01*
X-6719Y32045D01*
X-6816Y32214D01*
X-6930Y32383D01*
X-7062Y32553D01*
X-7211Y32724D01*
X-7378Y32895D01*
X-4622D01*
X-4789Y32724D01*
D02*
G37*
G36*
X-63254Y30387D02*
X-63266Y30389D01*
X-63298Y30390D01*
X-64266Y30395D01*
Y31395D01*
X-63254Y31403D01*
Y30387D01*
D02*
G37*
G36*
X-56848Y31398D02*
X-56811Y31393D01*
X-56754Y31389D01*
X-56015Y31376D01*
X-55824Y31376D01*
X-55924Y30375D01*
X-56866Y30387D01*
Y31403D01*
X-56848Y31398D01*
D02*
G37*
G36*
X60859Y31075D02*
Y30114D01*
X60852Y30166D01*
X60830Y30212D01*
X60795Y30253D01*
X60747Y30289D01*
X60684Y30319D01*
X60606Y30343D01*
X60515Y30362D01*
X60410Y30376D01*
X60291Y30384D01*
X60158Y30387D01*
Y31087D01*
X60859Y31075D01*
D02*
G37*
G36*
X29097Y31378D02*
X29356Y31158D01*
X29470Y31078D01*
X29574Y31017D01*
X29668Y30976D01*
X29752Y30955D01*
X29826Y30954D01*
X29889Y30973D01*
X29943Y31011D01*
X28965Y30033D01*
X29003Y30086D01*
X29022Y30150D01*
X29020Y30224D01*
X28999Y30307D01*
X28959Y30401D01*
X28898Y30505D01*
X28818Y30620D01*
X28717Y30744D01*
X28458Y31023D01*
X28953Y31518D01*
X29097Y31378D01*
D02*
G37*
G36*
X-33842Y31164D02*
X-33815Y31143D01*
X-33770Y31123D01*
X-33707Y31106D01*
X-33626Y31092D01*
X-33527Y31081D01*
X-33275Y31065D01*
X-32951Y31060D01*
Y30160D01*
X-33122Y30159D01*
X-33626Y30128D01*
X-33707Y30114D01*
X-33770Y30097D01*
X-33815Y30078D01*
X-33842Y30056D01*
X-33851Y30032D01*
Y31189D01*
X-33842Y31164D01*
D02*
G37*
G36*
X23558Y31145D02*
X23579Y31106D01*
X23614Y31072D01*
X23663Y31042D01*
X23726Y31017D01*
X23803Y30997D01*
X23894Y30981D01*
X23999Y30969D01*
X24251Y30960D01*
Y30260D01*
X24118Y30258D01*
X23894Y30239D01*
X23803Y30224D01*
X23726Y30203D01*
X23663Y30178D01*
X23614Y30148D01*
X23579Y30114D01*
X23558Y30075D01*
X23551Y30032D01*
Y31189D01*
X23558Y31145D01*
D02*
G37*
G36*
X-72125Y29275D02*
X-72050Y29218D01*
X-71969Y29167D01*
X-71882Y29122D01*
X-71789Y29085D01*
X-71693Y29055D01*
X-71468Y29033D01*
X-70558Y29002D01*
X-70186Y29000D01*
Y28000D01*
X-70558Y27998D01*
X-71784Y27917D01*
X-71789Y27915D01*
X-71882Y27878D01*
X-71969Y27833D01*
X-72050Y27782D01*
X-72125Y27725D01*
X-72195Y27660D01*
Y27866D01*
X-72286Y27832D01*
X-72344Y27793D01*
X-72383Y27734D01*
X-72418Y27643D01*
X-72212D01*
X-72276Y27573D01*
X-72334Y27498D01*
X-72385Y27417D01*
X-72429Y27330D01*
X-72467Y27238D01*
X-72497Y27141D01*
X-72518Y26916D01*
X-72549Y26007D01*
X-72552Y25634D01*
X-73552D01*
X-73554Y26007D01*
X-73635Y27232D01*
X-73637Y27238D01*
X-73674Y27330D01*
X-73718Y27417D01*
X-73769Y27498D01*
X-73827Y27573D01*
X-73892Y27643D01*
X-73685D01*
X-73720Y27734D01*
X-73759Y27793D01*
X-72345D01*
Y29208D01*
X-72286Y29168D01*
X-72195Y29134D01*
Y29340D01*
X-72125Y29275D01*
D02*
G37*
G36*
X43512Y28894D02*
X43492Y28998D01*
X43432Y29091D01*
X43332Y29173D01*
X43192Y29244D01*
X43012Y29304D01*
X42792Y29353D01*
X42532Y29392D01*
X42232Y29419D01*
X41512Y29441D01*
Y31441D01*
X41892Y31445D01*
X42792Y31510D01*
X43012Y31548D01*
X43192Y31595D01*
X43332Y31651D01*
X43432Y31716D01*
X43492Y31788D01*
X43512Y31870D01*
Y28894D01*
D02*
G37*
G36*
X-33842Y29196D02*
X-33815Y29174D01*
X-33770Y29155D01*
X-33707Y29138D01*
X-33626Y29124D01*
X-33527Y29112D01*
X-33275Y29097D01*
X-32951Y29092D01*
Y28192D01*
X-33122Y28191D01*
X-33626Y28160D01*
X-33707Y28146D01*
X-33770Y28129D01*
X-33815Y28110D01*
X-33842Y28088D01*
X-33851Y28063D01*
Y29220D01*
X-33842Y29196D01*
D02*
G37*
G36*
X23558Y29177D02*
X23579Y29138D01*
X23614Y29104D01*
X23663Y29074D01*
X23726Y29049D01*
X23803Y29028D01*
X23894Y29013D01*
X23999Y29001D01*
X24251Y28992D01*
Y28292D01*
X24118Y28290D01*
X23894Y28271D01*
X23803Y28255D01*
X23726Y28235D01*
X23663Y28210D01*
X23614Y28180D01*
X23579Y28146D01*
X23558Y28107D01*
X23551Y28063D01*
Y29220D01*
X23558Y29177D01*
D02*
G37*
G36*
X37007Y28983D02*
X36987Y28918D01*
Y28844D01*
X37007Y28760D01*
X37047Y28666D01*
X37106Y28562D01*
X37185Y28448D01*
X37284Y28324D01*
X37542Y28047D01*
X37047Y27552D01*
X36903Y27691D01*
X36646Y27909D01*
X36532Y27988D01*
X36428Y28047D01*
X36334Y28087D01*
X36250Y28106D01*
X36176D01*
X36111Y28087D01*
X36057Y28047D01*
X37047Y29037D01*
X37007Y28983D01*
D02*
G37*
G36*
X-111600Y27863D02*
X-111570Y27778D01*
X-111519Y27703D01*
X-111448Y27638D01*
X-111357Y27583D01*
X-111246Y27538D01*
X-111114Y27503D01*
X-110962Y27478D01*
X-110863Y27469D01*
X-110593Y27460D01*
X-110220Y27458D01*
Y26458D01*
X-110593Y26456D01*
X-111029Y26427D01*
X-111114Y26413D01*
X-111246Y26378D01*
X-111357Y26333D01*
X-111448Y26278D01*
X-111519Y26213D01*
X-111570Y26138D01*
X-111600Y26053D01*
X-111610Y25958D01*
Y26389D01*
X-112098Y26356D01*
X-112226Y26325D01*
X-112320Y26290D01*
X-112379Y26250D01*
Y27666D01*
X-112320Y27626D01*
X-112226Y27591D01*
X-112098Y27560D01*
X-111934Y27533D01*
X-111610Y27502D01*
Y27958D01*
X-111600Y27863D01*
D02*
G37*
G36*
X-23701Y102091D02*
X-22335Y101725D01*
X-21028Y101184D01*
X-19803Y100476D01*
X-18680Y99615D01*
X-17680Y98615D01*
X-16819Y97492D01*
X-16112Y96267D01*
X-15570Y94960D01*
X-15500Y94698D01*
Y10511D01*
X-22286D01*
Y11229D01*
X-22341Y11502D01*
X-22495Y11733D01*
X-22727Y11888D01*
X-23000Y11942D01*
X-28000D01*
X-28273Y11888D01*
X-28502Y11735D01*
X-28899Y11487D01*
X-32579D01*
X-32588Y11489D01*
X-32596Y11487D01*
X-33299D01*
Y11095D01*
X-33407Y11074D01*
X-34056Y11021D01*
X-34113D01*
X-34287Y11036D01*
X-34527Y11076D01*
X-34712Y11125D01*
X-34839Y11177D01*
X-34911Y11220D01*
X-34937Y11245D01*
X-34940Y11249D01*
Y12488D01*
X-42340D01*
Y7512D01*
X-43286Y7511D01*
X-43640Y7864D01*
Y8788D01*
X-48640D01*
X-50872D01*
Y7288D01*
X-50900Y7478D01*
X-50982Y7648D01*
X-51120Y7798D01*
X-51313Y7928D01*
X-51561Y8038D01*
X-51864Y8128D01*
X-52223Y8198D01*
X-52636Y8248D01*
X-53105Y8278D01*
X-53628Y8288D01*
Y8788D01*
X-53640D01*
Y7501D01*
X-55000Y7500D01*
Y181D01*
X-60112D01*
X-65472Y5541D01*
Y13003D01*
X-65554Y13413D01*
X-65786Y13760D01*
X-67163Y15138D01*
X-67162Y15172D01*
X-66966Y15648D01*
X-66657Y15710D01*
X-66243Y15986D01*
X-65967Y16400D01*
X-65870Y16888D01*
Y22856D01*
X-65967Y23344D01*
X-66243Y23758D01*
X-66657Y24034D01*
X-67146Y24132D01*
X-67634Y24034D01*
X-68048Y23758D01*
X-68212D01*
X-68626Y24034D01*
X-69115Y24132D01*
X-69603Y24034D01*
X-69714Y23960D01*
X-70099Y23793D01*
X-70483Y23960D01*
X-70594Y24034D01*
X-71083Y24132D01*
X-71328Y24083D01*
X-71828Y24418D01*
Y26220D01*
X-71806Y26870D01*
X-71793Y26999D01*
X-71779Y27034D01*
X-71764Y27064D01*
X-71752Y27083D01*
X-71682Y27130D01*
X-71635Y27200D01*
X-71616Y27212D01*
X-71615Y27213D01*
X-70651Y27277D01*
X-69541D01*
X-69072Y27370D01*
X-68676Y27635D01*
X-66639Y29672D01*
X-65891D01*
X-65690Y29427D01*
X-60060D01*
Y28427D01*
X-65545D01*
X-65447Y27932D01*
X-64883Y27088D01*
X-64262Y26673D01*
X-64222Y26470D01*
X-63945Y26056D01*
X-63532Y25780D01*
X-63043Y25682D01*
X-57076D01*
X-56588Y25780D01*
X-56174Y26056D01*
X-55897Y26470D01*
X-55857Y26673D01*
X-55237Y27088D01*
X-54893Y27602D01*
X-54793Y27614D01*
X-54308Y27181D01*
Y24611D01*
X-53674D01*
Y24611D01*
X-53301Y24613D01*
X-52865Y24642D01*
X-52780Y24656D01*
X-52648Y24691D01*
X-52537Y24736D01*
X-52446Y24791D01*
X-52375Y24856D01*
X-52324Y24931D01*
X-52294Y25016D01*
X-52284Y25111D01*
Y24681D01*
X-51796Y24713D01*
X-51667Y24744D01*
X-51573Y24780D01*
X-51514Y24819D01*
Y24611D01*
X-50808D01*
X-47308D01*
Y27611D01*
X-48608D01*
Y31406D01*
X-39263D01*
Y31288D01*
X-39263D01*
Y29932D01*
X-39263D01*
Y29264D01*
X-40563D01*
Y27295D01*
X-40563D01*
Y27173D01*
X-36201D01*
X-31839D01*
Y27469D01*
X-29063D01*
X-28614Y27559D01*
X-28234Y27813D01*
X-23874Y32173D01*
X-23620Y32553D01*
X-23531Y33002D01*
Y46528D01*
X-23620Y46977D01*
X-23874Y47357D01*
X-25018Y48501D01*
X-25019Y48503D01*
X-25051Y48548D01*
X-25076Y48591D01*
X-25096Y48633D01*
X-25112Y48675D01*
X-25124Y48717D01*
X-25132Y48761D01*
X-25135Y48784D01*
X-25116Y48878D01*
X-25263Y49620D01*
X-25683Y50248D01*
X-26312Y50668D01*
X-27053Y50815D01*
X-27795Y50668D01*
X-28423Y50248D01*
X-28843Y49620D01*
X-28990Y48878D01*
X-28843Y48137D01*
X-28423Y47508D01*
X-27795Y47089D01*
X-27053Y46941D01*
X-26958Y46960D01*
X-26936Y46957D01*
X-26892Y46949D01*
X-26850Y46937D01*
X-26808Y46921D01*
X-26766Y46901D01*
X-26723Y46876D01*
X-26677Y46844D01*
X-26676Y46843D01*
X-25944Y46111D01*
X-25980Y45724D01*
X-26430Y45443D01*
X-27053Y45567D01*
X-27795Y45420D01*
X-28423Y45000D01*
X-28843Y44372D01*
X-28990Y43630D01*
X-28843Y42889D01*
X-28452Y42304D01*
X-28503Y42093D01*
X-28626Y41833D01*
X-28641Y41825D01*
X-28697Y41804D01*
X-31839D01*
Y41921D01*
X-36201D01*
Y42921D01*
X-31839D01*
Y43890D01*
X-36201D01*
Y44890D01*
X-31839D01*
Y46980D01*
X-32662D01*
X-33139Y47036D01*
Y49617D01*
X-33139D01*
Y50865D01*
X-33137Y50874D01*
X-33139Y50883D01*
Y51586D01*
X-33800D01*
X-33964Y51600D01*
X-34118Y51638D01*
X-34311Y51712D01*
X-34541Y51826D01*
X-34802Y51983D01*
X-35078Y52174D01*
X-35966Y52926D01*
Y61995D01*
X-36098Y62658D01*
X-36474Y63220D01*
X-36907Y63653D01*
Y85392D01*
X-37039Y86055D01*
X-37415Y86618D01*
X-40398Y89601D01*
X-40563Y89789D01*
Y92020D01*
X-41026D01*
Y93260D01*
X-41159Y93923D01*
X-41534Y94485D01*
X-42774Y95726D01*
X-43337Y96101D01*
X-44000Y96233D01*
X-49069D01*
X-49732Y96101D01*
X-50294Y95726D01*
X-51466Y94554D01*
X-51841Y93992D01*
X-51973Y93328D01*
Y92020D01*
X-55131Y92020D01*
X-55140Y92021D01*
X-55149Y92020D01*
X-60428D01*
X-64828D01*
Y88201D01*
X-66128D01*
Y81201D01*
X-59128D01*
Y81201D01*
X-53128D01*
X-52287Y80360D01*
Y76128D01*
X-52298D01*
Y69128D01*
X-52287D01*
Y63221D01*
X-45848D01*
X-45469Y62721D01*
X-45534Y62392D01*
X-45387Y61650D01*
X-44967Y61022D01*
X-44338Y60602D01*
X-44239Y60582D01*
X-43233Y59577D01*
Y58017D01*
X-45882D01*
Y58005D01*
X-45382D01*
X-45377Y57625D01*
X-45304Y56725D01*
X-45260Y56505D01*
X-45206Y56325D01*
X-45143Y56185D01*
X-45070Y56085D01*
X-44987Y56025D01*
X-44894Y56005D01*
X-45882D01*
Y54517D01*
X-46882D01*
Y56005D01*
X-47870D01*
X-47777Y56025D01*
X-47694Y56085D01*
X-47621Y56185D01*
X-47558Y56325D01*
X-47504Y56505D01*
X-47460Y56725D01*
X-47426Y56985D01*
X-47387Y57625D01*
X-47382Y58005D01*
X-46882D01*
Y58017D01*
X-49882D01*
Y56717D01*
X-53700D01*
Y55748D01*
X-53713Y55746D01*
X-53772Y55741D01*
X-55514D01*
X-55849Y56241D01*
X-55800Y56486D01*
X-55897Y56974D01*
X-56174Y57388D01*
X-56588Y57665D01*
X-57076Y57762D01*
X-63043D01*
X-63306Y57710D01*
X-70359D01*
X-70827Y57617D01*
X-71224Y57351D01*
X-72747Y55828D01*
X-72792Y55795D01*
X-72838Y55767D01*
X-72878Y55745D01*
X-72915Y55730D01*
X-72947Y55719D01*
X-72969Y55714D01*
X-73052Y55731D01*
X-73793Y55583D01*
X-74421Y55163D01*
X-74468Y55093D01*
X-74487Y55081D01*
X-74517Y55066D01*
X-74554Y55051D01*
X-74598Y55038D01*
X-74650Y55026D01*
X-74705Y55017D01*
X-84989D01*
X-85256Y55517D01*
X-85104Y55745D01*
X-84956Y56486D01*
X-85104Y57227D01*
X-85524Y57856D01*
X-86152Y58276D01*
X-86894Y58423D01*
X-87002Y58402D01*
X-87005Y58402D01*
X-87088Y58408D01*
X-87161Y58419D01*
X-87225Y58433D01*
X-87279Y58449D01*
X-87326Y58468D01*
X-87366Y58488D01*
X-87401Y58509D01*
X-87408Y58515D01*
X-87572Y58679D01*
X-87532Y59039D01*
X-87061Y59359D01*
X-86831Y59313D01*
X-86342Y59410D01*
X-86231Y59484D01*
X-85847Y59651D01*
X-85462Y59484D01*
X-85351Y59410D01*
X-84863Y59313D01*
X-84374Y59410D01*
X-84262Y59485D01*
X-83878Y59651D01*
X-83494Y59485D01*
X-83382Y59410D01*
X-82894Y59313D01*
X-82405Y59410D01*
X-82294Y59484D01*
X-81910Y59651D01*
X-81525Y59484D01*
X-81414Y59410D01*
X-80926Y59313D01*
X-80437Y59410D01*
X-80325Y59485D01*
X-79941Y59651D01*
X-79557Y59485D01*
X-79445Y59410D01*
X-78957Y59313D01*
X-78468Y59410D01*
X-78357Y59484D01*
X-77973Y59651D01*
X-77588Y59484D01*
X-77477Y59410D01*
X-76989Y59313D01*
X-76500Y59410D01*
X-76086Y59686D01*
X-75922D01*
X-75508Y59410D01*
X-75020Y59313D01*
X-74531Y59410D01*
X-74420Y59484D01*
X-74036Y59651D01*
X-73651Y59484D01*
X-73540Y59410D01*
X-73052Y59313D01*
X-72563Y59410D01*
X-72149Y59686D01*
X-71985D01*
X-71571Y59410D01*
X-71083Y59313D01*
X-70594Y59410D01*
X-70483Y59484D01*
X-70099Y59651D01*
X-69714Y59484D01*
X-69603Y59410D01*
X-69115Y59313D01*
X-68626Y59410D01*
X-68212Y59686D01*
X-68048D01*
X-67634Y59410D01*
X-67146Y59313D01*
X-66657Y59410D01*
X-66243Y59686D01*
X-65967Y60100D01*
X-65870Y60588D01*
Y66556D01*
X-65967Y67044D01*
X-66243Y67458D01*
X-66657Y67734D01*
X-67146Y67831D01*
X-67634Y67734D01*
X-68048Y67458D01*
X-68212D01*
X-68626Y67734D01*
X-69115Y67831D01*
X-69603Y67734D01*
X-69714Y67660D01*
X-70099Y67493D01*
X-70483Y67660D01*
X-70594Y67734D01*
X-71083Y67831D01*
X-71571Y67734D01*
X-71985Y67458D01*
X-72149D01*
X-72563Y67734D01*
X-73052Y67831D01*
X-73540Y67734D01*
X-73651Y67660D01*
X-74036Y67493D01*
X-74420Y67660D01*
X-74531Y67734D01*
X-75020Y67831D01*
X-75508Y67734D01*
X-75922Y67458D01*
X-76086D01*
X-76500Y67734D01*
X-76989Y67831D01*
X-77477Y67734D01*
X-77588Y67660D01*
X-77973Y67493D01*
X-78357Y67660D01*
X-78468Y67734D01*
X-78957Y67831D01*
X-79445Y67734D01*
X-79557Y67659D01*
X-79941Y67493D01*
X-80325Y67659D01*
X-80437Y67734D01*
X-80926Y67831D01*
X-81414Y67734D01*
X-81525Y67660D01*
X-81910Y67493D01*
X-82294Y67660D01*
X-82405Y67734D01*
X-82894Y67831D01*
X-83292Y67752D01*
X-83623Y67927D01*
X-83792Y68062D01*
Y71904D01*
X-81807Y73889D01*
X-81807Y73889D01*
X-81575Y74237D01*
X-81493Y74646D01*
X-81493Y74646D01*
Y76585D01*
X-80289D01*
Y84284D01*
X-84839D01*
Y84284D01*
X-85210D01*
Y84284D01*
X-88832D01*
Y85584D01*
X-91906D01*
Y85572D01*
X-91406D01*
X-91401Y85192D01*
X-91356Y84552D01*
X-91316Y84292D01*
X-91266Y84072D01*
X-91204Y83892D01*
X-91131Y83752D01*
X-91046Y83652D01*
X-90950Y83592D01*
X-90843Y83572D01*
X-91906D01*
Y80435D01*
X-92906D01*
Y83572D01*
X-93969D01*
X-93862Y83592D01*
X-93766Y83652D01*
X-93682Y83752D01*
X-93609Y83892D01*
X-93547Y84072D01*
X-93496Y84292D01*
X-93457Y84552D01*
X-93429Y84852D01*
X-93406Y85572D01*
X-92906D01*
Y85584D01*
X-94904D01*
X-95111Y86084D01*
X-93417Y87779D01*
X-81489D01*
X-81404Y87722D01*
X-80663Y87575D01*
X-79922Y87722D01*
X-79293Y88142D01*
X-78873Y88771D01*
X-78726Y89512D01*
X-78873Y90253D01*
X-79293Y90882D01*
X-79922Y91302D01*
X-80663Y91449D01*
X-81404Y91302D01*
X-81489Y91245D01*
X-94135D01*
X-94798Y91113D01*
X-95361Y90737D01*
X-98553Y87545D01*
X-98929Y86983D01*
X-99061Y86319D01*
Y84957D01*
X-99063Y84897D01*
X-99087Y84639D01*
X-99119Y84426D01*
X-99152Y84284D01*
X-99602D01*
Y83581D01*
X-99604Y83572D01*
X-99602Y83564D01*
Y82397D01*
X-99605Y82392D01*
X-99632Y82367D01*
X-99703Y82324D01*
X-99830Y82273D01*
X-100015Y82223D01*
X-100256Y82183D01*
X-100430Y82168D01*
X-111717D01*
X-115476Y85927D01*
X-116038Y86303D01*
X-116701Y86435D01*
X-126023D01*
X-126686Y86303D01*
X-127249Y85927D01*
X-128420Y84756D01*
X-128796Y84193D01*
X-128928Y83530D01*
Y83079D01*
X-129183Y82690D01*
X-129191Y82688D01*
X-129894D01*
Y82296D01*
X-130002Y82274D01*
X-130651Y82222D01*
X-135968D01*
X-136632Y82090D01*
X-137194Y81714D01*
X-137194Y81714D01*
X-148675Y70233D01*
X-155000D01*
X-155089Y70306D01*
Y79283D01*
X-168300D01*
Y70009D01*
X-156649D01*
X-156442Y69509D01*
X-159726Y66226D01*
X-160101Y65663D01*
X-160233Y65000D01*
Y51165D01*
X-160101Y50502D01*
X-159726Y49939D01*
X-157643Y47857D01*
X-157081Y47481D01*
X-156418Y47349D01*
X-155151D01*
X-155091Y47347D01*
X-154834Y47323D01*
X-154621Y47291D01*
X-154479Y47258D01*
Y46808D01*
X-153775D01*
X-153767Y46806D01*
X-153758Y46808D01*
X-146780D01*
Y50429D01*
X-145480D01*
Y53504D01*
X-145492D01*
Y53004D01*
X-145871Y52998D01*
X-146511Y52953D01*
X-146772Y52914D01*
X-146992Y52863D01*
X-147171Y52801D01*
X-147311Y52728D01*
X-147412Y52644D01*
X-147471Y52548D01*
X-147492Y52441D01*
Y53504D01*
X-150629D01*
Y54504D01*
X-147492D01*
Y55567D01*
X-147471Y55459D01*
X-147412Y55364D01*
X-147311Y55279D01*
X-147171Y55206D01*
X-146992Y55144D01*
X-146772Y55094D01*
X-146511Y55054D01*
X-146212Y55026D01*
X-145492Y55004D01*
Y54504D01*
X-145480D01*
Y57578D01*
X-146780D01*
Y58990D01*
X-146693Y59076D01*
X-144194D01*
X-140724Y55606D01*
Y42549D01*
X-140630Y42081D01*
X-140365Y41684D01*
X-135316Y36635D01*
X-134919Y36370D01*
X-134451Y36277D01*
X-126269D01*
X-125801Y36370D01*
X-125404Y36635D01*
X-123135Y38904D01*
X-122870Y39301D01*
X-122776Y39769D01*
Y42800D01*
X-120241D01*
Y47200D01*
X-119767Y47263D01*
X-118135D01*
Y52163D01*
Y57063D01*
X-120915D01*
Y55763D01*
X-129615Y55763D01*
Y48563D01*
Y47200D01*
X-129759D01*
Y42800D01*
X-127224D01*
Y41804D01*
X-128304Y40723D01*
X-133540D01*
X-135971Y43154D01*
Y57024D01*
X-136064Y57492D01*
X-136329Y57889D01*
X-141306Y62865D01*
X-141703Y63130D01*
X-142171Y63223D01*
X-146693D01*
X-146780Y63310D01*
Y65000D01*
X-145480D01*
Y68526D01*
X-135500Y78506D01*
X-135000Y78298D01*
Y71021D01*
X-134759Y70781D01*
X-134615Y70335D01*
X-134615Y70217D01*
X-134227Y70197D01*
X-134159Y70173D01*
X-134106Y70092D01*
X-133972Y69717D01*
X-134290Y69241D01*
X-134437Y68500D01*
X-134290Y67759D01*
X-133870Y67130D01*
X-133241Y66710D01*
X-132500Y66563D01*
X-131759Y66710D01*
X-131130Y67130D01*
X-130710Y67759D01*
X-130563Y68500D01*
X-130710Y69241D01*
X-131028Y69717D01*
X-130827Y70194D01*
X-130806Y70217D01*
X-125915D01*
Y68917D01*
X-123135D01*
Y73817D01*
X-122135D01*
Y68917D01*
X-119421D01*
X-119290Y68259D01*
X-118870Y67630D01*
X-118241Y67210D01*
X-117500Y67063D01*
X-116759Y67210D01*
X-116130Y67630D01*
X-115710Y68259D01*
X-115563Y69000D01*
X-115705Y69717D01*
X-115725Y70087D01*
X-115656Y70217D01*
X-115656D01*
Y77417D01*
X-119076D01*
Y79988D01*
X-119088D01*
Y79430D01*
X-119468Y79425D01*
X-120368Y79361D01*
X-120588Y79322D01*
X-120768Y79275D01*
X-120908Y79219D01*
X-121008Y79155D01*
X-121068Y79082D01*
X-121088Y79000D01*
Y79988D01*
X-122576D01*
Y80988D01*
X-121088D01*
Y81976D01*
X-121068Y81872D01*
X-121008Y81779D01*
X-120908Y81697D01*
X-120768Y81626D01*
X-120588Y81566D01*
X-120368Y81517D01*
X-120108Y81479D01*
X-119808Y81451D01*
X-119088Y81429D01*
Y80988D01*
X-119076D01*
Y82968D01*
X-117420D01*
X-113660Y79209D01*
X-113098Y78833D01*
X-112435Y78701D01*
X-100430D01*
X-100256Y78686D01*
X-100015Y78646D01*
X-99830Y78597D01*
X-99703Y78545D01*
X-99632Y78502D01*
X-99605Y78477D01*
X-99602Y78473D01*
Y76585D01*
X-95981D01*
Y75652D01*
X-97165D01*
Y71252D01*
X-95935D01*
X-95933Y71239D01*
X-95928Y71180D01*
Y68118D01*
X-96428Y67783D01*
X-96674Y67831D01*
X-97162Y67734D01*
X-97576Y67458D01*
X-97852Y67044D01*
X-97949Y66556D01*
Y60588D01*
X-97897Y60326D01*
Y57987D01*
X-98397Y57661D01*
X-98643Y57710D01*
X-100513D01*
X-100776Y57762D01*
X-106743D01*
X-107231Y57665D01*
X-107645Y57388D01*
X-107922Y56974D01*
X-108019Y56486D01*
X-107922Y55998D01*
X-107847Y55886D01*
X-107681Y55502D01*
X-107847Y55117D01*
X-107922Y55005D01*
X-108019Y54517D01*
X-107922Y54029D01*
X-107645Y53615D01*
Y53451D01*
X-107922Y53037D01*
X-108019Y52549D01*
X-107922Y52061D01*
X-107847Y51949D01*
X-107681Y51565D01*
X-107847Y51180D01*
X-107922Y51068D01*
X-108019Y50580D01*
X-107922Y50092D01*
X-107645Y49678D01*
Y49514D01*
X-107922Y49100D01*
X-108019Y48612D01*
X-107922Y48124D01*
X-107847Y48012D01*
X-107681Y47628D01*
X-107847Y47243D01*
X-107922Y47131D01*
X-108019Y46643D01*
X-107922Y46155D01*
X-107645Y45741D01*
Y45577D01*
X-107922Y45163D01*
X-108019Y44675D01*
X-107922Y44187D01*
X-107847Y44075D01*
X-107681Y43691D01*
X-107847Y43306D01*
X-107922Y43194D01*
X-108019Y42706D01*
X-107922Y42218D01*
X-107645Y41804D01*
Y41640D01*
X-107922Y41226D01*
X-108019Y40738D01*
X-107922Y40250D01*
X-107847Y40138D01*
X-107681Y39754D01*
X-107847Y39369D01*
X-107922Y39257D01*
X-108019Y38769D01*
X-107922Y38281D01*
X-107645Y37867D01*
Y37703D01*
X-107922Y37289D01*
X-108019Y36801D01*
X-107970Y36556D01*
X-108306Y36056D01*
X-110863D01*
X-110922Y36061D01*
X-110935Y36063D01*
Y37032D01*
X-114753D01*
Y38332D01*
X-117753D01*
Y34832D01*
Y31332D01*
X-114753D01*
Y32632D01*
X-110935D01*
Y33601D01*
X-110922Y33603D01*
X-110863Y33609D01*
X-108306D01*
X-107970Y33109D01*
X-108019Y32864D01*
X-107922Y32376D01*
X-107847Y32264D01*
X-107681Y31880D01*
X-107847Y31495D01*
X-107922Y31383D01*
X-107962Y31181D01*
X-108583Y30766D01*
X-109146Y29923D01*
X-109245Y29427D01*
X-103760D01*
Y28427D01*
X-109389D01*
X-109590Y28182D01*
X-110806D01*
X-110820Y28182D01*
X-110873Y28187D01*
X-110886Y28189D01*
Y29158D01*
X-114704D01*
Y30458D01*
X-117704D01*
Y26958D01*
Y23458D01*
X-115201D01*
X-114994Y22958D01*
X-117616Y20335D01*
X-121583D01*
X-122247Y20203D01*
X-122809Y19828D01*
X-129023Y13614D01*
X-129398Y13052D01*
X-129530Y12389D01*
Y5951D01*
X-130722Y4760D01*
X-145480D01*
Y7447D01*
X-145492D01*
Y6528D01*
X-145871Y6527D01*
X-147412Y6436D01*
X-147471Y6412D01*
X-147492Y6385D01*
Y7447D01*
X-150629D01*
X-155779D01*
Y4373D01*
X-154479D01*
Y751D01*
X-147500D01*
X-147492Y750D01*
X-147483Y751D01*
X-146780D01*
Y1202D01*
X-146638Y1235D01*
X-146433Y1266D01*
X-146045Y1293D01*
X-131737D01*
Y-6088D01*
X-131605Y-6751D01*
X-131230Y-7313D01*
X-123861Y-14682D01*
X-123298Y-15058D01*
X-122635Y-15190D01*
X-105889D01*
X-105437Y-15642D01*
X-105417Y-15741D01*
X-104997Y-16370D01*
X-104369Y-16790D01*
X-104269Y-16810D01*
X-99853Y-21226D01*
X-99291Y-21601D01*
X-98627Y-21733D01*
X-80663D01*
X-80000Y-21601D01*
X-79438Y-21226D01*
X-74885Y-16673D01*
X-74510Y-16111D01*
X-74378Y-15448D01*
Y-4104D01*
X-70493Y-220D01*
X-58449Y-12264D01*
X-57886Y-12640D01*
X-57223Y-12772D01*
X-30130D01*
X-29467Y-12640D01*
X-28904Y-12264D01*
X-26115Y-9474D01*
X-25705Y-9095D01*
X-23000D01*
X-22727Y-9041D01*
X-22495Y-8886D01*
X-22341Y-8655D01*
X-22286Y-8382D01*
Y8064D01*
X-15500D01*
Y-25903D01*
X-15570Y-26165D01*
X-16112Y-27472D01*
X-16819Y-28697D01*
X-17680Y-29820D01*
X-18680Y-30820D01*
X-19803Y-31681D01*
X-21028Y-32388D01*
X-22335Y-32930D01*
X-23701Y-33296D01*
X-25104Y-33481D01*
X-160377D01*
X-161779Y-33296D01*
X-163146Y-32930D01*
X-164453Y-32388D01*
X-165678Y-31681D01*
X-166800Y-30820D01*
X-167800Y-29820D01*
X-168661Y-28697D01*
X-169369Y-27472D01*
X-169910Y-26165D01*
X-170276Y-24799D01*
X-170461Y-23396D01*
Y-22689D01*
Y91484D01*
Y92191D01*
X-170276Y93594D01*
X-169910Y94960D01*
X-169369Y96267D01*
X-168661Y97492D01*
X-167800Y98615D01*
X-166800Y99615D01*
X-165678Y100476D01*
X-164453Y101184D01*
X-163145Y101725D01*
X-161779Y102091D01*
X-160377Y102276D01*
X-25104D01*
X-23701Y102091D01*
D02*
G37*
G36*
X-100553Y27465D02*
X-100521Y27463D01*
X-99554Y27458D01*
Y26458D01*
X-100566Y26450D01*
Y27466D01*
X-100553Y27465D01*
D02*
G37*
G36*
X-106954Y26450D02*
X-106966Y26452D01*
X-106998Y26453D01*
X-107966Y26458D01*
Y27458D01*
X-106954Y27466D01*
Y26450D01*
D02*
G37*
G36*
X49328Y26416D02*
X49299Y26520D01*
X49262Y26612D01*
X49214Y26693D01*
X49157Y26764D01*
X49090Y26824D01*
X49014Y26873D01*
X48929Y26911D01*
X48834Y26938D01*
X48729Y26955D01*
X48615Y26960D01*
X49098Y27660D01*
X49202Y27662D01*
X49517Y27686D01*
X49622Y27700D01*
X49940Y27763D01*
X50046Y27791D01*
X50152Y27821D01*
X49328Y26416D01*
D02*
G37*
G36*
X-98304Y25712D02*
X-97971Y25680D01*
X-97897Y24558D01*
Y23118D01*
X-97949Y22856D01*
Y16888D01*
X-97852Y16400D01*
X-97576Y15986D01*
X-97162Y15710D01*
X-96674Y15613D01*
X-96185Y15710D01*
X-96073Y15785D01*
X-95689Y15951D01*
X-95305Y15785D01*
X-95193Y15710D01*
X-94705Y15613D01*
X-94216Y15710D01*
X-94105Y15784D01*
X-93721Y15951D01*
X-93336Y15784D01*
X-93225Y15710D01*
X-92737Y15613D01*
X-92248Y15710D01*
X-92136Y15785D01*
X-91752Y15951D01*
X-91368Y15785D01*
X-91313Y15748D01*
X-91235Y15582D01*
X-91171Y15183D01*
X-93336Y13018D01*
X-93510Y12857D01*
X-93647Y12747D01*
X-93731Y12689D01*
X-94053D01*
X-94061Y12690D01*
X-94070Y12689D01*
X-95753D01*
Y13989D01*
X-98753D01*
Y10489D01*
Y9001D01*
X-97765D01*
X-97896Y8985D01*
X-98013Y8937D01*
X-98116Y8857D01*
X-98206Y8745D01*
X-98281Y8601D01*
X-98343Y8425D01*
X-98391Y8217D01*
X-98426Y7977D01*
X-98446Y7705D01*
X-98453Y7401D01*
X-98753D01*
Y6989D01*
X-96944D01*
Y729D01*
X-96185D01*
Y-508D01*
X-97915D01*
X-97009Y-1103D01*
X-98020Y-2355D01*
X-98117Y-2259D01*
X-98244Y-2149D01*
Y-9626D01*
X-90110D01*
Y-8655D01*
X-84455D01*
X-84127Y-8326D01*
Y-1808D01*
X-84374D01*
Y-571D01*
X-82827D01*
Y1398D01*
X-83166D01*
X-83206Y2156D01*
X-82827D01*
Y6989D01*
X-80129D01*
Y-12971D01*
X-83113Y-15955D01*
X-97261D01*
X-103045Y-10171D01*
X-103425Y-9917D01*
X-103874Y-9827D01*
X-110578D01*
X-111328Y-9078D01*
X-111470Y-8925D01*
X-111566Y-8805D01*
X-111605Y-8750D01*
Y-8483D01*
X-111603Y-8475D01*
X-111605Y-8466D01*
Y-3154D01*
X-111811D01*
X-112003Y-2692D01*
X-111372Y-2062D01*
X-108812D01*
Y-3089D01*
X-104412D01*
Y1311D01*
X-105439D01*
Y2793D01*
X-104412D01*
Y6611D01*
X-103112D01*
Y6648D01*
X-102753Y6989D01*
X-99753D01*
Y7401D01*
X-100053D01*
X-100060Y7705D01*
X-100081Y7977D01*
X-100115Y8217D01*
X-100163Y8425D01*
X-100225Y8601D01*
X-100301Y8745D01*
X-100390Y8857D01*
X-100494Y8937D01*
X-100610Y8985D01*
X-100741Y9001D01*
X-100757Y9060D01*
X-100805Y9112D01*
X-100885Y9159D01*
X-100997Y9199D01*
X-101141Y9233D01*
X-101317Y9261D01*
X-101525Y9283D01*
X-102037Y9308D01*
X-102341Y9311D01*
Y10911D01*
X-102036Y10919D01*
X-101762Y10943D01*
X-101521Y10983D01*
X-101311Y11039D01*
X-101134Y11111D01*
X-100989Y11199D01*
X-100876Y11303D01*
X-100795Y11423D01*
X-100746Y11559D01*
X-100729Y11711D01*
X-100741Y9001D01*
X-99753D01*
Y10489D01*
Y13989D01*
X-102753D01*
Y13952D01*
X-103112Y13611D01*
X-106112D01*
Y10111D01*
X-106612D01*
Y9611D01*
X-110112D01*
Y6611D01*
X-110112D01*
X-110243Y6165D01*
X-111520D01*
X-111582Y6227D01*
Y8407D01*
X-111605Y8520D01*
Y14563D01*
X-115761D01*
Y7257D01*
X-113927D01*
Y5741D01*
X-113838Y5293D01*
X-113584Y4912D01*
X-112835Y4164D01*
X-112455Y3909D01*
X-112006Y3820D01*
X-108812D01*
Y2793D01*
X-107784D01*
Y1311D01*
X-108812D01*
Y283D01*
X-111858D01*
X-112306Y194D01*
X-112687Y-60D01*
X-114512Y-1885D01*
X-114766Y-2265D01*
X-114855Y-2714D01*
Y-3154D01*
X-115761D01*
Y-10459D01*
X-113598D01*
X-113589Y-10461D01*
X-113581Y-10459D01*
X-113314D01*
X-113267Y-10492D01*
X-113024Y-10698D01*
X-112461Y-11261D01*
X-112652Y-11723D01*
X-119163D01*
Y-7307D01*
X-122541D01*
Y-6807D01*
X-123041D01*
Y-3866D01*
X-123907D01*
X-123841Y-3846D01*
X-123781Y-3786D01*
X-123729Y-3686D01*
X-123684Y-3546D01*
X-123646Y-3366D01*
X-123614Y-3146D01*
X-123573Y-2586D01*
X-123559Y-1866D01*
X-123041D01*
Y-1854D01*
X-125919D01*
Y-7068D01*
X-126381Y-7260D01*
X-128271Y-5370D01*
Y2308D01*
X-126571Y4008D01*
X-126571Y4008D01*
X-126196Y4570D01*
X-126064Y5233D01*
Y5517D01*
X-125919Y5957D01*
X-123041D01*
Y5969D01*
X-123559D01*
X-123562Y6349D01*
X-123646Y7469D01*
X-123684Y7649D01*
X-123729Y7789D01*
X-123781Y7889D01*
X-123841Y7949D01*
X-123907Y7969D01*
X-123041D01*
Y10910D01*
X-122541D01*
Y11410D01*
X-119163D01*
Y15863D01*
X-121218D01*
X-121410Y16325D01*
X-120866Y16869D01*
X-116898D01*
X-116235Y17001D01*
X-115672Y17376D01*
X-111861Y21188D01*
X-111485Y21751D01*
X-111353Y22414D01*
Y24069D01*
X-111331Y24421D01*
X-111303Y24633D01*
X-111279Y24758D01*
X-110886D01*
Y25461D01*
X-110884Y25470D01*
X-110502Y25735D01*
X-107006D01*
X-106743Y25682D01*
X-100776D01*
X-100513Y25735D01*
X-98953D01*
X-98304Y25712D01*
D02*
G37*
G36*
X63212Y27247D02*
X63310Y27164D01*
X63408Y27090D01*
X63508Y27026D01*
X63608Y26972D01*
X63710Y26928D01*
X63813Y26894D01*
X63916Y26870D01*
X64021Y26855D01*
X64126Y26850D01*
Y26150D01*
X64021Y26145D01*
X63916Y26130D01*
X63813Y26106D01*
X63710Y26072D01*
X63608Y26028D01*
X63508Y25974D01*
X63408Y25910D01*
X63310Y25836D01*
X63212Y25753D01*
X63116Y25660D01*
Y27340D01*
X63212Y27247D01*
D02*
G37*
G36*
X57980Y26079D02*
X57898Y26074D01*
X57814Y26059D01*
X57729Y26034D01*
X57641Y26000D01*
X57552Y25955D01*
X57461Y25901D01*
X57368Y25836D01*
X57274Y25762D01*
X57079Y25584D01*
X56525Y26019D01*
X56665Y26165D01*
X56886Y26424D01*
X56966Y26538D01*
X57027Y26642D01*
X57068Y26736D01*
X57089Y26820D01*
X57090Y26893D01*
X57071Y26956D01*
X57032Y27009D01*
X57980Y26079D01*
D02*
G37*
G36*
X-4789Y27802D02*
X-4938Y27632D01*
X-5070Y27461D01*
X-5184Y27292D01*
X-5280Y27124D01*
X-5359Y26956D01*
X-5373Y26919D01*
X-5359Y26882D01*
X-5280Y26715D01*
X-5184Y26546D01*
X-5070Y26377D01*
X-4938Y26207D01*
X-4789Y26036D01*
X-4622Y25864D01*
X-6804D01*
X-7959Y24262D01*
X-7986Y24438D01*
X-8031Y24596D01*
X-8092Y24735D01*
X-8172Y24855D01*
X-8268Y24957D01*
X-8382Y25041D01*
X-8512Y25106D01*
X-8661Y25152D01*
X-8826Y25180D01*
X-9009Y25189D01*
X-8718Y26189D01*
X-8435Y26191D01*
X-7004Y26281D01*
X-6930Y26377D01*
X-6816Y26546D01*
X-6719Y26715D01*
X-6640Y26882D01*
X-6627Y26919D01*
X-6640Y26956D01*
X-6719Y27124D01*
X-6816Y27292D01*
X-6930Y27461D01*
X-7062Y27632D01*
X-7211Y27802D01*
X-7378Y27974D01*
X-4622D01*
X-4789Y27802D01*
D02*
G37*
G36*
X-97380Y26722D02*
X-96674Y26958D01*
X-96909Y26251D01*
X-95966D01*
X-96005Y26192D01*
X-96041Y26099D01*
X-96072Y25970D01*
X-96099Y25806D01*
X-96140Y25374D01*
X-96171Y24465D01*
X-96174Y24092D01*
X-97174D01*
X-97176Y24465D01*
X-97275Y25970D01*
X-97284Y26006D01*
X-97334Y26098D01*
X-97424Y26208D01*
X-97534Y26298D01*
X-97625Y26348D01*
X-97662Y26356D01*
X-97825Y26383D01*
X-98257Y26425D01*
X-99167Y26456D01*
X-99540Y26458D01*
Y27458D01*
X-99167Y27460D01*
X-97662Y27560D01*
X-97533Y27591D01*
X-97439Y27626D01*
X-97380Y27666D01*
Y26722D01*
D02*
G37*
G36*
X-111691Y25450D02*
X-111774Y25390D01*
X-111847Y25290D01*
X-111910Y25150D01*
X-111964Y24970D01*
X-112008Y24750D01*
X-112042Y24490D01*
X-112081Y23850D01*
X-112086Y23470D01*
X-114086D01*
X-114091Y23850D01*
X-114164Y24750D01*
X-114208Y24970D01*
X-114262Y25150D01*
X-114325Y25290D01*
X-114399Y25390D01*
X-114481Y25450D01*
X-114574Y25470D01*
X-111598D01*
X-111691Y25450D01*
D02*
G37*
G36*
X-72544Y23066D02*
X-73559D01*
X-73558Y23078D01*
X-73557Y23110D01*
X-73552Y24078D01*
X-72552D01*
X-72544Y23066D01*
D02*
G37*
G36*
X-96166D02*
X-97181D01*
X-97180Y23078D01*
X-97179Y23110D01*
X-97174Y24078D01*
X-96174D01*
X-96166Y23066D01*
D02*
G37*
G36*
X40453Y23247D02*
X40551Y23164D01*
X40650Y23090D01*
X40749Y23026D01*
X40850Y22973D01*
X40951Y22928D01*
X41054Y22894D01*
X41158Y22870D01*
X41262Y22855D01*
X41368Y22850D01*
Y22150D01*
X41262Y22145D01*
X41158Y22130D01*
X41054Y22106D01*
X40951Y22072D01*
X40850Y22027D01*
X40749Y21974D01*
X40650Y21910D01*
X40551Y21836D01*
X40453Y21753D01*
X40357Y21660D01*
Y23340D01*
X40453Y23247D01*
D02*
G37*
G36*
X-4789Y22881D02*
X-4938Y22710D01*
X-5070Y22540D01*
X-5184Y22371D01*
X-5280Y22203D01*
X-5359Y22035D01*
X-5373Y21998D01*
X-5359Y21961D01*
X-5280Y21793D01*
X-5184Y21625D01*
X-5070Y21456D01*
X-4938Y21286D01*
X-4789Y21115D01*
X-4622Y20943D01*
X-7378D01*
X-7211Y21115D01*
X-7062Y21286D01*
X-6930Y21456D01*
X-6816Y21625D01*
X-6719Y21793D01*
X-6640Y21961D01*
X-6627Y21998D01*
X-6640Y22035D01*
X-6719Y22203D01*
X-6816Y22371D01*
X-6930Y22540D01*
X-7062Y22710D01*
X-7211Y22881D01*
X-7378Y23053D01*
X-4622D01*
X-4789Y22881D01*
D02*
G37*
G36*
X-74275Y26100D02*
Y25703D01*
X-74520Y25502D01*
Y19872D01*
X-75520D01*
Y25358D01*
X-76015Y25259D01*
X-76859Y24695D01*
X-77273Y24075D01*
X-77477Y24034D01*
X-77588Y23960D01*
X-77973Y23793D01*
X-78357Y23960D01*
X-78468Y24034D01*
X-78957Y24132D01*
X-79445Y24034D01*
X-79557Y23959D01*
X-79941Y23794D01*
X-80325Y23959D01*
X-80437Y24034D01*
X-80926Y24132D01*
X-81414Y24034D01*
X-81525Y23960D01*
X-81910Y23793D01*
X-82294Y23960D01*
X-82405Y24034D01*
X-82894Y24132D01*
X-83382Y24034D01*
X-83796Y23758D01*
X-83960D01*
X-84374Y24034D01*
X-84863Y24132D01*
X-85351Y24034D01*
X-85462Y23960D01*
X-85847Y23793D01*
X-86231Y23960D01*
X-86342Y24034D01*
X-86831Y24132D01*
X-87319Y24034D01*
X-87733Y23758D01*
X-87897D01*
X-88311Y24034D01*
X-88800Y24132D01*
X-89288Y24034D01*
X-89399Y23960D01*
X-89784Y23793D01*
X-90168Y23960D01*
X-90279Y24034D01*
X-90768Y24132D01*
X-91256Y24034D01*
X-91368Y23959D01*
X-91752Y23794D01*
X-92136Y23959D01*
X-92248Y24034D01*
X-92737Y24132D01*
X-93225Y24034D01*
X-93336Y23960D01*
X-93721Y23793D01*
X-94105Y23960D01*
X-94216Y24034D01*
X-94705Y24132D01*
X-94950Y24083D01*
X-95450Y24418D01*
Y24678D01*
X-95428Y25328D01*
X-95391Y25714D01*
X-95376Y25805D01*
X-94414Y26767D01*
X-74319D01*
X-74275Y26100D01*
D02*
G37*
G36*
X-88297Y16662D02*
X-88301Y16630D01*
X-88306Y16582D01*
X-88317Y16233D01*
X-88319Y15805D01*
X-89319D01*
X-89307Y16678D01*
X-88292D01*
X-88297Y16662D01*
D02*
G37*
G36*
X-68637Y16626D02*
X-68664Y16566D01*
X-68687Y16497D01*
X-68708Y16420D01*
X-68725Y16334D01*
X-68750Y16136D01*
X-68758Y16024D01*
X-68765Y15774D01*
X-69465D01*
X-69466Y15903D01*
X-69490Y16239D01*
X-69504Y16334D01*
X-69542Y16497D01*
X-69566Y16566D01*
X-69592Y16626D01*
X-69622Y16678D01*
X-68607D01*
X-68637Y16626D01*
D02*
G37*
G36*
X-70605D02*
X-70631Y16566D01*
X-70655Y16497D01*
X-70676Y16420D01*
X-70693Y16334D01*
X-70718Y16136D01*
X-70726Y16024D01*
X-70733Y15774D01*
X-71433D01*
X-71434Y15903D01*
X-71458Y16239D01*
X-71472Y16334D01*
X-71510Y16497D01*
X-71534Y16566D01*
X-71561Y16626D01*
X-71591Y16678D01*
X-70575D01*
X-70605Y16626D01*
D02*
G37*
G36*
X-72545Y16666D02*
X-72546Y16634D01*
X-72552Y15666D01*
X-73552D01*
X-73559Y16678D01*
X-72544D01*
X-72545Y16666D01*
D02*
G37*
G36*
X-74513D02*
X-74515Y16634D01*
X-74520Y15666D01*
X-75520D01*
X-75528Y16678D01*
X-74512D01*
X-74513Y16666D01*
D02*
G37*
G36*
X-86324D02*
X-86326Y16634D01*
X-86331Y15666D01*
X-87331D01*
X-87339Y16678D01*
X-86323D01*
X-86324Y16666D01*
D02*
G37*
G36*
X54684Y16895D02*
X54744Y16812D01*
X54844Y16739D01*
X54984Y16675D01*
X55164Y16622D01*
X55384Y16578D01*
X55644Y16543D01*
X56284Y16504D01*
X56664Y16499D01*
Y14500D01*
X56284Y14495D01*
X55384Y14421D01*
X55164Y14378D01*
X54984Y14324D01*
X54844Y14260D01*
X54744Y14187D01*
X54684Y14104D01*
X54664Y14011D01*
Y16987D01*
X54684Y16895D01*
D02*
G37*
G36*
X43555Y17310D02*
X43615Y17140D01*
X43716Y16989D01*
X43857Y16860D01*
X44038Y16749D01*
X44259Y16659D01*
X44521Y16590D01*
X44822Y16540D01*
X45092Y16516D01*
X45850Y16578D01*
X46070Y16622D01*
X46250Y16675D01*
X46390Y16739D01*
X46490Y16812D01*
X46550Y16895D01*
X46570Y16987D01*
Y14011D01*
X46550Y14104D01*
X46490Y14187D01*
X46390Y14260D01*
X46250Y14324D01*
X46070Y14378D01*
X45850Y14421D01*
X45590Y14456D01*
X45111Y14485D01*
X44822Y14459D01*
X44521Y14410D01*
X44259Y14340D01*
X44038Y14250D01*
X43857Y14140D01*
X43716Y14009D01*
X43615Y13859D01*
X43555Y13690D01*
X43535Y13499D01*
Y17500D01*
X43555Y17310D01*
D02*
G37*
G36*
X28327Y13500D02*
X28299Y13690D01*
X28216Y13860D01*
X28079Y14010D01*
X27886Y14140D01*
X27638Y14250D01*
X27335Y14340D01*
X26976Y14410D01*
X26563Y14460D01*
X26094Y14490D01*
X25571Y14500D01*
Y16500D01*
X26094Y16510D01*
X26976Y16590D01*
X27335Y16660D01*
X27638Y16750D01*
X27886Y16860D01*
X28079Y16990D01*
X28216Y17140D01*
X28299Y17310D01*
X28327Y17500D01*
Y13500D01*
D02*
G37*
G36*
X-6542Y12660D02*
X-6620Y12716D01*
X-6712Y12744D01*
X-6818D01*
X-6938Y12716D01*
X-7073Y12660D01*
X-7221Y12575D01*
X-7384Y12462D01*
X-7560Y12320D01*
X-7957Y11953D01*
X-8664Y12660D01*
X-8466Y12865D01*
X-8155Y13232D01*
X-8041Y13395D01*
X-7957Y13543D01*
X-7900Y13678D01*
X-7872Y13798D01*
Y13904D01*
X-7900Y13996D01*
X-7957Y14074D01*
X-6542Y12660D01*
D02*
G37*
G36*
X-74516Y12787D02*
X-74484Y12467D01*
X-74456Y12337D01*
X-74420Y12227D01*
X-74377Y12137D01*
X-74325Y12067D01*
X-74266Y12017D01*
X-74198Y11987D01*
X-74123Y11977D01*
X-76020Y11965D01*
X-75925Y11975D01*
X-75840Y12006D01*
X-75765Y12057D01*
X-75700Y12128D01*
X-75645Y12219D01*
X-75600Y12331D01*
X-75565Y12462D01*
X-75540Y12613D01*
X-75525Y12785D01*
X-75520Y12977D01*
X-74520D01*
X-74516Y12787D01*
D02*
G37*
G36*
X-91940Y11977D02*
X-92138Y11772D01*
X-92449Y11404D01*
X-92562Y11241D01*
X-92647Y11093D01*
X-92704Y10958D01*
X-92732Y10838D01*
Y10732D01*
X-92704Y10640D01*
X-92647Y10562D01*
X-94061Y11977D01*
X-93984Y11920D01*
X-93892Y11892D01*
X-93786D01*
X-93665Y11920D01*
X-93531Y11977D01*
X-93383Y12061D01*
X-93220Y12175D01*
X-93043Y12316D01*
X-92647Y12684D01*
X-91940Y11977D01*
D02*
G37*
G36*
X-86327Y12787D02*
X-86300Y12467D01*
X-86277Y12337D01*
X-86247Y12227D01*
X-86210Y12137D01*
X-86167Y12067D01*
X-86117Y12017D01*
X-86060Y11987D01*
X-85996Y11977D01*
X-86333D01*
X-86345Y10825D01*
X-87719Y11680D01*
X-87645Y11700D01*
X-87579Y11732D01*
X-87521Y11776D01*
X-87470Y11831D01*
X-87428Y11898D01*
X-87393Y11977D01*
X-87393Y11977D01*
X-87831D01*
X-87736Y11987D01*
X-87651Y12017D01*
X-87576Y12067D01*
X-87511Y12137D01*
X-87456Y12227D01*
X-87411Y12337D01*
X-87376Y12467D01*
X-87351Y12617D01*
X-87336Y12787D01*
X-87331Y12977D01*
X-86331D01*
X-86327Y12787D01*
D02*
G37*
G36*
X-71901Y12607D02*
X-71395Y12163D01*
X-71243Y12057D01*
X-71094Y11971D01*
X-70960Y11913D01*
X-70840Y11883D01*
X-70734Y11882D01*
X-70643Y11909D01*
X-70567Y11965D01*
X-70847Y11684D01*
X-70766Y11613D01*
X-70653Y11544D01*
X-70562Y11502D01*
X-70492Y11489D01*
X-71493Y10488D01*
X-71507Y10558D01*
X-71548Y10649D01*
X-71617Y10762D01*
X-71681Y10851D01*
X-71969Y10562D01*
X-71913Y10639D01*
X-71886Y10730D01*
X-71888Y10836D01*
X-71917Y10955D01*
X-71975Y11090D01*
X-72061Y11238D01*
X-72175Y11401D01*
X-72318Y11579D01*
X-72655Y11942D01*
X-72873Y12162D01*
X-72166Y12869D01*
X-71901Y12607D01*
D02*
G37*
G36*
X-105108Y11468D02*
X-105060Y11351D01*
X-104980Y11248D01*
X-104868Y11159D01*
X-104724Y11083D01*
X-104548Y11021D01*
X-104340Y10973D01*
X-104100Y10938D01*
X-103828Y10918D01*
X-103524Y10911D01*
Y9311D01*
X-103828Y9304D01*
X-104100Y9283D01*
X-104340Y9249D01*
X-104548Y9201D01*
X-104724Y9139D01*
X-104868Y9063D01*
X-104980Y8974D01*
X-105060Y8871D01*
X-105108Y8754D01*
X-105124Y8623D01*
Y11599D01*
X-105108Y11468D01*
D02*
G37*
G36*
X-24495Y10192D02*
X-24465Y10107D01*
X-24414Y10032D01*
X-24343Y9967D01*
X-24252Y9912D01*
X-24141Y9867D01*
X-24010Y9832D01*
X-23858Y9807D01*
X-23686Y9792D01*
X-23493Y9787D01*
Y8787D01*
X-23686Y8782D01*
X-23858Y8767D01*
X-24010Y8742D01*
X-24141Y8707D01*
X-24252Y8662D01*
X-24343Y8607D01*
X-24414Y8542D01*
X-24465Y8467D01*
X-24495Y8382D01*
X-24505Y8287D01*
Y10287D01*
X-24495Y10192D01*
D02*
G37*
G36*
X-93230Y9003D02*
X-93315Y8972D01*
X-93390Y8922D01*
X-93455Y8851D01*
X-93510Y8760D01*
X-93555Y8648D01*
X-93590Y8517D01*
X-93615Y8365D01*
X-93630Y8193D01*
X-93635Y8001D01*
X-94635D01*
X-94640Y8193D01*
X-94655Y8365D01*
X-94680Y8517D01*
X-94715Y8648D01*
X-94760Y8760D01*
X-94815Y8851D01*
X-94880Y8922D01*
X-94955Y8972D01*
X-95040Y9003D01*
X-95135Y9013D01*
X-93135D01*
X-93230Y9003D01*
D02*
G37*
G36*
X-35644Y11097D02*
X-35584Y10927D01*
X-35483Y10778D01*
X-35342Y10648D01*
X-35161Y10537D01*
X-34940Y10447D01*
X-34678Y10378D01*
X-34376Y10328D01*
X-34087Y10302D01*
X-33307Y10366D01*
X-33088Y10409D01*
X-32908Y10463D01*
X-32768Y10527D01*
X-32667Y10600D01*
X-32607Y10683D01*
X-32588Y10775D01*
Y7799D01*
X-32607Y7892D01*
X-32667Y7975D01*
X-32768Y8048D01*
X-32908Y8112D01*
X-33088Y8166D01*
X-33307Y8209D01*
X-33568Y8244D01*
X-34071Y8274D01*
X-34376Y8247D01*
X-34678Y8197D01*
X-34940Y8128D01*
X-35161Y8038D01*
X-35342Y7927D01*
X-35483Y7797D01*
X-35584Y7648D01*
X-35644Y7478D01*
X-35664Y7288D01*
Y11287D01*
X-35644Y11097D01*
D02*
G37*
G36*
X-112317Y7969D02*
X-112305Y7069D01*
X-113205D01*
X-113209Y7242D01*
X-113223Y7396D01*
X-113245Y7532D01*
X-113277Y7651D01*
X-113317Y7751D01*
X-113367Y7833D01*
X-113425Y7897D01*
X-113493Y7943D01*
X-113569Y7971D01*
X-113655Y7981D01*
X-112317Y7969D01*
D02*
G37*
G36*
X-69098Y8981D02*
X-69181Y8921D01*
X-69254Y8821D01*
X-69317Y8681D01*
X-69371Y8501D01*
X-69415Y8281D01*
X-69449Y8021D01*
X-69488Y7381D01*
X-69493Y7001D01*
X-71493D01*
X-71498Y7381D01*
X-71571Y8281D01*
X-71615Y8501D01*
X-71668Y8681D01*
X-71732Y8821D01*
X-71805Y8921D01*
X-71888Y8981D01*
X-71981Y9001D01*
X-69005D01*
X-69098Y8981D01*
D02*
G37*
G36*
X-93630Y7343D02*
X-93615Y7171D01*
X-93590Y7019D01*
X-93555Y6888D01*
X-93510Y6776D01*
X-93455Y6685D01*
X-93390Y6614D01*
X-93315Y6564D01*
X-93230Y6533D01*
X-93135Y6523D01*
X-95135D01*
X-95040Y6533D01*
X-94955Y6564D01*
X-94880Y6614D01*
X-94815Y6685D01*
X-94760Y6776D01*
X-94715Y6888D01*
X-94680Y7019D01*
X-94655Y7171D01*
X-94640Y7343D01*
X-94635Y7535D01*
X-93635D01*
X-93630Y7343D01*
D02*
G37*
G36*
X-83707Y6043D02*
X-84002Y5737D01*
X-84470Y5178D01*
X-84575Y5026D01*
X-84464Y4963D01*
X-84300Y4900D01*
X-84105Y4851D01*
X-83880Y4816D01*
X-83626Y4795D01*
X-83341Y4788D01*
Y3188D01*
X-83626Y3181D01*
X-83880Y3160D01*
X-84105Y3126D01*
X-84300Y3077D01*
X-84464Y3014D01*
X-84599Y2937D01*
X-84704Y2847D01*
X-84779Y2742D01*
X-84824Y2624D01*
X-84839Y2491D01*
Y4547D01*
X-84870Y4473D01*
X-84923Y4273D01*
X-84935Y4091D01*
X-84907Y3927D01*
X-84839Y3780D01*
X-86609Y6535D01*
X-86507Y6423D01*
X-86377Y6360D01*
X-86220Y6348D01*
X-86035Y6386D01*
X-85822Y6474D01*
X-85582Y6612D01*
X-85315Y6801D01*
X-85019Y7039D01*
X-84346Y7667D01*
X-83707Y6043D01*
D02*
G37*
G36*
X-108100Y4093D02*
X-108109Y4178D01*
X-108136Y4255D01*
X-108181Y4322D01*
X-108244Y4381D01*
X-108325Y4430D01*
X-108424Y4471D01*
X-108541Y4502D01*
X-108676Y4525D01*
X-108829Y4538D01*
X-109000Y4543D01*
Y5443D01*
X-108829Y5447D01*
X-108676Y5461D01*
X-108541Y5483D01*
X-108424Y5515D01*
X-108325Y5555D01*
X-108244Y5605D01*
X-108181Y5663D01*
X-108136Y5731D01*
X-108109Y5807D01*
X-108100Y5893D01*
Y4093D01*
D02*
G37*
G36*
X-105798Y3508D02*
X-105874Y3480D01*
X-105941Y3435D01*
X-106000Y3371D01*
X-106050Y3289D01*
X-106090Y3189D01*
X-106122Y3070D01*
X-106144Y2933D01*
X-106158Y2778D01*
X-106162Y2605D01*
X-107062D01*
X-107067Y2778D01*
X-107080Y2933D01*
X-107103Y3070D01*
X-107134Y3189D01*
X-107175Y3289D01*
X-107224Y3371D01*
X-107282Y3435D01*
X-107350Y3480D01*
X-107427Y3508D01*
X-107512Y3517D01*
X-105712D01*
X-105798Y3508D01*
D02*
G37*
G36*
X-147471Y4482D02*
X-147412Y4386D01*
X-147311Y4302D01*
X-147171Y4229D01*
X-146992Y4167D01*
X-146772Y4116D01*
X-146511Y4077D01*
X-146212Y4049D01*
X-145492Y4026D01*
Y2026D01*
X-145871Y2021D01*
X-146511Y1976D01*
X-146772Y1936D01*
X-146992Y1885D01*
X-147171Y1824D01*
X-147311Y1750D01*
X-147412Y1666D01*
X-147471Y1570D01*
X-147492Y1463D01*
Y4589D01*
X-147471Y4482D01*
D02*
G37*
G36*
X-106158Y1326D02*
X-106144Y1171D01*
X-106122Y1034D01*
X-106090Y915D01*
X-106050Y815D01*
X-106000Y733D01*
X-105941Y669D01*
X-105874Y623D01*
X-105798Y596D01*
X-105712Y587D01*
X-107512D01*
X-107427Y596D01*
X-107350Y623D01*
X-107282Y669D01*
X-107224Y733D01*
X-107175Y815D01*
X-107134Y915D01*
X-107103Y1034D01*
X-107080Y1171D01*
X-107067Y1326D01*
X-107062Y1499D01*
X-106162D01*
X-106158Y1326D01*
D02*
G37*
G36*
X-35644Y3497D02*
X-35584Y3328D01*
X-35483Y3178D01*
X-35342Y3047D01*
X-35161Y2937D01*
X-34940Y2847D01*
X-34678Y2778D01*
X-34376Y2727D01*
X-34087Y2702D01*
X-33307Y2766D01*
X-33088Y2809D01*
X-32908Y2863D01*
X-32768Y2927D01*
X-32667Y3000D01*
X-32607Y3083D01*
X-32588Y3175D01*
Y199D01*
X-32607Y292D01*
X-32667Y375D01*
X-32768Y448D01*
X-32908Y512D01*
X-33088Y565D01*
X-33307Y609D01*
X-33568Y644D01*
X-34071Y674D01*
X-34376Y648D01*
X-34678Y598D01*
X-34940Y527D01*
X-35161Y438D01*
X-35342Y328D01*
X-35483Y197D01*
X-35584Y48D01*
X-35644Y-123D01*
X-35664Y-313D01*
Y3687D01*
X-35644Y3497D01*
D02*
G37*
G36*
X-50207Y-788D02*
X-50255Y-758D01*
X-50310Y-742D01*
X-50371Y-741D01*
X-50437Y-754D01*
X-50511Y-781D01*
X-50590Y-824D01*
X-50676Y-880D01*
X-50767Y-951D01*
X-50865Y-1037D01*
X-50969Y-1137D01*
X-51464Y-642D01*
X-51374Y-547D01*
X-51298Y-458D01*
X-51236Y-375D01*
X-51188Y-298D01*
X-51156Y-226D01*
X-51137Y-161D01*
X-51133Y-102D01*
X-51144Y-48D01*
X-51169Y-1D01*
X-51208Y41D01*
X-50207Y-788D01*
D02*
G37*
G36*
X-108100Y-1789D02*
X-108109Y-1704D01*
X-108136Y-1627D01*
X-108181Y-1560D01*
X-108244Y-1501D01*
X-108325Y-1452D01*
X-108424Y-1411D01*
X-108541Y-1380D01*
X-108676Y-1357D01*
X-108829Y-1344D01*
X-109000Y-1339D01*
Y-439D01*
X-108829Y-435D01*
X-108676Y-421D01*
X-108541Y-399D01*
X-108424Y-367D01*
X-108325Y-327D01*
X-108244Y-277D01*
X-108181Y-219D01*
X-108136Y-151D01*
X-108109Y-75D01*
X-108100Y11D01*
Y-1789D01*
D02*
G37*
G36*
X-75111Y9001D02*
X-74123D01*
X-74216Y8981D01*
X-74299Y8921D01*
X-74372Y8821D01*
X-74435Y8681D01*
X-74489Y8501D01*
X-74533Y8281D01*
X-74567Y8021D01*
X-74606Y7381D01*
X-74611Y7001D01*
X-75111D01*
Y6989D01*
X-72226D01*
Y3057D01*
X-72283Y2973D01*
X-72302Y2873D01*
X-77284Y-2108D01*
X-77501Y-2076D01*
X-77784Y-1931D01*
Y6989D01*
X-76111D01*
Y7001D01*
X-76611D01*
X-76616Y7381D01*
X-76689Y8281D01*
X-76733Y8501D01*
X-76787Y8681D01*
X-76850Y8821D01*
X-76923Y8921D01*
X-77006Y8981D01*
X-77099Y9001D01*
X-76111D01*
Y10489D01*
X-75111D01*
Y9001D01*
D02*
G37*
G36*
X-113228Y-3139D02*
X-113215Y-3294D01*
X-113192Y-3431D01*
X-113161Y-3550D01*
X-113120Y-3650D01*
X-113070Y-3732D01*
X-113012Y-3796D01*
X-112944Y-3841D01*
X-112868Y-3869D01*
X-112783Y-3878D01*
X-114583D01*
X-114497Y-3869D01*
X-114420Y-3841D01*
X-114353Y-3796D01*
X-114295Y-3732D01*
X-114245Y-3650D01*
X-114205Y-3550D01*
X-114173Y-3431D01*
X-114151Y-3294D01*
X-114137Y-3139D01*
X-114132Y-2966D01*
X-113233D01*
X-113228Y-3139D01*
D02*
G37*
G36*
X-96373Y-1729D02*
X-95754Y-2258D01*
X-95486Y-2448D01*
X-95246Y-2587D01*
X-95033Y-2676D01*
X-94849Y-2715D01*
X-94692Y-2704D01*
X-94563Y-2643D01*
X-94461Y-2532D01*
X-96220Y-5275D01*
X-96153Y-5129D01*
X-96126Y-4966D01*
X-96139Y-4785D01*
X-96193Y-4585D01*
X-96287Y-4368D01*
X-96422Y-4133D01*
X-96596Y-3880D01*
X-96812Y-3608D01*
X-97067Y-3319D01*
X-97363Y-3012D01*
X-96724Y-1388D01*
X-96373Y-1729D01*
D02*
G37*
G36*
X-35644Y-4202D02*
X-35584Y-4372D01*
X-35483Y-4522D01*
X-35342Y-4652D01*
X-35161Y-4762D01*
X-34940Y-4852D01*
X-34678Y-4922D01*
X-34376Y-4972D01*
X-34087Y-4998D01*
X-33307Y-4934D01*
X-33088Y-4890D01*
X-32908Y-4837D01*
X-32768Y-4773D01*
X-32667Y-4700D01*
X-32607Y-4617D01*
X-32588Y-4524D01*
Y-7500D01*
X-32607Y-7408D01*
X-32667Y-7325D01*
X-32768Y-7251D01*
X-32908Y-7188D01*
X-33088Y-7134D01*
X-33307Y-7090D01*
X-33568Y-7056D01*
X-34071Y-7025D01*
X-34376Y-7052D01*
X-34678Y-7102D01*
X-34940Y-7172D01*
X-35161Y-7262D01*
X-35342Y-7372D01*
X-35483Y-7502D01*
X-35584Y-7652D01*
X-35644Y-7822D01*
X-35664Y-8012D01*
Y-4012D01*
X-35644Y-4202D01*
D02*
G37*
G36*
X-92729Y-7618D02*
X-92865Y-7666D01*
X-92985Y-7747D01*
X-93089Y-7860D01*
X-93177Y-8005D01*
X-93249Y-8182D01*
X-93305Y-8392D01*
X-93345Y-8634D01*
X-93357Y-8768D01*
X-93337Y-9143D01*
X-93375D01*
X-93377Y-9214D01*
X-94977D01*
X-94979Y-9143D01*
X-95017D01*
X-95009Y-9128D01*
X-95003Y-9100D01*
X-94997Y-9058D01*
X-94987Y-8934D01*
X-94986Y-8895D01*
X-95009Y-8634D01*
X-95049Y-8392D01*
X-95105Y-8182D01*
X-95177Y-8005D01*
X-95265Y-7860D01*
X-95369Y-7747D01*
X-95489Y-7666D01*
X-95625Y-7618D01*
X-95777Y-7602D01*
X-92577D01*
X-92729Y-7618D01*
D02*
G37*
G36*
X-24493Y-7500D02*
X-24645Y-7521D01*
X-24825Y-7585D01*
X-25033Y-7691D01*
X-25271Y-7840D01*
X-25537Y-8031D01*
X-26156Y-8540D01*
X-26889Y-9219D01*
X-27299Y-9622D01*
X-28884Y-8378D01*
X-28461Y-7941D01*
X-27804Y-7170D01*
X-27569Y-6836D01*
X-27396Y-6536D01*
X-27286Y-6271D01*
X-27238Y-6039D01*
X-27253Y-5842D01*
X-27330Y-5678D01*
X-27469Y-5549D01*
X-24493Y-7500D01*
D02*
G37*
G36*
X-112367Y-8545D02*
X-112393Y-8627D01*
Y-8723D01*
X-112367Y-8831D01*
X-112317Y-8952D01*
X-112240Y-9086D01*
X-112138Y-9232D01*
X-112011Y-9391D01*
X-111680Y-9747D01*
X-112317Y-10384D01*
X-112501Y-10206D01*
X-112832Y-9926D01*
X-112978Y-9824D01*
X-113112Y-9747D01*
X-113233Y-9697D01*
X-113341Y-9671D01*
X-113437D01*
X-113519Y-9697D01*
X-113589Y-9747D01*
X-112317Y-8475D01*
X-112367Y-8545D01*
D02*
G37*
%LPC*%
G36*
X72000Y47493D02*
X69000D01*
Y44493D01*
X72000D01*
Y47493D01*
D02*
G37*
G36*
X20701Y24205D02*
X16839D01*
Y24083D01*
Y22114D01*
X20701D01*
Y22126D01*
X20201D01*
X20191Y22508D01*
X20161Y22850D01*
X20111Y23152D01*
X20041Y23414D01*
X19951Y23635D01*
X19841Y23816D01*
X19711Y23957D01*
X19561Y24058D01*
X19391Y24118D01*
X19201Y24138D01*
X20701D01*
Y24205D01*
D02*
G37*
G36*
X13436Y22846D02*
X4162D01*
Y14359D01*
X13436D01*
Y22846D01*
D02*
G37*
G36*
X66929Y13720D02*
X65789Y13608D01*
X64692Y13275D01*
X63681Y12735D01*
X62795Y12008D01*
X62068Y11122D01*
X61528Y10111D01*
X61195Y9015D01*
X61083Y7874D01*
X61195Y6734D01*
X61528Y5637D01*
X62068Y4626D01*
X62795Y3740D01*
X63681Y3013D01*
X64692Y2473D01*
X65789Y2140D01*
X66929Y2028D01*
X68070Y2140D01*
X69166Y2473D01*
X70177Y3013D01*
X71063Y3740D01*
X71790Y4626D01*
X72330Y5637D01*
X72663Y6734D01*
X72775Y7874D01*
X72663Y9015D01*
X72330Y10111D01*
X71790Y11122D01*
X71063Y12008D01*
X70177Y12735D01*
X69166Y13275D01*
X68070Y13608D01*
X66929Y13720D01*
D02*
G37*
G36*
X7874D02*
X6734Y13608D01*
X5637Y13275D01*
X4626Y12735D01*
X3740Y12008D01*
X3013Y11122D01*
X2473Y10111D01*
X2140Y9015D01*
X2028Y7874D01*
X2140Y6734D01*
X2473Y5637D01*
X3013Y4626D01*
X3740Y3740D01*
X4626Y3013D01*
X5637Y2473D01*
X6734Y2140D01*
X7874Y2028D01*
X9015Y2140D01*
X10111Y2473D01*
X11122Y3013D01*
X12008Y3740D01*
X12735Y4626D01*
X13275Y5637D01*
X13608Y6734D01*
X13720Y7874D01*
X13608Y9015D01*
X13275Y10111D01*
X12735Y11122D01*
X12008Y12008D01*
X11122Y12735D01*
X10111Y13275D01*
X9015Y13608D01*
X7874Y13720D01*
D02*
G37*
G36*
X-25811Y97330D02*
X-26952Y97218D01*
X-28048Y96886D01*
X-29059Y96345D01*
X-29945Y95618D01*
X-30672Y94732D01*
X-31212Y93721D01*
X-31545Y92625D01*
X-31657Y91484D01*
X-31545Y90344D01*
X-31212Y89247D01*
X-30672Y88236D01*
X-29945Y87350D01*
X-29059Y86623D01*
X-28048Y86083D01*
X-26952Y85750D01*
X-25811Y85638D01*
X-24670Y85750D01*
X-23574Y86083D01*
X-22563Y86623D01*
X-21677Y87350D01*
X-20950Y88236D01*
X-20410Y89247D01*
X-20077Y90344D01*
X-19965Y91484D01*
X-20077Y92625D01*
X-20410Y93721D01*
X-20950Y94732D01*
X-21677Y95618D01*
X-22563Y96345D01*
X-23574Y96886D01*
X-24670Y97218D01*
X-25811Y97330D01*
D02*
G37*
G36*
X-159669D02*
X-160810Y97218D01*
X-161907Y96886D01*
X-162917Y96345D01*
X-163803Y95618D01*
X-164530Y94732D01*
X-165070Y93721D01*
X-165403Y92625D01*
X-165516Y91484D01*
X-165403Y90344D01*
X-165070Y89247D01*
X-164530Y88236D01*
X-163803Y87350D01*
X-162917Y86623D01*
X-161907Y86083D01*
X-160810Y85750D01*
X-159669Y85638D01*
X-158529Y85750D01*
X-157432Y86083D01*
X-156421Y86623D01*
X-155535Y87350D01*
X-154808Y88236D01*
X-154268Y89247D01*
X-153935Y90344D01*
X-153823Y91484D01*
X-153935Y92625D01*
X-154268Y93721D01*
X-154808Y94732D01*
X-155535Y95618D01*
X-156421Y96345D01*
X-157432Y96886D01*
X-158529Y97218D01*
X-159669Y97330D01*
D02*
G37*
G36*
X-67127Y98106D02*
X-76401D01*
Y84895D01*
X-67127D01*
Y98106D01*
D02*
G37*
G36*
X-103599D02*
X-112873D01*
Y84895D01*
X-103599D01*
Y98106D01*
D02*
G37*
G36*
X-114356Y57063D02*
X-117135D01*
Y52663D01*
X-116380D01*
Y54163D01*
X-116359Y53973D01*
X-116299Y53803D01*
X-116199Y53653D01*
X-116058Y53523D01*
X-115877Y53413D01*
X-115655Y53323D01*
X-115394Y53253D01*
X-115092Y53203D01*
X-114750Y53173D01*
X-114368Y53163D01*
Y52663D01*
X-114356D01*
Y57063D01*
D02*
G37*
G36*
X-19162Y60641D02*
X-28436D01*
Y52154D01*
X-19162D01*
Y60641D01*
D02*
G37*
G36*
X-114356Y51663D02*
X-114368D01*
Y51163D01*
X-114750Y51153D01*
X-115092Y51123D01*
X-115394Y51073D01*
X-115655Y51003D01*
X-115877Y50913D01*
X-116058Y50803D01*
X-116199Y50673D01*
X-116299Y50523D01*
X-116359Y50353D01*
X-116380Y50163D01*
Y51663D01*
X-117135D01*
Y47263D01*
X-114356D01*
Y51663D01*
D02*
G37*
G36*
X-130656Y55763D02*
X-134615D01*
Y48563D01*
X-130656D01*
Y55763D01*
D02*
G37*
G36*
X-118753Y38332D02*
X-121753D01*
Y35332D01*
X-121741D01*
Y35832D01*
X-121361Y35837D01*
X-120461Y35910D01*
X-120241Y35954D01*
X-120061Y36008D01*
X-119921Y36072D01*
X-119821Y36145D01*
X-119761Y36228D01*
X-119741Y36320D01*
Y35332D01*
X-118753D01*
Y38332D01*
D02*
G37*
G36*
Y34332D02*
X-119741D01*
Y33344D01*
X-119761Y33437D01*
X-119821Y33520D01*
X-119921Y33593D01*
X-120061Y33657D01*
X-120241Y33710D01*
X-120461Y33754D01*
X-120721Y33788D01*
X-121361Y33827D01*
X-121741Y33832D01*
Y34332D01*
X-121753D01*
Y31332D01*
X-118753D01*
Y34332D01*
D02*
G37*
G36*
X-118704Y30458D02*
X-121704D01*
Y27458D01*
X-121692D01*
Y27958D01*
X-121312Y27963D01*
X-120412Y28036D01*
X-120192Y28080D01*
X-120012Y28133D01*
X-119872Y28197D01*
X-119772Y28270D01*
X-119712Y28353D01*
X-119692Y28446D01*
Y27458D01*
X-118704D01*
Y30458D01*
D02*
G37*
G36*
Y26458D02*
X-119692D01*
Y25470D01*
X-119712Y25563D01*
X-119772Y25646D01*
X-119872Y25719D01*
X-120012Y25782D01*
X-120192Y25836D01*
X-120412Y25880D01*
X-120672Y25914D01*
X-121312Y25953D01*
X-121692Y25958D01*
Y26458D01*
X-121704D01*
Y23458D01*
X-118704D01*
Y26458D01*
D02*
G37*
G36*
X-31839Y26173D02*
X-36201D01*
X-39689D01*
Y25205D01*
X-36201D01*
X-31839D01*
Y26173D01*
D02*
G37*
G36*
X-155089Y42811D02*
X-168300D01*
Y33727D01*
X-168300Y33227D01*
X-168300Y33037D01*
Y23953D01*
X-155089D01*
Y33037D01*
X-155089Y33537D01*
X-155089Y33727D01*
Y42811D01*
D02*
G37*
G36*
X-51308Y23611D02*
X-51514D01*
Y23404D01*
X-51573Y23443D01*
X-51667Y23479D01*
X-51796Y23510D01*
X-51960Y23537D01*
X-52284Y23568D01*
Y23111D01*
X-52294Y23206D01*
X-52324Y23291D01*
X-52375Y23366D01*
X-52446Y23431D01*
X-52537Y23486D01*
X-52648Y23531D01*
X-52780Y23566D01*
X-52931Y23591D01*
X-53031Y23600D01*
X-53301Y23609D01*
X-53672Y23611D01*
X-54308D01*
Y20611D01*
X-51308D01*
Y20623D01*
X-51808D01*
X-51813Y21003D01*
X-51886Y21903D01*
X-51930Y22123D01*
X-51983Y22303D01*
X-52047Y22443D01*
X-52120Y22543D01*
X-52203Y22603D01*
X-52296Y22623D01*
X-51308D01*
Y23611D01*
D02*
G37*
G36*
X-31839Y24205D02*
X-35701D01*
Y22114D01*
X-31839D01*
Y24083D01*
X-31839D01*
Y24205D01*
D02*
G37*
G36*
X-36701D02*
X-40563D01*
Y22114D01*
X-36701D01*
Y24205D01*
D02*
G37*
G36*
X-47308Y23611D02*
X-50308D01*
Y22623D01*
X-49320D01*
X-49412Y22603D01*
X-49495Y22543D01*
X-49569Y22443D01*
X-49632Y22303D01*
X-49686Y22123D01*
X-49730Y21903D01*
X-49764Y21643D01*
X-49803Y21003D01*
X-49808Y20623D01*
X-50308D01*
Y20611D01*
X-47308D01*
Y23611D01*
D02*
G37*
G36*
X-140113Y20318D02*
X-144513D01*
Y19021D01*
X-144525Y19019D01*
X-144584Y19014D01*
X-146708D01*
X-146767Y19019D01*
X-146780Y19021D01*
Y20065D01*
X-154479D01*
Y15644D01*
X-154479Y15144D01*
X-154479Y15015D01*
Y11522D01*
X-155779D01*
Y8448D01*
X-150629D01*
X-147492D01*
Y9510D01*
X-147471Y9324D01*
X-147412Y9157D01*
X-147311Y9010D01*
X-147171Y8882D01*
X-146992Y8774D01*
X-146772Y8686D01*
X-146511Y8617D01*
X-146212Y8568D01*
X-145871Y8538D01*
X-145492Y8529D01*
Y8448D01*
X-145480D01*
Y11394D01*
X-144584D01*
X-144525Y11389D01*
X-144513Y11387D01*
Y10418D01*
X-140113D01*
Y14818D01*
X-144513D01*
Y13849D01*
X-144525Y13847D01*
X-144584Y13841D01*
X-146282D01*
X-146780Y14312D01*
Y15015D01*
X-146780Y15515D01*
X-146780Y15643D01*
Y16559D01*
X-146767Y16561D01*
X-146708Y16567D01*
X-144584D01*
X-144525Y16561D01*
X-144513Y16559D01*
Y15918D01*
X-140113D01*
Y20318D01*
D02*
G37*
G36*
X-134994D02*
X-139394D01*
Y15918D01*
X-134994D01*
Y16112D01*
X-134494Y16379D01*
X-134241Y16210D01*
X-133500Y16063D01*
X-132759Y16210D01*
X-132130Y16630D01*
X-131710Y17259D01*
X-131563Y18000D01*
X-131710Y18741D01*
X-132130Y19370D01*
X-132759Y19790D01*
X-133500Y19937D01*
X-134241Y19790D01*
X-134494Y19621D01*
X-134994Y19888D01*
Y20318D01*
D02*
G37*
G36*
X-19162Y22846D02*
X-28436D01*
Y14359D01*
X-19162D01*
Y22846D01*
D02*
G37*
G36*
X-134994Y14818D02*
X-139394D01*
Y10418D01*
X-134994D01*
Y10612D01*
X-134494Y10879D01*
X-134241Y10710D01*
X-133500Y10563D01*
X-132759Y10710D01*
X-132130Y11130D01*
X-131710Y11759D01*
X-131563Y12500D01*
X-131710Y13241D01*
X-132130Y13870D01*
X-132759Y14290D01*
X-133500Y14437D01*
X-134241Y14290D01*
X-134494Y14121D01*
X-134994Y14388D01*
Y14818D01*
D02*
G37*
G36*
X-45890Y13788D02*
X-48140D01*
Y9788D01*
X-43640D01*
Y11538D01*
X-45890Y13788D01*
D02*
G37*
G36*
X-49140D02*
X-51390D01*
X-53640Y11538D01*
Y9788D01*
X-53628D01*
Y10288D01*
X-53105Y10298D01*
X-52223Y10378D01*
X-51864Y10448D01*
X-51561Y10538D01*
X-51313Y10648D01*
X-51120Y10778D01*
X-50982Y10928D01*
X-50900Y11098D01*
X-50872Y11288D01*
Y9788D01*
X-49140D01*
Y13788D01*
D02*
G37*
G36*
X-155089Y-3245D02*
X-168300D01*
Y-12519D01*
X-155089D01*
Y-3245D01*
D02*
G37*
G36*
X-25811Y-16843D02*
X-26952Y-16955D01*
X-28048Y-17288D01*
X-29059Y-17828D01*
X-29945Y-18555D01*
X-30672Y-19441D01*
X-31212Y-20452D01*
X-31545Y-21548D01*
X-31657Y-22689D01*
X-31545Y-23830D01*
X-31212Y-24926D01*
X-30672Y-25937D01*
X-29945Y-26823D01*
X-29059Y-27550D01*
X-28048Y-28090D01*
X-26952Y-28423D01*
X-25811Y-28535D01*
X-24670Y-28423D01*
X-23574Y-28090D01*
X-22563Y-27550D01*
X-21677Y-26823D01*
X-20950Y-25937D01*
X-20410Y-24926D01*
X-20077Y-23830D01*
X-19965Y-22689D01*
X-20077Y-21548D01*
X-20410Y-20452D01*
X-20950Y-19441D01*
X-21677Y-18555D01*
X-22563Y-17828D01*
X-23574Y-17288D01*
X-24670Y-16955D01*
X-25811Y-16843D01*
D02*
G37*
G36*
X-159669D02*
X-160810Y-16955D01*
X-161907Y-17288D01*
X-162917Y-17828D01*
X-163803Y-18555D01*
X-164530Y-19441D01*
X-165070Y-20452D01*
X-165403Y-21548D01*
X-165516Y-22689D01*
X-165403Y-23830D01*
X-165070Y-24926D01*
X-164530Y-25937D01*
X-163803Y-26823D01*
X-162917Y-27550D01*
X-161907Y-28090D01*
X-160810Y-28423D01*
X-159669Y-28535D01*
X-158529Y-28423D01*
X-157432Y-28090D01*
X-156421Y-27550D01*
X-155535Y-26823D01*
X-154808Y-25937D01*
X-154268Y-24926D01*
X-153935Y-23830D01*
X-153823Y-22689D01*
X-153935Y-21548D01*
X-154268Y-20452D01*
X-154808Y-19441D01*
X-155535Y-18555D01*
X-156421Y-17828D01*
X-157432Y-17288D01*
X-158529Y-16955D01*
X-159669Y-16843D01*
D02*
G37*
%LPD*%
G36*
X-143789Y16790D02*
X-143799Y16885D01*
X-143829Y16970D01*
X-143880Y17045D01*
X-143950Y17110D01*
X-144042Y17165D01*
X-144153Y17210D01*
X-144284Y17245D01*
X-144436Y17270D01*
X-144608Y17285D01*
X-144801Y17290D01*
Y18290D01*
X-144608Y18295D01*
X-144436Y18310D01*
X-144284Y18335D01*
X-144153Y18370D01*
X-144042Y18415D01*
X-143950Y18470D01*
X-143880Y18535D01*
X-143829Y18610D01*
X-143799Y18695D01*
X-143789Y18790D01*
Y16790D01*
D02*
G37*
G36*
X-147493Y18695D02*
X-147463Y18610D01*
X-147412Y18535D01*
X-147342Y18470D01*
X-147250Y18415D01*
X-147139Y18370D01*
X-147008Y18335D01*
X-146856Y18310D01*
X-146684Y18295D01*
X-146492Y18290D01*
Y17290D01*
X-146684Y17285D01*
X-146856Y17270D01*
X-147008Y17245D01*
X-147139Y17210D01*
X-147250Y17165D01*
X-147342Y17110D01*
X-147412Y17045D01*
X-147463Y16970D01*
X-147493Y16885D01*
X-147503Y16790D01*
Y18790D01*
X-147493Y18695D01*
D02*
G37*
G36*
X-143789Y11618D02*
X-143799Y11713D01*
X-143829Y11798D01*
X-143880Y11873D01*
X-143950Y11938D01*
X-144042Y11993D01*
X-144153Y12038D01*
X-144284Y12073D01*
X-144436Y12098D01*
X-144608Y12113D01*
X-144801Y12118D01*
Y13118D01*
X-144608Y13123D01*
X-144436Y13138D01*
X-144284Y13163D01*
X-144153Y13198D01*
X-144042Y13243D01*
X-143950Y13298D01*
X-143880Y13363D01*
X-143829Y13438D01*
X-143799Y13523D01*
X-143789Y13618D01*
Y11618D01*
D02*
G37*
G36*
X-147493Y13523D02*
X-147463Y13438D01*
X-147413Y13363D01*
X-147342Y13298D01*
X-147250Y13243D01*
X-147139Y13198D01*
X-147008Y13163D01*
X-146856Y13138D01*
X-146684Y13123D01*
X-146492Y13118D01*
Y12118D01*
X-146684Y12113D01*
X-146856Y12098D01*
X-147008Y12073D01*
X-147139Y12038D01*
X-147250Y11993D01*
X-147342Y11938D01*
X-147413Y11873D01*
X-147463Y11798D01*
X-147493Y11713D01*
X-147503Y11618D01*
Y13618D01*
X-147493Y13523D01*
D02*
G37*
G36*
X-135708Y18905D02*
X-135678Y18820D01*
X-135627Y18745D01*
X-135557Y18680D01*
X-135466Y18625D01*
X-135354Y18580D01*
X-135223Y18545D01*
X-135071Y18520D01*
X-135047Y18518D01*
X-134964Y18531D01*
X-134860Y18554D01*
X-134762Y18585D01*
X-134670Y18622D01*
X-134583Y18667D01*
X-134502Y18718D01*
X-134426Y18775D01*
X-134357Y18840D01*
Y17160D01*
X-134426Y17225D01*
X-134502Y17282D01*
X-134583Y17333D01*
X-134670Y17378D01*
X-134762Y17415D01*
X-134860Y17446D01*
X-134964Y17469D01*
X-135047Y17482D01*
X-135071Y17480D01*
X-135223Y17455D01*
X-135354Y17420D01*
X-135466Y17375D01*
X-135557Y17320D01*
X-135627Y17255D01*
X-135678Y17180D01*
X-135708Y17095D01*
X-135719Y17000D01*
Y19000D01*
X-135708Y18905D01*
D02*
G37*
G36*
Y13405D02*
X-135678Y13320D01*
X-135627Y13245D01*
X-135557Y13180D01*
X-135466Y13125D01*
X-135354Y13080D01*
X-135223Y13045D01*
X-135071Y13020D01*
X-135047Y13018D01*
X-134964Y13031D01*
X-134860Y13054D01*
X-134762Y13085D01*
X-134670Y13122D01*
X-134583Y13167D01*
X-134502Y13218D01*
X-134426Y13275D01*
X-134357Y13340D01*
Y11660D01*
X-134426Y11725D01*
X-134502Y11782D01*
X-134583Y11833D01*
X-134670Y11878D01*
X-134762Y11915D01*
X-134860Y11946D01*
X-134964Y11969D01*
X-135047Y11982D01*
X-135071Y11980D01*
X-135223Y11955D01*
X-135354Y11920D01*
X-135466Y11875D01*
X-135557Y11820D01*
X-135627Y11755D01*
X-135678Y11680D01*
X-135708Y11595D01*
X-135719Y11500D01*
Y13500D01*
X-135708Y13405D01*
D02*
G37*
%LPC*%
G36*
X-107112Y13611D02*
X-110112D01*
Y10611D01*
X-107112D01*
Y13611D01*
D02*
G37*
G36*
X-119163Y10410D02*
X-122041D01*
Y7969D01*
X-121175D01*
X-121248Y7949D01*
X-121313Y7889D01*
X-121371Y7789D01*
X-121420Y7649D01*
X-121463Y7469D01*
X-121497Y7249D01*
X-121524Y6989D01*
X-121555Y6349D01*
X-121559Y5969D01*
X-122041D01*
Y5957D01*
X-119163D01*
Y10410D01*
D02*
G37*
G36*
X-98243Y-508D02*
X-98244D01*
Y-513D01*
X-98243Y-508D01*
D02*
G37*
G36*
X-119163Y-1854D02*
X-122041D01*
Y-1866D01*
X-121559D01*
X-121555Y-2246D01*
X-121497Y-3146D01*
X-121463Y-3366D01*
X-121421Y-3546D01*
X-121371Y-3686D01*
X-121313Y-3786D01*
X-121248Y-3846D01*
X-121175Y-3866D01*
X-122041D01*
Y-6307D01*
X-119163D01*
Y-1854D01*
D02*
G37*
G36*
X-105124Y-3805D02*
X-105133Y-3807D01*
X-108812D01*
Y-8207D01*
X-105133D01*
X-105124Y-8209D01*
X-105115Y-8207D01*
X-104412D01*
Y-7812D01*
X-104304Y-7790D01*
X-103654Y-7737D01*
X-102321D01*
X-102241Y-7790D01*
X-101500Y-7937D01*
X-100759Y-7790D01*
X-100130Y-7370D01*
X-99710Y-6741D01*
X-99563Y-6000D01*
X-99710Y-5259D01*
X-100130Y-4630D01*
X-100759Y-4210D01*
X-101500Y-4063D01*
X-102241Y-4210D01*
X-102331Y-4270D01*
X-103726D01*
X-104076Y-4249D01*
X-104288Y-4221D01*
X-104412Y-4197D01*
Y-3807D01*
X-105115D01*
X-105124Y-3805D01*
D02*
G37*
%LPD*%
G36*
X-105104Y-4611D02*
X-105044Y-4694D01*
X-104944Y-4766D01*
X-104804Y-4829D01*
X-104624Y-4882D01*
X-104404Y-4926D01*
X-104144Y-4960D01*
X-103504Y-4999D01*
X-103124Y-5004D01*
Y-7004D01*
X-103504Y-7008D01*
X-104404Y-7082D01*
X-104624Y-7126D01*
X-104804Y-7181D01*
X-104944Y-7244D01*
X-105044Y-7318D01*
X-105104Y-7402D01*
X-105124Y-7495D01*
Y-4519D01*
X-105104Y-4611D01*
D02*
G37*
G54D10*
X-36201Y25689D02*
X-7230D01*
X-41500D02*
X-36201D01*
X-54748Y25051D02*
Y27568D01*
X-56087Y28907D02*
X-54748Y27568D01*
X-60040Y28907D02*
X-56087D01*
X-54748Y25051D02*
X-53808Y24111D01*
X-50808D01*
X1253Y51654D02*
X15858D01*
X-6000Y58907D02*
X1253Y51654D01*
X-6000Y53986D02*
Y58907D01*
Y44144D02*
X7028D01*
X7766Y43406D01*
X7874D01*
X-6000Y44144D02*
Y49065D01*
Y39222D02*
Y44144D01*
X-7230Y25689D02*
X-6000Y24459D01*
Y29380D02*
Y34301D01*
Y24459D02*
Y29380D01*
Y19537D02*
Y24459D01*
X-11329Y9287D02*
X-6000Y14616D01*
X-25981Y9287D02*
X-11329D01*
X-36201Y25689D02*
Y26673D01*
Y24705D02*
Y25689D01*
X-36201Y24705D02*
X-36201Y24705D01*
Y47343D02*
Y48327D01*
Y46358D02*
Y47343D01*
X-52454Y30876D02*
X-50808Y29230D01*
X-60040Y30876D02*
X-52454D01*
X-60060Y28927D02*
X-60040Y28907D01*
X-60060Y30895D02*
X-60040Y30876D01*
X-93108Y53794D02*
X-73052D01*
X-96674Y57359D02*
X-93108Y53794D01*
X-70359Y56486D02*
X-60060D01*
X-73052Y53794D02*
X-70359Y56486D01*
X-73052Y19872D02*
Y28500D01*
X-69541D01*
X-96674Y57359D02*
Y63572D01*
Y19872D02*
Y26958D01*
X-103760D02*
X-96674D01*
X-73052Y13047D02*
Y19872D01*
X-67146Y30895D02*
X-60060D01*
X-69541Y28500D02*
X-67146Y30895D01*
X-36201Y46358D02*
X-36201Y46358D01*
X-60060Y54517D02*
X-51500D01*
X-60060Y48612D02*
X-51588D01*
X-92406Y76011D02*
Y80435D01*
Y76011D02*
X-89847Y73452D01*
X-150378Y12618D02*
X-142313D01*
X-150629Y12869D02*
X-150378Y12618D01*
X-142640Y17790D02*
X-142313Y18118D01*
X-150629Y17790D02*
X-142640D01*
X-137195Y12618D02*
X-137077Y12500D01*
X-133500D01*
X-137195Y18118D02*
X-137077Y18000D01*
X-133500D01*
X-94965Y44390D02*
Y52809D01*
X-98643Y56486D02*
X-94965Y52809D01*
X-103760Y56486D02*
X-98643D01*
X-92717Y67960D02*
X-91677Y69000D01*
X-92737Y63572D02*
X-92717Y63592D01*
Y67960D01*
X-94705Y63572D02*
Y73191D01*
X-94965Y73452D02*
X-94705Y73191D01*
X-124000Y39769D02*
Y43441D01*
X-126269Y37500D02*
X-124000Y39769D01*
X-134451Y37500D02*
X-126269D01*
X-124000Y43441D02*
X-122441Y45000D01*
X-127559Y45000D02*
X-126000Y43442D01*
Y41297D02*
Y43442D01*
X-127797Y39500D02*
X-126000Y41297D01*
X-139500Y42549D02*
X-134451Y37500D01*
X-134047Y39500D02*
X-127797D01*
X-137195Y42647D02*
X-134047Y39500D01*
X-142171Y62000D02*
X-137195Y57024D01*
Y42647D02*
Y57024D01*
X-139500Y42549D02*
Y56112D01*
X-143688Y60300D02*
X-139500Y56112D01*
X-147200Y60300D02*
X-143688D01*
X-148575Y58925D02*
X-147200Y60300D01*
Y62000D02*
X-142171D01*
X-149046Y63846D02*
X-147200Y62000D01*
X-150629Y63846D02*
X-149046D01*
X-150629Y58925D02*
X-148575D01*
X-122635Y45195D02*
Y52163D01*
Y45195D02*
X-122441Y45000D01*
X-127635Y45077D02*
Y52163D01*
Y45077D02*
X-127559Y45000D01*
X-122635Y73817D02*
Y80430D01*
X-122576Y80488D01*
X-127635Y73817D02*
Y80429D01*
X-127694Y80488D02*
X-127635Y80429D01*
X-113135Y34832D02*
X-103760D01*
X-113135Y34832D02*
X-113135Y34832D01*
X-87484Y10489D02*
X-86831Y11143D01*
X-87500Y10473D02*
X-87484Y10489D01*
X-87500Y10473D02*
Y10500D01*
X-94135Y4030D02*
Y10489D01*
X-94177Y3988D02*
X-94135Y4030D01*
X-88819Y19852D02*
X-88800Y19872D01*
X-88819Y15805D02*
Y19852D01*
X-94135Y10489D02*
X-88819Y15805D01*
X-86831Y11143D02*
Y19872D01*
X-75020Y11080D02*
Y19872D01*
X-75611Y10489D02*
X-75020Y11080D01*
X-73052Y13047D02*
X-70493Y10489D01*
X-113086Y26958D02*
X-103760D01*
X-113086Y26958D02*
X-113086Y26958D01*
X31287Y59580D02*
X35247D01*
X29000Y57294D02*
X31287Y59580D01*
X35247Y55840D02*
X38621D01*
X39852Y57071D01*
X38621Y63321D02*
X39852Y62090D01*
Y57071D02*
Y62090D01*
X35247Y63321D02*
X38621D01*
X29000Y62412D02*
X33256D01*
X34165Y63321D01*
X35247D01*
X23467Y62412D02*
X29000D01*
X20858Y50295D02*
X21201D01*
X20767Y50386D02*
X20858Y50295D01*
X20767Y50386D02*
Y59712D01*
X23467Y62412D01*
X21201Y42421D02*
Y43406D01*
Y24705D02*
Y25689D01*
X52185Y40437D02*
Y41421D01*
Y40437D02*
X55769D01*
X21201Y25689D02*
Y26673D01*
X52185Y41421D02*
Y42406D01*
X21201Y43406D02*
Y44390D01*
X62815Y38469D02*
X68094D01*
X68500Y38875D01*
X56500Y37247D02*
Y39706D01*
X55761Y36508D02*
X56500Y37247D01*
X52193Y36508D02*
X55761D01*
X52185Y36500D02*
X52193Y36508D01*
X55769Y40437D02*
X56500Y39706D01*
X48500Y30968D02*
Y33036D01*
X45000Y30382D02*
X47914D01*
X48500Y30968D01*
X52177Y34524D02*
X52185Y34532D01*
X49988Y34524D02*
X52177D01*
X48500Y33036D02*
X49988Y34524D01*
X46000Y36500D02*
X52185D01*
X45000Y35500D02*
X46000Y36500D01*
X52177Y38461D02*
X52185Y38469D01*
G54D15*
X-51000Y-3652D02*
X-48640Y-6012D01*
X-60184Y-3652D02*
X-51000D01*
X-67943Y4107D02*
X-60184Y-3652D01*
X-51217Y-889D02*
X-48640Y1688D01*
X-60556Y-889D02*
X-51217D01*
X-66543Y5098D02*
X-60556Y-889D01*
X-66543Y5098D02*
Y13003D01*
X-71083Y15563D02*
X-67943Y12424D01*
Y4107D02*
Y12424D01*
X-69115Y15575D02*
X-66543Y13003D01*
X-69115Y15575D02*
Y19872D01*
X-117635Y73817D02*
X-117500Y73681D01*
Y69000D02*
Y73681D01*
X-132635Y73817D02*
X-132500Y73682D01*
Y68500D02*
Y73682D01*
X-90768Y58125D02*
Y63572D01*
X-92406Y56486D02*
X-90768Y58125D01*
X-88800Y58392D02*
Y63572D01*
Y58392D02*
X-86894Y56486D01*
X-71083Y15563D02*
Y19872D01*
X-82564Y74646D02*
Y80435D01*
X-84863Y63572D02*
Y72347D01*
X-82564Y74646D01*
X-86831Y63572D02*
Y79780D01*
X-87485Y80435D02*
X-86831Y79780D01*
X62259Y26500D02*
X65366D01*
X28431Y44898D02*
X29850D01*
X23987Y40453D02*
X28431Y44898D01*
X25939Y24331D02*
X27770Y22500D01*
X33678D01*
X36178Y20000D01*
X65594D01*
X27738Y38284D02*
X29850D01*
X25971Y36516D02*
X27738Y38284D01*
X21201Y36516D02*
X25971D01*
X27500Y27290D02*
Y28988D01*
X25878Y30610D02*
X27500Y28988D01*
X21201Y30610D02*
X25878D01*
X27397Y32579D02*
X30441Y29535D01*
X21201Y32579D02*
X27397D01*
X25939Y24331D02*
Y27358D01*
X24654Y28642D02*
X25939Y27358D01*
X21201Y28642D02*
X24654D01*
X27500Y27290D02*
X29460Y25330D01*
X39852D01*
X37784Y27310D02*
X49863D01*
X50500Y26673D01*
X39852Y25330D02*
X40759Y24423D01*
X35559Y29535D02*
X37784Y27310D01*
X40759Y24423D02*
X55423D01*
X65771Y36500D02*
X70000Y32271D01*
Y24406D02*
Y32271D01*
X65594Y20000D02*
X70000Y24406D01*
X39500Y22500D02*
X64724D01*
X68094Y25869D02*
Y31398D01*
X64724Y22500D02*
X68094Y25869D01*
X66929Y32563D02*
X68094Y31398D01*
X62815Y32563D02*
X66929D01*
X55423Y24423D02*
X57500Y26500D01*
Y28035D01*
X65929Y27063D02*
Y29786D01*
X65366Y26500D02*
X65929Y27063D01*
X62815Y30595D02*
X65121D01*
X65929Y29786D01*
X62815Y36500D02*
X65771D01*
X36150Y41433D02*
X40559D01*
X62815Y42406D02*
X62858D01*
X63000Y42548D01*
Y45000D01*
X36150Y34819D02*
X40559D01*
X59000Y39706D02*
X59794Y40500D01*
X59000Y31468D02*
Y39706D01*
Y31468D02*
X59731Y30737D01*
X59794Y40500D02*
X62752D01*
X59731Y30737D02*
X62673D01*
X62752Y40500D02*
X62815Y40437D01*
X62673Y30737D02*
X62815Y30595D01*
X36327Y38461D02*
X36334Y38469D01*
X36150Y38284D02*
X36327Y38461D01*
X36334Y38469D02*
X52185D01*
X36150Y44898D02*
X57433D01*
X57500Y44965D01*
X27521Y41433D02*
X29850D01*
X24572Y38484D02*
X27521Y41433D01*
X21201Y40453D02*
X23987D01*
X21201Y34547D02*
X21201Y34547D01*
X29578D01*
X29850Y34819D01*
X21201Y38484D02*
X24572D01*
G54D20*
X21201Y47343D02*
Y48327D01*
Y46358D02*
Y47343D01*
G54D22*
X-50240Y78488D02*
D03*
X-42760Y78488D02*
D03*
X-46500Y89512D02*
D03*
X-42760D02*
D03*
X-50240D02*
D03*
G54D23*
X46271Y55840D02*
D03*
Y63321D02*
D03*
X35247Y59580D02*
D03*
Y63321D02*
D03*
Y55840D02*
D03*
G54D24*
X-86894Y-5067D02*
D03*
Y3988D02*
D03*
X-94177D02*
D03*
Y-5067D02*
D03*
G54D25*
X-82564Y80435D02*
D03*
X-87485D02*
D03*
X-92406D02*
D03*
X-97328D02*
D03*
G54D26*
X-71764Y91500D02*
D03*
X-108236D02*
D03*
G54D27*
X-103760Y26958D02*
D03*
Y28927D02*
D03*
Y30895D02*
D03*
Y32864D02*
D03*
Y34832D02*
D03*
Y36801D02*
D03*
Y38769D02*
D03*
Y40738D02*
D03*
Y42706D02*
D03*
Y44675D02*
D03*
Y46643D02*
D03*
Y48612D02*
D03*
Y50580D02*
D03*
Y52549D02*
D03*
Y54517D02*
D03*
Y56486D02*
D03*
X-60060D02*
D03*
Y54517D02*
D03*
Y52549D02*
D03*
Y50580D02*
D03*
Y48612D02*
D03*
Y46643D02*
D03*
Y44675D02*
D03*
Y42706D02*
D03*
Y40738D02*
D03*
Y38769D02*
D03*
Y36801D02*
D03*
Y34832D02*
D03*
Y32864D02*
D03*
Y30895D02*
D03*
Y28927D02*
D03*
Y26958D02*
D03*
G54D28*
X-96674Y63572D02*
D03*
X-94705D02*
D03*
X-92737D02*
D03*
X-90768D02*
D03*
X-88800D02*
D03*
X-86831D02*
D03*
X-84863D02*
D03*
X-82894D02*
D03*
X-80926D02*
D03*
X-78957D02*
D03*
X-76989D02*
D03*
X-75020D02*
D03*
X-73052D02*
D03*
X-71083D02*
D03*
X-69115D02*
D03*
X-67146D02*
D03*
Y19872D02*
D03*
X-69115D02*
D03*
X-71083D02*
D03*
X-73052D02*
D03*
X-75020D02*
D03*
X-76989D02*
D03*
X-78957D02*
D03*
X-80926D02*
D03*
X-82894D02*
D03*
X-84863D02*
D03*
X-86831D02*
D03*
X-88800D02*
D03*
X-90768D02*
D03*
X-92737D02*
D03*
X-94705D02*
D03*
X-96674D02*
D03*
G54D29*
X-150629Y17790D02*
D03*
X-150629Y12869D02*
D03*
X-150629Y7948D02*
D03*
Y3026D02*
D03*
Y63846D02*
D03*
Y58925D02*
D03*
Y54004D02*
D03*
Y49082D02*
D03*
G54D30*
X-161695Y28590D02*
D03*
Y-7882D02*
D03*
Y74646D02*
D03*
Y38174D02*
D03*
G54D31*
X-113682Y10910D02*
D03*
Y-6807D02*
D03*
X-122541Y10910D02*
D03*
X-122541Y-6807D02*
D03*
G54D32*
X-122441Y45000D02*
D03*
X-127559Y45000D02*
D03*
X-46400Y48682D02*
D03*
X-51518D02*
D03*
X-137195Y12618D02*
D03*
X-142313D02*
D03*
X-137195Y18118D02*
D03*
X-142313D02*
D03*
X-113135Y34832D02*
D03*
X-118253D02*
D03*
X-31100Y1687D02*
D03*
X-25981D02*
D03*
X-31100Y-6012D02*
D03*
X-25981D02*
D03*
X-31100Y9287D02*
D03*
X-25981D02*
D03*
X-127694Y80488D02*
D03*
X-122576Y80488D02*
D03*
X-46382Y54517D02*
D03*
X-51500D02*
D03*
X-48787Y66720D02*
D03*
X-43669Y66720D02*
D03*
X-48798Y72628D02*
D03*
X-43680D02*
D03*
X-75611Y10489D02*
D03*
X-70493D02*
D03*
X-94135D02*
D03*
X-99253D02*
D03*
X-82366Y10489D02*
D03*
X-87484D02*
D03*
X-89847Y73452D02*
D03*
X-94965D02*
D03*
X-118204Y26958D02*
D03*
X-113086D02*
D03*
X48058Y15499D02*
D03*
X53176D02*
D03*
X30441Y29535D02*
D03*
X35559D02*
D03*
G54D33*
X-106612Y-889D02*
D03*
X-106612Y-6007D02*
D03*
X-50808Y24111D02*
D03*
Y29230D02*
D03*
X-106612Y10111D02*
D03*
X-106612Y4993D02*
D03*
X-56628Y84702D02*
D03*
Y89820D02*
D03*
X-62628Y84702D02*
D03*
X-62628Y89820D02*
D03*
X23467Y57294D02*
D03*
Y62412D02*
D03*
X68500Y43993D02*
D03*
Y38875D02*
D03*
X45000Y35500D02*
D03*
Y30382D02*
D03*
X58176Y57294D02*
D03*
Y62412D02*
D03*
X52176Y57294D02*
D03*
Y62412D02*
D03*
X29000Y57294D02*
D03*
Y62412D02*
D03*
G54D34*
X-48640Y1688D02*
D03*
Y-6012D02*
D03*
Y9288D02*
D03*
X30559Y15500D02*
D03*
G54D35*
X-38640Y1688D02*
D03*
Y-6012D02*
D03*
Y9288D02*
D03*
X40559Y15500D02*
D03*
G54D36*
X-117635Y52163D02*
D03*
X-122635Y52163D02*
D03*
X-127635D02*
D03*
X-132635Y52163D02*
D03*
Y73817D02*
D03*
X-127635Y73817D02*
D03*
X-122635Y73817D02*
D03*
X-117635Y73817D02*
D03*
G54D37*
X-23799Y56398D02*
D03*
Y18602D02*
D03*
X8799D02*
D03*
Y56398D02*
D03*
G54D38*
X-36201Y50295D02*
D03*
X-36201Y48327D02*
D03*
X-36201Y46358D02*
D03*
X-36201Y44390D02*
D03*
X-36201Y42421D02*
D03*
Y40453D02*
D03*
Y38484D02*
D03*
Y36516D02*
D03*
Y34547D02*
D03*
Y32579D02*
D03*
X-36201Y30610D02*
D03*
X-36201Y28642D02*
D03*
X-36201Y26673D02*
D03*
X-36201Y24705D02*
D03*
X21201Y24705D02*
D03*
Y26673D02*
D03*
Y28642D02*
D03*
Y30610D02*
D03*
Y32579D02*
D03*
Y34547D02*
D03*
Y36516D02*
D03*
Y38484D02*
D03*
Y40453D02*
D03*
Y42421D02*
D03*
Y44390D02*
D03*
Y46358D02*
D03*
Y48327D02*
D03*
Y50295D02*
D03*
G54D39*
X29850Y44898D02*
D03*
Y34819D02*
D03*
X36150D02*
D03*
Y44898D02*
D03*
G54D40*
X29850Y41433D02*
D03*
Y38284D02*
D03*
X36150D02*
D03*
Y41433D02*
D03*
G54D41*
X57500Y28035D02*
D03*
Y44965D02*
D03*
G54D42*
X62815Y30595D02*
D03*
X62815Y32563D02*
D03*
X62815Y34532D02*
D03*
Y36500D02*
D03*
Y38469D02*
D03*
Y40437D02*
D03*
Y42406D02*
D03*
X52185D02*
D03*
Y40437D02*
D03*
Y38469D02*
D03*
Y36500D02*
D03*
Y34532D02*
D03*
X52185Y32563D02*
D03*
X52185Y30595D02*
D03*
G54D68*
X-122635Y80430D02*
X-117010D01*
X-39721Y47343D02*
X-36201D01*
X-105171Y-13457D02*
X-103627Y-15000D01*
X-122635Y-13457D02*
X-105171D01*
X-130004Y-6088D02*
X-122635Y-13457D01*
X-76111Y-3387D02*
X-70493Y2232D01*
X-76111Y-15448D02*
Y-3387D01*
X-80663Y-20000D02*
X-76111Y-15448D01*
X-25981Y-6890D02*
Y-6012D01*
X-30130Y-11038D02*
X-25981Y-6890D01*
X-57223Y-11038D02*
X-30130D01*
X-70493Y2232D02*
X-57223Y-11038D01*
X-59576Y89577D02*
X-56871D01*
X-38640Y62935D02*
Y85392D01*
X-42760Y89512D02*
X-38640Y85392D01*
Y62935D02*
X-37699Y61995D01*
Y52203D02*
Y61995D01*
Y52203D02*
X-36201Y50704D01*
X17029Y47343D02*
X21201D01*
X15858Y52154D02*
Y60207D01*
Y51654D02*
Y52154D01*
Y48514D02*
Y51654D01*
Y60207D02*
X22580Y66929D01*
X-31100Y-6012D02*
X-31100Y-6012D01*
X-38640Y-6012D02*
X-31100D01*
X-31100Y1688D02*
X-31100Y1687D01*
X-38640Y1688D02*
X-31100D01*
X-38640Y1688D02*
X-38640Y1688D01*
X-31100Y9287D02*
X-31100Y9287D01*
X-38640Y9287D02*
X-31100D01*
X-38640Y9288D02*
X-38640Y9287D01*
X-75615Y4860D02*
X-75611Y4863D01*
Y10489D01*
X-112010Y52163D02*
X-112006Y52159D01*
X-117635Y52163D02*
X-112010D01*
X-123833Y26961D02*
X-123830Y26958D01*
X-118204D01*
X-123882Y34836D02*
X-123879Y34832D01*
X-118253D01*
X-54269Y9291D02*
X-54266Y9288D01*
X-48640D01*
X-50811Y18482D02*
X-50808Y18486D01*
Y24111D01*
X-46400Y48682D02*
X-46391Y48691D01*
Y54508D01*
X-46382Y54517D01*
Y58392D01*
X-54416Y66724D02*
X-54412Y66720D01*
X-48787D01*
X-54428Y72632D02*
X-54424Y72628D01*
X-48798D01*
X-56632Y79072D02*
X-56628Y79076D01*
Y84702D01*
X-62632Y79072D02*
X-62628Y79076D01*
Y84702D01*
X-92406Y86060D02*
X-92403Y86064D01*
X-92406Y80435D02*
Y86060D01*
X-117010Y80430D02*
X-117006Y80426D01*
X-150629Y54004D02*
X-145004D01*
X-145000Y54000D01*
X-44000Y94500D02*
X-42760Y93260D01*
Y89512D02*
Y93260D01*
X-50240Y89705D02*
Y93328D01*
X-49069Y94500D01*
X-44000D01*
X-56628Y89820D02*
X-50354D01*
X-50240Y89705D01*
Y89512D02*
Y89705D01*
X-56871Y89577D02*
X-56628Y89820D01*
X-62628Y89820D02*
X-62385Y89577D01*
X-59576D01*
X-59500Y89500D01*
X-94135Y89512D02*
X-80663D01*
X-97328Y86319D02*
X-94135Y89512D01*
X-97328Y80435D02*
Y86319D01*
X-112435Y80435D02*
X-97328D01*
X-116701Y84702D02*
X-112435Y80435D01*
X-127194Y80988D02*
Y83530D01*
X-126023Y84702D01*
X-116701D01*
X-127694Y80488D02*
X-127194Y80988D01*
X-135968Y80488D02*
X-127694D01*
X-147957Y68500D02*
X-135968Y80488D01*
X-155000Y68500D02*
X-147957D01*
X-158500Y65000D02*
X-155000Y68500D01*
X-158500Y51165D02*
Y65000D01*
Y51165D02*
X-156418Y49082D01*
X-150629D01*
X-41500Y49122D02*
Y60295D01*
X-43597Y62392D02*
X-41500Y60295D01*
X-43669Y62463D02*
X-43597Y62392D01*
X-41500Y49122D02*
X-39721Y47343D01*
X-95132Y28500D02*
X-73052D01*
X-96674Y26958D02*
X-95132Y28500D01*
X-150210Y7529D02*
X-142171D01*
X-150629Y7948D02*
X-150210Y7529D01*
X-122559Y-6789D02*
Y2676D01*
Y3044D01*
X-122559Y3044D01*
Y10892D01*
X-122541Y10910D01*
X-122559Y-6789D02*
X-122541Y-6807D01*
X-98627Y-20000D02*
X-80663D01*
X-103627Y-15000D02*
X-98627Y-20000D01*
X-43669Y62463D02*
Y66720D01*
X-70493Y2232D02*
Y10489D01*
X-130004Y-6088D02*
Y3026D01*
X-106612Y-6007D02*
X-106608Y-6004D01*
X-101504D01*
X-101500Y-6000D01*
X-127797Y5233D02*
Y12389D01*
X-130004Y3026D02*
X-127797Y5233D01*
X-150629Y3026D02*
X-130004D01*
X-127797Y12389D02*
X-121583Y18602D01*
X-113086Y22414D02*
Y26958D01*
X-116898Y18602D02*
X-113086Y22414D01*
X-121583Y18602D02*
X-116898D01*
X23467Y57294D02*
X29000D01*
X46595Y41421D02*
X52185D01*
X15858Y43406D02*
X21201D01*
X16000Y25689D02*
X21201D01*
X58176Y53736D02*
Y57294D01*
X52176Y53736D02*
Y57294D01*
X29000Y53736D02*
Y57294D01*
X68423Y50371D02*
Y54157D01*
X60169Y62412D02*
X68423Y54157D01*
X58176Y62412D02*
X60169D01*
X68423Y50371D02*
X68500Y50295D01*
X52176Y62412D02*
X58176D01*
X46271Y63321D02*
X51268D01*
X52176Y62412D01*
X41808Y66929D02*
X45416Y63321D01*
X22580Y66929D02*
X41808D01*
X45416Y63321D02*
X46271D01*
X15858Y48514D02*
X17029Y47343D01*
X21201Y18602D02*
Y24705D01*
X44941Y30441D02*
X45000Y30382D01*
X40618Y30441D02*
X44941D01*
X40559Y30500D02*
X40618Y30441D01*
X46583Y41433D02*
X46595Y41421D01*
X15858Y25831D02*
X16000Y25689D01*
X15858Y25831D02*
Y43406D01*
X68500Y38875D02*
X71000Y36374D01*
Y35500D02*
Y36374D01*
X21201Y24705D02*
X21201Y24705D01*
Y18602D02*
X24304Y15500D01*
X30559D01*
X48058Y15499D02*
X48058Y15499D01*
X40559Y15499D02*
X48058D01*
X40559Y15500D02*
X40559Y15499D01*
X53176Y15499D02*
X53176Y15499D01*
X59000D01*
X59000Y15500D01*
G54D69*
X-113682Y-2714D02*
X-111858Y-889D01*
X-106612D01*
X-112755Y5741D02*
Y8407D01*
Y5741D02*
X-112006Y4993D01*
X-106612D01*
X-97747Y-17127D02*
X-82627D01*
X-103874Y-11000D02*
X-97747Y-17127D01*
X-111064Y-11000D02*
X-103874D01*
X-78957Y-13457D02*
Y11706D01*
X-82627Y-17127D02*
X-78957Y-13457D01*
X-81610Y14359D02*
X-78957Y11706D01*
X-83341Y14359D02*
X-81610D01*
X-84863Y15880D02*
X-83341Y14359D01*
X-84863Y15880D02*
Y19872D01*
X-113682Y-8382D02*
X-111064Y-11000D01*
X-113682Y-8382D02*
Y-6807D01*
Y-2714D01*
X-106612Y-889D02*
Y4993D01*
X-106612Y-889D02*
X-106612Y-889D01*
X-113682Y9335D02*
Y10910D01*
Y9335D02*
X-112755Y8407D01*
X-39792Y40453D02*
X-36201D01*
X-41500Y42161D02*
X-39792Y40453D01*
X-48594Y38484D02*
X-36201D01*
X-50848Y40738D02*
X-48594Y38484D01*
X-59793Y42439D02*
X-47176D01*
X-46897Y42161D01*
X-60060Y42706D02*
X-59793Y42439D01*
X-60098Y34793D02*
X-60060Y34832D01*
X-66230Y34793D02*
X-60098D01*
X-66405Y34618D02*
X-66230Y34793D01*
X-36201Y28642D02*
X-36201Y28642D01*
X-29063D01*
X-24703Y33002D01*
Y46528D01*
X-27053Y48878D02*
X-24703Y46528D01*
X-35513Y30610D02*
X-29358D01*
X-27053Y32915D01*
Y43630D01*
X-36201Y36516D02*
X-31100D01*
X-48594Y34547D02*
X-36201D01*
X-50260Y32579D02*
X-36201D01*
X-54482Y36801D02*
X-50260Y32579D01*
X-60060Y40738D02*
X-50848D01*
X-52816Y38769D02*
X-48594Y34547D01*
X-60060Y38769D02*
X-52816D01*
X-60060Y36801D02*
X-54482D01*
X-66143Y46643D02*
X-60060D01*
X-68000Y48500D02*
X-66143Y46643D01*
X-66325Y44675D02*
X-60060D01*
X-67594Y43406D02*
X-66325Y44675D01*
X-68000Y43406D02*
X-67594D01*
X-31100Y36516D02*
X-31100Y36516D01*
X-51588Y48612D02*
X-51518Y48682D01*
X-36201Y38484D02*
X-36201Y38484D01*
X-36201Y32579D02*
X-36201Y32579D01*
G54D70*
X-98355Y-889D02*
X-94177Y-5067D01*
X-99253Y-889D02*
X-98355D01*
X-82366Y8516D02*
Y10489D01*
X-86894Y3988D02*
X-82366Y8516D01*
X-99253Y-889D02*
Y10489D01*
X-83341Y3988D02*
X-82366Y3013D01*
Y-10000D02*
Y3013D01*
X-84866Y-12500D02*
X-82366Y-10000D01*
X-47897Y84702D02*
X-46586Y86013D01*
X-56628Y84702D02*
X-47897D01*
X-56628Y84702D02*
X-56628Y84702D01*
X-62628Y84702D02*
X-56628D01*
X-46586Y89426D02*
X-46500Y89512D01*
X-46586Y86013D02*
Y89426D01*
X-106612Y10111D02*
X-99631D01*
X-99253Y10489D01*
X-82366Y10489D02*
X-82366Y10489D01*
X-91677Y-12500D02*
X-84866D01*
X-94177Y-10000D02*
X-91677Y-12500D01*
X-86894Y3988D02*
X-83341D01*
X-94177Y-10000D02*
Y-5067D01*
G54D71*
X-25500Y1424D02*
D03*
G54D72*
X-43500Y73211D02*
D03*
G54D73*
X-6000Y58907D02*
D03*
Y53986D02*
D03*
Y49065D02*
D03*
Y44144D02*
D03*
Y39222D02*
D03*
Y34301D02*
D03*
Y29380D02*
D03*
Y24459D02*
D03*
Y19537D02*
D03*
G54D74*
Y14616D02*
D03*
G54D75*
X-159669Y-22689D02*
D03*
X-25811D02*
D03*
Y91484D02*
D03*
X-159669D02*
D03*
X7874Y66929D02*
D03*
X66929Y66929D02*
D03*
Y7874D02*
D03*
X7874D02*
D03*
G54D76*
X-19500Y86000D02*
D03*
Y70000D02*
D03*
X-15500Y62000D02*
D03*
Y46000D02*
D03*
X-19500Y38000D02*
D03*
X-15500Y30000D02*
D03*
Y14000D02*
D03*
X-19500Y6000D02*
D03*
Y-10000D02*
D03*
Y-26000D02*
D03*
X-23500Y78000D02*
D03*
X-27500Y70000D02*
D03*
X-23500Y62000D02*
D03*
Y30000D02*
D03*
X-35500Y86000D02*
D03*
X-31500Y78000D02*
D03*
X-35500Y70000D02*
D03*
X-31500Y62000D02*
D03*
Y14000D02*
D03*
Y-18000D02*
D03*
X-35500Y-26000D02*
D03*
X-39500Y94000D02*
D03*
X-43500Y22000D02*
D03*
X-39500Y14000D02*
D03*
Y-18000D02*
D03*
X-43500Y-26000D02*
D03*
X-47500Y-18000D02*
D03*
X-51500Y-26000D02*
D03*
X-55500Y94000D02*
D03*
X-59500Y70000D02*
D03*
Y22000D02*
D03*
X-55500Y14000D02*
D03*
X-59500Y6000D02*
D03*
X-55500Y-18000D02*
D03*
X-59500Y-26000D02*
D03*
X-63500Y94000D02*
D03*
X-67500Y70000D02*
D03*
Y54000D02*
D03*
Y38000D02*
D03*
X-63500Y14000D02*
D03*
X-67500Y-10000D02*
D03*
X-63500Y-18000D02*
D03*
X-67500Y-26000D02*
D03*
X-71500Y78000D02*
D03*
X-75500Y70000D02*
D03*
X-71500Y-18000D02*
D03*
X-75500Y-26000D02*
D03*
X-79500Y94000D02*
D03*
X-83500Y86000D02*
D03*
X-79500Y46000D02*
D03*
X-83500Y38000D02*
D03*
Y-26000D02*
D03*
X-87500Y94000D02*
D03*
X-91500Y38000D02*
D03*
Y-26000D02*
D03*
X-95500Y94000D02*
D03*
X-99500Y70000D02*
D03*
Y-26000D02*
D03*
X-107500Y70000D02*
D03*
X-103500Y62000D02*
D03*
X-107500Y22000D02*
D03*
Y-26000D02*
D03*
X-111500Y62000D02*
D03*
Y46000D02*
D03*
X-115500Y6000D02*
D03*
X-111500Y-18000D02*
D03*
X-115500Y-26000D02*
D03*
X-119500Y94000D02*
D03*
X-123500Y22000D02*
D03*
X-119500Y-18000D02*
D03*
X-123500Y-26000D02*
D03*
X-127500Y94000D02*
D03*
X-131500Y86000D02*
D03*
X-127500Y30000D02*
D03*
X-131500Y22000D02*
D03*
Y6000D02*
D03*
Y-10000D02*
D03*
X-127500Y-18000D02*
D03*
X-131500Y-26000D02*
D03*
X-135500Y94000D02*
D03*
X-139500Y86000D02*
D03*
Y70000D02*
D03*
X-135500Y62000D02*
D03*
X-139500Y38000D02*
D03*
X-135500Y30000D02*
D03*
X-139500Y22000D02*
D03*
Y6000D02*
D03*
X-135500Y-2000D02*
D03*
X-139500Y-10000D02*
D03*
X-135500Y-18000D02*
D03*
X-139500Y-26000D02*
D03*
X-143500Y94000D02*
D03*
X-147500Y86000D02*
D03*
X-143500Y78000D02*
D03*
Y46000D02*
D03*
X-147500Y38000D02*
D03*
X-143500Y30000D02*
D03*
X-147500Y22000D02*
D03*
X-143500Y-2000D02*
D03*
X-147500Y-10000D02*
D03*
X-143500Y-18000D02*
D03*
X-147500Y-26000D02*
D03*
X-151500Y94000D02*
D03*
Y78000D02*
D03*
Y30000D02*
D03*
X-155500Y22000D02*
D03*
X-151500Y-2000D02*
D03*
Y-18000D02*
D03*
X-163500Y54000D02*
D03*
X-159500Y46000D02*
D03*
X-163500Y22000D02*
D03*
X-159500Y14000D02*
D03*
X-163500Y6000D02*
D03*
X-159500Y-2000D02*
D03*
X-75615Y4860D02*
D03*
X-82366Y3013D02*
D03*
X-84866Y-12500D02*
D03*
X-94177Y-10000D02*
D03*
X-99253Y-889D02*
D03*
X-112006Y52159D02*
D03*
X-123833Y26961D02*
D03*
X-123882Y34836D02*
D03*
X-54269Y9291D02*
D03*
X-50811Y18482D02*
D03*
X-41500Y25689D02*
D03*
X-46382Y58392D02*
D03*
X-54416Y66724D02*
D03*
X-54428Y72632D02*
D03*
X-56632Y79072D02*
D03*
X-62632D02*
D03*
X-92403Y86064D02*
D03*
X-117006Y80426D02*
D03*
X-145000Y54000D02*
D03*
X-59500Y89500D02*
D03*
X-80663Y89512D02*
D03*
X-73052Y53794D02*
D03*
Y28500D02*
D03*
X-142171Y7529D02*
D03*
X-122559Y2676D02*
D03*
X-103627Y-15000D02*
D03*
X-43597Y62392D02*
D03*
X-70493Y2232D02*
D03*
X-101500Y-6000D02*
D03*
X-41500Y42161D02*
D03*
X-46897D02*
D03*
X-66405Y34618D02*
D03*
X-27053Y48878D02*
D03*
Y43630D02*
D03*
X-68000Y48500D02*
D03*
Y43406D02*
D03*
X-31100Y36516D02*
D03*
X-133500Y12500D02*
D03*
Y18000D02*
D03*
X-94965Y44390D02*
D03*
X-91677Y69000D02*
D03*
X-117500D02*
D03*
X-132500Y68500D02*
D03*
X-86894Y56486D02*
D03*
X-92406D02*
D03*
X-87500Y10500D02*
D03*
X-86894Y-5067D02*
D03*
X50074Y72000D02*
D03*
X42090D02*
D03*
X34106D02*
D03*
X26123D02*
D03*
X55919Y6375D02*
D03*
X47935D02*
D03*
X39952D02*
D03*
X31968D02*
D03*
X23984D02*
D03*
X16000D02*
D03*
Y17705D02*
D03*
X7874Y34618D02*
D03*
X8016Y25689D02*
D03*
X58176Y53736D02*
D03*
X52176D02*
D03*
X29000D02*
D03*
X15858Y69166D02*
D03*
X71293Y59580D02*
D03*
Y18602D02*
D03*
X7874Y43406D02*
D03*
X53551Y69166D02*
D03*
X62259Y26500D02*
D03*
X40559Y30500D02*
D03*
X46583Y41433D02*
D03*
X16000Y25689D02*
D03*
X15858Y43406D02*
D03*
X39500Y22500D02*
D03*
X71000Y35500D02*
D03*
X40559Y41433D02*
D03*
X63000Y45000D02*
D03*
X40559Y34819D02*
D03*
X59000Y15500D02*
D03*
X68500Y50295D02*
D03*
X50500Y26673D02*
D03*
M02*
