M48
;Layer_Color=9474304
;FILE_FORMAT=2:5
INCH,TZ
;TYPE=PLATED
T1F00S00C0.01200
T2F00S00C0.01968
T3F00S00C0.09449
%
T01
X-15500Y14000
Y30000
Y46000
Y62000
X15858Y69166
X26123Y72000
X34106
X42090
X50074
X53551Y69166
X52176Y53736
X58176
X63000Y45000
X68500Y50295
X71293Y59580
X71000Y35500
X71293Y18602
X59000Y15500
X55919Y6375
X47935
X39952
X31968
X23984
X16000
Y17705
Y25689
X8016
X7874Y34618
Y43406
X15858
X29000Y53736
X40559Y41433
X46583
X40559Y34819
X40559Y30500
X39500Y22500
X50500Y26673
X62259Y26500
X-23500Y30000
X-19500Y38000
X-31100Y36516
X-27053Y43630
Y48878
X-23500Y62000
X-31500
X-27500Y70000
X-19500
X-23500Y78000
X-31500
X-35500Y70000
X-43597Y62392
X-46382Y58392
X-54416Y66724
X-54428Y72632
X-59500Y70000
X-67500
X-75500
X-71500Y78000
X-73052Y53794
X-67500Y54000
X-68000Y48500
Y43406
X-67500Y38000
X-66405Y34618
X-73052Y28500
X-83500Y38000
X-91500
X-94965Y44390
X-92406Y56486
X-86894
X-91677Y69000
X-99500Y70000
X-107500
X-117500Y69000
X-111500Y62000
X-103500
X-112006Y52159
X-111500Y46000
X-123882Y34836
X-123833Y26961
X-123500Y22000
X-131500
X-133500Y18000
Y12500
X-131500Y6000
X-139500
X-142171Y7529
X-143500Y-2000
X-135500
X-131500Y-10000
X-139500
X-147500
X-143500Y-18000
X-135500
X-127500
X-119500
X-111500
X-103627Y-15000
X-101500Y-6000
X-99253Y-889
X-94177Y-10000
X-84866Y-12500
X-86894Y-5067
X-82366Y3013
X-75615Y4860
X-70493Y2232
X-59500Y6000
X-54269Y9291
X-55500Y14000
X-63500
X-59500Y22000
X-50811Y18482
X-43500Y22000
X-41500Y25689
X-39500Y14000
X-31500
X-19500Y6000
Y-10000
Y-26000
X-35500
X-43500
X-51500
X-59500
X-67500
X-75500
X-83500
X-91500
X-99500
X-107500
X-115500
X-123500
X-131500
X-139500
X-147500
X-151500Y-18000
Y-2000
X-159500
X-163500Y6000
X-159500Y14000
X-155500Y22000
X-147500
X-139500
X-135500Y30000
X-127500
X-143500
X-151500
X-147500Y38000
X-139500
X-143500Y46000
X-145000Y54000
X-135500Y62000
X-132500Y68500
X-139500Y70000
X-143500Y78000
X-151500
X-163500Y54000
X-159500Y46000
X-163500Y22000
X-107500
X-115500Y6000
X-122559Y2676
X-87500Y10500
X-67500Y-10000
X-63500Y-18000
X-55500
X-47500
X-39500
X-31500
X-71500
X-79500Y46000
X-46897Y42161
X-41500
X-35500Y86000
X-39500Y94000
X-55500
X-63500
X-59500Y89500
X-56632Y79072
X-62632
X-83500Y86000
X-80663Y89512
X-79500Y94000
X-87500
X-95500
X-92403Y86064
X-117006Y80426
X-119500Y94000
X-127500
X-135500
X-143500
X-151500
X-147500Y86000
X-139500
X-131500
X-19500
T02
X-6000Y14616
Y19537
Y24459
Y29380
Y34301
Y39222
Y44144
Y49065
Y53986
Y58907
T03
X7874Y7874
Y66929
X66929Y66929
Y7874
X-25811Y-22689
X-159669
Y91484
X-25811
M30
