G04*
G04 #@! TF.GenerationSoftware,Altium Limited,Altium Designer,20.0.2 (26)*
G04*
G04 Layer_Color=8421504*
%FSLAX25Y25*%
%MOIN*%
G70*
G01*
G75*
%ADD22R,0.01772X0.03937*%
%ADD23R,0.03937X0.01772*%
%ADD24R,0.04134X0.05118*%
%ADD25R,0.03150X0.06299*%
%ADD26R,0.07874X0.11811*%
%ADD27O,0.07070X0.01102*%
%ADD28O,0.01102X0.07070*%
%ADD29R,0.06299X0.03150*%
%ADD30R,0.11811X0.07874*%
%ADD31R,0.02756X0.05906*%
%ADD32R,0.03000X0.03000*%
%ADD33R,0.03000X0.03000*%
G04:AMPARAMS|DCode=34|XSize=60mil|YSize=50mil|CornerRadius=0mil|HoleSize=0mil|Usage=FLASHONLY|Rotation=180.000|XOffset=0mil|YOffset=0mil|HoleType=Round|Shape=Octagon|*
%AMOCTAGOND34*
4,1,8,-0.03000,0.01250,-0.03000,-0.01250,-0.01750,-0.02500,0.01750,-0.02500,0.03000,-0.01250,0.03000,0.01250,0.01750,0.02500,-0.01750,0.02500,-0.03000,0.01250,0.0*
%
%ADD34OCTAGOND34*%

%ADD35R,0.06000X0.05000*%
%ADD36R,0.02559X0.05800*%
%ADD37R,0.07874X0.07087*%
%ADD38R,0.04724X0.01181*%
%ADD39R,0.03543X0.02559*%
%ADD40R,0.03543X0.01968*%
%ADD41R,0.00984X0.03937*%
%ADD42R,0.03937X0.00984*%
G54D22*
X-50240Y78488D02*
D03*
X-42760Y78488D02*
D03*
X-46500Y89512D02*
D03*
X-42760D02*
D03*
X-50240D02*
D03*
G54D23*
X46271Y55840D02*
D03*
Y63321D02*
D03*
X35247Y59580D02*
D03*
Y63321D02*
D03*
Y55840D02*
D03*
G54D24*
X-86894Y-5067D02*
D03*
Y3988D02*
D03*
X-94177D02*
D03*
Y-5067D02*
D03*
G54D25*
X-82564Y80435D02*
D03*
X-87485D02*
D03*
X-92406D02*
D03*
X-97328D02*
D03*
G54D26*
X-71764Y91500D02*
D03*
X-108236D02*
D03*
G54D27*
X-103760Y26958D02*
D03*
Y28927D02*
D03*
Y30895D02*
D03*
Y32864D02*
D03*
Y34832D02*
D03*
Y36801D02*
D03*
Y38769D02*
D03*
Y40738D02*
D03*
Y42706D02*
D03*
Y44675D02*
D03*
Y46643D02*
D03*
Y48612D02*
D03*
Y50580D02*
D03*
Y52549D02*
D03*
Y54517D02*
D03*
Y56486D02*
D03*
X-60060D02*
D03*
Y54517D02*
D03*
Y52549D02*
D03*
Y50580D02*
D03*
Y48612D02*
D03*
Y46643D02*
D03*
Y44675D02*
D03*
Y42706D02*
D03*
Y40738D02*
D03*
Y38769D02*
D03*
Y36801D02*
D03*
Y34832D02*
D03*
Y32864D02*
D03*
Y30895D02*
D03*
Y28927D02*
D03*
Y26958D02*
D03*
G54D28*
X-96674Y63572D02*
D03*
X-94705D02*
D03*
X-92737D02*
D03*
X-90768D02*
D03*
X-88800D02*
D03*
X-86831D02*
D03*
X-84863D02*
D03*
X-82894D02*
D03*
X-80926D02*
D03*
X-78957D02*
D03*
X-76989D02*
D03*
X-75020D02*
D03*
X-73052D02*
D03*
X-71083D02*
D03*
X-69115D02*
D03*
X-67146D02*
D03*
Y19872D02*
D03*
X-69115D02*
D03*
X-71083D02*
D03*
X-73052D02*
D03*
X-75020D02*
D03*
X-76989D02*
D03*
X-78957D02*
D03*
X-80926D02*
D03*
X-82894D02*
D03*
X-84863D02*
D03*
X-86831D02*
D03*
X-88800D02*
D03*
X-90768D02*
D03*
X-92737D02*
D03*
X-94705D02*
D03*
X-96674D02*
D03*
G54D29*
X-150629Y17790D02*
D03*
X-150629Y12869D02*
D03*
X-150629Y7948D02*
D03*
Y3026D02*
D03*
Y63846D02*
D03*
Y58925D02*
D03*
Y54004D02*
D03*
Y49082D02*
D03*
G54D30*
X-161695Y28590D02*
D03*
Y-7882D02*
D03*
Y74646D02*
D03*
Y38174D02*
D03*
G54D31*
X-113682Y10910D02*
D03*
Y-6807D02*
D03*
X-122541Y10910D02*
D03*
X-122541Y-6807D02*
D03*
G54D32*
X-122441Y45000D02*
D03*
X-127559Y45000D02*
D03*
X-46400Y48682D02*
D03*
X-51518D02*
D03*
X-137195Y12618D02*
D03*
X-142313D02*
D03*
X-137195Y18118D02*
D03*
X-142313D02*
D03*
X-113135Y34832D02*
D03*
X-118253D02*
D03*
X-31100Y1687D02*
D03*
X-25981D02*
D03*
X-31100Y-6012D02*
D03*
X-25981D02*
D03*
X-31100Y9287D02*
D03*
X-25981D02*
D03*
X-127694Y80488D02*
D03*
X-122576Y80488D02*
D03*
X-46382Y54517D02*
D03*
X-51500D02*
D03*
X-48787Y66720D02*
D03*
X-43669Y66720D02*
D03*
X-48798Y72628D02*
D03*
X-43680D02*
D03*
X-75611Y10489D02*
D03*
X-70493D02*
D03*
X-94135D02*
D03*
X-99253D02*
D03*
X-82366Y10489D02*
D03*
X-87484D02*
D03*
X-89847Y73452D02*
D03*
X-94965D02*
D03*
X-118204Y26958D02*
D03*
X-113086D02*
D03*
X48058Y15499D02*
D03*
X53176D02*
D03*
X30441Y29535D02*
D03*
X35559D02*
D03*
G54D33*
X-106612Y-889D02*
D03*
X-106612Y-6007D02*
D03*
X-50808Y24111D02*
D03*
Y29230D02*
D03*
X-106612Y10111D02*
D03*
X-106612Y4993D02*
D03*
X-56628Y84702D02*
D03*
Y89820D02*
D03*
X-62628Y84702D02*
D03*
X-62628Y89820D02*
D03*
X23467Y57294D02*
D03*
Y62412D02*
D03*
X68500Y43993D02*
D03*
Y38875D02*
D03*
X45000Y35500D02*
D03*
Y30382D02*
D03*
X58176Y57294D02*
D03*
Y62412D02*
D03*
X52176Y57294D02*
D03*
Y62412D02*
D03*
X29000Y57294D02*
D03*
Y62412D02*
D03*
G54D34*
X-48640Y1688D02*
D03*
Y-6012D02*
D03*
Y9288D02*
D03*
X30559Y15500D02*
D03*
G54D35*
X-38640Y1688D02*
D03*
Y-6012D02*
D03*
Y9288D02*
D03*
X40559Y15500D02*
D03*
G54D36*
X-117635Y52163D02*
D03*
X-122635Y52163D02*
D03*
X-127635D02*
D03*
X-132635Y52163D02*
D03*
Y73817D02*
D03*
X-127635Y73817D02*
D03*
X-122635Y73817D02*
D03*
X-117635Y73817D02*
D03*
G54D37*
X-23799Y56398D02*
D03*
Y18602D02*
D03*
X8799D02*
D03*
Y56398D02*
D03*
G54D38*
X-36201Y50295D02*
D03*
X-36201Y48327D02*
D03*
X-36201Y46358D02*
D03*
X-36201Y44390D02*
D03*
X-36201Y42421D02*
D03*
Y40453D02*
D03*
Y38484D02*
D03*
Y36516D02*
D03*
Y34547D02*
D03*
Y32579D02*
D03*
X-36201Y30610D02*
D03*
X-36201Y28642D02*
D03*
X-36201Y26673D02*
D03*
X-36201Y24705D02*
D03*
X21201Y24705D02*
D03*
Y26673D02*
D03*
Y28642D02*
D03*
Y30610D02*
D03*
Y32579D02*
D03*
Y34547D02*
D03*
Y36516D02*
D03*
Y38484D02*
D03*
Y40453D02*
D03*
Y42421D02*
D03*
Y44390D02*
D03*
Y46358D02*
D03*
Y48327D02*
D03*
Y50295D02*
D03*
G54D39*
X29850Y44898D02*
D03*
Y34819D02*
D03*
X36150D02*
D03*
Y44898D02*
D03*
G54D40*
X29850Y41433D02*
D03*
Y38284D02*
D03*
X36150D02*
D03*
Y41433D02*
D03*
G54D41*
X57500Y28035D02*
D03*
Y44965D02*
D03*
G54D42*
X62815Y30595D02*
D03*
X62815Y32563D02*
D03*
X62815Y34532D02*
D03*
Y36500D02*
D03*
Y38469D02*
D03*
Y40437D02*
D03*
Y42406D02*
D03*
X52185D02*
D03*
Y40437D02*
D03*
Y38469D02*
D03*
Y36500D02*
D03*
Y34532D02*
D03*
X52185Y32563D02*
D03*
X52185Y30595D02*
D03*
M02*
