G04*
G04 #@! TF.GenerationSoftware,Altium Limited,Altium Designer,20.0.2 (26)*
G04*
G04 Layer_Color=32896*
%FSLAX25Y25*%
%MOIN*%
G70*
G01*
G75*
%ADD19C,0.00100*%
G54D19*
X40951Y56181D02*
Y56681D01*
X41051Y55981D02*
Y56881D01*
X41151Y55781D02*
Y57081D01*
X41251Y55681D02*
Y57181D01*
X41351Y55481D02*
Y57381D01*
X41451Y55281D02*
Y57581D01*
X41551Y55181D02*
Y57681D01*
X41651Y54981D02*
Y57881D01*
X41751Y54981D02*
Y58081D01*
X41851Y55081D02*
Y58281D01*
X41951Y55281D02*
X41951Y58381D01*
X42051Y55481D02*
Y58581D01*
X42151Y55581D02*
Y58781D01*
X42251Y55781D02*
Y58981D01*
X42351Y55981D02*
Y59081D01*
X42451Y59281D02*
X42451Y56181D01*
X42551Y59481D02*
X42551Y56281D01*
X42551Y53681D02*
X42551Y53381D01*
X42651Y56481D02*
Y59681D01*
Y53181D02*
Y53881D01*
X42751Y56681D02*
Y59781D01*
Y53081D02*
Y53981D01*
X42851Y56781D02*
Y59981D01*
Y52881D02*
Y54181D01*
X42951Y56981D02*
Y60181D01*
Y52681D02*
Y54381D01*
X43051Y57181D02*
X43051Y60381D01*
X43051Y52481D02*
X43051Y54581D01*
X43151Y57381D02*
Y60481D01*
Y52381D02*
Y54681D01*
X43251Y57481D02*
Y60681D01*
Y52181D02*
Y54881D01*
X43351Y57681D02*
Y60881D01*
Y51981D02*
Y55081D01*
X43451Y57881D02*
Y60981D01*
Y51881D02*
Y55181D01*
X43551Y58081D02*
Y61181D01*
Y51681D02*
Y55381D01*
X43651Y58181D02*
Y61381D01*
Y51481D02*
Y55581D01*
X43751Y58381D02*
Y61581D01*
Y51281D02*
Y55781D01*
X43851Y58581D02*
Y61681D01*
Y51181D02*
Y55881D01*
X43951Y58781D02*
Y61881D01*
Y50981D02*
Y56081D01*
X44051Y58881D02*
Y62081D01*
Y50781D02*
X44051Y56281D01*
X44151Y59081D02*
Y62281D01*
Y50581D02*
Y56481D01*
X44251Y59281D02*
Y62381D01*
Y50481D02*
Y56581D01*
X44351Y59481D02*
Y62581D01*
Y53581D02*
Y56781D01*
Y50281D02*
Y53381D01*
X44451Y59581D02*
Y62781D01*
Y53781D02*
Y56981D01*
Y50081D02*
Y53281D01*
X44551Y62981D02*
X44551Y59781D01*
X44551Y53981D02*
Y57181D01*
X44551Y49881D02*
Y53081D01*
X44651Y59981D02*
X44651Y63081D01*
Y54181D02*
Y57281D01*
Y49781D02*
Y52881D01*
X44751Y60081D02*
Y63281D01*
Y54281D02*
Y57481D01*
Y49581D02*
Y52681D01*
X44851Y60281D02*
Y63481D01*
Y54481D02*
Y57681D01*
Y49381D02*
X44851Y52581D01*
X44951Y60481D02*
Y63581D01*
Y54681D02*
Y57781D01*
Y49181D02*
Y52381D01*
Y43481D02*
Y45181D01*
Y25981D02*
Y27681D01*
X45051Y60681D02*
Y63681D01*
Y54881D02*
Y57881D01*
Y49181D02*
Y52181D01*
Y43181D02*
Y45581D01*
Y36681D02*
Y41581D01*
Y32481D02*
Y33481D01*
Y25681D02*
Y28081D01*
Y21181D02*
Y24081D01*
Y18081D02*
Y20381D01*
Y14781D02*
Y17781D01*
Y11881D02*
Y13981D01*
X45151Y60481D02*
Y63681D01*
Y54981D02*
Y57781D01*
Y49181D02*
Y52381D01*
Y42981D02*
Y45781D01*
Y36681D02*
Y41581D01*
Y32381D02*
Y33481D01*
Y25481D02*
Y28281D01*
Y21181D02*
Y24081D01*
Y18081D02*
Y20381D01*
Y14781D02*
Y17781D01*
Y11881D02*
Y13981D01*
X45251Y63681D02*
X45251Y60281D01*
X45251Y57681D02*
X45251Y55181D01*
Y49381D02*
Y52581D01*
X45251Y45981D02*
X45251Y42781D01*
X45251Y41581D02*
X45251Y36681D01*
Y32381D02*
Y33581D01*
X45251Y25281D02*
X45251Y28481D01*
Y21181D02*
Y24081D01*
X45251Y18081D02*
X45251Y20381D01*
X45251Y17781D02*
X45251Y14781D01*
X45251Y11881D02*
X45251Y13981D01*
X45351Y63681D02*
X45351Y60181D01*
Y55381D02*
Y57481D01*
Y49581D02*
Y52681D01*
Y44181D02*
Y46081D01*
Y42581D02*
Y44081D01*
X45351Y41581D02*
X45351Y36681D01*
Y32381D02*
Y33581D01*
Y26681D02*
Y28581D01*
Y25081D02*
Y26581D01*
Y21181D02*
Y24081D01*
Y18181D02*
Y20381D01*
Y14881D02*
Y17781D01*
Y11881D02*
Y13881D01*
X45451Y59981D02*
X45451Y63681D01*
X45451Y55481D02*
Y57281D01*
Y49781D02*
Y52881D01*
Y44781D02*
Y46181D01*
Y42581D02*
Y43581D01*
Y39381D02*
Y40781D01*
Y36681D02*
Y37581D01*
Y32281D02*
Y33581D01*
Y27281D02*
Y28681D01*
Y25081D02*
Y26081D01*
Y21981D02*
Y23281D01*
Y18581D02*
Y19981D01*
Y15581D02*
Y17381D01*
Y12281D02*
Y13181D01*
X45551Y59781D02*
X45551Y63681D01*
X45551Y55681D02*
Y57181D01*
Y49881D02*
Y53081D01*
Y44981D02*
Y46281D01*
Y42581D02*
Y43581D01*
Y39381D02*
Y40781D01*
Y36681D02*
Y37581D01*
Y32281D02*
Y33681D01*
Y27481D02*
Y28781D01*
Y25081D02*
Y26081D01*
Y21981D02*
Y23281D01*
Y18981D02*
Y19681D01*
Y15581D02*
Y17281D01*
Y12581D02*
Y13181D01*
X45651Y59581D02*
X45651Y63681D01*
X45651Y55881D02*
Y56981D01*
Y50081D02*
X45651Y53281D01*
X45651Y45181D02*
Y46381D01*
Y42581D02*
Y43581D01*
Y39381D02*
Y40781D01*
Y36681D02*
Y37581D01*
Y32281D02*
Y33681D01*
Y27681D02*
Y28881D01*
Y25081D02*
Y26081D01*
Y21981D02*
Y23281D01*
Y19081D02*
Y19681D01*
Y15481D02*
Y17281D01*
Y12581D02*
Y13181D01*
X45751Y59481D02*
Y63681D01*
Y56081D02*
Y56781D01*
Y50281D02*
Y53381D01*
Y45281D02*
Y46481D01*
Y42581D02*
Y43481D01*
Y39381D02*
Y40781D01*
Y36681D02*
Y37481D01*
Y32181D02*
Y33681D01*
Y27781D02*
Y28981D01*
Y25081D02*
Y25981D01*
Y21981D02*
Y23281D01*
Y19181D02*
Y19781D01*
Y15481D02*
Y17181D01*
Y12681D02*
Y13281D01*
X45851Y59281D02*
Y63681D01*
Y56181D02*
Y56581D01*
Y50481D02*
Y53581D01*
Y45281D02*
Y46481D01*
Y42581D02*
Y43481D01*
Y39381D02*
Y40781D01*
Y36681D02*
Y37481D01*
Y32181D02*
Y33781D01*
Y27781D02*
Y28981D01*
Y25081D02*
Y25981D01*
Y21981D02*
Y23281D01*
Y19281D02*
Y19881D01*
Y15381D02*
Y17181D01*
Y12681D02*
Y13281D01*
X45951Y59081D02*
Y63681D01*
Y50581D02*
Y53781D01*
Y45381D02*
Y46581D01*
Y42581D02*
Y43481D01*
Y39381D02*
Y40781D01*
Y36681D02*
Y37481D01*
Y32181D02*
Y33781D01*
Y27881D02*
Y29081D01*
Y25081D02*
Y25981D01*
Y21981D02*
Y23281D01*
Y19381D02*
Y19981D01*
Y15381D02*
Y17081D01*
Y12781D02*
Y13381D01*
X46051Y62181D02*
Y63681D01*
Y58881D02*
Y62081D01*
X46051Y53981D02*
X46051Y50781D01*
Y45381D02*
Y46581D01*
Y42581D02*
Y43481D01*
X46051Y39381D02*
Y40781D01*
X46051Y36681D02*
Y37481D01*
X46051Y32081D02*
X46051Y33781D01*
X46051Y29081D02*
X46051Y27881D01*
X46051Y25981D02*
X46051Y25081D01*
Y21981D02*
Y23281D01*
X46051Y20081D02*
X46051Y19481D01*
Y15281D02*
Y17081D01*
X46051Y12781D02*
X46051Y13381D01*
X46151Y62181D02*
Y63681D01*
Y58781D02*
Y61881D01*
X46151Y54081D02*
X46151Y50981D01*
Y45381D02*
Y46681D01*
Y42581D02*
Y43381D01*
Y39381D02*
Y40781D01*
Y36681D02*
Y37381D01*
Y32081D02*
Y33881D01*
Y27881D02*
Y29181D01*
Y25081D02*
Y25881D01*
Y21981D02*
Y23281D01*
Y19481D02*
Y20081D01*
Y15281D02*
Y16981D01*
Y12881D02*
Y13481D01*
X46251Y62181D02*
Y63681D01*
Y61781D02*
X46251Y58581D01*
X46251Y54281D02*
X46251Y51081D01*
X46251Y45381D02*
X46251Y46681D01*
X46251Y42581D02*
Y43381D01*
X46251Y39381D02*
Y40781D01*
X46251Y36781D02*
Y37381D01*
Y32081D02*
Y33881D01*
Y27881D02*
Y29181D01*
Y25081D02*
Y25881D01*
Y21981D02*
Y23281D01*
Y19581D02*
X46251Y20181D01*
X46251Y15181D02*
Y16981D01*
Y12881D02*
Y13481D01*
X46351Y62181D02*
Y63681D01*
X46351Y58381D02*
Y61581D01*
X46351Y54481D02*
X46351Y51281D01*
Y45381D02*
Y46681D01*
X46351Y42581D02*
Y43381D01*
X46351Y39381D02*
Y40781D01*
X46351Y36781D02*
Y37381D01*
Y33881D02*
X46351Y31981D01*
X46351Y27881D02*
X46351Y29181D01*
X46351Y25081D02*
Y25881D01*
Y21981D02*
X46351Y23281D01*
X46351Y19681D02*
X46351Y20281D01*
X46351Y15181D02*
Y16881D01*
Y12981D02*
Y13581D01*
X46451Y62181D02*
Y63681D01*
Y58181D02*
Y61381D01*
Y51481D02*
Y54581D01*
Y45381D02*
Y46681D01*
Y42581D02*
Y43281D01*
Y39381D02*
Y40781D01*
Y36781D02*
Y37281D01*
Y31981D02*
Y33981D01*
Y27881D02*
Y29181D01*
Y25081D02*
Y25781D01*
Y21981D02*
Y23281D01*
Y19781D02*
Y20381D01*
Y15181D02*
Y16881D01*
Y12981D02*
Y13581D01*
X46551Y62181D02*
Y63681D01*
Y58081D02*
Y61181D01*
Y51681D02*
Y54781D01*
Y45381D02*
Y46681D01*
Y42581D02*
Y43281D01*
Y39381D02*
Y40781D01*
Y36781D02*
Y37281D01*
Y33581D02*
Y33981D01*
Y31981D02*
Y33481D01*
Y27881D02*
Y29181D01*
Y25081D02*
Y25781D01*
Y21981D02*
Y23281D01*
Y19881D02*
Y20381D01*
Y15081D02*
Y16781D01*
Y13081D02*
Y13581D01*
X46651Y62181D02*
Y63681D01*
Y57881D02*
Y61081D01*
Y51781D02*
Y54981D01*
Y45381D02*
Y46681D01*
Y42581D02*
Y43281D01*
Y39381D02*
Y40781D01*
Y36781D02*
Y37281D01*
Y33581D02*
Y33981D01*
Y31881D02*
Y33381D01*
Y27881D02*
Y29181D01*
Y25081D02*
Y25781D01*
Y21981D02*
Y23281D01*
Y19981D02*
Y20481D01*
Y15081D02*
Y16781D01*
Y13081D02*
Y13681D01*
X46751Y62181D02*
Y63681D01*
Y57681D02*
Y60881D01*
Y51981D02*
X46751Y55181D01*
Y49181D02*
Y49381D01*
Y45381D02*
Y46681D01*
X46751Y43181D02*
X46751Y42581D01*
Y39381D02*
Y40781D01*
Y33581D02*
Y33981D01*
Y31881D02*
Y33381D01*
Y27881D02*
Y29181D01*
Y25081D02*
Y25681D01*
Y21981D02*
Y23281D01*
Y19981D02*
Y20581D01*
X46751Y14981D02*
X46751Y16681D01*
X46751Y13681D02*
X46751Y13181D01*
X46851Y62181D02*
Y63681D01*
Y60681D02*
X46851Y57481D01*
Y52181D02*
Y55281D01*
Y49181D02*
Y49481D01*
Y45281D02*
Y46681D01*
Y42581D02*
Y43181D01*
Y39381D02*
Y40781D01*
Y33681D02*
Y34081D01*
Y31881D02*
Y33381D01*
Y27781D02*
Y29181D01*
Y25081D02*
Y25681D01*
Y21981D02*
Y23281D01*
Y20081D02*
Y20681D01*
X46851Y14981D02*
X46851Y16681D01*
Y13181D02*
Y13781D01*
X46951Y62181D02*
Y63681D01*
X46951Y57381D02*
Y60481D01*
Y52381D02*
Y55481D01*
Y49181D02*
Y49681D01*
Y45181D02*
Y46681D01*
Y39381D02*
Y40781D01*
Y33681D02*
Y34081D01*
Y31781D02*
Y33281D01*
Y27681D02*
Y29181D01*
Y21981D02*
Y23281D01*
Y20181D02*
Y20781D01*
Y14881D02*
Y16581D01*
Y13281D02*
Y13781D01*
X47051Y62181D02*
Y63681D01*
X47051Y57181D02*
Y60381D01*
Y52481D02*
Y55681D01*
Y49181D02*
Y49881D01*
Y45081D02*
Y46681D01*
Y39381D02*
Y40781D01*
Y37681D02*
Y38081D01*
Y33681D02*
X47051Y34081D01*
X47051Y31781D02*
Y33281D01*
Y27581D02*
Y29181D01*
Y21981D02*
Y23281D01*
Y20281D02*
X47051Y20781D01*
Y14881D02*
Y16581D01*
X47051Y13281D02*
Y13881D01*
X47151Y62181D02*
Y63681D01*
Y56981D02*
Y60181D01*
Y52681D02*
Y55881D01*
Y49181D02*
Y50081D01*
Y44981D02*
Y46681D01*
Y39381D02*
Y40781D01*
Y37681D02*
Y38181D01*
Y33681D02*
Y34181D01*
Y31781D02*
Y33281D01*
Y27481D02*
Y29181D01*
Y21981D02*
Y23281D01*
Y20381D02*
Y20881D01*
Y14781D02*
Y16481D01*
Y13381D02*
Y13881D01*
X47251Y62181D02*
Y63681D01*
Y56881D02*
Y59981D01*
Y52881D02*
Y55981D01*
Y49181D02*
Y50181D01*
Y44881D02*
Y46681D01*
Y39381D02*
Y40781D01*
Y37681D02*
Y38181D01*
Y33781D02*
Y34181D01*
Y31681D02*
Y33181D01*
Y27381D02*
Y29181D01*
Y21981D02*
Y23281D01*
Y20381D02*
Y20981D01*
Y14781D02*
Y16481D01*
Y13381D02*
Y13981D01*
X47351Y62181D02*
Y63681D01*
Y56681D02*
Y59781D01*
Y53081D02*
Y56181D01*
Y49181D02*
Y50381D01*
Y44681D02*
Y46681D01*
Y39381D02*
Y40781D01*
Y37681D02*
Y38181D01*
Y33781D02*
Y34181D01*
Y31681D02*
Y33181D01*
Y27181D02*
Y29181D01*
Y21981D02*
Y23281D01*
Y20281D02*
Y21081D01*
Y14781D02*
Y16381D01*
Y13481D02*
Y13981D01*
X47451Y62181D02*
Y63681D01*
Y56481D02*
Y59681D01*
Y53181D02*
Y56381D01*
Y49181D02*
Y50581D01*
X47451Y46581D02*
X47451Y44481D01*
X47451Y39381D02*
Y40781D01*
Y37681D02*
X47451Y38181D01*
Y33781D02*
Y34281D01*
Y31681D02*
Y33181D01*
X47451Y29081D02*
X47451Y26981D01*
X47451Y23281D02*
X47451Y21981D01*
X47451Y20281D02*
X47451Y21181D01*
Y14681D02*
Y16381D01*
X47451Y14081D02*
X47451Y13481D01*
X47551Y62181D02*
Y63681D01*
Y53381D02*
Y59481D01*
Y49181D02*
Y50781D01*
Y44181D02*
Y46581D01*
X47551Y39381D02*
Y40781D01*
X47551Y37681D02*
Y38181D01*
Y33881D02*
Y34281D01*
Y31581D02*
Y33081D01*
X47551Y29081D02*
X47551Y26681D01*
Y21981D02*
Y23281D01*
X47551Y20181D02*
X47551Y21181D01*
Y14681D02*
Y16281D01*
Y13581D02*
Y14081D01*
X47651Y62181D02*
Y63681D01*
Y53581D02*
Y59281D01*
Y49181D02*
Y50881D01*
Y43981D02*
Y46481D01*
Y39381D02*
Y40781D01*
Y37681D02*
Y38181D01*
Y33881D02*
Y34281D01*
Y31581D02*
Y33081D01*
Y26481D02*
Y28981D01*
Y21981D02*
Y23281D01*
Y20181D02*
Y21281D01*
Y14581D02*
Y16281D01*
Y13581D02*
Y14081D01*
X47751Y62181D02*
Y63681D01*
Y53681D02*
Y59181D01*
Y49181D02*
X47751Y51081D01*
X47751Y46481D02*
X47751Y43781D01*
Y39381D02*
Y40781D01*
X47751Y37681D02*
Y38181D01*
Y33881D02*
Y34381D01*
Y31581D02*
Y33081D01*
Y26281D02*
X47751Y28981D01*
X47751Y21981D02*
Y23281D01*
Y21381D02*
X47751Y20081D01*
X47751Y14581D02*
Y16181D01*
Y13681D02*
X47751Y14181D01*
X47851Y62181D02*
Y63681D01*
Y53881D02*
Y58981D01*
Y49181D02*
X47851Y51281D01*
X47851Y46381D02*
X47851Y43581D01*
Y39381D02*
Y40781D01*
X47851Y38281D02*
X47851Y37681D01*
X47851Y33881D02*
Y34381D01*
Y31481D02*
Y32981D01*
X47851Y26081D02*
Y28881D01*
X47851Y21981D02*
X47851Y23281D01*
Y19981D02*
Y21481D01*
X47851Y14481D02*
Y16181D01*
Y13681D02*
X47851Y14181D01*
X47951Y62181D02*
Y63681D01*
Y54081D02*
Y58781D01*
Y49181D02*
Y51481D01*
Y43381D02*
Y46281D01*
Y39381D02*
Y40781D01*
Y37681D02*
Y38281D01*
Y33981D02*
Y34381D01*
Y31481D02*
Y32981D01*
Y25881D02*
Y28781D01*
Y21981D02*
Y23281D01*
Y19981D02*
Y21481D01*
Y14481D02*
Y16181D01*
Y13781D02*
Y14281D01*
X48051Y62181D02*
Y63681D01*
Y54281D02*
Y58581D01*
Y49181D02*
Y51581D01*
Y43181D02*
Y46181D01*
Y37681D02*
Y40781D01*
Y33981D02*
Y34481D01*
Y31481D02*
Y32981D01*
Y25681D02*
Y28681D01*
Y21981D02*
Y23281D01*
Y19881D02*
Y21581D01*
Y14381D02*
Y16081D01*
Y13781D02*
Y14281D01*
X48151Y62181D02*
Y63681D01*
Y54381D02*
Y58481D01*
Y49181D02*
Y51781D01*
Y43081D02*
Y46081D01*
Y37681D02*
Y40781D01*
Y33981D02*
Y34481D01*
Y31381D02*
Y32881D01*
Y25581D02*
Y28581D01*
Y21981D02*
Y23281D01*
Y19881D02*
Y21681D01*
Y13881D02*
Y16081D01*
X48251Y62181D02*
Y63681D01*
X48251Y54581D02*
Y58281D01*
X48251Y51981D02*
X48251Y49181D01*
X48251Y45981D02*
X48251Y42881D01*
Y37681D02*
Y40781D01*
X48251Y34081D02*
X48251Y34481D01*
Y31381D02*
Y32881D01*
X48251Y25381D02*
X48251Y28481D01*
Y21981D02*
Y23281D01*
Y19781D02*
Y21781D01*
Y13881D02*
Y15981D01*
X48351Y62181D02*
Y63681D01*
X48351Y54781D02*
Y58081D01*
Y49181D02*
Y52181D01*
Y42781D02*
Y45881D01*
Y39381D02*
Y40781D01*
Y37681D02*
Y38281D01*
Y34081D02*
Y34581D01*
Y31381D02*
Y32881D01*
Y25281D02*
Y28381D01*
Y21981D02*
Y23281D01*
Y19781D02*
Y21881D01*
Y13981D02*
Y15981D01*
X48451Y62181D02*
Y63681D01*
X48451Y60581D02*
X48451Y60781D01*
X48451Y54981D02*
Y57881D01*
Y49181D02*
Y52281D01*
Y42681D02*
Y45681D01*
Y39381D02*
Y40781D01*
Y37681D02*
Y38181D01*
Y34081D02*
Y34581D01*
Y32781D02*
X48451Y31281D01*
X48451Y25181D02*
Y28181D01*
Y21981D02*
Y23281D01*
Y21481D02*
Y21881D01*
Y19681D02*
Y21281D01*
Y13981D02*
Y15881D01*
X48551Y62181D02*
Y63681D01*
X48551Y60381D02*
X48551Y60781D01*
X48551Y55081D02*
X48551Y57781D01*
X48551Y49181D02*
Y52481D01*
Y42581D02*
Y45481D01*
Y39381D02*
Y40781D01*
Y37681D02*
Y38181D01*
Y34581D02*
X48551Y34181D01*
Y31281D02*
Y32781D01*
X48551Y25081D02*
Y27981D01*
Y21581D02*
Y23281D01*
Y19681D02*
Y21281D01*
Y14081D02*
Y15881D01*
X48651Y62181D02*
Y63681D01*
Y60181D02*
Y60781D01*
Y55281D02*
Y57581D01*
Y49181D02*
Y52681D01*
Y42581D02*
Y45381D01*
Y39381D02*
Y40781D01*
Y37681D02*
Y38181D01*
Y34181D02*
Y34681D01*
Y31281D02*
Y32781D01*
Y25081D02*
Y27881D01*
Y21581D02*
Y23281D01*
Y19581D02*
Y21181D01*
Y14081D02*
Y15781D01*
X48751Y62181D02*
Y63681D01*
Y60081D02*
Y60781D01*
Y55481D02*
Y57381D01*
Y49181D02*
Y52781D01*
Y42481D02*
Y45081D01*
Y39381D02*
Y40781D01*
Y37681D02*
Y38181D01*
Y34181D02*
Y34681D01*
Y31181D02*
Y32781D01*
Y24981D02*
Y27581D01*
Y21681D02*
Y23281D01*
Y19581D02*
Y21181D01*
Y14081D02*
Y15781D01*
X48851Y62181D02*
Y63681D01*
Y59881D02*
Y60781D01*
Y55681D02*
Y57181D01*
Y49181D02*
Y52981D01*
Y42381D02*
Y44881D01*
Y39381D02*
Y40781D01*
Y37681D02*
Y38181D01*
Y34181D02*
Y34681D01*
Y31181D02*
Y32681D01*
Y24881D02*
Y27381D01*
Y21781D02*
Y23281D01*
Y19481D02*
Y21081D01*
Y14181D02*
Y15681D01*
X48951Y62181D02*
Y63681D01*
Y59681D02*
Y60781D01*
X48951Y57081D02*
X48951Y55781D01*
Y49181D02*
Y53181D01*
X48951Y42381D02*
X48951Y44681D01*
X48951Y39381D02*
Y40781D01*
X48951Y37681D02*
Y38181D01*
Y34281D02*
Y34681D01*
Y31181D02*
Y32681D01*
Y24881D02*
Y27181D01*
X48951Y23281D02*
X48951Y21881D01*
Y19381D02*
Y21081D01*
X48951Y14181D02*
Y15681D01*
X49051Y62181D02*
Y63681D01*
Y59481D02*
Y60781D01*
Y55981D02*
Y56881D01*
Y49181D02*
Y53381D01*
Y42381D02*
Y44481D01*
X49051Y39381D02*
Y40781D01*
X49051Y37681D02*
Y38181D01*
Y34281D02*
Y34781D01*
Y31081D02*
Y32681D01*
Y24881D02*
Y26981D01*
Y21981D02*
Y23281D01*
Y19381D02*
Y20981D01*
Y14181D02*
Y15581D01*
X49151Y62181D02*
Y63681D01*
Y59381D02*
Y60781D01*
Y56181D02*
Y56681D01*
Y49181D02*
Y53481D01*
Y44281D02*
X49151Y42281D01*
X49151Y39381D02*
Y40781D01*
Y37681D02*
Y38181D01*
Y31081D02*
Y34781D01*
Y24781D02*
Y26781D01*
Y21981D02*
Y23281D01*
Y19281D02*
Y20981D01*
Y14181D02*
Y15581D01*
X49251Y62181D02*
Y63681D01*
Y59181D02*
Y60781D01*
Y56381D02*
Y56481D01*
Y49181D02*
Y53681D01*
Y44081D02*
X49251Y42281D01*
Y39381D02*
Y40781D01*
X49251Y31081D02*
Y34781D01*
Y24781D02*
Y26581D01*
Y21981D02*
Y23281D01*
Y19281D02*
Y20881D01*
Y15581D02*
X49251Y14181D01*
X49351Y62181D02*
Y63681D01*
Y58981D02*
Y60781D01*
Y49181D02*
Y53881D01*
Y42281D02*
Y43981D01*
Y39381D02*
Y40781D01*
Y30981D02*
Y34881D01*
Y24781D02*
Y26481D01*
Y21981D02*
Y23281D01*
Y19181D02*
Y20881D01*
Y14181D02*
Y15581D01*
X49451Y62181D02*
Y63681D01*
Y58781D02*
Y60781D01*
Y50881D02*
Y54081D01*
Y49181D02*
Y50681D01*
Y42281D02*
Y43881D01*
Y39381D02*
Y40781D01*
Y34381D02*
Y34881D01*
Y30981D02*
Y32481D01*
Y24781D02*
Y26381D01*
Y21981D02*
Y23281D01*
Y19181D02*
Y20781D01*
Y14181D02*
Y15581D01*
X49551Y62181D02*
Y63681D01*
Y58681D02*
Y60781D01*
Y51081D02*
Y54181D01*
Y49181D02*
Y50681D01*
Y46181D02*
Y46681D01*
Y42281D02*
Y43781D01*
Y39381D02*
Y40781D01*
Y34381D02*
Y34881D01*
Y30981D02*
Y32481D01*
Y28681D02*
Y29181D01*
Y24781D02*
Y26281D01*
Y21981D02*
Y23281D01*
Y19081D02*
Y20781D01*
Y14181D02*
Y15581D01*
X49651Y62181D02*
Y63681D01*
Y60781D02*
X49651Y58481D01*
Y51181D02*
Y54381D01*
Y49181D02*
Y50681D01*
X49651Y46081D02*
X49651Y46681D01*
Y42281D02*
Y43681D01*
Y39381D02*
Y40781D01*
X49651Y37081D02*
X49651Y36581D01*
Y34481D02*
Y34981D01*
Y30881D02*
Y32481D01*
Y28581D02*
Y29181D01*
Y24781D02*
Y26181D01*
Y21981D02*
Y23281D01*
Y19081D02*
Y20681D01*
Y14181D02*
Y15581D01*
X49751Y62181D02*
Y63681D01*
Y60781D02*
X49751Y58281D01*
Y51381D02*
Y54581D01*
Y49181D02*
Y50681D01*
X49751Y46081D02*
X49751Y46781D01*
Y42281D02*
Y43681D01*
Y39381D02*
Y40781D01*
X49751Y37081D02*
X49751Y36581D01*
Y34481D02*
Y34981D01*
Y30881D02*
Y32381D01*
Y28581D02*
Y29281D01*
Y24781D02*
Y26181D01*
Y21981D02*
Y23281D01*
Y18981D02*
Y20681D01*
Y14181D02*
Y15581D01*
X49851Y63681D02*
X49851Y62181D01*
Y58081D02*
Y60781D01*
Y51581D02*
Y54781D01*
Y49181D02*
Y50681D01*
Y46081D02*
Y46781D01*
Y42281D02*
Y43681D01*
Y39381D02*
Y40781D01*
Y36581D02*
Y37081D01*
Y34481D02*
Y34981D01*
Y30881D02*
Y32381D01*
Y28581D02*
Y29281D01*
Y24781D02*
Y26181D01*
Y21981D02*
Y23281D01*
Y18981D02*
Y20581D01*
Y14181D02*
Y15581D01*
X49951Y62181D02*
Y63681D01*
X49951Y57981D02*
X49951Y60781D01*
X49951Y51781D02*
X49951Y54881D01*
X49951Y49181D02*
Y50681D01*
Y46781D02*
X49951Y45981D01*
X49951Y42281D02*
Y43681D01*
Y39381D02*
Y40781D01*
Y36481D02*
X49951Y37181D01*
X49951Y34581D02*
Y35081D01*
Y30781D02*
Y32381D01*
Y28481D02*
Y29281D01*
Y24781D02*
Y26181D01*
Y21981D02*
Y23281D01*
Y18881D02*
Y20581D01*
Y14181D02*
Y15581D01*
X50051Y62181D02*
Y63681D01*
Y57781D02*
Y60781D01*
X50051Y55081D02*
X50051Y51881D01*
X50051Y49181D02*
Y50681D01*
Y46781D02*
X50051Y45981D01*
X50051Y42281D02*
Y43681D01*
Y39381D02*
Y40781D01*
Y36481D02*
X50051Y37181D01*
X50051Y34581D02*
Y35081D01*
Y30781D02*
Y32281D01*
Y28481D02*
Y29281D01*
Y24781D02*
Y26181D01*
Y21981D02*
Y23281D01*
Y18781D02*
Y20481D01*
Y14181D02*
Y15581D01*
X50151Y62181D02*
Y63681D01*
Y57581D02*
Y60781D01*
Y52081D02*
Y55281D01*
Y49181D02*
Y50681D01*
Y45981D02*
Y46781D01*
Y42281D02*
Y43581D01*
Y39381D02*
Y40781D01*
Y36481D02*
Y37281D01*
Y34581D02*
Y35081D01*
Y30781D02*
Y32281D01*
Y28481D02*
Y29281D01*
Y24781D02*
Y26081D01*
Y21981D02*
Y23281D01*
Y18781D02*
Y20481D01*
Y14181D02*
Y15581D01*
X50251Y62181D02*
Y63681D01*
Y57481D02*
Y60581D01*
Y52281D02*
Y55381D01*
Y49181D02*
Y50681D01*
Y45981D02*
Y46781D01*
Y42281D02*
Y43681D01*
Y39381D02*
Y40781D01*
Y36481D02*
Y37281D01*
Y34581D02*
Y35181D01*
Y30681D02*
Y32281D01*
Y28481D02*
Y29281D01*
Y24781D02*
Y26181D01*
Y21981D02*
Y23281D01*
Y18681D02*
Y20381D01*
Y14181D02*
Y15581D01*
X50351Y62181D02*
Y63681D01*
Y57281D02*
Y60381D01*
Y52481D02*
Y55581D01*
Y49181D02*
Y50681D01*
Y45881D02*
Y46781D01*
Y42381D02*
Y43681D01*
Y39381D02*
Y40781D01*
Y36481D02*
Y37281D01*
Y34681D02*
Y35181D01*
Y30681D02*
Y32181D01*
Y28381D02*
Y29281D01*
Y24881D02*
Y26181D01*
Y21981D02*
Y23281D01*
Y18681D02*
Y20381D01*
Y14181D02*
Y15581D01*
X50451Y62181D02*
Y63681D01*
X50451Y57081D02*
X50451Y60281D01*
X50451Y52581D02*
X50451Y55781D01*
Y49181D02*
Y50681D01*
X50451Y46781D02*
X50451Y45881D01*
X50451Y42381D02*
Y43681D01*
Y39381D02*
Y40781D01*
Y36481D02*
X50451Y37381D01*
Y34681D02*
Y35181D01*
Y30681D02*
Y32181D01*
Y28381D02*
Y29281D01*
X50451Y26181D02*
X50451Y24881D01*
Y21981D02*
Y23281D01*
X50451Y18581D02*
Y20281D01*
Y14181D02*
X50451Y15581D01*
X50551Y62181D02*
Y63681D01*
Y56881D02*
Y60081D01*
Y52781D02*
Y55981D01*
Y49181D02*
Y50681D01*
Y45881D02*
Y46781D01*
Y42381D02*
Y43681D01*
X50551Y39381D02*
Y40781D01*
X50551Y36481D02*
Y37381D01*
Y34681D02*
Y35281D01*
Y30581D02*
Y32181D01*
Y28381D02*
Y29281D01*
Y24881D02*
Y26181D01*
Y21981D02*
Y23281D01*
Y18581D02*
Y20281D01*
Y14181D02*
Y15581D01*
X50651Y62181D02*
Y63681D01*
Y56781D02*
Y59881D01*
Y52981D02*
Y56081D01*
Y49181D02*
Y50681D01*
Y45781D02*
Y46781D01*
Y42481D02*
X50651Y43781D01*
Y39381D02*
Y40781D01*
X50651Y36481D02*
Y37381D01*
Y34781D02*
Y35281D01*
Y30581D02*
Y32181D01*
Y28281D02*
Y29281D01*
Y24981D02*
Y26281D01*
Y21981D02*
Y23281D01*
Y18481D02*
X50651Y20181D01*
X50651Y14181D02*
Y15581D01*
X50751Y62181D02*
Y63681D01*
Y56581D02*
Y59681D01*
Y53081D02*
Y56281D01*
Y49181D02*
Y50681D01*
Y45781D02*
X50751Y46781D01*
X50751Y42581D02*
X50751Y43781D01*
Y39381D02*
Y40781D01*
X50751Y37481D02*
X50751Y36481D01*
X50751Y35281D02*
X50751Y34781D01*
Y30581D02*
Y32081D01*
X50751Y28281D02*
Y29281D01*
Y25081D02*
Y26281D01*
Y21981D02*
Y23281D01*
Y18481D02*
X50751Y20081D01*
X50751Y15581D02*
X50751Y14181D01*
X50851Y62181D02*
Y63681D01*
Y53281D02*
Y59581D01*
Y49181D02*
Y50681D01*
Y45781D02*
Y46781D01*
Y42581D02*
Y43881D01*
Y39381D02*
Y40781D01*
Y36481D02*
Y37481D01*
Y34781D02*
Y35381D01*
Y30481D02*
Y32081D01*
Y28281D02*
Y29281D01*
Y25081D02*
Y26381D01*
Y21981D02*
Y23281D01*
Y18381D02*
Y20081D01*
Y14181D02*
Y15581D01*
X50951Y61981D02*
Y63681D01*
Y53481D02*
Y59381D01*
Y49181D02*
Y50881D01*
Y45681D02*
Y46781D01*
Y42681D02*
Y44081D01*
Y39381D02*
Y40781D01*
Y36481D02*
Y37481D01*
Y34781D02*
Y35381D01*
Y30481D02*
Y32081D01*
Y28181D02*
Y29281D01*
Y25181D02*
Y26581D01*
Y21981D02*
Y23281D01*
Y18381D02*
Y19981D01*
Y14181D02*
Y15581D01*
X51051Y61881D02*
Y63681D01*
Y53681D02*
Y59181D01*
Y49181D02*
Y50981D01*
Y45681D02*
Y46781D01*
Y42781D02*
Y44281D01*
Y36481D02*
Y41581D01*
Y34281D02*
Y35881D01*
Y30081D02*
Y32481D01*
Y28181D02*
Y29281D01*
Y25281D02*
Y26781D01*
Y21281D02*
Y23981D01*
Y17781D02*
Y20481D01*
Y14081D02*
Y15681D01*
X51151Y63681D02*
X51151Y61681D01*
X51151Y59081D02*
X51151Y53781D01*
Y49181D02*
Y51181D01*
Y44981D02*
Y46681D01*
X51151Y42981D02*
X51151Y44881D01*
X51151Y41581D02*
X51151Y36481D01*
X51151Y34081D02*
X51151Y36081D01*
X51151Y29781D02*
Y32781D01*
X51151Y27481D02*
Y29181D01*
X51151Y25481D02*
X51151Y27381D01*
Y21281D02*
Y24081D01*
Y17681D02*
Y20581D01*
X51151Y16481D02*
X51151Y13281D01*
X51251Y63681D02*
X51251Y61481D01*
Y53981D02*
Y58881D01*
Y49181D02*
Y51381D01*
X51251Y43081D02*
X51251Y46481D01*
X51251Y41581D02*
X51251Y36481D01*
Y34081D02*
Y36081D01*
X51251Y29781D02*
Y32781D01*
X51251Y25581D02*
Y28981D01*
Y21281D02*
Y24081D01*
Y17681D02*
Y20581D01*
X51251Y16481D02*
X51251Y13281D01*
X51351Y61281D02*
X51351Y63681D01*
X51351Y54181D02*
Y58681D01*
Y49181D02*
Y51581D01*
Y43281D02*
Y46281D01*
Y36481D02*
Y41581D01*
Y34081D02*
Y36081D01*
Y29781D02*
Y32781D01*
Y25781D02*
Y28781D01*
Y21281D02*
Y24081D01*
Y17681D02*
Y20581D01*
Y13281D02*
X51351Y16481D01*
X51451Y61181D02*
X51451Y63681D01*
X51451Y54381D02*
Y58481D01*
Y49181D02*
Y51681D01*
Y43481D02*
X51451Y45981D01*
X51451Y36081D02*
X51451Y34081D01*
Y29781D02*
Y32781D01*
X51451Y25981D02*
Y28481D01*
Y13281D02*
X51451Y16481D01*
X51551Y60981D02*
X51551Y63681D01*
X51551Y54481D02*
Y58381D01*
Y49181D02*
X51551Y51881D01*
X51551Y43881D02*
Y45681D01*
Y26381D02*
X51551Y28181D01*
X51651Y60781D02*
Y63681D01*
Y54681D02*
Y58181D01*
Y49181D02*
Y52081D01*
X51751Y60681D02*
Y63681D01*
Y54881D02*
Y57981D01*
Y49181D02*
Y52181D01*
X51851Y60481D02*
Y63581D01*
Y55081D02*
Y57781D01*
Y49281D02*
Y52381D01*
X51951Y60281D02*
Y63481D01*
Y55181D02*
Y57681D01*
X51951Y52581D02*
X51951Y49381D01*
X52051Y60081D02*
Y63281D01*
Y55381D02*
Y57481D01*
Y49581D02*
Y52781D01*
X52151Y63081D02*
X52151Y59981D01*
X52151Y57281D02*
X52151Y55581D01*
X52151Y49781D02*
Y52881D01*
X52251Y59781D02*
X52251Y62881D01*
X52251Y55781D02*
X52251Y57081D01*
X52251Y49981D02*
Y53081D01*
X52351Y59581D02*
Y62781D01*
Y55881D02*
Y56981D01*
Y50081D02*
Y53281D01*
X52451Y59381D02*
Y62581D01*
Y56081D02*
Y56781D01*
Y50281D02*
Y53481D01*
X52551Y59281D02*
Y62381D01*
Y56281D02*
Y56581D01*
Y50481D02*
Y53581D01*
X52651Y62181D02*
X52651Y59081D01*
Y50681D02*
Y53781D01*
X52751Y58881D02*
Y62081D01*
Y50781D02*
Y53981D01*
X52851Y58681D02*
Y61881D01*
Y50981D02*
Y54181D01*
X52951Y58581D02*
Y61681D01*
Y51181D02*
Y54281D01*
X53051Y58381D02*
Y61581D01*
Y51281D02*
Y54481D01*
X53151Y58181D02*
Y61381D01*
Y51481D02*
Y54681D01*
X53251Y57981D02*
Y61181D01*
Y51681D02*
Y54881D01*
X53351Y57881D02*
Y60981D01*
Y51881D02*
Y54981D01*
X53451Y57681D02*
Y60881D01*
Y51981D02*
Y55181D01*
X53551Y57481D02*
Y60681D01*
Y52181D02*
Y55381D01*
X53651Y57381D02*
Y60481D01*
Y52381D02*
X53651Y55481D01*
X53751Y60281D02*
X53751Y57181D01*
Y52581D02*
Y55681D01*
X53851Y56981D02*
Y60181D01*
Y52681D02*
Y55881D01*
X53951Y56781D02*
Y59981D01*
Y52881D02*
Y56081D01*
X54051Y56681D02*
Y59781D01*
Y53081D02*
Y56181D01*
X54151Y56481D02*
Y59581D01*
X54151Y53281D02*
Y56381D01*
X54251Y53381D02*
X54251Y59481D01*
X54351Y53581D02*
X54351Y59281D01*
X54451Y53781D02*
Y59081D01*
X54551Y53881D02*
Y58981D01*
X54651Y54081D02*
Y58781D01*
X54751Y54281D02*
Y58581D01*
X54851Y58381D02*
X54851Y54481D01*
X54951Y54581D02*
Y58281D01*
X55051Y54781D02*
Y58081D01*
X55151Y54981D02*
Y57881D01*
X55251Y55181D02*
Y57681D01*
X55351Y55281D02*
Y57581D01*
X55451Y55481D02*
Y57381D01*
X55551Y55681D02*
Y57181D01*
X55651Y55881D02*
Y56981D01*
X55751Y55981D02*
Y56881D01*
X55851Y56181D02*
Y56681D01*
M02*
