G04*
G04 #@! TF.GenerationSoftware,Altium Limited,Altium Designer,20.0.2 (26)*
G04*
G04 Layer_Color=65535*
%FSLAX25Y25*%
%MOIN*%
G70*
G01*
G75*
%ADD10C,0.01000*%
%ADD11C,0.01000*%
%ADD12C,0.01575*%
%ADD13C,0.02362*%
%ADD14C,0.01181*%
%ADD15C,0.00700*%
%ADD16C,0.00394*%
%ADD17C,0.01200*%
%ADD18C,0.00787*%
%ADD19C,0.00100*%
%ADD20C,0.00600*%
%ADD21C,0.00800*%
G36*
X-36789Y53555D02*
X-35962D01*
Y52996D01*
X-36789D01*
Y52159D01*
X-37362D01*
Y52996D01*
X-38189D01*
Y53555D01*
X-37362D01*
Y54396D01*
X-36789D01*
Y53555D01*
D02*
G37*
G36*
X22695Y53191D02*
X23522D01*
Y52632D01*
X22695D01*
Y51796D01*
X22122D01*
Y52632D01*
X21295D01*
Y53191D01*
X22122D01*
Y54032D01*
X22695D01*
Y53191D01*
D02*
G37*
G36*
X-148907Y-1568D02*
Y-2233D01*
X-151245Y-2307D01*
X-148907Y-3471D01*
Y-4151D01*
X-152104Y-4271D01*
Y-3628D01*
X-149863Y-3601D01*
X-152104Y-2496D01*
Y-1785D01*
X-149887Y-1711D01*
X-152104Y-658D01*
Y-20D01*
X-148907Y-1568D01*
D02*
G37*
G36*
X-151166Y-5379D02*
X-151171D01*
X-151175D01*
X-151203Y-5384D01*
X-151245Y-5398D01*
X-151296Y-5412D01*
X-151351Y-5435D01*
X-151411Y-5463D01*
X-151467Y-5500D01*
X-151517Y-5550D01*
X-151522Y-5555D01*
X-151536Y-5578D01*
X-151559Y-5610D01*
X-151582Y-5657D01*
X-151601Y-5712D01*
X-151624Y-5786D01*
X-151637Y-5874D01*
X-151642Y-5971D01*
Y-6017D01*
X-151637Y-6063D01*
X-151628Y-6123D01*
X-151619Y-6183D01*
X-151601Y-6248D01*
X-151577Y-6308D01*
X-151545Y-6359D01*
X-151541Y-6363D01*
X-151527Y-6377D01*
X-151508Y-6396D01*
X-151480Y-6414D01*
X-151444Y-6437D01*
X-151402Y-6456D01*
X-151351Y-6470D01*
X-151300Y-6474D01*
X-151296D01*
X-151277D01*
X-151254Y-6470D01*
X-151222Y-6460D01*
X-151185Y-6447D01*
X-151148Y-6428D01*
X-151111Y-6405D01*
X-151074Y-6368D01*
X-151069Y-6363D01*
X-151055Y-6345D01*
X-151037Y-6317D01*
X-151009Y-6271D01*
X-150991Y-6239D01*
X-150972Y-6206D01*
X-150949Y-6169D01*
X-150926Y-6123D01*
X-150903Y-6077D01*
X-150875Y-6022D01*
X-150847Y-5962D01*
X-150820Y-5897D01*
X-150815Y-5892D01*
X-150811Y-5874D01*
X-150797Y-5846D01*
X-150783Y-5809D01*
X-150760Y-5763D01*
X-150737Y-5712D01*
X-150681Y-5601D01*
X-150621Y-5481D01*
X-150556Y-5366D01*
X-150524Y-5310D01*
X-150492Y-5264D01*
X-150459Y-5222D01*
X-150432Y-5190D01*
X-150427Y-5185D01*
X-150422Y-5181D01*
X-150409Y-5167D01*
X-150395Y-5153D01*
X-150344Y-5116D01*
X-150279Y-5074D01*
X-150201Y-5033D01*
X-150104Y-5001D01*
X-149993Y-4973D01*
X-149937Y-4968D01*
X-149873Y-4964D01*
X-149868D01*
X-149854D01*
X-149831D01*
X-149803Y-4968D01*
X-149766Y-4973D01*
X-149720Y-4982D01*
X-149674Y-4991D01*
X-149623Y-5005D01*
X-149568Y-5024D01*
X-149508Y-5047D01*
X-149448Y-5074D01*
X-149388Y-5107D01*
X-149328Y-5144D01*
X-149263Y-5190D01*
X-149207Y-5241D01*
X-149147Y-5301D01*
X-149143Y-5305D01*
X-149133Y-5315D01*
X-149120Y-5338D01*
X-149101Y-5361D01*
X-149078Y-5398D01*
X-149050Y-5440D01*
X-149027Y-5486D01*
X-149000Y-5546D01*
X-148967Y-5606D01*
X-148944Y-5675D01*
X-148916Y-5754D01*
X-148893Y-5837D01*
X-148875Y-5925D01*
X-148861Y-6022D01*
X-148852Y-6123D01*
X-148847Y-6234D01*
Y-6303D01*
X-148852Y-6340D01*
X-148856Y-6382D01*
Y-6428D01*
X-148865Y-6479D01*
X-148879Y-6590D01*
X-148902Y-6710D01*
X-148935Y-6835D01*
X-148981Y-6950D01*
Y-6955D01*
X-148986Y-6964D01*
X-148995Y-6978D01*
X-149009Y-7001D01*
X-149036Y-7052D01*
X-149083Y-7117D01*
X-149133Y-7186D01*
X-149203Y-7255D01*
X-149277Y-7320D01*
X-149364Y-7375D01*
X-149369D01*
X-149374Y-7380D01*
X-149388Y-7384D01*
X-149411Y-7394D01*
X-149434Y-7403D01*
X-149461Y-7412D01*
X-149531Y-7435D01*
X-149614Y-7458D01*
X-149711Y-7477D01*
X-149817Y-7486D01*
X-149933Y-7491D01*
X-149970Y-6862D01*
X-149965D01*
X-149956D01*
X-149942D01*
X-149924Y-6858D01*
X-149868Y-6853D01*
X-149808Y-6844D01*
X-149739Y-6835D01*
X-149669Y-6816D01*
X-149609Y-6793D01*
X-149563Y-6761D01*
X-149554Y-6752D01*
X-149535Y-6733D01*
X-149512Y-6696D01*
X-149480Y-6641D01*
X-149466Y-6608D01*
X-149448Y-6567D01*
X-149434Y-6525D01*
X-149425Y-6474D01*
X-149411Y-6424D01*
X-149406Y-6363D01*
X-149397Y-6299D01*
Y-6179D01*
X-149401Y-6151D01*
Y-6119D01*
X-149411Y-6049D01*
X-149425Y-5975D01*
X-149448Y-5897D01*
X-149475Y-5823D01*
X-149512Y-5763D01*
X-149517Y-5758D01*
X-149531Y-5740D01*
X-149558Y-5717D01*
X-149591Y-5689D01*
X-149632Y-5661D01*
X-149679Y-5638D01*
X-149729Y-5620D01*
X-149790Y-5615D01*
X-149794D01*
X-149813D01*
X-149840Y-5620D01*
X-149873Y-5629D01*
X-149910Y-5643D01*
X-149951Y-5666D01*
X-149993Y-5694D01*
X-150030Y-5735D01*
X-150034Y-5740D01*
X-150044Y-5754D01*
X-150062Y-5781D01*
X-150085Y-5823D01*
X-150104Y-5851D01*
X-150122Y-5883D01*
X-150141Y-5920D01*
X-150159Y-5962D01*
X-150182Y-6012D01*
X-150210Y-6063D01*
X-150238Y-6128D01*
X-150265Y-6193D01*
Y-6197D01*
X-150275Y-6211D01*
X-150279Y-6230D01*
X-150293Y-6253D01*
X-150307Y-6285D01*
X-150321Y-6322D01*
X-150358Y-6400D01*
X-150404Y-6488D01*
X-150445Y-6581D01*
X-150492Y-6664D01*
X-150515Y-6705D01*
X-150533Y-6738D01*
X-150538Y-6747D01*
X-150552Y-6765D01*
X-150580Y-6798D01*
X-150612Y-6835D01*
X-150649Y-6876D01*
X-150700Y-6922D01*
X-150755Y-6964D01*
X-150815Y-7006D01*
X-150824Y-7010D01*
X-150847Y-7019D01*
X-150884Y-7038D01*
X-150931Y-7052D01*
X-150991Y-7070D01*
X-151060Y-7089D01*
X-151138Y-7098D01*
X-151222Y-7103D01*
X-151226D01*
X-151240D01*
X-151263D01*
X-151291Y-7098D01*
X-151323Y-7093D01*
X-151365Y-7089D01*
X-151411Y-7080D01*
X-151457Y-7066D01*
X-151564Y-7033D01*
X-151619Y-7006D01*
X-151679Y-6978D01*
X-151734Y-6946D01*
X-151790Y-6909D01*
X-151845Y-6862D01*
X-151896Y-6812D01*
X-151901Y-6807D01*
X-151910Y-6798D01*
X-151919Y-6779D01*
X-151938Y-6756D01*
X-151956Y-6729D01*
X-151979Y-6691D01*
X-152007Y-6645D01*
X-152030Y-6594D01*
X-152053Y-6539D01*
X-152081Y-6479D01*
X-152104Y-6410D01*
X-152123Y-6331D01*
X-152141Y-6248D01*
X-152155Y-6160D01*
X-152160Y-6068D01*
X-152164Y-5966D01*
Y-5911D01*
X-152160Y-5874D01*
X-152155Y-5828D01*
X-152150Y-5772D01*
X-152141Y-5712D01*
X-152132Y-5647D01*
X-152100Y-5504D01*
X-152076Y-5430D01*
X-152053Y-5361D01*
X-152021Y-5287D01*
X-151984Y-5218D01*
X-151942Y-5153D01*
X-151896Y-5093D01*
X-151892Y-5088D01*
X-151882Y-5079D01*
X-151868Y-5065D01*
X-151850Y-5042D01*
X-151822Y-5019D01*
X-151790Y-4991D01*
X-151753Y-4964D01*
X-151711Y-4936D01*
X-151661Y-4904D01*
X-151610Y-4871D01*
X-151550Y-4843D01*
X-151490Y-4816D01*
X-151420Y-4793D01*
X-151351Y-4774D01*
X-151272Y-4760D01*
X-151194Y-4751D01*
X-151166Y-5379D01*
D02*
G37*
G36*
X-148907Y46146D02*
Y45541D01*
X-151055Y44673D01*
X-148907Y44220D01*
Y43615D01*
X-152104Y44284D01*
Y44890D01*
X-149965Y45758D01*
X-152104Y46211D01*
Y46816D01*
X-148907Y46146D01*
D02*
G37*
G36*
Y42575D02*
X-149614Y42469D01*
Y41203D01*
X-148907Y40819D01*
Y40145D01*
X-152104Y41942D01*
Y42686D01*
X-148907Y43199D01*
Y42575D01*
D02*
G37*
G36*
X-151065Y39669D02*
X-151069D01*
X-151078Y39665D01*
X-151092D01*
X-151111Y39660D01*
X-151157Y39646D01*
X-151217Y39623D01*
X-151286Y39595D01*
X-151351Y39558D01*
X-151416Y39517D01*
X-151467Y39466D01*
X-151471Y39461D01*
X-151485Y39438D01*
X-151508Y39406D01*
X-151531Y39360D01*
X-151554Y39304D01*
X-151577Y39235D01*
X-151591Y39156D01*
X-151596Y39068D01*
Y39041D01*
X-151591Y39022D01*
X-151587Y38971D01*
X-151573Y38902D01*
X-151554Y38824D01*
X-151522Y38741D01*
X-151480Y38648D01*
X-151425Y38560D01*
Y38556D01*
X-151416Y38551D01*
X-151393Y38523D01*
X-151356Y38477D01*
X-151296Y38426D01*
X-151226Y38366D01*
X-151134Y38302D01*
X-151028Y38237D01*
X-150903Y38181D01*
X-150898D01*
X-150889Y38177D01*
X-150871Y38168D01*
X-150843Y38158D01*
X-150811Y38149D01*
X-150774Y38140D01*
X-150732Y38126D01*
X-150686Y38112D01*
X-150580Y38089D01*
X-150459Y38066D01*
X-150330Y38048D01*
X-150201Y38043D01*
X-150196D01*
X-150182D01*
X-150164D01*
X-150136Y38048D01*
X-150104D01*
X-150067Y38052D01*
X-149984Y38066D01*
X-149887Y38089D01*
X-149790Y38117D01*
X-149692Y38163D01*
X-149605Y38223D01*
X-149595Y38232D01*
X-149572Y38255D01*
X-149540Y38297D01*
X-149503Y38348D01*
X-149461Y38417D01*
X-149429Y38496D01*
X-149406Y38583D01*
X-149401Y38630D01*
X-149397Y38680D01*
Y38704D01*
X-149401Y38722D01*
X-149406Y38773D01*
X-149415Y38833D01*
X-149438Y38907D01*
X-149466Y38985D01*
X-149503Y39064D01*
X-149558Y39147D01*
Y39152D01*
X-149568Y39156D01*
X-149591Y39184D01*
X-149628Y39221D01*
X-149683Y39267D01*
X-149752Y39318D01*
X-149836Y39373D01*
X-149937Y39420D01*
X-150053Y39466D01*
X-149951Y40131D01*
X-149947D01*
X-149928Y40122D01*
X-149900Y40113D01*
X-149863Y40094D01*
X-149817Y40071D01*
X-149766Y40048D01*
X-149706Y40020D01*
X-149646Y39983D01*
X-149512Y39900D01*
X-149378Y39799D01*
X-149244Y39683D01*
X-149184Y39614D01*
X-149129Y39544D01*
X-149124Y39540D01*
X-149115Y39526D01*
X-149101Y39507D01*
X-149087Y39475D01*
X-149064Y39438D01*
X-149041Y39397D01*
X-149013Y39341D01*
X-148990Y39286D01*
X-148962Y39221D01*
X-148935Y39152D01*
X-148912Y39078D01*
X-148893Y38999D01*
X-148875Y38916D01*
X-148861Y38828D01*
X-148852Y38736D01*
X-148847Y38639D01*
Y38611D01*
X-148852Y38583D01*
Y38542D01*
X-148856Y38491D01*
X-148865Y38436D01*
X-148875Y38371D01*
X-148893Y38306D01*
X-148912Y38232D01*
X-148935Y38158D01*
X-148962Y38080D01*
X-148995Y38006D01*
X-149036Y37927D01*
X-149083Y37854D01*
X-149138Y37784D01*
X-149198Y37720D01*
X-149203Y37715D01*
X-149217Y37706D01*
X-149235Y37687D01*
X-149263Y37669D01*
X-149300Y37646D01*
X-149346Y37618D01*
X-149401Y37585D01*
X-149461Y37558D01*
X-149531Y37525D01*
X-149605Y37493D01*
X-149692Y37465D01*
X-149785Y37442D01*
X-149882Y37424D01*
X-149993Y37405D01*
X-150104Y37396D01*
X-150228Y37391D01*
X-150233D01*
X-150251D01*
X-150284D01*
X-150321Y37396D01*
X-150367D01*
X-150427Y37405D01*
X-150487Y37410D01*
X-150556Y37419D01*
X-150630Y37428D01*
X-150714Y37447D01*
X-150880Y37484D01*
X-151055Y37539D01*
X-151138Y37572D01*
X-151226Y37609D01*
X-151231Y37613D01*
X-151245Y37618D01*
X-151268Y37632D01*
X-151300Y37650D01*
X-151337Y37673D01*
X-151383Y37701D01*
X-151430Y37733D01*
X-151485Y37770D01*
X-151596Y37858D01*
X-151711Y37960D01*
X-151822Y38085D01*
X-151873Y38154D01*
X-151919Y38223D01*
X-151924Y38228D01*
X-151928Y38242D01*
X-151942Y38265D01*
X-151956Y38292D01*
X-151975Y38329D01*
X-151998Y38371D01*
X-152021Y38422D01*
X-152044Y38477D01*
X-152062Y38537D01*
X-152086Y38607D01*
X-152127Y38750D01*
X-152155Y38907D01*
X-152160Y38990D01*
X-152164Y39078D01*
Y39129D01*
X-152160Y39166D01*
X-152155Y39207D01*
X-152150Y39258D01*
X-152141Y39318D01*
X-152127Y39378D01*
X-152095Y39512D01*
X-152072Y39581D01*
X-152044Y39651D01*
X-152012Y39725D01*
X-151975Y39789D01*
X-151933Y39859D01*
X-151882Y39919D01*
X-151878Y39923D01*
X-151868Y39933D01*
X-151855Y39946D01*
X-151831Y39969D01*
X-151804Y39992D01*
X-151771Y40025D01*
X-151730Y40053D01*
X-151684Y40085D01*
X-151633Y40117D01*
X-151577Y40150D01*
X-151513Y40182D01*
X-151448Y40214D01*
X-151374Y40242D01*
X-151296Y40265D01*
X-151212Y40284D01*
X-151125Y40297D01*
X-151065Y39669D01*
D02*
G37*
G36*
X-109316Y82325D02*
X-109269Y82320D01*
X-109214Y82316D01*
X-109154Y82306D01*
X-109089Y82297D01*
X-108946Y82265D01*
X-108872Y82242D01*
X-108803Y82219D01*
X-108729Y82186D01*
X-108659Y82149D01*
X-108595Y82108D01*
X-108535Y82061D01*
X-108530Y82057D01*
X-108521Y82048D01*
X-108507Y82034D01*
X-108484Y82015D01*
X-108461Y81988D01*
X-108433Y81955D01*
X-108405Y81918D01*
X-108378Y81877D01*
X-108345Y81826D01*
X-108313Y81775D01*
X-108285Y81715D01*
X-108257Y81655D01*
X-108234Y81586D01*
X-108216Y81516D01*
X-108202Y81438D01*
X-108193Y81359D01*
X-108821Y81332D01*
Y81336D01*
Y81341D01*
X-108826Y81368D01*
X-108840Y81410D01*
X-108853Y81461D01*
X-108877Y81516D01*
X-108904Y81576D01*
X-108941Y81632D01*
X-108992Y81683D01*
X-108997Y81687D01*
X-109020Y81701D01*
X-109052Y81724D01*
X-109098Y81747D01*
X-109154Y81766D01*
X-109228Y81789D01*
X-109316Y81803D01*
X-109413Y81807D01*
X-109459D01*
X-109505Y81803D01*
X-109565Y81794D01*
X-109625Y81784D01*
X-109690Y81766D01*
X-109750Y81743D01*
X-109801Y81710D01*
X-109805Y81706D01*
X-109819Y81692D01*
X-109837Y81673D01*
X-109856Y81646D01*
X-109879Y81609D01*
X-109898Y81567D01*
X-109911Y81516D01*
X-109916Y81466D01*
Y81461D01*
Y81442D01*
X-109911Y81419D01*
X-109902Y81387D01*
X-109888Y81350D01*
X-109870Y81313D01*
X-109847Y81276D01*
X-109810Y81239D01*
X-109805Y81235D01*
X-109787Y81221D01*
X-109759Y81202D01*
X-109713Y81174D01*
X-109680Y81156D01*
X-109648Y81138D01*
X-109611Y81114D01*
X-109565Y81091D01*
X-109519Y81068D01*
X-109463Y81041D01*
X-109403Y81013D01*
X-109339Y80985D01*
X-109334Y80980D01*
X-109316Y80976D01*
X-109288Y80962D01*
X-109251Y80948D01*
X-109205Y80925D01*
X-109154Y80902D01*
X-109043Y80847D01*
X-108923Y80786D01*
X-108807Y80722D01*
X-108752Y80689D01*
X-108706Y80657D01*
X-108664Y80625D01*
X-108632Y80597D01*
X-108627Y80592D01*
X-108623Y80588D01*
X-108609Y80574D01*
X-108595Y80560D01*
X-108558Y80509D01*
X-108516Y80445D01*
X-108475Y80366D01*
X-108442Y80269D01*
X-108415Y80158D01*
X-108410Y80103D01*
X-108405Y80038D01*
Y80033D01*
Y80019D01*
Y79996D01*
X-108410Y79969D01*
X-108415Y79932D01*
X-108424Y79886D01*
X-108433Y79839D01*
X-108447Y79789D01*
X-108465Y79733D01*
X-108489Y79673D01*
X-108516Y79613D01*
X-108548Y79553D01*
X-108586Y79493D01*
X-108632Y79428D01*
X-108683Y79373D01*
X-108743Y79313D01*
X-108747Y79308D01*
X-108756Y79299D01*
X-108780Y79285D01*
X-108803Y79266D01*
X-108840Y79243D01*
X-108881Y79216D01*
X-108927Y79193D01*
X-108987Y79165D01*
X-109047Y79132D01*
X-109117Y79109D01*
X-109195Y79082D01*
X-109279Y79058D01*
X-109366Y79040D01*
X-109463Y79026D01*
X-109565Y79017D01*
X-109676Y79012D01*
X-109745D01*
X-109782Y79017D01*
X-109824Y79022D01*
X-109870D01*
X-109921Y79031D01*
X-110032Y79045D01*
X-110152Y79068D01*
X-110276Y79100D01*
X-110392Y79146D01*
X-110397D01*
X-110406Y79151D01*
X-110420Y79160D01*
X-110443Y79174D01*
X-110494Y79202D01*
X-110558Y79248D01*
X-110627Y79299D01*
X-110697Y79368D01*
X-110761Y79442D01*
X-110817Y79530D01*
Y79534D01*
X-110822Y79539D01*
X-110826Y79553D01*
X-110835Y79576D01*
X-110845Y79599D01*
X-110854Y79627D01*
X-110877Y79696D01*
X-110900Y79779D01*
X-110919Y79876D01*
X-110928Y79983D01*
X-110933Y80098D01*
X-110304Y80135D01*
Y80130D01*
Y80121D01*
Y80107D01*
X-110300Y80089D01*
X-110295Y80033D01*
X-110286Y79973D01*
X-110276Y79904D01*
X-110258Y79835D01*
X-110235Y79775D01*
X-110203Y79728D01*
X-110193Y79719D01*
X-110175Y79701D01*
X-110138Y79678D01*
X-110082Y79645D01*
X-110050Y79631D01*
X-110009Y79613D01*
X-109967Y79599D01*
X-109916Y79590D01*
X-109865Y79576D01*
X-109805Y79571D01*
X-109740Y79562D01*
X-109620D01*
X-109593Y79567D01*
X-109560D01*
X-109491Y79576D01*
X-109417Y79590D01*
X-109339Y79613D01*
X-109265Y79641D01*
X-109205Y79678D01*
X-109200Y79682D01*
X-109181Y79696D01*
X-109158Y79724D01*
X-109131Y79756D01*
X-109103Y79798D01*
X-109080Y79844D01*
X-109061Y79895D01*
X-109057Y79955D01*
Y79959D01*
Y79978D01*
X-109061Y80006D01*
X-109071Y80038D01*
X-109084Y80075D01*
X-109108Y80116D01*
X-109135Y80158D01*
X-109177Y80195D01*
X-109181Y80200D01*
X-109195Y80209D01*
X-109223Y80227D01*
X-109265Y80251D01*
X-109292Y80269D01*
X-109325Y80287D01*
X-109362Y80306D01*
X-109403Y80324D01*
X-109454Y80348D01*
X-109505Y80375D01*
X-109570Y80403D01*
X-109634Y80431D01*
X-109639D01*
X-109653Y80440D01*
X-109671Y80445D01*
X-109694Y80458D01*
X-109727Y80472D01*
X-109764Y80486D01*
X-109842Y80523D01*
X-109930Y80569D01*
X-110022Y80611D01*
X-110106Y80657D01*
X-110147Y80680D01*
X-110179Y80699D01*
X-110189Y80703D01*
X-110207Y80717D01*
X-110240Y80745D01*
X-110276Y80777D01*
X-110318Y80814D01*
X-110364Y80865D01*
X-110406Y80920D01*
X-110447Y80980D01*
X-110452Y80990D01*
X-110461Y81013D01*
X-110480Y81050D01*
X-110494Y81096D01*
X-110512Y81156D01*
X-110530Y81225D01*
X-110540Y81304D01*
X-110544Y81387D01*
Y81392D01*
Y81406D01*
Y81429D01*
X-110540Y81456D01*
X-110535Y81489D01*
X-110530Y81530D01*
X-110521Y81576D01*
X-110507Y81623D01*
X-110475Y81729D01*
X-110447Y81784D01*
X-110420Y81844D01*
X-110387Y81900D01*
X-110350Y81955D01*
X-110304Y82011D01*
X-110253Y82061D01*
X-110249Y82066D01*
X-110240Y82075D01*
X-110221Y82085D01*
X-110198Y82103D01*
X-110170Y82122D01*
X-110133Y82145D01*
X-110087Y82172D01*
X-110036Y82196D01*
X-109981Y82219D01*
X-109921Y82246D01*
X-109851Y82269D01*
X-109773Y82288D01*
X-109690Y82306D01*
X-109602Y82320D01*
X-109510Y82325D01*
X-109408Y82329D01*
X-109352D01*
X-109316Y82325D01*
D02*
G37*
G36*
X-111293Y80458D02*
Y80454D01*
X-111297Y80435D01*
X-111302Y80408D01*
X-111311Y80371D01*
X-111325Y80324D01*
X-111339Y80274D01*
X-111353Y80218D01*
X-111371Y80158D01*
X-111408Y80029D01*
X-111454Y79890D01*
X-111510Y79761D01*
X-111538Y79701D01*
X-111565Y79645D01*
Y79641D01*
X-111575Y79631D01*
X-111584Y79618D01*
X-111593Y79599D01*
X-111630Y79548D01*
X-111686Y79484D01*
X-111750Y79410D01*
X-111833Y79336D01*
X-111930Y79257D01*
X-112041Y79188D01*
X-112046D01*
X-112055Y79179D01*
X-112074Y79174D01*
X-112097Y79160D01*
X-112129Y79146D01*
X-112166Y79132D01*
X-112208Y79119D01*
X-112258Y79100D01*
X-112314Y79082D01*
X-112374Y79068D01*
X-112439Y79054D01*
X-112508Y79040D01*
X-112582Y79031D01*
X-112665Y79022D01*
X-112836Y79012D01*
X-112891D01*
X-112933Y79017D01*
X-112979Y79022D01*
X-113035Y79026D01*
X-113099Y79035D01*
X-113164Y79045D01*
X-113307Y79077D01*
X-113386Y79100D01*
X-113460Y79128D01*
X-113529Y79160D01*
X-113598Y79197D01*
X-113668Y79239D01*
X-113728Y79285D01*
X-113732Y79290D01*
X-113741Y79299D01*
X-113755Y79313D01*
X-113774Y79336D01*
X-113797Y79363D01*
X-113825Y79396D01*
X-113852Y79433D01*
X-113880Y79479D01*
X-113908Y79525D01*
X-113935Y79581D01*
X-113963Y79636D01*
X-113986Y79701D01*
X-114005Y79765D01*
X-114019Y79839D01*
X-114028Y79913D01*
X-114032Y79992D01*
Y79996D01*
Y80006D01*
X-114028Y80024D01*
Y80047D01*
X-114023Y80080D01*
X-114019Y80112D01*
X-114009Y80186D01*
Y80190D01*
X-114005Y80200D01*
Y80227D01*
X-113996Y80260D01*
X-113986Y80315D01*
X-113982Y80348D01*
X-113972Y80384D01*
X-113963Y80426D01*
X-113954Y80472D01*
X-113945Y80523D01*
X-113931Y80583D01*
X-113552Y82269D01*
X-112901D01*
X-113279Y80528D01*
X-113376Y80103D01*
Y80098D01*
Y80093D01*
X-113381Y80066D01*
X-113386Y80019D01*
X-113395Y79964D01*
Y79955D01*
X-113390Y79936D01*
X-113386Y79904D01*
X-113376Y79862D01*
X-113358Y79816D01*
X-113330Y79765D01*
X-113298Y79719D01*
X-113247Y79673D01*
X-113238Y79668D01*
X-113219Y79655D01*
X-113182Y79636D01*
X-113136Y79618D01*
X-113072Y79599D01*
X-112998Y79581D01*
X-112910Y79567D01*
X-112808Y79562D01*
X-112767D01*
X-112716Y79567D01*
X-112656Y79571D01*
X-112591Y79585D01*
X-112522Y79599D01*
X-112448Y79622D01*
X-112383Y79650D01*
X-112374Y79655D01*
X-112355Y79668D01*
X-112323Y79687D01*
X-112286Y79715D01*
X-112244Y79751D01*
X-112198Y79798D01*
X-112157Y79853D01*
X-112120Y79913D01*
X-112115Y79922D01*
X-112106Y79950D01*
X-112097Y79969D01*
X-112088Y79992D01*
X-112074Y80024D01*
X-112060Y80056D01*
X-112050Y80098D01*
X-112032Y80140D01*
X-112018Y80190D01*
X-112004Y80246D01*
X-111986Y80306D01*
X-111967Y80371D01*
X-111953Y80440D01*
X-111935Y80518D01*
X-111565Y82269D01*
X-110909D01*
X-111293Y80458D01*
D02*
G37*
G36*
X-98726Y81734D02*
X-99660D01*
X-100214Y79072D01*
X-100870D01*
X-100316Y81734D01*
X-101249D01*
X-101143Y82269D01*
X-98620D01*
X-98726Y81734D01*
D02*
G37*
G36*
X-102603Y82265D02*
X-102519Y82260D01*
X-102427Y82251D01*
X-102335Y82237D01*
X-102242Y82219D01*
X-102159Y82191D01*
X-102155D01*
X-102150Y82186D01*
X-102127Y82177D01*
X-102090Y82158D01*
X-102044Y82131D01*
X-101988Y82089D01*
X-101933Y82043D01*
X-101882Y81983D01*
X-101831Y81914D01*
X-101826Y81904D01*
X-101813Y81877D01*
X-101789Y81835D01*
X-101766Y81780D01*
X-101743Y81710D01*
X-101720Y81627D01*
X-101706Y81530D01*
X-101702Y81429D01*
Y81424D01*
Y81410D01*
Y81392D01*
X-101706Y81359D01*
X-101711Y81327D01*
X-101716Y81285D01*
X-101720Y81239D01*
X-101734Y81193D01*
X-101762Y81087D01*
X-101803Y80971D01*
X-101831Y80916D01*
X-101863Y80860D01*
X-101905Y80805D01*
X-101947Y80754D01*
X-101951Y80749D01*
X-101956Y80745D01*
X-101974Y80731D01*
X-101993Y80712D01*
X-102021Y80689D01*
X-102048Y80666D01*
X-102085Y80643D01*
X-102131Y80615D01*
X-102178Y80588D01*
X-102233Y80560D01*
X-102293Y80532D01*
X-102362Y80505D01*
X-102432Y80481D01*
X-102510Y80463D01*
X-102598Y80445D01*
X-102686Y80431D01*
X-102681Y80426D01*
X-102663Y80412D01*
X-102640Y80384D01*
X-102607Y80352D01*
X-102575Y80306D01*
X-102533Y80255D01*
X-102492Y80195D01*
X-102450Y80130D01*
X-102445Y80126D01*
X-102441Y80112D01*
X-102427Y80093D01*
X-102413Y80061D01*
X-102390Y80024D01*
X-102367Y79978D01*
X-102339Y79922D01*
X-102307Y79858D01*
X-102270Y79789D01*
X-102233Y79710D01*
X-102191Y79622D01*
X-102150Y79525D01*
X-102104Y79423D01*
X-102057Y79313D01*
X-102007Y79197D01*
X-101956Y79072D01*
X-102663D01*
Y79077D01*
X-102667Y79086D01*
X-102672Y79100D01*
X-102681Y79123D01*
X-102690Y79151D01*
X-102704Y79188D01*
X-102718Y79229D01*
X-102737Y79280D01*
X-102760Y79336D01*
X-102783Y79396D01*
X-102811Y79465D01*
X-102843Y79539D01*
X-102875Y79622D01*
X-102912Y79715D01*
X-102954Y79812D01*
X-103000Y79913D01*
Y79918D01*
X-103005Y79927D01*
X-103014Y79941D01*
X-103023Y79964D01*
X-103051Y80015D01*
X-103088Y80080D01*
X-103129Y80149D01*
X-103175Y80218D01*
X-103231Y80283D01*
X-103259Y80306D01*
X-103286Y80329D01*
X-103291Y80334D01*
X-103305Y80338D01*
X-103328Y80348D01*
X-103360Y80361D01*
X-103407Y80375D01*
X-103462Y80384D01*
X-103531Y80389D01*
X-103614Y80394D01*
X-103882D01*
X-104159Y79072D01*
X-104811D01*
X-104141Y82269D01*
X-102635D01*
X-102603Y82265D01*
D02*
G37*
G36*
X-105227Y79072D02*
X-105851D01*
X-105957Y79779D01*
X-107223D01*
X-107606Y79072D01*
X-108281D01*
X-106483Y82269D01*
X-105740D01*
X-105227Y79072D01*
D02*
G37*
%LPC*%
G36*
X-150150Y42390D02*
X-151434Y42201D01*
X-150150Y41499D01*
Y42390D01*
D02*
G37*
G36*
X-102778Y81734D02*
X-103601D01*
X-103781Y80874D01*
X-103300D01*
X-103254Y80879D01*
X-103143Y80883D01*
X-103028Y80888D01*
X-102912Y80902D01*
X-102861Y80906D01*
X-102811Y80916D01*
X-102769Y80925D01*
X-102732Y80934D01*
X-102723Y80939D01*
X-102704Y80948D01*
X-102672Y80962D01*
X-102630Y80985D01*
X-102589Y81013D01*
X-102542Y81045D01*
X-102501Y81087D01*
X-102459Y81133D01*
X-102455Y81138D01*
X-102445Y81156D01*
X-102427Y81184D01*
X-102409Y81221D01*
X-102390Y81262D01*
X-102372Y81309D01*
X-102362Y81364D01*
X-102358Y81419D01*
Y81429D01*
Y81447D01*
X-102367Y81479D01*
X-102376Y81516D01*
X-102395Y81558D01*
X-102418Y81599D01*
X-102455Y81641D01*
X-102501Y81678D01*
X-102506Y81683D01*
X-102519Y81687D01*
X-102542Y81696D01*
X-102579Y81706D01*
X-102630Y81715D01*
X-102700Y81724D01*
X-102778Y81734D01*
D02*
G37*
G36*
X-106225Y81599D02*
X-106927Y80315D01*
X-106035D01*
X-106225Y81599D01*
D02*
G37*
%LPD*%
G54D10*
X-40200Y90500D02*
X-40800D01*
X-40200D01*
X34559Y65580D02*
X33959D01*
X34559D01*
X-86394Y-9067D02*
X-87144Y-8634D01*
Y-9500D01*
X-86394Y-9067D01*
X-99251Y88500D02*
Y95000D01*
X-93251D01*
X-93251Y88500D01*
X-99251D02*
X-93251D01*
X-88197D02*
X-82197D01*
X-88197D02*
Y95000D01*
X-82197D01*
Y88500D02*
Y95000D01*
X-110476Y100272D02*
X-69503D01*
X-69397Y83100D02*
Y84500D01*
X-79897Y83100D02*
X-69397D01*
X-111451D02*
X-100951D01*
X-111451D02*
Y84500D01*
X-165194Y1103D02*
X-158695D01*
X-165194D02*
Y7103D01*
X-158695D01*
Y1103D02*
Y7103D01*
Y12157D02*
X-158695Y18157D01*
X-165194Y12157D02*
X-158695Y12157D01*
X-165194Y12157D02*
Y18157D01*
X-158695D01*
X-170466Y-10122D02*
Y30851D01*
X-154694Y30957D02*
X-153295D01*
Y20457D02*
Y30957D01*
Y-11097D02*
Y-597D01*
X-154694Y-11097D02*
X-153295Y-11097D01*
X-18952Y58366D02*
X-14941D01*
X-34233D02*
X-28646D01*
X-34233Y51796D02*
Y58366D01*
Y16634D02*
Y23204D01*
Y16634D02*
X-28646D01*
X-18952D02*
X-14941D01*
Y58366D01*
X-165194Y47159D02*
X-158695D01*
X-165194D02*
Y53159D01*
X-158695Y53159D01*
Y47159D02*
Y53159D01*
Y58213D02*
Y64213D01*
X-165194Y58213D02*
X-158695D01*
X-165194D02*
Y64213D01*
X-158695D01*
X-170466Y35934D02*
Y76907D01*
X-154694Y77013D02*
X-153295D01*
Y66513D02*
Y77013D01*
Y34959D02*
Y45459D01*
X-154694Y34959D02*
X-153295D01*
X-59Y16634D02*
X3952D01*
X13646D02*
X19232D01*
Y23204D01*
Y51796D02*
Y58366D01*
X13646D02*
X19232D01*
X-59D02*
X3952D01*
X-59Y16634D02*
Y58366D01*
G54D11*
X-42460Y85100D02*
D03*
X39759Y63521D02*
D03*
G54D12*
X-77109Y79500D02*
X-77653Y80249D01*
X-78534Y79963D01*
Y79037D01*
X-77653Y78751D01*
X-77109Y79500D01*
X-148907Y22457D02*
X-149451Y23206D01*
X-150331Y22920D01*
Y21994D01*
X-149451Y21708D01*
X-148907Y22457D01*
X-148907Y68513D02*
X-149451Y69262D01*
X-150331Y68976D01*
Y68050D01*
X-149451Y67764D01*
X-148907Y68513D01*
G54D13*
X-94900Y29812D02*
X-95817Y29362D01*
X-96040Y28364D01*
X-95401Y27566D01*
X-94378D01*
X-93739Y28364D01*
X-93962Y29362D01*
X-94880Y29812D01*
G54D14*
X-99230Y19082D02*
X-99815Y18489D01*
X-99225Y17901D01*
X-98634Y18489D01*
X-99220Y19082D01*
G54D15*
X-122195Y-901D02*
X-121766Y-1784D01*
X-121148Y-2548D01*
X-120375Y-3152D01*
X-119485Y-3567D01*
X-118524Y-3771D01*
X-117543Y-3753D01*
X-116590Y-3514D01*
X-115716Y-3067D01*
X-114965Y-2435D01*
X-114375Y-1650D01*
X-113978Y-752D01*
X-114028Y4957D02*
X-114457Y5840D01*
X-115075Y6603D01*
X-115849Y7208D01*
X-116739Y7623D01*
X-117699Y7827D01*
X-118681Y7809D01*
X-119633Y7570D01*
X-120508Y7123D01*
X-121259Y6491D01*
X-121848Y5705D01*
X-122245Y4808D01*
X-40595Y81400D02*
Y86600D01*
X-52406Y81400D02*
Y86600D01*
Y81400D02*
X-40595D01*
X-52406Y86600D02*
X-40595Y86600D01*
X38159Y65486D02*
X43359D01*
X38159Y53675D02*
X43359D01*
Y65486D01*
X38159Y53675D02*
Y65486D01*
X-124411Y10319D02*
X-124411Y-6216D01*
X-111812D02*
Y10319D01*
X-120671Y10319D02*
X-115553D01*
X-120671Y-6216D02*
X-115553D01*
X-113978Y-752D02*
Y4907D01*
X-122245Y4808D02*
X-122245Y-851D01*
G54D16*
X-115350Y65057D02*
X-115922Y64248D01*
X-116232Y63308D01*
X-116253Y62317D01*
X-115982Y61365D01*
X-115444Y60533D01*
X-134740Y57281D02*
X-134740Y68502D01*
X-115350D01*
Y65155D02*
Y68502D01*
X-134740Y57281D02*
X-115448D01*
X-115448Y60431D01*
G54D17*
X-116334Y67321D02*
D03*
G54D18*
X49326Y30635D02*
X48538D01*
X49326D01*
X-14500Y65301D02*
X-1000D01*
X-14500Y8301D02*
Y65301D01*
Y8301D02*
X-1000D01*
Y65301D01*
X-98642Y24990D02*
Y58454D01*
Y24990D02*
X-65177D01*
Y58454D01*
X-98642D02*
X-65177D01*
X51595Y45358D02*
X55532D01*
X51595Y44039D02*
Y45358D01*
Y27642D02*
Y28961D01*
Y27642D02*
X55532D01*
X59469Y45358D02*
X63406D01*
Y44374D02*
Y45358D01*
X59469Y27642D02*
X63406D01*
X63406Y28961D01*
G54D19*
X-135640Y-12326D02*
X-135140D01*
X-135840Y-12426D02*
X-134940D01*
X-136040Y-12526D02*
X-134740D01*
X-136140Y-12626D02*
X-134640D01*
X-136340Y-12726D02*
X-134440D01*
X-136540Y-12826D02*
X-134240D01*
X-136640Y-12926D02*
X-134140D01*
X-136840Y-13026D02*
X-133940D01*
X-137040Y-13126D02*
X-133940D01*
X-137240Y-13226D02*
X-134040D01*
X-137340Y-13326D02*
X-134240D01*
X-137540Y-13426D02*
X-134440D01*
X-137740Y-13526D02*
X-134540D01*
X-137940Y-13626D02*
X-134740D01*
X-138040Y-13726D02*
X-134940D01*
X-138240Y-13826D02*
X-135140D01*
X-138440Y-13926D02*
X-135240D01*
X-132640D02*
X-132340D01*
X-138640Y-14026D02*
X-135440D01*
X-132840D02*
X-132140D01*
X-138740Y-14126D02*
X-135640D01*
X-132940D02*
X-132040D01*
X-138940Y-14226D02*
X-135740D01*
X-133140D02*
X-131840D01*
X-139140Y-14326D02*
X-135940D01*
X-133340D02*
X-131640D01*
X-139340Y-14426D02*
X-136140D01*
X-133540D02*
X-131440D01*
X-139440Y-14526D02*
X-136340D01*
X-133640D02*
X-131340D01*
X-139640Y-14626D02*
X-136440D01*
X-133840D02*
X-131140D01*
X-139840Y-14726D02*
X-136640D01*
X-134040D02*
X-130940D01*
X-139940Y-14826D02*
X-136840D01*
X-134140D02*
X-130840D01*
X-140140Y-14926D02*
X-137040D01*
X-134340D02*
X-130640D01*
X-140340Y-15026D02*
X-137140D01*
X-134540D02*
X-130440D01*
X-140540Y-15126D02*
X-137340D01*
X-134740D02*
X-130240D01*
X-140640Y-15226D02*
X-137540D01*
X-134840D02*
X-130140D01*
X-140840Y-15326D02*
X-137740D01*
X-135040D02*
X-129940D01*
X-141040Y-15426D02*
X-137840D01*
X-135240D02*
X-129740D01*
X-141240Y-15526D02*
X-138040D01*
X-135440D02*
X-129540D01*
X-141340Y-15626D02*
X-138240D01*
X-135540D02*
X-129440D01*
X-141540Y-15726D02*
X-138440D01*
X-135740D02*
X-132540D01*
X-132340D02*
X-129240D01*
X-141740Y-15826D02*
X-138540D01*
X-135940D02*
X-132740D01*
X-132240D02*
X-129040D01*
X-141940Y-15926D02*
X-138740D01*
X-136140D02*
X-132940D01*
X-132040D02*
X-128840D01*
X-142040Y-16026D02*
X-138940D01*
X-136240D02*
X-133140D01*
X-131840D02*
X-128740D01*
X-142240Y-16126D02*
X-139040D01*
X-136440D02*
X-133240D01*
X-131640D02*
X-128540D01*
X-142440Y-16226D02*
X-139240D01*
X-136640D02*
X-133440D01*
X-131540D02*
X-128340D01*
X-142540Y-16326D02*
X-139440D01*
X-136740D02*
X-133640D01*
X-131340D02*
X-128140D01*
X-124140D02*
X-122440D01*
X-106640D02*
X-104940D01*
X-142640Y-16426D02*
X-139640D01*
X-136840D02*
X-133840D01*
X-131140D02*
X-128140D01*
X-124540D02*
X-122140D01*
X-120540D02*
X-115640D01*
X-112440D02*
X-111440D01*
X-107040D02*
X-104640D01*
X-103040D02*
X-100140D01*
X-99340D02*
X-97040D01*
X-96740D02*
X-93740D01*
X-92940D02*
X-90840D01*
X-142640Y-16526D02*
X-139440D01*
X-136740D02*
X-133940D01*
X-131340D02*
X-128140D01*
X-124740D02*
X-121940D01*
X-120540D02*
X-115640D01*
X-112440D02*
X-111340D01*
X-107240D02*
X-104440D01*
X-103040D02*
X-100140D01*
X-99340D02*
X-97040D01*
X-96740D02*
X-93740D01*
X-92940D02*
X-90840D01*
X-142640Y-16626D02*
X-139240D01*
X-136640D02*
X-134140D01*
X-131540D02*
X-128340D01*
X-124940D02*
X-121740D01*
X-120540D02*
X-115640D01*
X-112540D02*
X-111340D01*
X-107440D02*
X-104240D01*
X-103040D02*
X-100140D01*
X-99340D02*
X-97040D01*
X-96740D02*
X-93740D01*
X-92940D02*
X-90840D01*
X-142640Y-16726D02*
X-139140D01*
X-136440D02*
X-134340D01*
X-131640D02*
X-128540D01*
X-125040D02*
X-123140D01*
X-123040D02*
X-121540D01*
X-120540D02*
X-115640D01*
X-112540D02*
X-111340D01*
X-107540D02*
X-105640D01*
X-105540D02*
X-104040D01*
X-103040D02*
X-100140D01*
X-99340D02*
X-97140D01*
X-96740D02*
X-93840D01*
X-92840D02*
X-90840D01*
X-142640Y-16826D02*
X-138940D01*
X-136240D02*
X-134440D01*
X-131840D02*
X-128740D01*
X-125140D02*
X-123740D01*
X-122540D02*
X-121540D01*
X-119740D02*
X-118340D01*
X-116540D02*
X-115640D01*
X-112540D02*
X-111240D01*
X-107640D02*
X-106240D01*
X-105040D02*
X-104040D01*
X-102240D02*
X-100940D01*
X-98940D02*
X-97540D01*
X-96340D02*
X-94540D01*
X-92140D02*
X-91240D01*
X-142640Y-16926D02*
X-138740D01*
X-136140D02*
X-134640D01*
X-132040D02*
X-128840D01*
X-125240D02*
X-123940D01*
X-122540D02*
X-121540D01*
X-119740D02*
X-118340D01*
X-116540D02*
X-115640D01*
X-112640D02*
X-111240D01*
X-107740D02*
X-106440D01*
X-105040D02*
X-104040D01*
X-102240D02*
X-100940D01*
X-98640D02*
X-97940D01*
X-96240D02*
X-94540D01*
X-92140D02*
X-91540D01*
X-142640Y-17026D02*
X-138540D01*
X-135940D02*
X-134840D01*
X-132240D02*
X-129040D01*
X-125340D02*
X-124140D01*
X-122540D02*
X-121540D01*
X-119740D02*
X-118340D01*
X-116540D02*
X-115640D01*
X-112640D02*
X-111240D01*
X-107840D02*
X-106640D01*
X-105040D02*
X-104040D01*
X-102240D02*
X-100940D01*
X-98640D02*
X-98040D01*
X-96240D02*
X-94440D01*
X-92140D02*
X-91540D01*
X-142640Y-17126D02*
X-138440D01*
X-135740D02*
X-135040D01*
X-132340D02*
X-129240D01*
X-125440D02*
X-124240D01*
X-122440D02*
X-121540D01*
X-119740D02*
X-118340D01*
X-116440D02*
X-115640D01*
X-112640D02*
X-111140D01*
X-107940D02*
X-106740D01*
X-104940D02*
X-104040D01*
X-102240D02*
X-100940D01*
X-98740D02*
X-98140D01*
X-96140D02*
X-94440D01*
X-92240D02*
X-91640D01*
X-142640Y-17226D02*
X-138240D01*
X-135540D02*
X-135140D01*
X-132540D02*
X-129440D01*
X-125440D02*
X-124240D01*
X-122440D02*
X-121540D01*
X-119740D02*
X-118340D01*
X-116440D02*
X-115640D01*
X-112740D02*
X-111140D01*
X-107940D02*
X-106740D01*
X-104940D02*
X-104040D01*
X-102240D02*
X-100940D01*
X-98840D02*
X-98240D01*
X-96140D02*
X-94340D01*
X-92240D02*
X-91640D01*
X-142640Y-17326D02*
X-138040D01*
X-132740D02*
X-129540D01*
X-125540D02*
X-124340D01*
X-122440D02*
X-121540D01*
X-119740D02*
X-118340D01*
X-116440D02*
X-115640D01*
X-112740D02*
X-111140D01*
X-108040D02*
X-106840D01*
X-104940D02*
X-104040D01*
X-102240D02*
X-100940D01*
X-98940D02*
X-98340D01*
X-96040D02*
X-94340D01*
X-92340D02*
X-91740D01*
X-142640Y-17426D02*
X-141140D01*
X-141040D02*
X-137840D01*
X-132940D02*
X-129740D01*
X-125540D02*
X-124340D01*
X-122440D02*
X-121540D01*
X-119740D02*
X-118340D01*
X-116440D02*
X-115640D01*
X-112740D02*
X-111040D01*
X-108040D02*
X-106840D01*
X-104940D02*
X-104040D01*
X-102240D02*
X-100940D01*
X-99040D02*
X-98440D01*
X-96040D02*
X-94240D01*
X-92340D02*
X-91740D01*
X-142640Y-17526D02*
X-141140D01*
X-140840D02*
X-137740D01*
X-133040D02*
X-129940D01*
X-125640D02*
X-124340D01*
X-122340D02*
X-121540D01*
X-119740D02*
X-118340D01*
X-116340D02*
X-115640D01*
X-112840D02*
X-111040D01*
X-108140D02*
X-106840D01*
X-104840D02*
X-104040D01*
X-102240D02*
X-100940D01*
X-99040D02*
X-98440D01*
X-95940D02*
X-94240D01*
X-92440D02*
X-91840D01*
X-142640Y-17626D02*
X-141140D01*
X-140740D02*
X-137540D01*
X-133240D02*
X-130040D01*
X-125640D02*
X-124340D01*
X-122340D02*
X-121540D01*
X-119740D02*
X-118340D01*
X-116340D02*
X-115740D01*
X-112840D02*
X-111040D01*
X-108140D02*
X-106840D01*
X-104840D02*
X-104040D01*
X-102240D02*
X-100940D01*
X-99140D02*
X-98540D01*
X-95940D02*
X-94140D01*
X-92440D02*
X-91840D01*
X-142640Y-17726D02*
X-141140D01*
X-140540D02*
X-137340D01*
X-133440D02*
X-130240D01*
X-125640D02*
X-124340D01*
X-122340D02*
X-121540D01*
X-119740D02*
X-118340D01*
X-116340D02*
X-115740D01*
X-112840D02*
X-110940D01*
X-108140D02*
X-106840D01*
X-104840D02*
X-104040D01*
X-102240D02*
X-100940D01*
X-99240D02*
X-98640D01*
X-95840D02*
X-94140D01*
X-92540D02*
X-91940D01*
X-142640Y-17826D02*
X-141140D01*
X-140340D02*
X-137140D01*
X-133540D02*
X-130440D01*
X-125640D02*
X-124340D01*
X-122240D02*
X-121540D01*
X-119740D02*
X-118340D01*
X-116240D02*
X-115740D01*
X-112940D02*
X-110940D01*
X-108140D02*
X-106840D01*
X-104740D02*
X-104040D01*
X-102240D02*
X-100940D01*
X-99340D02*
X-98740D01*
X-95840D02*
X-94140D01*
X-92540D02*
X-91940D01*
X-142640Y-17926D02*
X-141140D01*
X-140140D02*
X-137040D01*
X-133740D02*
X-130640D01*
X-125640D02*
X-124340D01*
X-122240D02*
X-121540D01*
X-119740D02*
X-118340D01*
X-116240D02*
X-115740D01*
X-112940D02*
X-112540D01*
X-112440D02*
X-110940D01*
X-108140D02*
X-106840D01*
X-104740D02*
X-104040D01*
X-102240D02*
X-100940D01*
X-99340D02*
X-98840D01*
X-95740D02*
X-94040D01*
X-92540D02*
X-92040D01*
X-142640Y-18026D02*
X-141140D01*
X-140040D02*
X-136840D01*
X-133940D02*
X-130740D01*
X-125640D02*
X-124340D01*
X-122240D02*
X-121540D01*
X-119740D02*
X-118340D01*
X-116240D02*
X-115740D01*
X-112940D02*
X-112540D01*
X-112340D02*
X-110840D01*
X-108140D02*
X-106840D01*
X-104740D02*
X-104040D01*
X-102240D02*
X-100940D01*
X-99440D02*
X-98940D01*
X-95740D02*
X-94040D01*
X-92640D02*
X-92040D01*
X-142640Y-18126D02*
X-141140D01*
X-139840D02*
X-136640D01*
X-134140D02*
X-130940D01*
X-128340D02*
X-128140D01*
X-125640D02*
X-124340D01*
X-122140D02*
X-121540D01*
X-119740D02*
X-118340D01*
X-112940D02*
X-112540D01*
X-112340D02*
X-110840D01*
X-108140D02*
X-106840D01*
X-104640D02*
X-104040D01*
X-102240D02*
X-100940D01*
X-99540D02*
X-98940D01*
X-95640D02*
X-93940D01*
X-92640D02*
X-92140D01*
X-142640Y-18226D02*
X-141140D01*
X-139640D02*
X-136440D01*
X-134240D02*
X-131140D01*
X-128440D02*
X-128140D01*
X-125640D02*
X-124240D01*
X-122140D02*
X-121540D01*
X-119740D02*
X-118340D01*
X-113040D02*
X-112640D01*
X-112340D02*
X-110840D01*
X-108140D02*
X-106740D01*
X-104640D02*
X-104040D01*
X-102240D02*
X-100940D01*
X-99640D02*
X-99040D01*
X-95640D02*
X-93940D01*
X-92740D02*
X-92140D01*
X-142640Y-18326D02*
X-141140D01*
X-139440D02*
X-136340D01*
X-134440D02*
X-131340D01*
X-128640D02*
X-128140D01*
X-125640D02*
X-124140D01*
X-119740D02*
X-118340D01*
X-113040D02*
X-112640D01*
X-112240D02*
X-110740D01*
X-108140D02*
X-106640D01*
X-102240D02*
X-100940D01*
X-99740D02*
X-99140D01*
X-95540D02*
X-93840D01*
X-92740D02*
X-92240D01*
X-142640Y-18426D02*
X-141140D01*
X-139340D02*
X-136140D01*
X-134640D02*
X-131440D01*
X-128840D02*
X-128140D01*
X-125640D02*
X-124040D01*
X-119740D02*
X-118340D01*
X-117040D02*
X-116640D01*
X-113040D02*
X-112640D01*
X-112240D02*
X-110740D01*
X-108140D02*
X-106540D01*
X-102240D02*
X-100940D01*
X-99740D02*
X-99240D01*
X-95540D02*
X-93840D01*
X-92840D02*
X-92240D01*
X-142640Y-18526D02*
X-141140D01*
X-139140D02*
X-135940D01*
X-134840D02*
X-131640D01*
X-129040D02*
X-128140D01*
X-125640D02*
X-123940D01*
X-119740D02*
X-118340D01*
X-117140D02*
X-116640D01*
X-113140D02*
X-112640D01*
X-112240D02*
X-110740D01*
X-108140D02*
X-106440D01*
X-102240D02*
X-100940D01*
X-99840D02*
X-99340D01*
X-95440D02*
X-93740D01*
X-92840D02*
X-92340D01*
X-142640Y-18626D02*
X-141140D01*
X-138940D02*
X-135840D01*
X-134940D02*
X-131840D01*
X-129140D02*
X-128140D01*
X-125640D02*
X-123840D01*
X-119740D02*
X-118340D01*
X-117140D02*
X-116640D01*
X-113140D02*
X-112740D01*
X-112140D02*
X-110640D01*
X-108140D02*
X-106340D01*
X-102240D02*
X-100940D01*
X-99940D02*
X-99340D01*
X-95440D02*
X-93740D01*
X-92940D02*
X-92340D01*
X-142640Y-18726D02*
X-141140D01*
X-138740D02*
X-135640D01*
X-135140D02*
X-132040D01*
X-129340D02*
X-128140D01*
X-125640D02*
X-123640D01*
X-119740D02*
X-118340D01*
X-117140D02*
X-116640D01*
X-113140D02*
X-112740D01*
X-112140D02*
X-110640D01*
X-108140D02*
X-106140D01*
X-102240D02*
X-100940D01*
X-100040D02*
X-99240D01*
X-95340D02*
X-93740D01*
X-92940D02*
X-92440D01*
X-142640Y-18826D02*
X-141140D01*
X-138640D02*
X-135440D01*
X-135340D02*
X-132140D01*
X-129540D02*
X-128140D01*
X-125540D02*
X-123440D01*
X-119740D02*
X-118340D01*
X-117140D02*
X-116640D01*
X-113240D02*
X-112740D01*
X-112140D02*
X-110640D01*
X-108040D02*
X-105940D01*
X-102240D02*
X-100940D01*
X-100140D02*
X-99240D01*
X-95340D02*
X-93640D01*
X-93040D02*
X-92440D01*
X-142640Y-18926D02*
X-141140D01*
X-138440D02*
X-132340D01*
X-129740D02*
X-128140D01*
X-125540D02*
X-123140D01*
X-119740D02*
X-118340D01*
X-117140D02*
X-116640D01*
X-113240D02*
X-112840D01*
X-112040D02*
X-110540D01*
X-108040D02*
X-105640D01*
X-102240D02*
X-100940D01*
X-100140D02*
X-99140D01*
X-95240D02*
X-93640D01*
X-93040D02*
X-92540D01*
X-142640Y-19026D02*
X-141140D01*
X-138240D02*
X-132540D01*
X-129840D02*
X-128140D01*
X-125440D02*
X-122940D01*
X-119740D02*
X-118340D01*
X-117140D02*
X-116640D01*
X-113240D02*
X-112840D01*
X-112040D02*
X-110540D01*
X-107940D02*
X-105440D01*
X-102240D02*
X-100940D01*
X-100240D02*
X-99140D01*
X-95240D02*
X-93540D01*
X-93040D02*
X-92540D01*
X-142640Y-19126D02*
X-141140D01*
X-138140D02*
X-132640D01*
X-130040D02*
X-128140D01*
X-125440D02*
X-122740D01*
X-119740D02*
X-118340D01*
X-117140D02*
X-116640D01*
X-113340D02*
X-112840D01*
X-112040D02*
X-110540D01*
X-107940D02*
X-105240D01*
X-102240D02*
X-100940D01*
X-100340D02*
X-99040D01*
X-95140D02*
X-93540D01*
X-93140D02*
X-92640D01*
X-142640Y-19226D02*
X-141140D01*
X-137940D02*
X-132840D01*
X-130240D02*
X-128140D01*
X-125340D02*
X-122540D01*
X-119740D02*
X-118340D01*
X-117240D02*
X-116640D01*
X-113340D02*
X-112840D01*
X-111940D02*
X-110440D01*
X-107840D02*
X-105040D01*
X-102240D02*
X-100940D01*
X-100440D02*
X-98940D01*
X-95140D02*
X-93440D01*
X-93140D02*
X-92640D01*
X-142640Y-19326D02*
X-141140D01*
X-137740D02*
X-133040D01*
X-130440D02*
X-128140D01*
X-125240D02*
X-122340D01*
X-119740D02*
X-118340D01*
X-117240D02*
X-116640D01*
X-113340D02*
X-112940D01*
X-111940D02*
X-110440D01*
X-107740D02*
X-104840D01*
X-102240D02*
X-100940D01*
X-100440D02*
X-98940D01*
X-95140D02*
X-93440D01*
X-93240D02*
X-92740D01*
X-142640Y-19426D02*
X-141140D01*
X-137540D02*
X-133240D01*
X-130540D02*
X-128140D01*
X-125140D02*
X-122140D01*
X-119740D02*
X-116640D01*
X-113440D02*
X-112940D01*
X-111940D02*
X-110440D01*
X-107640D02*
X-104640D01*
X-102240D02*
X-100940D01*
X-100540D02*
X-98840D01*
X-95040D02*
X-93340D01*
X-93240D02*
X-92740D01*
X-142640Y-19526D02*
X-141140D01*
X-137440D02*
X-133340D01*
X-130740D02*
X-128140D01*
X-125040D02*
X-122040D01*
X-119740D02*
X-116640D01*
X-113440D02*
X-112940D01*
X-111840D02*
X-110340D01*
X-107540D02*
X-104540D01*
X-102240D02*
X-100940D01*
X-100640D02*
X-98840D01*
X-95040D02*
X-92840D01*
X-142640Y-19626D02*
X-141140D01*
X-137240D02*
X-133540D01*
X-130940D02*
X-128140D01*
X-124940D02*
X-121840D01*
X-119740D02*
X-116640D01*
X-113440D02*
X-113040D01*
X-111840D02*
X-110340D01*
X-107440D02*
X-104340D01*
X-102240D02*
X-100940D01*
X-100740D02*
X-98740D01*
X-94940D02*
X-92840D01*
X-142640Y-19726D02*
X-141140D01*
X-137040D02*
X-133740D01*
X-131140D02*
X-128140D01*
X-124840D02*
X-121740D01*
X-119740D02*
X-118340D01*
X-117240D02*
X-116640D01*
X-113540D02*
X-113040D01*
X-111840D02*
X-110340D01*
X-107340D02*
X-104240D01*
X-102240D02*
X-100940D01*
X-100840D02*
X-98740D01*
X-94940D02*
X-92940D01*
X-142640Y-19826D02*
X-141140D01*
X-139740D02*
X-139540D01*
X-136840D02*
X-133940D01*
X-131240D02*
X-128140D01*
X-124640D02*
X-121640D01*
X-119740D02*
X-118340D01*
X-117140D02*
X-116640D01*
X-113540D02*
X-113040D01*
X-111740D02*
X-110240D01*
X-107140D02*
X-104140D01*
X-102240D02*
X-100940D01*
X-100840D02*
X-100440D01*
X-100240D02*
X-98640D01*
X-94840D02*
X-92940D01*
X-142640Y-19926D02*
X-141140D01*
X-139740D02*
X-139340D01*
X-136740D02*
X-134040D01*
X-131440D02*
X-128140D01*
X-124440D02*
X-121540D01*
X-119740D02*
X-118340D01*
X-117140D02*
X-116640D01*
X-113540D02*
X-113140D01*
X-111740D02*
X-110240D01*
X-106940D02*
X-104040D01*
X-102240D02*
X-100540D01*
X-100240D02*
X-98640D01*
X-94840D02*
X-93040D01*
X-142640Y-20026D02*
X-141140D01*
X-139740D02*
X-139140D01*
X-136540D02*
X-134240D01*
X-131640D02*
X-128140D01*
X-124340D02*
X-121540D01*
X-119740D02*
X-118340D01*
X-117140D02*
X-116640D01*
X-113640D02*
X-113140D01*
X-111740D02*
X-110240D01*
X-106840D02*
X-104040D01*
X-102240D02*
X-100540D01*
X-100140D02*
X-98540D01*
X-94740D02*
X-93040D01*
X-142640Y-20126D02*
X-141140D01*
X-139740D02*
X-139040D01*
X-136340D02*
X-134440D01*
X-131740D02*
X-128140D01*
X-124040D02*
X-121440D01*
X-119740D02*
X-118340D01*
X-117140D02*
X-116640D01*
X-113640D02*
X-113140D01*
X-111740D02*
X-110140D01*
X-106540D02*
X-103940D01*
X-102240D02*
X-100640D01*
X-100140D02*
X-98540D01*
X-94740D02*
X-93040D01*
X-142640Y-20226D02*
X-141140D01*
X-139740D02*
X-138840D01*
X-136140D02*
X-134640D01*
X-131940D02*
X-128140D01*
X-123840D02*
X-121340D01*
X-119740D02*
X-118340D01*
X-117140D02*
X-116640D01*
X-113640D02*
X-113140D01*
X-111640D02*
X-110140D01*
X-106340D02*
X-103840D01*
X-102240D02*
X-100740D01*
X-100040D02*
X-98440D01*
X-94640D02*
X-93140D01*
X-142640Y-20326D02*
X-141140D01*
X-139740D02*
X-138640D01*
X-136040D02*
X-134740D01*
X-132140D02*
X-128140D01*
X-123640D02*
X-121340D01*
X-119740D02*
X-118340D01*
X-117140D02*
X-116640D01*
X-113640D02*
X-113240D01*
X-111640D02*
X-110140D01*
X-106140D02*
X-103840D01*
X-102240D02*
X-100840D01*
X-100040D02*
X-98340D01*
X-94640D02*
X-93140D01*
X-142640Y-20426D02*
X-141140D01*
X-139740D02*
X-138440D01*
X-135840D02*
X-134940D01*
X-132340D02*
X-128140D01*
X-123440D02*
X-121340D01*
X-119740D02*
X-118340D01*
X-117140D02*
X-116640D01*
X-113740D02*
X-113240D01*
X-111640D02*
X-110040D01*
X-105940D02*
X-103840D01*
X-102240D02*
X-100940D01*
X-99940D02*
X-98340D01*
X-94540D02*
X-93140D01*
X-142640Y-20526D02*
X-141140D01*
X-139740D02*
X-138340D01*
X-135640D02*
X-135140D01*
X-132440D02*
X-128140D01*
X-123240D02*
X-121240D01*
X-119740D02*
X-118340D01*
X-117140D02*
X-116640D01*
X-113740D02*
X-110040D01*
X-105740D02*
X-103740D01*
X-102240D02*
X-100940D01*
X-99940D02*
X-98240D01*
X-94540D02*
X-93140D01*
X-142640Y-20626D02*
X-141140D01*
X-139740D02*
X-138140D01*
X-135440D02*
X-135340D01*
X-132640D02*
X-128140D01*
X-123040D02*
X-121240D01*
X-119740D02*
X-118340D01*
X-113740D02*
X-110040D01*
X-105540D02*
X-103740D01*
X-102240D02*
X-100940D01*
X-99840D02*
X-98240D01*
X-94540D02*
X-93140D01*
X-142640Y-20726D02*
X-141140D01*
X-139740D02*
X-137940D01*
X-132840D02*
X-128140D01*
X-122940D02*
X-121240D01*
X-119740D02*
X-118340D01*
X-113840D02*
X-109940D01*
X-105440D02*
X-103740D01*
X-102240D02*
X-100940D01*
X-99840D02*
X-98140D01*
X-94540D02*
X-93140D01*
X-142640Y-20826D02*
X-141140D01*
X-139740D02*
X-137740D01*
X-133040D02*
X-129840D01*
X-129640D02*
X-128140D01*
X-122840D02*
X-121240D01*
X-119740D02*
X-118340D01*
X-113840D02*
X-113340D01*
X-111440D02*
X-109940D01*
X-105340D02*
X-103740D01*
X-102240D02*
X-100940D01*
X-99740D02*
X-98140D01*
X-94540D02*
X-93140D01*
X-142640Y-20926D02*
X-141140D01*
X-139740D02*
X-137640D01*
X-133140D02*
X-130040D01*
X-129640D02*
X-128140D01*
X-125640D02*
X-125140D01*
X-122740D02*
X-121240D01*
X-119740D02*
X-118340D01*
X-113840D02*
X-113340D01*
X-111440D02*
X-109940D01*
X-108140D02*
X-107640D01*
X-105240D02*
X-103740D01*
X-102240D02*
X-100940D01*
X-99740D02*
X-98040D01*
X-94540D02*
X-93140D01*
X-142640Y-21026D02*
X-141140D01*
X-139740D02*
X-137440D01*
X-133340D02*
X-130140D01*
X-129640D02*
X-128140D01*
X-125640D02*
X-125040D01*
X-122640D02*
X-121240D01*
X-119740D02*
X-118340D01*
X-116040D02*
X-115540D01*
X-113940D02*
X-113440D01*
X-111440D02*
X-109840D01*
X-108140D02*
X-107540D01*
X-105140D02*
X-103740D01*
X-102240D02*
X-100940D01*
X-99640D02*
X-98040D01*
X-94540D02*
X-93140D01*
X-142640Y-21126D02*
X-141140D01*
X-139740D02*
X-137240D01*
X-133540D02*
X-130340D01*
X-129640D02*
X-128140D01*
X-125740D02*
X-125040D01*
X-122640D02*
X-121240D01*
X-119740D02*
X-118340D01*
X-116040D02*
X-115540D01*
X-113940D02*
X-113440D01*
X-111340D02*
X-109840D01*
X-108240D02*
X-107540D01*
X-105140D02*
X-103740D01*
X-102240D02*
X-100940D01*
X-99640D02*
X-97940D01*
X-94540D02*
X-93140D01*
X-142640Y-21226D02*
X-141140D01*
X-139740D02*
X-137040D01*
X-133740D02*
X-130540D01*
X-129640D02*
X-128140D01*
X-125740D02*
X-125040D01*
X-122640D02*
X-121240D01*
X-119740D02*
X-118340D01*
X-116040D02*
X-115540D01*
X-113940D02*
X-113440D01*
X-111340D02*
X-109840D01*
X-108240D02*
X-107540D01*
X-105140D02*
X-103740D01*
X-102240D02*
X-100940D01*
X-99540D02*
X-97940D01*
X-94540D02*
X-93140D01*
X-142640Y-21326D02*
X-141140D01*
X-139740D02*
X-136940D01*
X-133840D02*
X-130740D01*
X-129640D02*
X-128140D01*
X-125740D02*
X-124940D01*
X-122640D02*
X-121240D01*
X-119740D02*
X-118340D01*
X-116140D02*
X-115440D01*
X-114040D02*
X-113540D01*
X-111340D02*
X-109740D01*
X-108240D02*
X-107440D01*
X-105140D02*
X-103740D01*
X-102240D02*
X-100940D01*
X-99540D02*
X-97840D01*
X-94540D02*
X-93140D01*
X-142640Y-21426D02*
X-141140D01*
X-139740D02*
X-136740D01*
X-134040D02*
X-130840D01*
X-129640D02*
X-128140D01*
X-125740D02*
X-124940D01*
X-122640D02*
X-121240D01*
X-119740D02*
X-118340D01*
X-116140D02*
X-115440D01*
X-114040D02*
X-113540D01*
X-111240D02*
X-109740D01*
X-108240D02*
X-107440D01*
X-105140D02*
X-103740D01*
X-102240D02*
X-100940D01*
X-99440D02*
X-97740D01*
X-94540D02*
X-93140D01*
X-142640Y-21526D02*
X-141140D01*
X-139740D02*
X-136540D01*
X-134240D02*
X-131040D01*
X-129640D02*
X-128140D01*
X-125740D02*
X-124940D01*
X-122540D02*
X-121240D01*
X-119740D02*
X-118340D01*
X-116240D02*
X-115440D01*
X-114040D02*
X-113540D01*
X-111240D02*
X-109740D01*
X-108240D02*
X-107440D01*
X-105040D02*
X-103740D01*
X-102240D02*
X-100940D01*
X-99440D02*
X-97740D01*
X-94540D02*
X-93140D01*
X-142640Y-21626D02*
X-141140D01*
X-139540D02*
X-136440D01*
X-134340D02*
X-131240D01*
X-129640D02*
X-128140D01*
X-125740D02*
X-124940D01*
X-122640D02*
X-121240D01*
X-119740D02*
X-118340D01*
X-116240D02*
X-115440D01*
X-114140D02*
X-113540D01*
X-111240D02*
X-109640D01*
X-108240D02*
X-107440D01*
X-105140D02*
X-103740D01*
X-102240D02*
X-100940D01*
X-99340D02*
X-97640D01*
X-94540D02*
X-93140D01*
X-142640Y-21726D02*
X-141140D01*
X-139340D02*
X-136240D01*
X-134540D02*
X-131440D01*
X-129640D02*
X-128140D01*
X-125740D02*
X-124840D01*
X-122640D02*
X-121340D01*
X-119740D02*
X-118340D01*
X-116240D02*
X-115440D01*
X-114140D02*
X-113640D01*
X-111140D02*
X-109640D01*
X-108240D02*
X-107340D01*
X-105140D02*
X-103840D01*
X-102240D02*
X-100940D01*
X-99340D02*
X-97640D01*
X-94540D02*
X-93140D01*
X-142640Y-21826D02*
X-141140D01*
X-139240D02*
X-136040D01*
X-134740D02*
X-131540D01*
X-129640D02*
X-128140D01*
X-125740D02*
X-124840D01*
X-122640D02*
X-121340D01*
X-119740D02*
X-118340D01*
X-116340D02*
X-115440D01*
X-114140D02*
X-113640D01*
X-111140D02*
X-109640D01*
X-108240D02*
X-107340D01*
X-105140D02*
X-103840D01*
X-102240D02*
X-100940D01*
X-99240D02*
X-97540D01*
X-94540D02*
X-93140D01*
X-142640Y-21926D02*
X-141140D01*
X-139040D02*
X-135840D01*
X-134940D02*
X-131740D01*
X-129640D02*
X-128140D01*
X-125740D02*
X-124840D01*
X-122640D02*
X-121340D01*
X-119740D02*
X-118340D01*
X-116340D02*
X-115440D01*
X-114240D02*
X-113640D01*
X-111140D02*
X-109540D01*
X-108240D02*
X-107340D01*
X-105140D02*
X-103840D01*
X-102240D02*
X-100940D01*
X-99240D02*
X-97540D01*
X-94540D02*
X-93140D01*
X-142640Y-22026D02*
X-141140D01*
X-138840D02*
X-135740D01*
X-135040D02*
X-131940D01*
X-129640D02*
X-128140D01*
X-125740D02*
X-124740D01*
X-122740D02*
X-121440D01*
X-119740D02*
X-118340D01*
X-116340D02*
X-115440D01*
X-114240D02*
X-113740D01*
X-111140D02*
X-109540D01*
X-108240D02*
X-107240D01*
X-105240D02*
X-103940D01*
X-102240D02*
X-100940D01*
X-99140D02*
X-97440D01*
X-94540D02*
X-93140D01*
X-142640Y-22126D02*
X-141140D01*
X-138640D02*
X-135540D01*
X-135240D02*
X-132040D01*
X-129640D02*
X-128140D01*
X-125740D02*
X-124740D01*
X-122740D02*
X-121540D01*
X-119740D02*
X-118340D01*
X-116440D02*
X-115440D01*
X-114240D02*
X-113740D01*
X-111040D02*
X-109540D01*
X-108240D02*
X-107240D01*
X-105240D02*
X-104040D01*
X-102240D02*
X-100940D01*
X-99040D02*
X-97440D01*
X-94540D02*
X-93140D01*
X-142640Y-22226D02*
X-141140D01*
X-138540D02*
X-132240D01*
X-129640D02*
X-128140D01*
X-125740D02*
X-124740D01*
X-122840D02*
X-121540D01*
X-119740D02*
X-118340D01*
X-116440D02*
X-115440D01*
X-114340D02*
X-113740D01*
X-111040D02*
X-109440D01*
X-108240D02*
X-107240D01*
X-105340D02*
X-104040D01*
X-102240D02*
X-100940D01*
X-99040D02*
X-97340D01*
X-94540D02*
X-93140D01*
X-142640Y-22326D02*
X-140940D01*
X-138340D02*
X-132440D01*
X-129840D02*
X-128140D01*
X-125740D02*
X-124640D01*
X-123040D02*
X-121640D01*
X-119740D02*
X-118340D01*
X-116440D02*
X-115440D01*
X-114340D02*
X-113740D01*
X-111040D02*
X-109440D01*
X-108240D02*
X-107140D01*
X-105540D02*
X-104140D01*
X-102240D02*
X-100940D01*
X-98940D02*
X-97340D01*
X-94540D02*
X-93140D01*
X-142640Y-22426D02*
X-140840D01*
X-138140D02*
X-132640D01*
X-129940D02*
X-128140D01*
X-125740D02*
X-124640D01*
X-123240D02*
X-121740D01*
X-120540D02*
X-115440D01*
X-114840D02*
X-113240D01*
X-111440D02*
X-109040D01*
X-108240D02*
X-107140D01*
X-105740D02*
X-104240D01*
X-102940D02*
X-100240D01*
X-99440D02*
X-96740D01*
X-94640D02*
X-93040D01*
X-142640Y-22526D02*
X-140640D01*
X-138040D02*
X-132740D01*
X-130140D02*
X-128140D01*
X-125640D02*
X-123940D01*
X-123840D02*
X-121940D01*
X-120540D02*
X-115440D01*
X-115040D02*
X-113040D01*
X-111740D02*
X-108740D01*
X-108140D02*
X-106440D01*
X-106340D02*
X-104440D01*
X-103040D02*
X-100240D01*
X-99540D02*
X-96640D01*
X-95440D02*
X-92240D01*
X-142640Y-22626D02*
X-140440D01*
X-137840D02*
X-132940D01*
X-130340D02*
X-128140D01*
X-125440D02*
X-122040D01*
X-120540D02*
X-115440D01*
X-115040D02*
X-113040D01*
X-111740D02*
X-108740D01*
X-107940D02*
X-104540D01*
X-103040D02*
X-100240D01*
X-99540D02*
X-96640D01*
X-95440D02*
X-92240D01*
X-142640Y-22726D02*
X-140240D01*
X-137640D02*
X-133140D01*
X-130540D02*
X-128140D01*
X-125240D02*
X-122240D01*
X-120540D02*
X-115440D01*
X-115040D02*
X-113040D01*
X-111740D02*
X-108740D01*
X-107740D02*
X-104740D01*
X-103040D02*
X-100240D01*
X-99540D02*
X-96640D01*
X-95440D02*
X-92240D01*
X-142640Y-22826D02*
X-140140D01*
X-137440D02*
X-133340D01*
X-130640D02*
X-128140D01*
X-124940D02*
X-122440D01*
X-115040D02*
X-113040D01*
X-111740D02*
X-108740D01*
X-107440D02*
X-104940D01*
X-95440D02*
X-92240D01*
X-142640Y-22926D02*
X-139940D01*
X-137340D02*
X-133440D01*
X-130840D02*
X-128140D01*
X-124640D02*
X-122840D01*
X-107140D02*
X-105340D01*
X-142640Y-23026D02*
X-139740D01*
X-137140D02*
X-133640D01*
X-131040D02*
X-128140D01*
X-142640Y-23126D02*
X-139640D01*
X-136940D02*
X-133840D01*
X-131140D02*
X-128140D01*
X-142540Y-23226D02*
X-139440D01*
X-136740D02*
X-134040D01*
X-131340D02*
X-128240D01*
X-142440Y-23326D02*
X-139240D01*
X-136640D02*
X-134140D01*
X-131540D02*
X-128340D01*
X-142240Y-23426D02*
X-139040D01*
X-136440D02*
X-134340D01*
X-131740D02*
X-128540D01*
X-142040Y-23526D02*
X-138940D01*
X-136240D02*
X-134540D01*
X-131840D02*
X-128740D01*
X-141840Y-23626D02*
X-138740D01*
X-136040D02*
X-134740D01*
X-132040D02*
X-128940D01*
X-141740Y-23726D02*
X-138540D01*
X-135940D02*
X-134840D01*
X-132240D02*
X-129040D01*
X-141540Y-23826D02*
X-138340D01*
X-135740D02*
X-135040D01*
X-132440D02*
X-129240D01*
X-141340Y-23926D02*
X-138240D01*
X-135540D02*
X-135240D01*
X-132540D02*
X-129440D01*
X-141140Y-24026D02*
X-138040D01*
X-132740D02*
X-129640D01*
X-141040Y-24126D02*
X-137840D01*
X-132940D02*
X-129740D01*
X-140840Y-24226D02*
X-137640D01*
X-133140D02*
X-129940D01*
X-140640Y-24326D02*
X-137540D01*
X-133240D02*
X-130140D01*
X-140540Y-24426D02*
X-137340D01*
X-133440D02*
X-130240D01*
X-140340Y-24526D02*
X-137140D01*
X-133640D02*
X-130440D01*
X-140140Y-24626D02*
X-136940D01*
X-133840D02*
X-130640D01*
X-139940Y-24726D02*
X-136840D01*
X-133940D02*
X-130840D01*
X-139840Y-24826D02*
X-136640D01*
X-134140D02*
X-130940D01*
X-139640Y-24926D02*
X-136440D01*
X-134340D02*
X-131140D01*
X-139440Y-25026D02*
X-136340D01*
X-134440D02*
X-131340D01*
X-139240Y-25126D02*
X-136140D01*
X-134640D02*
X-131540D01*
X-139140Y-25226D02*
X-135940D01*
X-134840D02*
X-131640D01*
X-138940Y-25326D02*
X-135740D01*
X-135040D02*
X-131840D01*
X-138740Y-25426D02*
X-135640D01*
X-135140D02*
X-132040D01*
X-138540Y-25526D02*
X-135440D01*
X-135340D02*
X-132240D01*
X-138440Y-25626D02*
X-132340D01*
X-138240Y-25726D02*
X-132540D01*
X-138040Y-25826D02*
X-132740D01*
X-137940Y-25926D02*
X-132840D01*
X-137740Y-26026D02*
X-133040D01*
X-137540Y-26126D02*
X-133240D01*
X-137340Y-26226D02*
X-133440D01*
X-137240Y-26326D02*
X-133540D01*
X-137040Y-26426D02*
X-133740D01*
X-136840Y-26526D02*
X-133940D01*
X-136640Y-26626D02*
X-134140D01*
X-136540Y-26726D02*
X-134240D01*
X-136340Y-26826D02*
X-134440D01*
X-136140Y-26926D02*
X-134640D01*
X-135940Y-27026D02*
X-134840D01*
X-135840Y-27126D02*
X-134940D01*
X-135640Y-27226D02*
X-135140D01*
G54D20*
X-91394Y-6867D02*
X-89694Y-6867D01*
X-95436Y-1767D02*
X-95436Y733D01*
X-85594Y-1767D02*
Y733D01*
X-91394Y5733D02*
X-89694D01*
X-125135Y80489D02*
X-124835Y80489D01*
X-125435Y80489D02*
X-125135Y80489D01*
Y79589D02*
Y81389D01*
X-50808Y26671D02*
Y26971D01*
Y26371D02*
Y26671D01*
X-51708D02*
X-49908D01*
X-49241Y54517D02*
X-48941D01*
X-48641D01*
X-48941Y53617D02*
Y55417D01*
X-106612Y7252D02*
Y7552D01*
X-106612Y7852D02*
X-106612Y7552D01*
X-107512Y7552D02*
X-105712Y7552D01*
X-46227Y66721D02*
X-45927Y66721D01*
X-46527Y66721D02*
X-46227D01*
Y65821D02*
Y67621D01*
X-46239Y72628D02*
X-45939D01*
X-46539Y72628D02*
X-46239Y72628D01*
Y71728D02*
Y73528D01*
X-73052Y10489D02*
X-72752D01*
X-73352D02*
X-73052D01*
Y9589D02*
Y11389D01*
X-56628Y87261D02*
Y87561D01*
Y86961D02*
Y87261D01*
X-57528D02*
X-55728D01*
X-62628Y87561D02*
X-62628Y87261D01*
X-62628Y86961D01*
X-63528Y87261D02*
X-61728D01*
X-96995Y10488D02*
X-96694D01*
X-96394D01*
X-96694Y9588D02*
Y11388D01*
X-85226Y10489D02*
X-84926D01*
X-84626D01*
X-84926Y9589D02*
Y11389D01*
X-92706Y73452D02*
X-92406D01*
X-92106D01*
X-92406Y72552D02*
Y74352D01*
X23467Y59853D02*
Y60153D01*
Y59553D02*
Y59853D01*
X22567D02*
X24367D01*
X-115645Y26958D02*
X-115345D01*
X-115945D02*
X-115645D01*
Y26058D02*
Y27858D01*
X27500Y46859D02*
X38500D01*
Y32858D02*
Y46859D01*
X27500Y32858D02*
X38500D01*
X27500D02*
Y46859D01*
X68500Y41133D02*
Y41433D01*
Y41733D01*
X67600Y41433D02*
X69400D01*
X45000Y32641D02*
Y32941D01*
Y33241D01*
X44100Y32941D02*
X45900D01*
X58176Y59853D02*
Y60153D01*
Y59553D02*
Y59853D01*
X57276D02*
X59076D01*
X52176D02*
Y60153D01*
Y59553D02*
Y59853D01*
X51276D02*
X53076D01*
X29000D02*
Y60153D01*
Y59553D02*
Y59853D01*
X28100D02*
X29900D01*
G54D21*
X-119882Y42441D02*
X-119882Y47559D01*
X-130118Y42441D02*
X-119882D01*
X-130118D02*
Y47559D01*
X-119882D01*
X-43841Y46123D02*
Y51241D01*
X-54077Y46123D02*
X-43841D01*
X-54077D02*
Y51241D01*
X-43841D01*
X-109171Y1670D02*
X-104053Y1670D01*
Y-8566D02*
Y1670D01*
X-109171Y-8566D02*
X-104053D01*
X-109171Y1670D02*
X-109171Y-8566D01*
X-134635Y10059D02*
Y15177D01*
X-144872Y10059D02*
X-134635D01*
X-144872D02*
Y15177D01*
X-134635D01*
Y15559D02*
Y20677D01*
X-144872Y15559D02*
X-134635D01*
X-144872D02*
Y20677D01*
X-134635D01*
X-110576Y32273D02*
Y37391D01*
X-120812Y32273D02*
X-110576D01*
X-120812D02*
Y37391D01*
X-110576D01*
X-33659Y-872D02*
Y4246D01*
X-23422D01*
Y-872D02*
Y4246D01*
X-33659Y-872D02*
X-23422D01*
X-33659Y-8571D02*
Y-3453D01*
X-23422Y-3453D01*
X-23422Y-8571D02*
X-23422Y-3453D01*
X-33659Y-8571D02*
X-23422D01*
X-33659Y6728D02*
Y11846D01*
X-23422D01*
Y6728D02*
Y11846D01*
X-33659Y6728D02*
X-23422Y6728D01*
X-41640Y-1812D02*
X-34640Y-1812D01*
Y5188D01*
X-41640D02*
X-34640D01*
X-54140Y-1812D02*
X-45640D01*
X-54140D02*
Y5188D01*
X-45640D01*
X-52640Y-1812D02*
Y5188D01*
X-41640Y-9512D02*
X-34640D01*
Y-2512D01*
X-41640Y-2512D02*
X-34640Y-2512D01*
X-54140Y-9512D02*
X-45640D01*
X-54140D02*
Y-2512D01*
X-45640D01*
X-52640Y-9512D02*
Y-2512D01*
Y12788D02*
X-52640Y5788D01*
X-54140Y12788D02*
X-45640Y12788D01*
X-54140Y12788D02*
X-54140Y5788D01*
X-45640D01*
X-41640Y12788D02*
X-34640D01*
Y5788D02*
Y12788D01*
X-41640Y5788D02*
X-34640D01*
X-123635Y77929D02*
X-120017Y77929D01*
X-123635Y83047D02*
X-120017D01*
X-130254Y77929D02*
X-126635Y77929D01*
X-130254Y83047D02*
X-126635Y83047D01*
X-130254Y77929D02*
X-130254Y83047D01*
X-120017Y77929D02*
Y83047D01*
X-48249Y28171D02*
Y31789D01*
X-53367Y28171D02*
Y31789D01*
X-48249Y21552D02*
Y25171D01*
X-53367Y21552D02*
Y25171D01*
Y21552D02*
X-48249D01*
X-53367Y31789D02*
X-48249D01*
X-54059Y57076D02*
X-50441D01*
X-54059Y51958D02*
X-50441D01*
X-47441Y57076D02*
X-43823D01*
X-47441Y51958D02*
X-43823D01*
Y57076D01*
X-54059Y51958D02*
Y57076D01*
X-109171Y2434D02*
Y6052D01*
X-104053D02*
X-104053Y2434D01*
X-109171Y9052D02*
Y12670D01*
X-104053Y9052D02*
Y12670D01*
X-109171D02*
X-104053D01*
X-109171Y2434D02*
X-104053Y2434D01*
X-44727Y64161D02*
X-41110D01*
X-44727Y69279D02*
X-41110D01*
X-51346Y64161D02*
X-47727D01*
X-51346Y69279D02*
X-47727Y69279D01*
X-51346Y64161D02*
Y69279D01*
X-41110Y64161D02*
X-41110Y69279D01*
X-44739Y70069D02*
X-41121Y70069D01*
X-44739Y75187D02*
X-41121Y75187D01*
X-51358Y70069D02*
X-47739Y70069D01*
X-51358Y75187D02*
X-47739Y75187D01*
X-51358Y70069D02*
Y75187D01*
X-41121Y70069D02*
Y75187D01*
X-71552Y7930D02*
X-67934D01*
X-71552Y13048D02*
X-67934D01*
X-78170Y7930D02*
X-74552D01*
X-78170Y13048D02*
X-74552D01*
X-78170Y7930D02*
Y13048D01*
X-67934Y7930D02*
Y13048D01*
X-54069Y88761D02*
Y92379D01*
X-59187Y88761D02*
Y92379D01*
X-54069Y82143D02*
Y85761D01*
X-59187Y82143D02*
X-59187Y85761D01*
X-59187Y82143D02*
X-54069D01*
X-59187Y92379D02*
X-54069D01*
X-60069Y88761D02*
X-60069Y92379D01*
X-65187D02*
X-65187Y88761D01*
X-60069Y85761D02*
X-60069Y82143D01*
X-65187D02*
Y85761D01*
Y82143D02*
X-60069D01*
X-65187Y92379D02*
X-60069D01*
X-101812Y13048D02*
X-98194D01*
X-101812Y7930D02*
X-98194D01*
X-95195Y13048D02*
X-91576D01*
X-95195Y7930D02*
X-91576D01*
Y13048D01*
X-101812Y7930D02*
Y13048D01*
X-90043Y13048D02*
X-86426Y13048D01*
X-90043Y7930D02*
X-86426Y7930D01*
X-83426Y13048D02*
X-79807Y13048D01*
X-83426Y7930D02*
X-79807Y7930D01*
Y13048D01*
X-90043Y7930D02*
Y13048D01*
X-97524Y76011D02*
X-93906D01*
X-97524Y70893D02*
X-93906D01*
X-90906Y76011D02*
X-87288D01*
X-90906Y70893D02*
X-87288D01*
Y76011D01*
X-97524Y70893D02*
Y76011D01*
X26026Y61353D02*
Y64971D01*
X20908Y61353D02*
Y64971D01*
X26026Y54734D02*
Y58353D01*
X20908Y54734D02*
Y58353D01*
Y54734D02*
X26026D01*
X20908Y64971D02*
X26026D01*
X-114145Y24399D02*
X-110527D01*
X-114145Y29517D02*
X-110527D01*
X-120763Y24399D02*
X-117145D01*
X-120763Y29517D02*
X-117145D01*
X-120763Y24399D02*
Y29517D01*
X-110527Y24399D02*
Y29517D01*
X45499Y12940D02*
Y18058D01*
X55735D01*
Y12940D02*
Y18058D01*
X45499Y12940D02*
X55735D01*
X37559Y12000D02*
X44559Y12000D01*
Y19000D01*
X37559Y19000D02*
X44559Y19000D01*
X25059Y12000D02*
X33559Y12000D01*
X25059Y12000D02*
Y19000D01*
X33559Y19000D01*
X26559Y12000D02*
Y19000D01*
X65941Y36316D02*
Y39933D01*
X71059Y36316D02*
Y39933D01*
X65941Y42933D02*
Y46552D01*
X71059Y42933D02*
Y46552D01*
X65941D02*
X71059D01*
X65941Y36316D02*
X71059D01*
X42441Y27823D02*
Y31441D01*
X47559Y27823D02*
Y31441D01*
X42441Y34441D02*
Y38059D01*
X47559Y34441D02*
Y38059D01*
X42441D02*
X47559D01*
X42441Y27823D02*
X47559D01*
X27882Y26976D02*
Y32094D01*
X38118D01*
Y26976D02*
Y32094D01*
X27882Y26976D02*
X38118D01*
X60736Y61353D02*
Y64971D01*
X55617Y61353D02*
Y64971D01*
X60736Y54734D02*
Y58353D01*
X55617Y54734D02*
Y58353D01*
Y54734D02*
X60736D01*
X55617Y64971D02*
X60736D01*
X54736Y61353D02*
Y64971D01*
X49617Y61353D02*
Y64971D01*
X54736Y54734D02*
Y58353D01*
X49617Y54734D02*
Y58353D01*
Y54734D02*
X54736D01*
X49617Y64971D02*
X54736D01*
X31559Y61353D02*
Y64971D01*
X26441Y61353D02*
Y64971D01*
X31559Y54734D02*
Y58353D01*
X26441Y54734D02*
Y58353D01*
Y54734D02*
X31559D01*
X26441Y64971D02*
X31559D01*
M02*
