G04*
G04 #@! TF.GenerationSoftware,Altium Limited,Altium Designer,20.0.2 (26)*
G04*
G04 Layer_Color=32768*
%FSLAX25Y25*%
%MOIN*%
G70*
G01*
G75*
%ADD16C,0.00394*%
%ADD19C,0.00100*%
%ADD77C,0.00197*%
%ADD78C,0.00010*%
G54D16*
X-53000Y76000D02*
X-40000Y76000D01*
X-53000Y92000D02*
X-53000Y76000D01*
X-53000Y92000D02*
X-40000D01*
Y76000D02*
Y92000D01*
X48759Y53080D02*
Y66080D01*
X32759Y53080D02*
X48759D01*
X32759D02*
Y66080D01*
X48759D01*
X57500Y34532D02*
Y38469D01*
X55532Y36500D02*
X59469D01*
G54D19*
X-124500Y45000D02*
X-125250Y45433D01*
Y44567D01*
X-124500Y45000D01*
X-48459Y48682D02*
X-49209Y49115D01*
Y48249D01*
X-48459Y48682D01*
X-106112Y-3448D02*
X-106862Y-3015D01*
Y-3881D01*
X-106112Y-3448D01*
X-139254Y12618D02*
X-140004Y13051D01*
Y12185D01*
X-139254Y12618D01*
Y18117D02*
X-140004Y18550D01*
Y17684D01*
X-139254Y18117D01*
X-115194Y34832D02*
X-115945Y35265D01*
Y34399D01*
X-115194Y34832D01*
X-28040Y1688D02*
X-28790Y2121D01*
Y1255D01*
X-28040Y1688D01*
Y-6012D02*
X-28790Y-5579D01*
Y-6445D01*
X-28040Y-6012D01*
Y9288D02*
X-28790Y9721D01*
Y8855D01*
X-28040Y9288D01*
X-124635Y80489D02*
X-125385Y80922D01*
Y80056D01*
X-124635Y80489D01*
X-50308Y26671D02*
X-51058Y27104D01*
Y26238D01*
X-50308Y26671D01*
X-48441Y54517D02*
X-49191Y54950D01*
Y54084D01*
X-48441Y54517D01*
X-106112Y7552D02*
X-106862Y7985D01*
Y7119D01*
X-106112Y7552D01*
X-45727Y66721D02*
X-46477Y67154D01*
Y66288D01*
X-45727Y66721D01*
X-45739Y72628D02*
X-46489Y73061D01*
Y72195D01*
X-45739Y72628D01*
X-72552Y10489D02*
X-73302Y10922D01*
Y10056D01*
X-72552Y10489D01*
X-56128Y87261D02*
X-56878Y87694D01*
Y86828D01*
X-56128Y87261D01*
X-62128D02*
X-62878Y87694D01*
Y86828D01*
X-62128Y87261D01*
X-96194Y10488D02*
X-96944Y10921D01*
Y10055D01*
X-96194Y10488D01*
X-84426Y10489D02*
X-85176Y10922D01*
Y10056D01*
X-84426Y10489D01*
X-91906Y73452D02*
X-92656Y73885D01*
Y73018D01*
X-91906Y73452D01*
X23967Y59853D02*
X23217Y60286D01*
Y59420D01*
X23967Y59853D01*
X-115145Y26958D02*
X-115895Y27391D01*
Y26525D01*
X-115145Y26958D01*
X51117Y15500D02*
X50367Y15933D01*
Y15067D01*
X51117Y15500D01*
X33500Y39858D02*
X32750Y40292D01*
Y39426D01*
X33500Y39858D01*
X69000Y41433D02*
X68250Y41866D01*
Y41000D01*
X69000Y41433D01*
X45500Y32941D02*
X44750Y33374D01*
Y32508D01*
X45500Y32941D01*
X33500Y29535D02*
X32750Y29968D01*
Y29102D01*
X33500Y29535D01*
X58676Y59853D02*
X57926Y60286D01*
Y59420D01*
X58676Y59853D01*
X52676D02*
X51926Y60286D01*
Y59420D01*
X52676Y59853D01*
X29500D02*
X28750Y60286D01*
Y59420D01*
X29500Y59853D01*
X-125000Y44213D02*
X-125000Y45787D01*
X-125787Y45000D02*
X-124213D01*
X-48959Y47894D02*
Y49469D01*
X-49747Y48682D02*
X-48172D01*
X-107399Y-3448D02*
X-105824Y-3448D01*
X-106612Y-4236D02*
Y-2661D01*
X-139754Y11830D02*
X-139754Y13405D01*
X-140541Y12618D02*
X-138967D01*
X-139754Y17330D02*
Y18905D01*
X-140541Y18117D02*
X-138967D01*
X-115694Y34045D02*
Y35620D01*
X-116482Y34832D02*
X-114907D01*
X-28540Y900D02*
Y2475D01*
X-29327Y1688D02*
X-27753D01*
X-28540Y-6799D02*
Y-5225D01*
X-29328Y-6012D02*
X-27753D01*
X-28540Y8500D02*
Y10075D01*
X-29328Y9288D02*
X-27753D01*
X-125135Y79701D02*
Y81276D01*
X-125923Y80489D02*
X-124348D01*
X-51595Y26671D02*
X-50021D01*
X-50808Y25883D02*
Y27458D01*
X-48941Y53729D02*
Y55304D01*
X-49729Y54517D02*
X-48154D01*
X-107399Y7552D02*
X-105824Y7552D01*
X-106612Y6764D02*
Y8339D01*
X-46227Y65933D02*
Y67508D01*
X-47015Y66721D02*
X-45440D01*
X-46239Y71841D02*
Y73416D01*
X-47027Y72628D02*
X-45452D01*
X-73052Y9702D02*
Y11276D01*
X-73839Y10489D02*
X-72264D01*
X-57416Y87261D02*
X-55841D01*
X-56628Y86474D02*
Y88048D01*
X-63416Y87261D02*
X-61841D01*
X-62628Y86474D02*
Y88048D01*
X-96694Y9701D02*
Y11276D01*
X-97482Y10488D02*
X-95907D01*
X-84926Y9701D02*
Y11276D01*
X-85713Y10489D02*
X-84138D01*
X-92406Y72664D02*
Y74239D01*
X-93194Y73452D02*
X-91619D01*
X22679Y59853D02*
X24254D01*
X23467Y59066D02*
Y60640D01*
X-115645Y26171D02*
Y27746D01*
X-116432Y26958D02*
X-114857D01*
X50617Y14712D02*
Y16287D01*
X49830Y15500D02*
X51405D01*
X32213Y39858D02*
X33787D01*
X33000Y39071D02*
Y40646D01*
X67713Y41433D02*
X69287D01*
X68500Y40646D02*
Y42221D01*
X44213Y32941D02*
X45788D01*
X45000Y32153D02*
Y33728D01*
X33000Y28748D02*
Y30323D01*
X32213Y29535D02*
X33787D01*
X57389Y59853D02*
X58964D01*
X58176Y59066D02*
Y60640D01*
X51389Y59853D02*
X52964D01*
X52176Y59066D02*
Y60640D01*
X28213Y59853D02*
X29787D01*
X29000Y59066D02*
Y60640D01*
G54D77*
X-4622Y36801D02*
X-4944Y37687D01*
X-5761Y38158D01*
X-6689Y37994D01*
X-7295Y37272D01*
Y36330D01*
X-6689Y35608D01*
X-5761Y35444D01*
X-4944Y35915D01*
X-4622Y36801D01*
X-45122Y84000D02*
X-45444Y84886D01*
X-46261Y85357D01*
X-47189Y85193D01*
X-47795Y84471D01*
Y83529D01*
X-47189Y82807D01*
X-46261Y82643D01*
X-45444Y83114D01*
X-45122Y84000D01*
X42137Y59580D02*
X41815Y60466D01*
X40998Y60937D01*
X40070Y60774D01*
X39464Y60052D01*
Y59109D01*
X40070Y58387D01*
X40998Y58223D01*
X41815Y58695D01*
X42137Y59580D01*
X-88622Y91500D02*
X-88944Y92386D01*
X-89761Y92857D01*
X-90689Y92693D01*
X-91295Y91971D01*
Y91029D01*
X-90689Y90307D01*
X-89761Y90143D01*
X-88944Y90614D01*
X-88622Y91500D01*
X-160317Y10354D02*
X-160639Y11240D01*
X-161455Y11711D01*
X-162383Y11547D01*
X-162989Y10825D01*
Y9883D01*
X-162383Y9160D01*
X-161455Y8997D01*
X-160639Y9468D01*
X-160317Y10354D01*
X-42262Y1688D02*
X-42585Y2573D01*
X-43401Y3045D01*
X-44329Y2881D01*
X-44935Y2159D01*
Y1216D01*
X-44329Y494D01*
X-43401Y331D01*
X-42585Y802D01*
X-42262Y1688D01*
Y-6012D02*
X-42585Y-5127D01*
X-43401Y-4655D01*
X-44329Y-4819D01*
X-44935Y-5541D01*
Y-6484D01*
X-44329Y-7206D01*
X-43401Y-7369D01*
X-42585Y-6898D01*
X-42262Y-6012D01*
Y9288D02*
X-42585Y10173D01*
X-43401Y10645D01*
X-44329Y10481D01*
X-44935Y9759D01*
Y8816D01*
X-44329Y8094D01*
X-43401Y7931D01*
X-42585Y8402D01*
X-42262Y9288D01*
X-160317Y56410D02*
X-160639Y57296D01*
X-161455Y57767D01*
X-162383Y57603D01*
X-162989Y56881D01*
Y55939D01*
X-162383Y55217D01*
X-161455Y55053D01*
X-160639Y55524D01*
X-160317Y56410D01*
X36937Y15500D02*
X36614Y16385D01*
X35798Y16857D01*
X34870Y16693D01*
X34264Y15971D01*
Y15028D01*
X34870Y14306D01*
X35798Y14143D01*
X36614Y14614D01*
X36937Y15500D01*
X-7969Y36801D02*
X-4031D01*
X-6000Y34833D02*
Y38770D01*
X-46500Y82032D02*
Y85969D01*
X-48469Y84000D02*
X-44532D01*
X38791Y59580D02*
X42728D01*
X40759Y57612D02*
Y61549D01*
X-91969Y91500D02*
X-88032D01*
X-90000Y89531D02*
Y93468D01*
X-161695Y8385D02*
Y12322D01*
X-163663Y10354D02*
X-159726Y10354D01*
X-43640Y-281D02*
Y3656D01*
X-45609Y1688D02*
X-41672D01*
X-43640Y-7981D02*
Y-4044D01*
X-45609Y-6012D02*
X-41672D01*
X-45609Y9288D02*
X-41672D01*
X-43640Y7319D02*
Y11256D01*
X-161695Y54441D02*
Y58378D01*
X-163663Y56410D02*
X-159726D01*
X35559Y13531D02*
Y17468D01*
X33590Y15500D02*
X37527D01*
X50413Y26264D02*
X51988D01*
X64587D01*
Y26658D01*
Y46736D01*
X50413D02*
X64587D01*
X50413Y26264D02*
Y46736D01*
G54D78*
X38265Y88299D02*
X38464Y88099D01*
M02*
